<svg width="20" height="20" viewBox="0 0 20 20" fill="none" xmlns="http://www.w3.org/2000/svg">
<path d="M10.5 4C15.8125 4 19 10 19 10C19 10 15.8125 16 10.5 16C5.1875 16 2 10 2 10C2 10 5.1875 4 10.5 4ZM10.5 5.09091C6.76 5.09091 4.12287 8.63745 3.24844 10C4.12181 11.3615 6.75894 14.9091 10.5 14.9091C14.24 14.9091 16.8771 11.3625 17.7516 10C16.8782 8.63855 14.2411 5.09091 10.5 5.09091ZM10.5 6.18182C11.4863 6.18182 12.4322 6.58409 13.1296 7.30014C13.827 8.01619 14.2188 8.98736 14.2188 10C14.2188 11.0126 13.827 11.9838 13.1296 12.6999C12.4322 13.4159 11.4863 13.8182 10.5 13.8182C9.51373 13.8182 8.56785 13.4159 7.87045 12.6999C7.17305 11.9838 6.78125 11.0126 6.78125 10C6.78125 8.98736 7.17305 8.01619 7.87045 7.30014C8.56785 6.58409 9.51373 6.18182 10.5 6.18182ZM10.5 7.27273C9.79578 7.27359 9.12064 7.56121 8.62268 8.07248C8.12472 8.58376 7.84459 9.27695 7.84375 10C7.84375 11.5033 9.03481 12.7273 10.5 12.7273C11.9652 12.7273 13.1562 11.5033 13.1562 10C13.1562 8.49673 11.9652 7.27273 10.5 7.27273Z" fill="#0F0F0F"/>
</svg>
