<svg width="20" height="20" viewBox="0 0 20 20" fill="none" xmlns="http://www.w3.org/2000/svg">
<path fill-rule="evenodd" clip-rule="evenodd" d="M8.95801 3.75C8.61301 3.75 8.33301 4.03 8.33301 4.375V5H10.833V4.375C10.833 4.03 10.553 3.75 10.208 3.75H8.95801ZM12.083 5V4.375C12.083 3.33937 11.2436 2.5 10.208 2.5H8.95801C7.92238 2.5 7.08301 3.33937 7.08301 4.375V5H3.95801C3.61301 5 3.33301 5.28 3.33301 5.625C3.33301 5.97 3.61301 6.25 3.95801 6.25H4.02363L5.08801 15.8319C5.19363 16.7819 5.99613 17.5 6.95176 17.5H12.2143C13.1699 17.5 13.9724 16.7819 14.0774 15.8319L15.1424 6.25H15.208C15.553 6.25 15.833 5.97 15.833 5.625C15.833 5.28 15.553 5 15.208 5H12.083ZM13.8849 6.25H5.28113L6.33051 15.6938C6.36613 16.0106 6.63363 16.25 6.95176 16.25H12.2143C12.5324 16.25 12.7999 16.0106 12.8355 15.6938L13.8849 6.25ZM8.33301 8.125C8.67801 8.125 8.95801 8.405 8.95801 8.75V13.75C8.95801 14.095 8.67801 14.375 8.33301 14.375C7.98801 14.375 7.70801 14.095 7.70801 13.75V8.75C7.70801 8.405 7.98801 8.125 8.33301 8.125ZM10.833 8.125C11.178 8.125 11.458 8.405 11.458 8.75V13.75C11.458 14.095 11.178 14.375 10.833 14.375C10.488 14.375 10.208 14.095 10.208 13.75V8.75C10.208 8.405 10.488 8.125 10.833 8.125Z" fill="#0F0F0F"/>
</svg>
