<svg width="74" height="74" viewBox="0 0 74 74" fill="none" xmlns="http://www.w3.org/2000/svg">
<path fill-rule="evenodd" clip-rule="evenodd" d="M13.7676 25.5554H15.2827C15.2904 25.4923 15.3004 25.4293 15.3129 25.3666C15.4103 24.8771 15.6506 24.4274 16.0035 24.0745C16.3565 23.7216 16.8061 23.4812 17.2956 23.3839C17.7851 23.2865 18.2925 23.3365 18.7536 23.5275C19.2148 23.7185 19.6089 24.0419 19.8862 24.4569C20.1069 24.7872 20.2457 25.1638 20.2931 25.5554H21.7939C21.7686 25.2074 21.698 24.8615 21.5817 24.5267C21.253 23.5806 20.5833 22.7911 19.7035 22.3125C18.8237 21.8339 17.797 21.7006 16.8242 21.9387C15.8513 22.1768 15.0022 22.7692 14.4429 23.6C14.0484 24.186 13.8181 24.8609 13.7676 25.5554ZM34.8795 25.5554H36.5006C35.9947 24.2452 35.4083 22.2927 35.1938 19.9165H33.6646C33.8545 22.2125 34.375 24.1434 34.8795 25.5554ZM24.6027 19.9165H20.5651C21.0645 20.2072 21.6249 20.3891 22.2097 20.4439C23.0467 20.5223 23.883 20.3356 24.6027 19.9165ZM63.3415 19.9165H61.7713C61.754 19.9606 61.7363 20.0037 61.7182 20.0458C61.433 20.7037 61.0238 21.3004 60.5128 21.8034C60.4783 21.8307 60.4463 21.8612 60.4174 21.8944C59.6037 22.6705 58.6354 23.1648 57.8491 23.2602C57.6588 23.2807 57.4837 23.3737 57.3602 23.5198C57.2367 23.666 57.1742 23.8541 57.1857 24.0451C57.1973 24.2362 57.2819 24.4154 57.4221 24.5457C57.5624 24.6759 57.7474 24.7471 57.9387 24.7446C57.9686 24.7467 57.9985 24.7467 58.0283 24.7446C59.1427 24.6101 60.3134 23.9973 61.2861 23.1186C62.2061 23.0752 65.4914 23.1107 67.2336 25.5554H68.9706C67.458 22.5566 64.427 21.8164 62.5377 21.6574C62.7518 21.3336 62.9361 20.9911 63.0884 20.6341C63.1893 20.3964 63.2737 20.1569 63.3415 19.9165ZM38.2451 25.5554C38.9937 23.8464 39.7544 22.876 39.7697 22.857C39.8779 22.7024 39.9233 22.5125 39.8969 22.3257C39.8704 22.1389 39.774 21.9691 39.6271 21.8507C39.4802 21.7323 39.2938 21.674 39.1057 21.6878C38.9175 21.7015 38.7416 21.7862 38.6134 21.9248C38.5386 22.0179 37.5152 23.3161 36.6273 25.5554H38.2451Z" fill="white"/>
<path fill-rule="evenodd" clip-rule="evenodd" d="M68.1964 36.8335H65.6596C66.369 37.1794 68.8497 38.6539 69.3526 42.4724H70.8566C70.5432 39.6986 69.3309 37.919 68.1964 36.8335ZM36.2051 42.4724H37.7802C38.0362 41.7637 38.2987 41.2605 38.509 40.9252C39.2496 41.604 40.1155 42.1292 41.0564 42.4724H42.2236C42.3581 42.3546 42.4458 42.1923 42.4705 42.0152C42.4953 41.8377 42.4551 41.6571 42.3574 41.5067C42.2598 41.3564 42.1111 41.2464 41.9387 41.1969C40.825 40.8609 39.8227 40.2302 39.038 39.3715C39.0244 39.3485 39.0089 39.3268 38.9917 39.3064C38.9691 39.2828 38.9449 39.2606 38.9195 39.2399C38.5131 38.7752 38.1664 38.2615 37.8875 37.7108C37.8626 37.6267 37.8235 37.5476 37.7719 37.4767C37.6762 37.2732 37.5854 37.059 37.5005 36.8335H35.9459C35.9817 36.9462 36.019 37.0584 36.0578 37.1702H14.7669C14.7513 37.0568 14.731 36.9444 14.7061 36.8335H13.1584C13.2619 37.1128 13.3158 37.4098 13.3158 37.7108C13.3146 38.3796 13.0483 39.0206 12.5753 39.4934C12.1022 39.9662 11.461 40.2321 10.7922 40.2329V40.2343C10.2931 40.2343 9.80524 40.0863 9.39025 39.809C8.97526 39.5317 8.65182 39.1376 8.46082 38.6765C8.26982 38.2154 8.21985 37.708 8.31722 37.2185C8.34339 37.0869 8.37989 36.9582 8.42613 36.8335H6.8858C6.83625 37.0538 6.80511 37.2791 6.79337 37.5074C6.78984 37.5761 6.78809 37.6448 6.78809 37.7133C6.78809 38.6383 7.10831 39.5374 7.69784 40.2557C8.33102 41.0272 9.2293 41.5348 10.2169 41.679C11.2045 41.8231 12.2104 41.5936 13.0378 41.0354C13.8651 40.4771 14.4544 39.6302 14.6903 38.6604H36.7255C36.9444 39.0563 37.1922 39.4355 37.4669 39.7949C37.1173 40.2865 36.6297 41.1363 36.2051 42.4724ZM57.4014 42.4724H59.2079C58.5081 41.11 57.2915 40.4379 56.5523 40.2531C56.3606 40.2037 56.1572 40.2324 55.9867 40.3329C55.8162 40.4335 55.6926 40.5976 55.6432 40.7893C55.5937 40.981 55.6224 41.1844 55.723 41.3549C55.8236 41.5254 55.9877 41.649 56.1794 41.6984C56.2251 41.7106 56.8487 41.8887 57.4014 42.4724Z" fill="white"/>
<path fill-rule="evenodd" clip-rule="evenodd" d="M64.6511 53.75H62.0613C62.0972 53.8005 62.1325 53.8513 62.1674 53.9025C62.1709 53.908 62.1747 53.9133 62.1789 53.9184C63.3141 55.5977 63.754 57.4883 63.4662 59.3889H64.9748C65.2167 57.5237 64.8693 55.6729 63.9538 53.9719C64.1654 53.9131 64.3999 53.8403 64.6511 53.75ZM37.2235 59.3889H39.0704C41.7347 56.3549 46.9654 56.9583 47.2431 56.9926C47.439 57.0173 47.6366 56.9632 47.7926 56.8422C47.9486 56.7211 48.0501 56.5431 48.0749 56.3472C48.0996 56.1513 48.0455 55.9537 47.9245 55.7977C47.8034 55.6417 47.6254 55.5402 47.4295 55.5154C45.422 55.2611 42.2958 55.4432 39.8272 56.8914C39.7537 56.8466 39.673 56.8148 39.5887 56.7974C39.568 56.7974 38.1437 56.4153 37.336 53.75H35.7918C35.9511 54.3557 36.1408 54.8807 36.3483 55.3362H32.3014C32.164 55.3363 32.0293 55.3744 31.9122 55.4464C31.7951 55.5183 31.7002 55.6212 31.638 55.7438L29.7826 59.3889H31.461L32.7654 56.8263H37.2574C37.5931 57.2485 37.9989 57.6098 38.457 57.8944C37.9924 58.3227 37.5752 58.8181 37.2235 59.3889ZM18.012 59.3889H18.8591C18.5957 59.3609 18.3286 59.3589 18.0613 59.384C18.0449 59.3855 18.0284 59.3871 18.012 59.3889ZM22.8459 53.75H21.2815C21.1557 54.0636 20.967 54.3517 20.7235 54.5952C20.2507 55.0681 19.6096 55.334 18.941 55.3348C18.4417 55.3351 17.9536 55.1873 17.5384 54.9101C17.1232 54.6329 16.7996 54.2388 16.6084 53.7776C16.6046 53.7684 16.6008 53.7592 16.5971 53.75H15.0039C15.0153 53.7989 15.0277 53.8478 15.041 53.8964C15.3058 54.864 15.9221 55.6979 16.7694 56.2349C17.6168 56.7719 18.634 56.9733 19.622 56.7996C20.61 56.626 21.4976 56.0898 22.111 55.296C22.4669 54.8355 22.7157 54.3074 22.8459 53.75Z" fill="white"/>
<path fill-rule="evenodd" clip-rule="evenodd" d="M67.3062 25.7217C69.2935 29.9276 67.1356 33.947 65.2755 35.8996C65.624 36.1263 66.0323 36.4324 66.4513 36.8333H63.9144C63.8144 36.7845 63.7495 36.7582 63.7305 36.7509C63.6081 36.7021 63.5008 36.6219 63.4195 36.5182C63.3382 36.4146 63.2857 36.2913 63.2673 36.1609C63.249 36.0305 63.2655 35.8975 63.3151 35.7755C63.3647 35.6534 63.4456 35.5467 63.5498 35.466C64.5904 34.6697 68.0534 30.789 65.9591 26.3606C65.82 26.0668 65.6617 25.7992 65.4881 25.5555H67.225C67.2526 25.6102 67.2796 25.6656 67.3062 25.7217ZM67.6075 42.4722H69.1114C69.1901 43.1689 69.2121 43.9282 69.1619 44.7551C68.7911 50.7101 65.1714 52.9359 62.9058 53.75H60.4138C60.4496 53.8004 60.485 53.8513 60.5199 53.9024C60.5233 53.908 60.5272 53.9133 60.5314 53.9184C61.6665 55.5977 62.1065 57.4882 61.8187 59.3889H63.2296C63.1056 60.3446 62.827 61.3041 62.3907 62.2491C59.0477 69.4945 51.3355 67.9552 49.0938 67.3265C47.673 69.6549 45.1206 70.6666 42.5899 70.6666C41.642 70.6664 40.6995 70.5251 39.7932 70.2475C35.9993 69.071 33.8819 66.0026 34.4094 62.4226C34.7057 60.4194 35.5642 58.9524 36.7118 57.8944C36.2536 57.6098 35.8478 57.2485 35.5122 56.8263H35.6099C35.9456 57.2485 36.3514 57.6098 36.8095 57.8944C36.3449 58.3227 35.9277 58.818 35.576 59.3889H37.3252C36.6194 60.1925 36.0938 61.2514 35.888 62.6437C35.3835 66.059 37.9157 68.1041 40.2369 68.8267C43.0466 69.6968 46.6368 69.0435 48.0618 66.1124C48.1431 65.9467 48.2829 65.8169 48.4543 65.7483C48.6258 65.6797 48.8165 65.6771 48.9897 65.741C49.3424 65.8696 57.7021 68.8557 61.0393 61.6291C62.2476 59.0116 62.0163 56.2598 60.4337 53.9184L60.4284 53.9115C60.4276 53.9106 60.4269 53.9096 60.4262 53.9086C60.4248 53.9066 60.4235 53.9045 60.4221 53.9024C60.1956 53.5699 59.948 53.2522 59.6807 52.9514C58.5499 51.674 57.1087 50.7098 55.4965 50.1519C55.4391 50.1411 55.3833 50.1231 55.3303 50.0984C53.8272 49.62 52.2749 49.5607 50.912 50.003C50.7242 50.0639 50.5198 50.0478 50.3439 49.9581C50.168 49.8683 50.0349 49.7124 49.974 49.5246C49.913 49.3368 49.9292 49.1324 50.0189 48.9565C50.1086 48.7806 50.2646 48.6475 50.4524 48.5866C51.9786 48.0908 53.6942 48.1111 55.3664 48.5678C56.18 47.432 56.5836 46.0535 56.5111 44.6582C56.4671 43.6145 56.0828 42.9226 55.6563 42.4722H57.4627C57.759 43.0489 57.9627 43.7493 57.9984 44.5889C58.0721 46.1681 57.6595 47.732 56.8161 49.0693C58.3334 49.7312 59.6886 50.715 60.7878 51.9527C60.9892 52.182 61.179 52.4143 61.3573 52.6494C62.7578 52.3791 67.2744 51.0147 67.6718 44.6553V44.6655C67.7222 43.8604 67.6943 43.1314 67.6075 42.4722ZM44.1783 56.9217C44.9149 56.9242 45.4169 56.9825 45.4978 56.9925C45.5453 56.9985 45.5929 56.9999 45.64 56.9968C45.6252 56.9958 45.6104 56.9944 45.5956 56.9925C45.5111 56.9821 44.968 56.919 44.1783 56.9217ZM44.1358 55.4192C42.2831 55.4128 40.0186 55.7716 38.1298 56.8635C38.1467 56.8721 38.1634 56.8814 38.1797 56.8914C40.045 55.797 42.2859 55.4256 44.1358 55.4192ZM35.5908 53.75C35.2702 52.6921 35.0468 51.2746 35.0468 49.3786C35.0404 48.1219 35.1216 46.8663 35.2896 45.6208C35.3552 45.5277 35.3986 45.4208 35.4164 45.3083C35.4342 45.1958 35.4259 45.0807 35.3922 44.9719C35.5707 43.9461 35.8001 43.1226 36.035 42.4722H34.4599C34.2791 43.0414 34.1096 43.6988 33.9671 44.4544H22.2457C22.1242 44.4553 22.0048 44.4858 21.8977 44.5432C21.7907 44.6006 21.6993 44.6833 21.6314 44.784L18.6685 49.0924C17.7364 48.7215 16.6995 48.7119 15.7607 49.0654C14.8219 49.4189 14.0489 50.1101 13.593 51.0037C13.137 51.8972 13.0311 52.9288 13.2958 53.8964C13.5605 54.864 14.1769 55.6979 15.0242 56.2349C15.6868 56.6548 16.4534 56.8695 17.2286 56.8601C16.4868 56.8511 15.7567 56.6372 15.1219 56.2349C14.2746 55.6979 13.6582 54.864 13.3935 53.8964C13.3802 53.8477 13.3678 53.7989 13.3564 53.75H14.8519C14.67 53.2962 14.6238 52.7992 14.7192 52.3193C14.8165 51.8296 15.0569 51.3798 15.4099 51.0268C15.7629 50.6738 16.2127 50.4335 16.7023 50.3361C17.192 50.2388 17.6995 50.2889 18.1607 50.4801C18.6218 50.6713 19.0159 50.9949 19.2931 51.4101C19.5703 51.8254 19.7181 52.3135 19.7178 52.8127C19.717 53.4813 19.4511 54.1224 18.9783 54.5952C18.5165 55.057 17.8942 55.3215 17.2425 55.3343C17.2595 55.3346 17.2764 55.3348 17.2935 55.3348C17.9621 55.334 18.6032 55.068 19.076 54.5952C19.3195 54.3517 19.5082 54.0635 19.634 53.75H21.1007C21.195 53.3467 21.2272 52.928 21.1932 52.5082C21.1121 51.5084 20.6607 50.5748 19.9274 49.8903L22.6373 45.9402H33.7417C33.6114 47.0807 33.5482 48.2278 33.5523 49.3757C33.5523 52.1218 34.0033 54.0195 34.6031 55.3362H34.7008C34.4933 54.8807 34.3036 54.3556 34.1442 53.75H35.5908ZM30.6539 55.3362H30.5562C30.4188 55.3363 30.2841 55.3744 30.167 55.4463C30.0499 55.5183 29.955 55.6212 29.8928 55.7438L26.385 62.635H20.6341C20.4486 61.6527 19.9031 60.775 19.1044 60.1737C18.5202 59.7338 17.8313 59.465 17.1138 59.3889H16.3645C16.3809 59.3871 16.3974 59.3855 16.4138 59.3839C16.5224 59.3738 16.6309 59.3681 16.7392 59.3667C16.5986 59.365 16.4573 59.3707 16.3161 59.3839C15.3207 59.4771 14.396 59.9384 13.7229 60.6775C13.0497 61.4167 12.6766 62.3804 12.6766 63.3801C12.6766 64.3798 13.0497 65.3435 13.7229 66.0826C14.396 66.8217 15.3207 67.283 16.3161 67.3762C17.3115 67.4694 18.3058 67.1878 19.1044 66.5865C19.9031 65.9852 20.4486 65.1075 20.6341 64.1251H26.849C26.9864 64.1251 27.1211 64.087 27.2382 64.015C27.3553 63.9431 27.4502 63.8401 27.5124 63.7176L29.7158 59.3889H28.1351L29.9905 55.7438C30.0527 55.6212 30.1476 55.5183 30.2647 55.4463C30.3818 55.3744 30.5165 55.3363 30.6539 55.3362ZM6.68095 36.8333H5.14062C5.30748 36.0917 5.6831 35.4078 6.22971 34.8661C6.93867 34.1636 7.88426 33.7509 8.88145 33.7087C9.87865 33.6665 10.8557 33.998 11.6214 34.6381C12.2993 35.2049 12.7684 35.9774 12.9609 36.8333H11.4132C11.4192 36.8497 11.4251 36.8661 11.4309 36.8826C11.3608 36.681 11.2651 36.488 11.1453 36.3086C10.868 35.8936 10.4739 35.5702 10.0128 35.3792C9.55166 35.1882 9.04427 35.1382 8.55475 35.2356C8.06524 35.333 7.61559 35.5733 7.26267 35.9262C7.00461 36.1843 6.80675 36.494 6.68095 36.8333ZM33.5581 32.4901C33.5375 33.9702 33.7567 35.443 34.2066 36.8516L34.2007 36.8333H35.7553C35.3266 35.6959 35.0468 34.2719 35.0468 32.4916C35.0468 29.6057 35.7674 27.2273 36.4996 25.5555H34.8817C34.8606 25.609 34.8394 25.6629 34.8184 25.7174C34.7975 25.6646 34.7763 25.6106 34.7551 25.5555H33.1339C33.1204 25.5177 33.1069 25.4796 33.0934 25.441C33.5017 26.6049 33.9055 27.4323 34.1218 27.842C33.8904 28.7584 33.7276 29.6908 33.6347 30.6315H26.6871L19.7352 27.4287C19.9895 26.8336 20.0945 26.191 20.0484 25.5555H18.5476C18.5448 25.5329 18.5418 25.5103 18.5384 25.4878C18.5566 25.6102 18.5659 25.7343 18.5659 25.8591C18.5651 26.5281 18.299 27.1695 17.8259 27.6426C17.3528 28.1157 16.7114 28.3818 16.0424 28.3826C15.5433 28.3826 15.0554 28.2346 14.6404 27.9573C14.2254 27.68 13.902 27.2859 13.711 26.8248C13.5444 26.4227 13.4851 25.9854 13.5372 25.5555H12.022L12.0248 25.5195C12.0248 25.5193 12.0248 25.5191 12.0248 25.519L12.0248 25.5195L12.0248 25.5195C12.0001 25.8215 12.0094 26.1274 12.0541 26.4316C12.1995 27.4225 12.7093 28.3236 13.4838 28.9587C14.2583 29.5938 15.2418 29.9172 16.242 29.8657C17.2423 29.8142 18.1873 29.3915 18.8925 28.6803L26.213 32.0522C26.3105 32.0972 26.4165 32.1203 26.5238 32.1201H33.5581V32.4901ZM39.3112 42.4722H40.4784C40.4881 42.4637 40.4976 42.4549 40.5069 42.446C40.4973 42.4553 40.4874 42.4643 40.4773 42.4731C40.3422 42.591 40.1691 42.6561 39.9898 42.6565C39.9203 42.6569 39.8512 42.6472 39.7845 42.6276C39.6248 42.5808 39.467 42.529 39.3112 42.4722ZM61.596 19.9167C62.0859 18.1809 61.7164 16.393 60.5219 14.8125C58.1689 11.6964 54.2926 12.3555 51.9613 13.1504C53.3213 9.01104 50.6186 5.31538 48.0589 3.91487C46.5717 3.09827 43.0668 2.39585 39.5186 3.81081C37.3289 4.67799 34.4036 6.70143 32.9034 11.3842C32.4512 12.7896 32.1413 14.2369 31.9784 15.7043H24.7807C24.5952 14.7223 24.0498 13.845 23.2515 13.244C22.4531 12.6429 21.4591 12.3614 20.4642 12.4546C19.4692 12.5478 18.5448 13.009 17.872 13.7478C17.1991 14.4867 16.8261 15.45 16.8261 16.4493C16.8261 17.4487 17.1991 18.412 17.872 19.1509C18.1493 19.4554 18.4694 19.7128 18.8196 19.9167H22.8571C22.993 19.8376 23.1247 19.7502 23.2515 19.6547C24.0498 19.0537 24.5952 18.1763 24.7807 17.1944H31.8628C31.8231 18.1476 31.8479 19.0577 31.919 19.9167H33.4482C33.2362 17.5686 33.3875 14.8069 34.3386 11.8424C35.4009 8.52975 37.3347 6.29385 40.088 5.19397C42.9787 4.03772 46.076 4.51612 47.3609 5.21999C49.578 6.44272 51.9526 9.7944 50.263 13.4207C50.1443 13.678 49.9959 13.9205 49.8208 14.1433C49.802 14.165 49.7846 14.1882 49.7673 14.2113C48.7556 15.4485 47.0689 15.8286 45.6771 15.619C44.4818 15.4326 43.0365 14.7215 42.8327 13.2906C42.8197 13.1933 42.7877 13.0995 42.7383 13.0146C42.6889 12.9297 42.6233 12.8555 42.5451 12.7961C42.4669 12.7367 42.3777 12.6934 42.2827 12.6686C42.1877 12.6438 42.0888 12.6381 41.9915 12.6517C41.8943 12.6653 41.8007 12.6981 41.7162 12.748C41.6317 12.798 41.5579 12.8642 41.499 12.9427C41.4402 13.0213 41.3975 13.1108 41.3733 13.206C41.3492 13.3012 41.3442 13.4002 41.3585 13.4973C41.6157 15.3415 43.2215 16.7492 45.4502 17.0831C47.2712 17.3606 49.4739 16.8504 50.8571 15.2187C51.7358 14.7851 56.8696 12.4451 59.3338 15.7101C60.5929 17.3722 60.4236 18.9016 60.0257 19.9167H61.596ZM19.442 18.547C19.8574 18.8245 20.3457 18.9724 20.8452 18.9721C21.5127 18.971 22.1527 18.7057 22.6252 18.2342C23.0978 17.7627 23.3645 17.1234 23.3672 16.4558C23.3687 15.9564 23.2218 15.4677 22.9453 15.0517C22.6689 14.6358 22.2752 14.3112 21.8141 14.1191C21.353 13.9271 20.8453 13.8762 20.3553 13.9728C19.8653 14.0695 19.415 14.3094 19.0614 14.6622C18.7078 15.015 18.4668 15.4647 18.369 15.9545C18.2712 16.4443 18.321 16.9521 18.512 17.4137C18.703 17.8752 19.0267 18.2696 19.442 18.547ZM15.2834 65.476C15.6984 65.7534 16.1864 65.9014 16.6855 65.9014V65.9058C17.3551 65.905 17.9969 65.6385 18.4701 65.1648C18.9433 64.6911 19.2091 64.0489 19.2091 63.3794C19.2093 62.8802 19.0616 62.3922 18.7845 61.977C18.5074 61.5618 18.1133 61.2381 17.6523 61.0469C17.1912 60.8557 16.6837 60.8055 16.1941 60.9027C15.7045 60.9999 15.2547 61.2402 14.9017 61.593C14.5486 61.9459 14.3081 62.3955 14.2106 62.8851C14.1131 63.3746 14.163 63.8821 14.354 64.3433C14.5449 64.8045 14.8684 65.1987 15.2834 65.476Z" fill="white"/>
<path fill-rule="evenodd" clip-rule="evenodd" d="M12.1201 25.5554H13.6353C13.6429 25.4923 13.653 25.4293 13.6655 25.3666C13.7628 24.8771 14.0032 24.4274 14.3561 24.0745C14.709 23.7216 15.1586 23.4812 15.6482 23.3839C16.1377 23.2865 16.6451 23.3365 17.1062 23.5275C17.5673 23.7185 17.9614 24.0419 18.2387 24.4569C18.4594 24.7872 18.5982 25.1638 18.6457 25.5554H20.1465C20.1212 25.2074 20.0505 24.8615 19.9342 24.5267C19.6056 23.5806 18.9359 22.7911 18.0561 22.3125C17.1763 21.8339 16.1496 21.7006 15.1767 21.9387C14.2039 22.1768 13.3548 22.7692 12.7954 23.6C12.401 24.186 12.1706 24.8609 12.1201 25.5554ZM33.232 25.5554H34.8532C34.3473 24.2452 33.7608 22.2927 33.5463 19.9165H32.0171C32.2071 22.2125 32.7276 24.1434 33.232 25.5554ZM22.9552 19.9165H18.9177C19.417 20.2072 19.9774 20.3891 20.5623 20.4439C21.3992 20.5223 22.2355 20.3356 22.9552 19.9165ZM61.6941 19.9165H60.1238C60.1065 19.9606 60.0888 20.0037 60.0708 20.0458C59.7856 20.7037 59.3763 21.3004 58.8654 21.8034C58.8308 21.8307 58.7989 21.8612 58.77 21.8944C57.9563 22.6705 56.9879 23.1648 56.2017 23.2602C56.0114 23.2807 55.8363 23.3737 55.7128 23.5198C55.5892 23.666 55.5267 23.8541 55.5383 24.0451C55.5498 24.2362 55.6345 24.4154 55.7747 24.5457C55.9149 24.6759 56.0999 24.7471 56.2913 24.7446C56.3211 24.7467 56.351 24.7467 56.3809 24.7446C57.4952 24.6101 58.6659 23.9973 59.6386 23.1186C60.5586 23.0752 63.844 23.1107 65.5862 25.5554H67.3231C65.8105 22.5566 62.7795 21.8164 60.8902 21.6574C61.1043 21.3336 61.2886 20.9911 61.4409 20.6341C61.5418 20.3964 61.6262 20.1569 61.6941 19.9165ZM36.5977 25.5554C37.3462 23.8464 38.1069 22.876 38.1222 22.857C38.2304 22.7024 38.2759 22.5125 38.2494 22.3257C38.2229 22.1389 38.1265 21.9691 37.9796 21.8507C37.8327 21.7323 37.6464 21.674 37.4582 21.6878C37.27 21.7015 37.0941 21.7862 36.966 21.9248C36.8912 22.0179 35.8678 23.3161 34.9798 25.5554H36.5977Z" fill="white"/>
<path fill-rule="evenodd" clip-rule="evenodd" d="M66.549 36.8335H64.0121C64.7215 37.1794 67.2022 38.6539 67.7052 42.4724H69.2091C68.8957 39.6986 67.6834 37.919 66.549 36.8335ZM34.5577 42.4724H36.1328C36.3887 41.7637 36.6513 41.2605 36.8615 40.9252C37.6022 41.604 38.4681 42.1292 39.4089 42.4724H40.5761C40.7107 42.3546 40.7983 42.1923 40.823 42.0152C40.8478 41.8377 40.8077 41.6571 40.71 41.5067C40.6123 41.3564 40.4636 41.2464 40.2913 41.1969C39.1775 40.8609 38.1753 40.2302 37.3905 39.3715C37.3769 39.3485 37.3614 39.3268 37.3443 39.3064C37.3216 39.2828 37.2975 39.2606 37.272 39.2399C36.8656 38.7752 36.519 38.2615 36.2401 37.7108C36.2151 37.6267 36.176 37.5476 36.1244 37.4767C36.0288 37.2732 35.938 37.059 35.853 36.8335H34.2984C34.3343 36.9462 34.3715 37.0584 34.4103 37.1702H13.1194C13.1039 37.0568 13.0836 36.9444 13.0586 36.8335H11.5109C11.6145 37.1128 11.6683 37.4098 11.6683 37.7108C11.6672 38.3796 11.4009 39.0206 10.9278 39.4934C10.4548 39.9662 9.81358 40.2321 9.14478 40.2329V40.2343C8.64568 40.2343 8.15778 40.0863 7.74279 39.809C7.3278 39.5317 7.00436 39.1376 6.81336 38.6765C6.62236 38.2154 6.57238 37.708 6.66976 37.2185C6.69593 37.0869 6.73243 36.9582 6.77867 36.8335H5.23834C5.18879 37.0538 5.15765 37.2791 5.14591 37.5074C5.14238 37.5761 5.14062 37.6448 5.14062 37.7133C5.14062 38.6383 5.46085 39.5374 6.05038 40.2557C6.68356 41.0272 7.58184 41.5348 8.56946 41.679C9.55707 41.8231 10.563 41.5936 11.3903 41.0354C12.2176 40.4771 12.8069 39.6302 13.0428 38.6604H35.078C35.2969 39.0563 35.5447 39.4355 35.8195 39.7949C35.4698 40.2865 34.9822 41.1363 34.5577 42.4724ZM55.754 42.4724H57.5605C56.8606 41.11 55.6441 40.4379 54.9048 40.2531C54.7132 40.2037 54.5097 40.2324 54.3392 40.3329C54.1687 40.4335 54.0452 40.5976 53.9957 40.7893C53.9463 40.981 53.975 41.1844 54.0755 41.3549C54.1761 41.5254 54.3403 41.649 54.5319 41.6984C54.5776 41.7106 55.2012 41.8887 55.754 42.4724Z" fill="white"/>
<path fill-rule="evenodd" clip-rule="evenodd" d="M63.0036 53.75H60.4138C60.4497 53.8005 60.4851 53.8513 60.5199 53.9025C60.5234 53.908 60.5273 53.9133 60.5315 53.9184C61.6666 55.5977 62.1065 57.4883 61.8187 59.3889H63.3274C63.5693 57.5237 63.2218 55.6729 62.3063 53.9719C62.5179 53.9131 62.7524 53.8403 63.0036 53.75ZM35.5761 59.3889H37.4229C40.0872 56.3549 45.318 56.9583 45.5956 56.9926C45.7915 57.0173 45.9892 56.9632 46.1452 56.8422C46.3011 56.7211 46.4027 56.5431 46.4274 56.3472C46.4521 56.1513 46.398 55.9537 46.277 55.7977C46.156 55.6417 45.9779 55.5402 45.7821 55.5154C43.7745 55.2611 40.6483 55.4432 38.1797 56.8914C38.1062 56.8466 38.0256 56.8148 37.9412 56.7974C37.9205 56.7974 36.4963 56.4153 35.6886 53.75H34.1443C34.3037 54.3557 34.4933 54.8807 34.7008 55.3362H30.654C30.5165 55.3363 30.3818 55.3744 30.2647 55.4464C30.1476 55.5183 30.0528 55.6212 29.9906 55.7438L28.1352 59.3889H29.8135L31.1179 56.8263H35.61C35.9456 57.2485 36.3514 57.6098 36.8096 57.8944C36.345 58.3227 35.9278 58.8181 35.5761 59.3889ZM16.3646 59.3889H17.2116C16.9483 59.3609 16.6811 59.3589 16.4139 59.384C16.3974 59.3855 16.381 59.3871 16.3646 59.3889ZM21.1985 53.75H19.634C19.5082 54.0636 19.3196 54.3517 19.076 54.5952C18.6032 55.0681 17.9622 55.334 17.2935 55.3348C16.7943 55.3351 16.3062 55.1873 15.891 54.9101C15.4758 54.6329 15.1521 54.2388 14.9609 53.7776C14.9571 53.7684 14.9533 53.7592 14.9496 53.75H13.3564C13.3679 53.7989 13.3803 53.8478 13.3936 53.8964C13.6583 54.864 14.2747 55.6979 15.122 56.2349C15.9693 56.7719 16.9865 56.9733 17.9745 56.7996C18.9625 56.626 19.8501 56.0898 20.4636 55.296C20.8195 54.8355 21.0682 54.3074 21.1985 53.75Z" fill="white"/>
<path fill-rule="evenodd" clip-rule="evenodd" d="M65.6587 25.7217C67.646 29.9276 65.4882 33.947 63.628 35.8996C63.9765 36.1263 64.3848 36.4324 64.8038 36.8333H62.2669C62.1669 36.7845 62.1021 36.7582 62.083 36.7509C61.9607 36.7021 61.8534 36.6219 61.772 36.5182C61.6907 36.4146 61.6382 36.2913 61.6199 36.1609C61.6015 36.0305 61.618 35.8975 61.6676 35.7755C61.7172 35.6534 61.7982 35.5467 61.9023 35.466C62.943 34.6697 66.4059 30.789 64.3117 26.3606C64.1726 26.0668 64.0143 25.7992 63.8406 25.5555H65.5775C65.6051 25.6102 65.6322 25.6656 65.6587 25.7217ZM65.96 42.4722H67.464C67.5427 43.1689 67.5647 43.9282 67.5145 44.7551C67.1437 50.7101 63.5239 52.9359 61.2584 53.75H58.7663C58.8022 53.8004 58.8375 53.8513 58.8724 53.9024C58.8759 53.908 58.8798 53.9133 58.884 53.9184C60.0191 55.5977 60.459 57.4882 60.1712 59.3889H61.5821C61.4582 60.3446 61.1795 61.3041 60.7432 62.2491C57.4002 69.4945 49.688 67.9552 47.4463 67.3265C46.0256 69.6549 43.4732 70.6666 40.9424 70.6666C39.9946 70.6664 39.052 70.5251 38.1457 70.2475C34.3518 69.071 32.2344 66.0026 32.7619 62.4226C33.0582 60.4194 33.9168 58.9524 35.0643 57.8944C34.6062 57.6098 34.2004 57.2485 33.8647 56.8263H33.9624C34.2981 57.2485 34.7039 57.6098 35.162 57.8944C34.6975 58.3227 34.2803 58.818 33.9286 59.3889H35.6777C34.972 60.1925 34.4463 61.2514 34.2405 62.6437C33.7361 66.059 36.2683 68.1041 38.5894 68.8267C41.3991 69.6968 44.9893 69.0435 46.4144 66.1124C46.4956 65.9467 46.6355 65.8169 46.8069 65.7483C46.9783 65.6797 47.1691 65.6771 47.3423 65.741C47.6949 65.8696 56.0546 68.8557 59.3918 61.6291C60.6001 59.0116 60.3689 56.2598 58.7862 53.9184L58.7809 53.9115C58.7802 53.9106 58.7795 53.9096 58.7788 53.9086C58.7774 53.9066 58.776 53.9045 58.7747 53.9024C58.5482 53.5699 58.3005 53.2522 58.0332 52.9514C56.9024 51.674 55.4613 50.7098 53.8491 50.1519C53.7916 50.1411 53.7358 50.1231 53.6828 50.0984C52.1797 49.62 50.6275 49.5607 49.2645 50.003C49.0767 50.0639 48.8724 50.0478 48.6964 49.9581C48.5205 49.8683 48.3875 49.7124 48.3265 49.5246C48.2656 49.3368 48.2817 49.1324 48.3715 48.9565C48.4612 48.7806 48.6171 48.6475 48.8049 48.5866C50.3312 48.0908 52.0468 48.1111 53.719 48.5678C54.5326 47.432 54.9362 46.0535 54.8637 44.6582C54.8196 43.6145 54.4353 42.9226 54.0088 42.4722H55.8153C56.1115 43.0489 56.3152 43.7493 56.3509 44.5889C56.4247 46.1681 56.012 47.732 55.1686 49.0693C56.6859 49.7312 58.0411 50.715 59.1404 51.9527C59.3417 52.182 59.5315 52.4143 59.7098 52.6494C61.1103 52.3791 65.6269 51.0147 66.0244 44.6553V44.6655C66.0747 43.8604 66.0468 43.1314 65.96 42.4722ZM42.5308 56.9217C43.2675 56.9242 43.7694 56.9825 43.8504 56.9925C43.8979 56.9985 43.9454 56.9999 43.9925 56.9968C43.9777 56.9958 43.9629 56.9944 43.9481 56.9925C43.8636 56.9821 43.3206 56.919 42.5308 56.9217ZM42.4883 55.4192C40.6357 55.4128 38.3711 55.7716 36.4823 56.8635C36.4993 56.8721 36.5159 56.8814 36.5322 56.8914C38.3976 55.797 40.6384 55.4256 42.4883 55.4192ZM33.9433 53.75C33.6228 52.6921 33.3993 51.2746 33.3993 49.3786C33.393 48.1219 33.4741 46.8663 33.6421 45.6208C33.7078 45.5277 33.7511 45.4208 33.7689 45.3083C33.7867 45.1958 33.7785 45.0807 33.7448 44.9719C33.9232 43.9461 34.1526 43.1226 34.3876 42.4722H32.8125C32.6316 43.0414 32.4622 43.6988 32.3197 44.4544H20.5982C20.4767 44.4553 20.3573 44.4858 20.2503 44.5432C20.1433 44.6006 20.0518 44.6833 19.9839 44.784L17.021 49.0924C16.089 48.7215 15.052 48.7119 14.1133 49.0654C13.1745 49.4189 12.4014 50.1101 11.9455 51.0037C11.4896 51.8972 11.3836 52.9288 11.6483 53.8964C11.9131 54.864 12.5294 55.6979 13.3767 56.2349C14.0394 56.6548 14.8059 56.8695 15.5811 56.8601C14.8394 56.8511 14.1092 56.6372 13.4745 56.2349C12.6271 55.6979 12.0108 54.864 11.7461 53.8964C11.7327 53.8477 11.7204 53.7989 11.7089 53.75H13.2044C13.0226 53.2962 12.9763 52.7992 13.0717 52.3193C13.1691 51.8296 13.4094 51.3798 13.7624 51.0268C14.1154 50.6738 14.5652 50.4335 15.0549 50.3361C15.5445 50.2388 16.052 50.2889 16.5132 50.4801C16.9744 50.6713 17.3685 50.9949 17.6457 51.4101C17.9228 51.8254 18.0706 52.3135 18.0703 52.8127C18.0696 53.4813 17.8036 54.1224 17.3308 54.5952C16.869 55.057 16.2468 55.3215 15.595 55.3343C15.612 55.3346 15.629 55.3348 15.646 55.3348C16.3147 55.334 16.9557 55.068 17.4285 54.5952C17.672 54.3517 17.8607 54.0635 17.9865 53.75H19.4532C19.5475 53.3467 19.5797 52.928 19.5457 52.5082C19.4646 51.5084 19.0132 50.5748 18.2799 49.8903L20.9899 45.9402H32.0942C31.964 47.0807 31.9007 48.2278 31.9049 49.3757C31.9049 52.1218 32.3558 54.0195 32.9556 55.3362H33.0533C32.8458 54.8807 32.6561 54.3556 32.4968 53.75H33.9433ZM29.0065 55.3362H28.9087C28.7713 55.3363 28.6366 55.3744 28.5195 55.4463C28.4024 55.5183 28.3075 55.6212 28.2453 55.7438L24.7376 62.635H18.9867C18.8011 61.6527 18.2556 60.775 17.457 60.1737C16.8727 59.7338 16.1838 59.465 15.4664 59.3889H14.717C14.7335 59.3871 14.7499 59.3855 14.7664 59.3839C14.8749 59.3738 14.9835 59.3681 15.0917 59.3667C14.9511 59.365 14.8099 59.3707 14.6686 59.3839C13.6733 59.4771 12.7485 59.9384 12.0754 60.6775C11.4023 61.4167 11.0292 62.3804 11.0292 63.3801C11.0292 64.3798 11.4023 65.3435 12.0754 66.0826C12.7485 66.8217 13.6733 67.283 14.6686 67.3762C15.664 67.4694 16.6583 67.1878 17.457 66.5865C18.2556 65.9852 18.8011 65.1075 18.9867 64.1251H25.2015C25.3389 64.1251 25.4737 64.087 25.5908 64.015C25.7079 63.9431 25.8027 63.8401 25.8649 63.7176L28.0683 59.3889H26.4876L28.3431 55.7438C28.4052 55.6212 28.5001 55.5183 28.6172 55.4463C28.7343 55.3744 28.869 55.3363 29.0065 55.3362ZM5.03349 36.8333H3.49316C3.66002 36.0917 4.03564 35.4078 4.58225 34.8661C5.29121 34.1636 6.23679 33.7509 7.23399 33.7087C8.23119 33.6665 9.20824 33.998 9.97397 34.6381C10.6518 35.2049 11.1209 35.9774 11.3134 36.8333H9.76571C9.77178 36.8497 9.77768 36.8661 9.78339 36.8826C9.71336 36.681 9.61767 36.488 9.49783 36.3086C9.22054 35.8936 8.82642 35.5702 8.36531 35.3792C7.9042 35.1882 7.3968 35.1382 6.90729 35.2356C6.41778 35.333 5.96813 35.5733 5.61521 35.9262C5.35715 36.1843 5.15928 36.494 5.03349 36.8333ZM31.9107 32.4901C31.89 33.9702 32.1092 35.443 32.5591 36.8516L32.5533 36.8333H34.1078C33.6792 35.6959 33.3993 34.2719 33.3993 32.4916C33.3993 29.6057 34.1199 27.2273 34.8521 25.5555H33.2343C33.2131 25.609 33.192 25.6629 33.171 25.7174C33.15 25.6646 33.1289 25.6106 33.1076 25.5555H31.4865C31.473 25.5177 31.4594 25.4796 31.4459 25.441C31.8542 26.6049 32.2581 27.4323 32.4743 27.842C32.2429 28.7584 32.0801 29.6908 31.9873 30.6315H25.0396L18.0877 27.4287C18.342 26.8336 18.4471 26.191 18.4009 25.5555H16.9001C16.8974 25.5329 16.8943 25.5103 16.891 25.4878C16.9092 25.6102 16.9184 25.7343 16.9184 25.8591C16.9177 26.5281 16.6516 27.1695 16.1785 27.6426C15.7054 28.1157 15.064 28.3818 14.3949 28.3826C13.8958 28.3826 13.4079 28.2346 12.9929 27.9573C12.5779 27.68 12.2545 27.2859 12.0635 26.8248C11.897 26.4227 11.8376 25.9854 11.8897 25.5555H10.3746L10.3773 25.5195C10.3774 25.5193 10.3774 25.5191 10.3774 25.519L10.3773 25.5195L10.3773 25.5195C10.3527 25.8215 10.362 26.1274 10.4066 26.4316C10.5521 27.4225 11.0619 28.3236 11.8363 28.9587C12.6108 29.5938 13.5943 29.9172 14.5945 29.8657C15.5948 29.8142 16.5399 29.3915 17.2451 28.6803L24.5656 32.0522C24.663 32.0972 24.769 32.1203 24.8763 32.1201H31.9107V32.4901ZM37.6637 42.4722H38.8309C38.8407 42.4637 38.8502 42.4549 38.8594 42.446C38.8498 42.4553 38.84 42.4643 38.8299 42.4731C38.6947 42.591 38.5216 42.6561 38.3423 42.6565C38.2728 42.6569 38.2037 42.6472 38.1371 42.6276C37.9774 42.5808 37.8195 42.529 37.6637 42.4722ZM59.9485 19.9167C60.4384 18.1809 60.069 16.393 58.8744 14.8125C56.5214 11.6964 52.6451 12.3555 50.3138 13.1504C51.6739 9.01104 48.9711 5.31538 46.4115 3.91487C44.9243 3.09827 41.4194 2.39585 37.8711 3.81081C35.6815 4.67799 32.7562 6.70143 31.2559 11.3842C30.8037 12.7896 30.4938 14.2369 30.3309 15.7043H23.1333C22.9477 14.7223 22.4024 13.845 21.604 13.244C20.8056 12.6429 19.8117 12.3614 18.8167 12.4546C17.8217 12.5478 16.8974 13.009 16.2245 13.7478C15.5516 14.4867 15.1787 15.45 15.1787 16.4493C15.1787 17.4487 15.5516 18.412 16.2245 19.1509C16.5019 19.4554 16.8219 19.7128 17.1721 19.9167H21.2097C21.3455 19.8376 21.4772 19.7502 21.604 19.6547C22.4024 19.0537 22.9477 18.1763 23.1333 17.1944H30.2153C30.1757 18.1476 30.2005 19.0577 30.2715 19.9167H31.8007C31.5888 17.5686 31.74 14.8069 32.6911 11.8424C33.7534 8.52975 35.6873 6.29385 38.4406 5.19397C41.3312 4.03772 44.4285 4.51612 45.7134 5.21999C47.9305 6.44272 50.3052 9.7944 48.6156 13.4207C48.4968 13.678 48.3484 13.9205 48.1733 14.1433C48.1545 14.165 48.1372 14.1882 48.1198 14.2113C47.1081 15.4485 45.4214 15.8286 44.0296 15.619C42.8343 15.4326 41.389 14.7215 41.1852 13.2906C41.1723 13.1933 41.1402 13.0995 41.0908 13.0146C41.0415 12.9297 40.9758 12.8555 40.8976 12.7961C40.8194 12.7367 40.7303 12.6934 40.6353 12.6686C40.5403 12.6438 40.4413 12.6381 40.3441 12.6517C40.2468 12.6653 40.1533 12.6981 40.0687 12.748C39.9842 12.798 39.9104 12.8642 39.8516 12.9427C39.7927 13.0213 39.75 13.1108 39.7259 13.206C39.7018 13.3012 39.6967 13.4002 39.711 13.4973C39.9683 15.3415 41.574 16.7492 43.8027 17.0831C45.6238 17.3606 47.8264 16.8504 49.2096 15.2187C50.0884 14.7851 55.2221 12.4451 57.6864 15.7101C58.9455 17.3722 58.7762 18.9016 58.3783 19.9167H59.9485ZM17.7946 18.547C18.2099 18.8245 18.6982 18.9724 19.1977 18.9721C19.8652 18.971 20.5052 18.7057 20.9778 18.2342C21.4503 17.7627 21.7171 17.1234 21.7198 16.4558C21.7212 15.9564 21.5744 15.4677 21.2979 15.0517C21.0214 14.6358 20.6277 14.3112 20.1666 14.1191C19.7056 13.9271 19.1979 13.8762 18.7078 13.9728C18.2178 14.0695 17.7675 14.3094 17.4139 14.6622C17.0603 15.015 16.8194 15.4647 16.7216 15.9545C16.6238 16.4443 16.6735 16.9521 16.8646 17.4137C17.0556 17.8752 17.3792 18.2696 17.7946 18.547ZM13.6359 65.476C14.051 65.7534 14.5389 65.9014 15.0381 65.9014V65.9058C15.7076 65.905 16.3495 65.6385 16.8227 65.1648C17.2958 64.6911 17.5616 64.0489 17.5616 63.3794C17.5619 62.8802 17.4141 62.3922 17.137 61.977C16.8599 61.5618 16.4659 61.2381 16.0048 61.0469C15.5437 60.8557 15.0363 60.8055 14.5467 60.9027C14.057 60.9999 13.6073 61.2402 13.2542 61.593C12.9011 61.9459 12.6606 62.3955 12.5632 62.8851C12.4657 63.3746 12.5156 63.8821 12.7065 64.3433C12.8975 64.8045 13.2209 65.1987 13.6359 65.476Z" fill="white"/>
<path fill-rule="evenodd" clip-rule="evenodd" d="M13.7676 25.5554H15.2827C15.2904 25.4923 15.3004 25.4293 15.3129 25.3666C15.4103 24.8771 15.6506 24.4274 16.0035 24.0745C16.3565 23.7216 16.8061 23.4812 17.2956 23.3839C17.7851 23.2865 18.2925 23.3365 18.7536 23.5275C19.2148 23.7185 19.6089 24.0419 19.8862 24.4569C20.1069 24.7872 20.2457 25.1638 20.2931 25.5554H21.7939C21.7686 25.2074 21.698 24.8615 21.5817 24.5267C21.253 23.5806 20.5833 22.7911 19.7035 22.3125C18.8237 21.8339 17.797 21.7006 16.8242 21.9387C15.8513 22.1768 15.0022 22.7692 14.4429 23.6C14.0484 24.186 13.8181 24.8609 13.7676 25.5554ZM34.8795 25.5554H36.5006C35.9947 24.2452 35.4083 22.2927 35.1938 19.9165H33.6646C33.8545 22.2125 34.375 24.1434 34.8795 25.5554ZM24.6027 19.9165H20.5651C21.0645 20.2072 21.6249 20.3891 22.2097 20.4439C23.0467 20.5223 23.883 20.3356 24.6027 19.9165ZM63.3415 19.9165H61.7713C61.754 19.9606 61.7363 20.0037 61.7182 20.0458C61.433 20.7037 61.0238 21.3004 60.5128 21.8034C60.4783 21.8307 60.4463 21.8612 60.4174 21.8944C59.6037 22.6705 58.6354 23.1648 57.8491 23.2602C57.6588 23.2807 57.4837 23.3737 57.3602 23.5198C57.2367 23.666 57.1742 23.8541 57.1857 24.0451C57.1973 24.2362 57.2819 24.4154 57.4221 24.5457C57.5624 24.6759 57.7474 24.7471 57.9387 24.7446C57.9686 24.7467 57.9985 24.7467 58.0283 24.7446C59.1427 24.6101 60.3134 23.9973 61.2861 23.1186C62.2061 23.0752 65.4914 23.1107 67.2336 25.5554H68.9706C67.458 22.5566 64.427 21.8164 62.5377 21.6574C62.7518 21.3336 62.9361 20.9911 63.0884 20.6341C63.1893 20.3964 63.2737 20.1569 63.3415 19.9165ZM38.2451 25.5554C38.9937 23.8464 39.7544 22.876 39.7697 22.857C39.8779 22.7024 39.9233 22.5125 39.8969 22.3257C39.8704 22.1389 39.774 21.9691 39.6271 21.8507C39.4802 21.7323 39.2938 21.674 39.1057 21.6878C38.9175 21.7015 38.7416 21.7862 38.6134 21.9248C38.5386 22.0179 37.5152 23.3161 36.6273 25.5554H38.2451Z" fill="#FF5ABE" style="mix-blend-mode:multiply"/>
<path fill-rule="evenodd" clip-rule="evenodd" d="M68.1964 36.8335H65.6596C66.369 37.1794 68.8497 38.6539 69.3526 42.4724H70.8566C70.5432 39.6986 69.3309 37.919 68.1964 36.8335ZM36.2051 42.4724H37.7802C38.0362 41.7637 38.2987 41.2605 38.509 40.9252C39.2496 41.604 40.1155 42.1292 41.0564 42.4724H42.2236C42.3581 42.3546 42.4458 42.1923 42.4705 42.0152C42.4953 41.8377 42.4551 41.6571 42.3574 41.5067C42.2598 41.3564 42.1111 41.2464 41.9387 41.1969C40.825 40.8609 39.8227 40.2302 39.038 39.3715C39.0244 39.3485 39.0089 39.3268 38.9917 39.3064C38.9691 39.2828 38.9449 39.2606 38.9195 39.2399C38.5131 38.7752 38.1664 38.2615 37.8875 37.7108C37.8626 37.6267 37.8235 37.5476 37.7719 37.4767C37.6762 37.2732 37.5854 37.059 37.5005 36.8335H35.9459C35.9817 36.9462 36.019 37.0584 36.0578 37.1702H14.7669C14.7513 37.0568 14.731 36.9444 14.7061 36.8335H13.1584C13.2619 37.1128 13.3158 37.4098 13.3158 37.7108C13.3146 38.3796 13.0483 39.0206 12.5753 39.4934C12.1022 39.9662 11.461 40.2321 10.7922 40.2329V40.2343C10.2931 40.2343 9.80524 40.0863 9.39025 39.809C8.97526 39.5317 8.65182 39.1376 8.46082 38.6765C8.26982 38.2154 8.21985 37.708 8.31722 37.2185C8.34339 37.0869 8.37989 36.9582 8.42613 36.8335H6.8858C6.83625 37.0538 6.80511 37.2791 6.79337 37.5074C6.78984 37.5761 6.78809 37.6448 6.78809 37.7133C6.78809 38.6383 7.10831 39.5374 7.69784 40.2557C8.33102 41.0272 9.2293 41.5348 10.2169 41.679C11.2045 41.8231 12.2104 41.5936 13.0378 41.0354C13.8651 40.4771 14.4544 39.6302 14.6903 38.6604H36.7255C36.9444 39.0563 37.1922 39.4355 37.4669 39.7949C37.1173 40.2865 36.6297 41.1363 36.2051 42.4724ZM57.4014 42.4724H59.2079C58.5081 41.11 57.2915 40.4379 56.5523 40.2531C56.3606 40.2037 56.1572 40.2324 55.9867 40.3329C55.8162 40.4335 55.6926 40.5976 55.6432 40.7893C55.5937 40.981 55.6224 41.1844 55.723 41.3549C55.8236 41.5254 55.9877 41.649 56.1794 41.6984C56.2251 41.7106 56.8487 41.8887 57.4014 42.4724Z" fill="#FF5ABE" style="mix-blend-mode:multiply"/>
<path fill-rule="evenodd" clip-rule="evenodd" d="M64.6511 53.75H62.0613C62.0972 53.8005 62.1325 53.8513 62.1674 53.9025C62.1709 53.908 62.1747 53.9133 62.1789 53.9184C63.3141 55.5977 63.754 57.4883 63.4662 59.3889H64.9748C65.2167 57.5237 64.8693 55.6729 63.9538 53.9719C64.1654 53.9131 64.3999 53.8403 64.6511 53.75ZM37.2235 59.3889H39.0704C41.7347 56.3549 46.9654 56.9583 47.2431 56.9926C47.439 57.0173 47.6366 56.9632 47.7926 56.8422C47.9486 56.7211 48.0501 56.5431 48.0749 56.3472C48.0996 56.1513 48.0455 55.9537 47.9245 55.7977C47.8034 55.6417 47.6254 55.5402 47.4295 55.5154C45.422 55.2611 42.2958 55.4432 39.8272 56.8914C39.7537 56.8466 39.673 56.8148 39.5887 56.7974C39.568 56.7974 38.1437 56.4153 37.336 53.75H35.7918C35.9511 54.3557 36.1408 54.8807 36.3483 55.3362H32.3014C32.164 55.3363 32.0293 55.3744 31.9122 55.4464C31.7951 55.5183 31.7002 55.6212 31.638 55.7438L29.7826 59.3889H31.461L32.7654 56.8263H37.2574C37.5931 57.2485 37.9989 57.6098 38.457 57.8944C37.9924 58.3227 37.5752 58.8181 37.2235 59.3889ZM18.012 59.3889H18.8591C18.5957 59.3609 18.3286 59.3589 18.0613 59.384C18.0449 59.3855 18.0284 59.3871 18.012 59.3889ZM22.8459 53.75H21.2815C21.1557 54.0636 20.967 54.3517 20.7235 54.5952C20.2507 55.0681 19.6096 55.334 18.941 55.3348C18.4417 55.3351 17.9536 55.1873 17.5384 54.9101C17.1232 54.6329 16.7996 54.2388 16.6084 53.7776C16.6046 53.7684 16.6008 53.7592 16.5971 53.75H15.0039C15.0153 53.7989 15.0277 53.8478 15.041 53.8964C15.3058 54.864 15.9221 55.6979 16.7694 56.2349C17.6168 56.7719 18.634 56.9733 19.622 56.7996C20.61 56.626 21.4976 56.0898 22.111 55.296C22.4669 54.8355 22.7157 54.3074 22.8459 53.75Z" fill="#FF5ABE" style="mix-blend-mode:multiply"/>
<path fill-rule="evenodd" clip-rule="evenodd" d="M67.3062 25.7217C69.2935 29.9276 67.1356 33.947 65.2755 35.8996C65.624 36.1263 66.0323 36.4324 66.4513 36.8333H63.9144C63.8144 36.7845 63.7495 36.7582 63.7305 36.7509C63.6081 36.7021 63.5008 36.6219 63.4195 36.5182C63.3382 36.4146 63.2857 36.2913 63.2673 36.1609C63.249 36.0305 63.2655 35.8975 63.3151 35.7755C63.3647 35.6534 63.4456 35.5467 63.5498 35.466C64.5904 34.6697 68.0534 30.789 65.9591 26.3606C65.82 26.0668 65.6617 25.7992 65.4881 25.5555H67.225C67.2526 25.6102 67.2796 25.6656 67.3062 25.7217ZM67.6075 42.4722H69.1114C69.1901 43.1689 69.2121 43.9282 69.1619 44.7551C68.7911 50.7101 65.1714 52.9359 62.9058 53.75H60.4138C60.4496 53.8004 60.485 53.8513 60.5199 53.9024C60.5233 53.908 60.5272 53.9133 60.5314 53.9184C61.6665 55.5977 62.1065 57.4882 61.8187 59.3889H63.2296C63.1056 60.3446 62.827 61.3041 62.3907 62.2491C59.0477 69.4945 51.3355 67.9552 49.0938 67.3265C47.673 69.6549 45.1206 70.6666 42.5899 70.6666C41.642 70.6664 40.6995 70.5251 39.7932 70.2475C35.9993 69.071 33.8819 66.0026 34.4094 62.4226C34.7057 60.4194 35.5642 58.9524 36.7118 57.8944C36.2536 57.6098 35.8478 57.2485 35.5122 56.8263H35.6099C35.9456 57.2485 36.3514 57.6098 36.8095 57.8944C36.3449 58.3227 35.9277 58.818 35.576 59.3889H37.3252C36.6194 60.1925 36.0938 61.2514 35.888 62.6437C35.3835 66.059 37.9157 68.1041 40.2369 68.8267C43.0466 69.6968 46.6368 69.0435 48.0618 66.1124C48.1431 65.9467 48.2829 65.8169 48.4543 65.7483C48.6258 65.6797 48.8165 65.6771 48.9897 65.741C49.3424 65.8696 57.7021 68.8557 61.0393 61.6291C62.2476 59.0116 62.0163 56.2598 60.4337 53.9184L60.4284 53.9115C60.4276 53.9106 60.4269 53.9096 60.4262 53.9086C60.4248 53.9066 60.4235 53.9045 60.4221 53.9024C60.1956 53.5699 59.948 53.2522 59.6807 52.9514C58.5499 51.674 57.1087 50.7098 55.4965 50.1519C55.4391 50.1411 55.3833 50.1231 55.3303 50.0984C53.8272 49.62 52.2749 49.5607 50.912 50.003C50.7242 50.0639 50.5198 50.0478 50.3439 49.9581C50.168 49.8683 50.0349 49.7124 49.974 49.5246C49.913 49.3368 49.9292 49.1324 50.0189 48.9565C50.1086 48.7806 50.2646 48.6475 50.4524 48.5866C51.9786 48.0908 53.6942 48.1111 55.3664 48.5678C56.18 47.432 56.5836 46.0535 56.5111 44.6582C56.4671 43.6145 56.0828 42.9226 55.6563 42.4722H57.4627C57.759 43.0489 57.9627 43.7493 57.9984 44.5889C58.0721 46.1681 57.6595 47.732 56.8161 49.0693C58.3334 49.7312 59.6886 50.715 60.7878 51.9527C60.9892 52.182 61.179 52.4143 61.3573 52.6494C62.7578 52.3791 67.2744 51.0147 67.6718 44.6553V44.6655C67.7222 43.8604 67.6943 43.1314 67.6075 42.4722ZM44.1783 56.9217C44.9149 56.9242 45.4169 56.9825 45.4978 56.9925C45.5453 56.9985 45.5929 56.9999 45.64 56.9968C45.6252 56.9958 45.6104 56.9944 45.5956 56.9925C45.5111 56.9821 44.968 56.919 44.1783 56.9217ZM44.1358 55.4192C42.2831 55.4128 40.0186 55.7716 38.1298 56.8635C38.1467 56.8721 38.1634 56.8814 38.1797 56.8914C40.045 55.797 42.2859 55.4256 44.1358 55.4192ZM35.5908 53.75C35.2702 52.6921 35.0468 51.2746 35.0468 49.3786C35.0404 48.1219 35.1216 46.8663 35.2896 45.6208C35.3552 45.5277 35.3986 45.4208 35.4164 45.3083C35.4342 45.1958 35.4259 45.0807 35.3922 44.9719C35.5707 43.9461 35.8001 43.1226 36.035 42.4722H34.4599C34.2791 43.0414 34.1096 43.6988 33.9671 44.4544H22.2457C22.1242 44.4553 22.0048 44.4858 21.8977 44.5432C21.7907 44.6006 21.6993 44.6833 21.6314 44.784L18.6685 49.0924C17.7364 48.7215 16.6995 48.7119 15.7607 49.0654C14.8219 49.4189 14.0489 50.1101 13.593 51.0037C13.137 51.8972 13.0311 52.9288 13.2958 53.8964C13.5605 54.864 14.1769 55.6979 15.0242 56.2349C15.6868 56.6548 16.4534 56.8695 17.2286 56.8601C16.4868 56.8511 15.7567 56.6372 15.1219 56.2349C14.2746 55.6979 13.6582 54.864 13.3935 53.8964C13.3802 53.8477 13.3678 53.7989 13.3564 53.75H14.8519C14.67 53.2962 14.6238 52.7992 14.7192 52.3193C14.8165 51.8296 15.0569 51.3798 15.4099 51.0268C15.7629 50.6738 16.2127 50.4335 16.7023 50.3361C17.192 50.2388 17.6995 50.2889 18.1607 50.4801C18.6218 50.6713 19.0159 50.9949 19.2931 51.4101C19.5703 51.8254 19.7181 52.3135 19.7178 52.8127C19.717 53.4813 19.4511 54.1224 18.9783 54.5952C18.5165 55.057 17.8942 55.3215 17.2425 55.3343C17.2595 55.3346 17.2764 55.3348 17.2935 55.3348C17.9621 55.334 18.6032 55.068 19.076 54.5952C19.3195 54.3517 19.5082 54.0635 19.634 53.75H21.1007C21.195 53.3467 21.2272 52.928 21.1932 52.5082C21.1121 51.5084 20.6607 50.5748 19.9274 49.8903L22.6373 45.9402H33.7417C33.6114 47.0807 33.5482 48.2278 33.5523 49.3757C33.5523 52.1218 34.0033 54.0195 34.6031 55.3362H34.7008C34.4933 54.8807 34.3036 54.3556 34.1442 53.75H35.5908ZM30.6539 55.3362H30.5562C30.4188 55.3363 30.2841 55.3744 30.167 55.4463C30.0499 55.5183 29.955 55.6212 29.8928 55.7438L26.385 62.635H20.6341C20.4486 61.6527 19.9031 60.775 19.1044 60.1737C18.5202 59.7338 17.8313 59.465 17.1138 59.3889H16.3645C16.3809 59.3871 16.3974 59.3855 16.4138 59.3839C16.5224 59.3738 16.6309 59.3681 16.7392 59.3667C16.5986 59.365 16.4573 59.3707 16.3161 59.3839C15.3207 59.4771 14.396 59.9384 13.7229 60.6775C13.0497 61.4167 12.6766 62.3804 12.6766 63.3801C12.6766 64.3798 13.0497 65.3435 13.7229 66.0826C14.396 66.8217 15.3207 67.283 16.3161 67.3762C17.3115 67.4694 18.3058 67.1878 19.1044 66.5865C19.9031 65.9852 20.4486 65.1075 20.6341 64.1251H26.849C26.9864 64.1251 27.1211 64.087 27.2382 64.015C27.3553 63.9431 27.4502 63.8401 27.5124 63.7176L29.7158 59.3889H28.1351L29.9905 55.7438C30.0527 55.6212 30.1476 55.5183 30.2647 55.4463C30.3818 55.3744 30.5165 55.3363 30.6539 55.3362ZM6.68095 36.8333H5.14062C5.30748 36.0917 5.6831 35.4078 6.22971 34.8661C6.93867 34.1636 7.88426 33.7509 8.88145 33.7087C9.87865 33.6665 10.8557 33.998 11.6214 34.6381C12.2993 35.2049 12.7684 35.9774 12.9609 36.8333H11.4132C11.4192 36.8497 11.4251 36.8661 11.4309 36.8826C11.3608 36.681 11.2651 36.488 11.1453 36.3086C10.868 35.8936 10.4739 35.5702 10.0128 35.3792C9.55166 35.1882 9.04427 35.1382 8.55475 35.2356C8.06524 35.333 7.61559 35.5733 7.26267 35.9262C7.00461 36.1843 6.80675 36.494 6.68095 36.8333ZM33.5581 32.4901C33.5375 33.9702 33.7567 35.443 34.2066 36.8516L34.2007 36.8333H35.7553C35.3266 35.6959 35.0468 34.2719 35.0468 32.4916C35.0468 29.6057 35.7674 27.2273 36.4996 25.5555H34.8817C34.8606 25.609 34.8394 25.6629 34.8184 25.7174C34.7975 25.6646 34.7763 25.6106 34.7551 25.5555H33.1339C33.1204 25.5177 33.1069 25.4796 33.0934 25.441C33.5017 26.6049 33.9055 27.4323 34.1218 27.842C33.8904 28.7584 33.7276 29.6908 33.6347 30.6315H26.6871L19.7352 27.4287C19.9895 26.8336 20.0945 26.191 20.0484 25.5555H18.5476C18.5448 25.5329 18.5418 25.5103 18.5384 25.4878C18.5566 25.6102 18.5659 25.7343 18.5659 25.8591C18.5651 26.5281 18.299 27.1695 17.8259 27.6426C17.3528 28.1157 16.7114 28.3818 16.0424 28.3826C15.5433 28.3826 15.0554 28.2346 14.6404 27.9573C14.2254 27.68 13.902 27.2859 13.711 26.8248C13.5444 26.4227 13.4851 25.9854 13.5372 25.5555H12.022L12.0248 25.5195C12.0248 25.5193 12.0248 25.5191 12.0248 25.519L12.0248 25.5195L12.0248 25.5195C12.0001 25.8215 12.0094 26.1274 12.0541 26.4316C12.1995 27.4225 12.7093 28.3236 13.4838 28.9587C14.2583 29.5938 15.2418 29.9172 16.242 29.8657C17.2423 29.8142 18.1873 29.3915 18.8925 28.6803L26.213 32.0522C26.3105 32.0972 26.4165 32.1203 26.5238 32.1201H33.5581V32.4901ZM39.3112 42.4722H40.4784C40.4881 42.4637 40.4976 42.4549 40.5069 42.446C40.4973 42.4553 40.4874 42.4643 40.4773 42.4731C40.3422 42.591 40.1691 42.6561 39.9898 42.6565C39.9203 42.6569 39.8512 42.6472 39.7845 42.6276C39.6248 42.5808 39.467 42.529 39.3112 42.4722ZM61.596 19.9167C62.0859 18.1809 61.7164 16.393 60.5219 14.8125C58.1689 11.6964 54.2926 12.3555 51.9613 13.1504C53.3213 9.01104 50.6186 5.31538 48.0589 3.91487C46.5717 3.09827 43.0668 2.39585 39.5186 3.81081C37.3289 4.67799 34.4036 6.70143 32.9034 11.3842C32.4512 12.7896 32.1413 14.2369 31.9784 15.7043H24.7807C24.5952 14.7223 24.0498 13.845 23.2515 13.244C22.4531 12.6429 21.4591 12.3614 20.4642 12.4546C19.4692 12.5478 18.5448 13.009 17.872 13.7478C17.1991 14.4867 16.8261 15.45 16.8261 16.4493C16.8261 17.4487 17.1991 18.412 17.872 19.1509C18.1493 19.4554 18.4694 19.7128 18.8196 19.9167H22.8571C22.993 19.8376 23.1247 19.7502 23.2515 19.6547C24.0498 19.0537 24.5952 18.1763 24.7807 17.1944H31.8628C31.8231 18.1476 31.8479 19.0577 31.919 19.9167H33.4482C33.2362 17.5686 33.3875 14.8069 34.3386 11.8424C35.4009 8.52975 37.3347 6.29385 40.088 5.19397C42.9787 4.03772 46.076 4.51612 47.3609 5.21999C49.578 6.44272 51.9526 9.7944 50.263 13.4207C50.1443 13.678 49.9959 13.9205 49.8208 14.1433C49.802 14.165 49.7846 14.1882 49.7673 14.2113C48.7556 15.4485 47.0689 15.8286 45.6771 15.619C44.4818 15.4326 43.0365 14.7215 42.8327 13.2906C42.8197 13.1933 42.7877 13.0995 42.7383 13.0146C42.6889 12.9297 42.6233 12.8555 42.5451 12.7961C42.4669 12.7367 42.3777 12.6934 42.2827 12.6686C42.1877 12.6438 42.0888 12.6381 41.9915 12.6517C41.8943 12.6653 41.8007 12.6981 41.7162 12.748C41.6317 12.798 41.5579 12.8642 41.499 12.9427C41.4402 13.0213 41.3975 13.1108 41.3733 13.206C41.3492 13.3012 41.3442 13.4002 41.3585 13.4973C41.6157 15.3415 43.2215 16.7492 45.4502 17.0831C47.2712 17.3606 49.4739 16.8504 50.8571 15.2187C51.7358 14.7851 56.8696 12.4451 59.3338 15.7101C60.5929 17.3722 60.4236 18.9016 60.0257 19.9167H61.596ZM19.442 18.547C19.8574 18.8245 20.3457 18.9724 20.8452 18.9721C21.5127 18.971 22.1527 18.7057 22.6252 18.2342C23.0978 17.7627 23.3645 17.1234 23.3672 16.4558C23.3687 15.9564 23.2218 15.4677 22.9453 15.0517C22.6689 14.6358 22.2752 14.3112 21.8141 14.1191C21.353 13.9271 20.8453 13.8762 20.3553 13.9728C19.8653 14.0695 19.415 14.3094 19.0614 14.6622C18.7078 15.015 18.4668 15.4647 18.369 15.9545C18.2712 16.4443 18.321 16.9521 18.512 17.4137C18.703 17.8752 19.0267 18.2696 19.442 18.547ZM15.2834 65.476C15.6984 65.7534 16.1864 65.9014 16.6855 65.9014V65.9058C17.3551 65.905 17.9969 65.6385 18.4701 65.1648C18.9433 64.6911 19.2091 64.0489 19.2091 63.3794C19.2093 62.8802 19.0616 62.3922 18.7845 61.977C18.5074 61.5618 18.1133 61.2381 17.6523 61.0469C17.1912 60.8557 16.6837 60.8055 16.1941 60.9027C15.7045 60.9999 15.2547 61.2402 14.9017 61.593C14.5486 61.9459 14.3081 62.3955 14.2106 62.8851C14.1131 63.3746 14.163 63.8821 14.354 64.3433C14.5449 64.8045 14.8684 65.1987 15.2834 65.476Z" fill="#FF5ABE" style="mix-blend-mode:multiply"/>
<path fill-rule="evenodd" clip-rule="evenodd" d="M12.1201 25.5554H13.6353C13.6429 25.4923 13.653 25.4293 13.6655 25.3666C13.7628 24.8771 14.0032 24.4274 14.3561 24.0745C14.709 23.7216 15.1586 23.4812 15.6482 23.3839C16.1377 23.2865 16.6451 23.3365 17.1062 23.5275C17.5673 23.7185 17.9614 24.0419 18.2387 24.4569C18.4594 24.7872 18.5982 25.1638 18.6457 25.5554H20.1465C20.1212 25.2074 20.0505 24.8615 19.9342 24.5267C19.6056 23.5806 18.9359 22.7911 18.0561 22.3125C17.1763 21.8339 16.1496 21.7006 15.1767 21.9387C14.2039 22.1768 13.3548 22.7692 12.7954 23.6C12.401 24.186 12.1706 24.8609 12.1201 25.5554ZM33.232 25.5554H34.8532C34.3473 24.2452 33.7608 22.2927 33.5463 19.9165H32.0171C32.2071 22.2125 32.7276 24.1434 33.232 25.5554ZM22.9552 19.9165H18.9177C19.417 20.2072 19.9774 20.3891 20.5623 20.4439C21.3992 20.5223 22.2355 20.3356 22.9552 19.9165ZM61.6941 19.9165H60.1238C60.1065 19.9606 60.0888 20.0037 60.0708 20.0458C59.7856 20.7037 59.3763 21.3004 58.8654 21.8034C58.8308 21.8307 58.7989 21.8612 58.77 21.8944C57.9563 22.6705 56.9879 23.1648 56.2017 23.2602C56.0114 23.2807 55.8363 23.3737 55.7128 23.5198C55.5892 23.666 55.5267 23.8541 55.5383 24.0451C55.5498 24.2362 55.6345 24.4154 55.7747 24.5457C55.9149 24.6759 56.0999 24.7471 56.2913 24.7446C56.3211 24.7467 56.351 24.7467 56.3809 24.7446C57.4952 24.6101 58.6659 23.9973 59.6386 23.1186C60.5586 23.0752 63.844 23.1107 65.5862 25.5554H67.3231C65.8105 22.5566 62.7795 21.8164 60.8902 21.6574C61.1043 21.3336 61.2886 20.9911 61.4409 20.6341C61.5418 20.3964 61.6262 20.1569 61.6941 19.9165ZM36.5977 25.5554C37.3462 23.8464 38.1069 22.876 38.1222 22.857C38.2304 22.7024 38.2759 22.5125 38.2494 22.3257C38.2229 22.1389 38.1265 21.9691 37.9796 21.8507C37.8327 21.7323 37.6464 21.674 37.4582 21.6878C37.27 21.7015 37.0941 21.7862 36.966 21.9248C36.8912 22.0179 35.8678 23.3161 34.9798 25.5554H36.5977Z" fill="#5AFFBA" style="mix-blend-mode:multiply"/>
<path fill-rule="evenodd" clip-rule="evenodd" d="M66.549 36.8335H64.0121C64.7215 37.1794 67.2022 38.6539 67.7052 42.4724H69.2091C68.8957 39.6986 67.6834 37.919 66.549 36.8335ZM34.5577 42.4724H36.1328C36.3887 41.7637 36.6513 41.2605 36.8615 40.9252C37.6022 41.604 38.4681 42.1292 39.4089 42.4724H40.5761C40.7107 42.3546 40.7983 42.1923 40.823 42.0152C40.8478 41.8377 40.8077 41.6571 40.71 41.5067C40.6123 41.3564 40.4636 41.2464 40.2913 41.1969C39.1775 40.8609 38.1753 40.2302 37.3905 39.3715C37.3769 39.3485 37.3614 39.3268 37.3443 39.3064C37.3216 39.2828 37.2975 39.2606 37.272 39.2399C36.8656 38.7752 36.519 38.2615 36.2401 37.7108C36.2151 37.6267 36.176 37.5476 36.1244 37.4767C36.0288 37.2732 35.938 37.059 35.853 36.8335H34.2984C34.3343 36.9462 34.3715 37.0584 34.4103 37.1702H13.1194C13.1039 37.0568 13.0836 36.9444 13.0586 36.8335H11.5109C11.6145 37.1128 11.6683 37.4098 11.6683 37.7108C11.6672 38.3796 11.4009 39.0206 10.9278 39.4934C10.4548 39.9662 9.81358 40.2321 9.14478 40.2329V40.2343C8.64568 40.2343 8.15778 40.0863 7.74279 39.809C7.3278 39.5317 7.00436 39.1376 6.81336 38.6765C6.62236 38.2154 6.57238 37.708 6.66976 37.2185C6.69593 37.0869 6.73243 36.9582 6.77867 36.8335H5.23834C5.18879 37.0538 5.15765 37.2791 5.14591 37.5074C5.14238 37.5761 5.14062 37.6448 5.14062 37.7133C5.14062 38.6383 5.46085 39.5374 6.05038 40.2557C6.68356 41.0272 7.58184 41.5348 8.56946 41.679C9.55707 41.8231 10.563 41.5936 11.3903 41.0354C12.2176 40.4771 12.8069 39.6302 13.0428 38.6604H35.078C35.2969 39.0563 35.5447 39.4355 35.8195 39.7949C35.4698 40.2865 34.9822 41.1363 34.5577 42.4724ZM55.754 42.4724H57.5605C56.8606 41.11 55.6441 40.4379 54.9048 40.2531C54.7132 40.2037 54.5097 40.2324 54.3392 40.3329C54.1687 40.4335 54.0452 40.5976 53.9957 40.7893C53.9463 40.981 53.975 41.1844 54.0755 41.3549C54.1761 41.5254 54.3403 41.649 54.5319 41.6984C54.5776 41.7106 55.2012 41.8887 55.754 42.4724Z" fill="#5AFFBA" style="mix-blend-mode:multiply"/>
<path fill-rule="evenodd" clip-rule="evenodd" d="M63.0036 53.75H60.4138C60.4497 53.8005 60.4851 53.8513 60.5199 53.9025C60.5234 53.908 60.5273 53.9133 60.5315 53.9184C61.6666 55.5977 62.1065 57.4883 61.8187 59.3889H63.3274C63.5693 57.5237 63.2218 55.6729 62.3063 53.9719C62.5179 53.9131 62.7524 53.8403 63.0036 53.75ZM35.5761 59.3889H37.4229C40.0872 56.3549 45.318 56.9583 45.5956 56.9926C45.7915 57.0173 45.9892 56.9632 46.1452 56.8422C46.3011 56.7211 46.4027 56.5431 46.4274 56.3472C46.4521 56.1513 46.398 55.9537 46.277 55.7977C46.156 55.6417 45.9779 55.5402 45.7821 55.5154C43.7745 55.2611 40.6483 55.4432 38.1797 56.8914C38.1062 56.8466 38.0256 56.8148 37.9412 56.7974C37.9205 56.7974 36.4963 56.4153 35.6886 53.75H34.1443C34.3037 54.3557 34.4933 54.8807 34.7008 55.3362H30.654C30.5165 55.3363 30.3818 55.3744 30.2647 55.4464C30.1476 55.5183 30.0528 55.6212 29.9906 55.7438L28.1352 59.3889H29.8135L31.1179 56.8263H35.61C35.9456 57.2485 36.3514 57.6098 36.8096 57.8944C36.345 58.3227 35.9278 58.8181 35.5761 59.3889ZM16.3646 59.3889H17.2116C16.9483 59.3609 16.6811 59.3589 16.4139 59.384C16.3974 59.3855 16.381 59.3871 16.3646 59.3889ZM21.1985 53.75H19.634C19.5082 54.0636 19.3196 54.3517 19.076 54.5952C18.6032 55.0681 17.9622 55.334 17.2935 55.3348C16.7943 55.3351 16.3062 55.1873 15.891 54.9101C15.4758 54.6329 15.1521 54.2388 14.9609 53.7776C14.9571 53.7684 14.9533 53.7592 14.9496 53.75H13.3564C13.3679 53.7989 13.3803 53.8478 13.3936 53.8964C13.6583 54.864 14.2747 55.6979 15.122 56.2349C15.9693 56.7719 16.9865 56.9733 17.9745 56.7996C18.9625 56.626 19.8501 56.0898 20.4636 55.296C20.8195 54.8355 21.0682 54.3074 21.1985 53.75Z" fill="#5AFFBA" style="mix-blend-mode:multiply"/>
<path fill-rule="evenodd" clip-rule="evenodd" d="M65.6587 25.7217C67.646 29.9276 65.4882 33.947 63.628 35.8996C63.9765 36.1263 64.3848 36.4324 64.8038 36.8333H62.2669C62.1669 36.7845 62.1021 36.7582 62.083 36.7509C61.9607 36.7021 61.8534 36.6219 61.772 36.5182C61.6907 36.4146 61.6382 36.2913 61.6199 36.1609C61.6015 36.0305 61.618 35.8975 61.6676 35.7755C61.7172 35.6534 61.7982 35.5467 61.9023 35.466C62.943 34.6697 66.4059 30.789 64.3117 26.3606C64.1726 26.0668 64.0143 25.7992 63.8406 25.5555H65.5775C65.6051 25.6102 65.6322 25.6656 65.6587 25.7217ZM65.96 42.4722H67.464C67.5427 43.1689 67.5647 43.9282 67.5145 44.7551C67.1437 50.7101 63.5239 52.9359 61.2584 53.75H58.7663C58.8022 53.8004 58.8375 53.8513 58.8724 53.9024C58.8759 53.908 58.8798 53.9133 58.884 53.9184C60.0191 55.5977 60.459 57.4882 60.1712 59.3889H61.5821C61.4582 60.3446 61.1795 61.3041 60.7432 62.2491C57.4002 69.4945 49.688 67.9552 47.4463 67.3265C46.0256 69.6549 43.4732 70.6666 40.9424 70.6666C39.9946 70.6664 39.052 70.5251 38.1457 70.2475C34.3518 69.071 32.2344 66.0026 32.7619 62.4226C33.0582 60.4194 33.9168 58.9524 35.0643 57.8944C34.6062 57.6098 34.2004 57.2485 33.8647 56.8263H33.9624C34.2981 57.2485 34.7039 57.6098 35.162 57.8944C34.6975 58.3227 34.2803 58.818 33.9286 59.3889H35.6777C34.972 60.1925 34.4463 61.2514 34.2405 62.6437C33.7361 66.059 36.2683 68.1041 38.5894 68.8267C41.3991 69.6968 44.9893 69.0435 46.4144 66.1124C46.4956 65.9467 46.6355 65.8169 46.8069 65.7483C46.9783 65.6797 47.1691 65.6771 47.3423 65.741C47.6949 65.8696 56.0546 68.8557 59.3918 61.6291C60.6001 59.0116 60.3689 56.2598 58.7862 53.9184L58.7809 53.9115C58.7802 53.9106 58.7795 53.9096 58.7788 53.9086C58.7774 53.9066 58.776 53.9045 58.7747 53.9024C58.5482 53.5699 58.3005 53.2522 58.0332 52.9514C56.9024 51.674 55.4613 50.7098 53.8491 50.1519C53.7916 50.1411 53.7358 50.1231 53.6828 50.0984C52.1797 49.62 50.6275 49.5607 49.2645 50.003C49.0767 50.0639 48.8724 50.0478 48.6964 49.9581C48.5205 49.8683 48.3875 49.7124 48.3265 49.5246C48.2656 49.3368 48.2817 49.1324 48.3715 48.9565C48.4612 48.7806 48.6171 48.6475 48.8049 48.5866C50.3312 48.0908 52.0468 48.1111 53.719 48.5678C54.5326 47.432 54.9362 46.0535 54.8637 44.6582C54.8196 43.6145 54.4353 42.9226 54.0088 42.4722H55.8153C56.1115 43.0489 56.3152 43.7493 56.3509 44.5889C56.4247 46.1681 56.012 47.732 55.1686 49.0693C56.6859 49.7312 58.0411 50.715 59.1404 51.9527C59.3417 52.182 59.5315 52.4143 59.7098 52.6494C61.1103 52.3791 65.6269 51.0147 66.0244 44.6553V44.6655C66.0747 43.8604 66.0468 43.1314 65.96 42.4722ZM42.5308 56.9217C43.2675 56.9242 43.7694 56.9825 43.8504 56.9925C43.8979 56.9985 43.9454 56.9999 43.9925 56.9968C43.9777 56.9958 43.9629 56.9944 43.9481 56.9925C43.8636 56.9821 43.3206 56.919 42.5308 56.9217ZM42.4883 55.4192C40.6357 55.4128 38.3711 55.7716 36.4823 56.8635C36.4993 56.8721 36.5159 56.8814 36.5322 56.8914C38.3976 55.797 40.6384 55.4256 42.4883 55.4192ZM33.9433 53.75C33.6228 52.6921 33.3993 51.2746 33.3993 49.3786C33.393 48.1219 33.4741 46.8663 33.6421 45.6208C33.7078 45.5277 33.7511 45.4208 33.7689 45.3083C33.7867 45.1958 33.7785 45.0807 33.7448 44.9719C33.9232 43.9461 34.1526 43.1226 34.3876 42.4722H32.8125C32.6316 43.0414 32.4622 43.6988 32.3197 44.4544H20.5982C20.4767 44.4553 20.3573 44.4858 20.2503 44.5432C20.1433 44.6006 20.0518 44.6833 19.9839 44.784L17.021 49.0924C16.089 48.7215 15.052 48.7119 14.1133 49.0654C13.1745 49.4189 12.4014 50.1101 11.9455 51.0037C11.4896 51.8972 11.3836 52.9288 11.6483 53.8964C11.9131 54.864 12.5294 55.6979 13.3767 56.2349C14.0394 56.6548 14.8059 56.8695 15.5811 56.8601C14.8394 56.8511 14.1092 56.6372 13.4745 56.2349C12.6271 55.6979 12.0108 54.864 11.7461 53.8964C11.7327 53.8477 11.7204 53.7989 11.7089 53.75H13.2044C13.0226 53.2962 12.9763 52.7992 13.0717 52.3193C13.1691 51.8296 13.4094 51.3798 13.7624 51.0268C14.1154 50.6738 14.5652 50.4335 15.0549 50.3361C15.5445 50.2388 16.052 50.2889 16.5132 50.4801C16.9744 50.6713 17.3685 50.9949 17.6457 51.4101C17.9228 51.8254 18.0706 52.3135 18.0703 52.8127C18.0696 53.4813 17.8036 54.1224 17.3308 54.5952C16.869 55.057 16.2468 55.3215 15.595 55.3343C15.612 55.3346 15.629 55.3348 15.646 55.3348C16.3147 55.334 16.9557 55.068 17.4285 54.5952C17.672 54.3517 17.8607 54.0635 17.9865 53.75H19.4532C19.5475 53.3467 19.5797 52.928 19.5457 52.5082C19.4646 51.5084 19.0132 50.5748 18.2799 49.8903L20.9899 45.9402H32.0942C31.964 47.0807 31.9007 48.2278 31.9049 49.3757C31.9049 52.1218 32.3558 54.0195 32.9556 55.3362H33.0533C32.8458 54.8807 32.6561 54.3556 32.4968 53.75H33.9433ZM29.0065 55.3362H28.9087C28.7713 55.3363 28.6366 55.3744 28.5195 55.4463C28.4024 55.5183 28.3075 55.6212 28.2453 55.7438L24.7376 62.635H18.9867C18.8011 61.6527 18.2556 60.775 17.457 60.1737C16.8727 59.7338 16.1838 59.465 15.4664 59.3889H14.717C14.7335 59.3871 14.7499 59.3855 14.7664 59.3839C14.8749 59.3738 14.9835 59.3681 15.0917 59.3667C14.9511 59.365 14.8099 59.3707 14.6686 59.3839C13.6733 59.4771 12.7485 59.9384 12.0754 60.6775C11.4023 61.4167 11.0292 62.3804 11.0292 63.3801C11.0292 64.3798 11.4023 65.3435 12.0754 66.0826C12.7485 66.8217 13.6733 67.283 14.6686 67.3762C15.664 67.4694 16.6583 67.1878 17.457 66.5865C18.2556 65.9852 18.8011 65.1075 18.9867 64.1251H25.2015C25.3389 64.1251 25.4737 64.087 25.5908 64.015C25.7079 63.9431 25.8027 63.8401 25.8649 63.7176L28.0683 59.3889H26.4876L28.3431 55.7438C28.4052 55.6212 28.5001 55.5183 28.6172 55.4463C28.7343 55.3744 28.869 55.3363 29.0065 55.3362ZM5.03349 36.8333H3.49316C3.66002 36.0917 4.03564 35.4078 4.58225 34.8661C5.29121 34.1636 6.23679 33.7509 7.23399 33.7087C8.23119 33.6665 9.20824 33.998 9.97397 34.6381C10.6518 35.2049 11.1209 35.9774 11.3134 36.8333H9.76571C9.77178 36.8497 9.77768 36.8661 9.78339 36.8826C9.71336 36.681 9.61767 36.488 9.49783 36.3086C9.22054 35.8936 8.82642 35.5702 8.36531 35.3792C7.9042 35.1882 7.3968 35.1382 6.90729 35.2356C6.41778 35.333 5.96813 35.5733 5.61521 35.9262C5.35715 36.1843 5.15928 36.494 5.03349 36.8333ZM31.9107 32.4901C31.89 33.9702 32.1092 35.443 32.5591 36.8516L32.5533 36.8333H34.1078C33.6792 35.6959 33.3993 34.2719 33.3993 32.4916C33.3993 29.6057 34.1199 27.2273 34.8521 25.5555H33.2343C33.2131 25.609 33.192 25.6629 33.171 25.7174C33.15 25.6646 33.1289 25.6106 33.1076 25.5555H31.4865C31.473 25.5177 31.4594 25.4796 31.4459 25.441C31.8542 26.6049 32.2581 27.4323 32.4743 27.842C32.2429 28.7584 32.0801 29.6908 31.9873 30.6315H25.0396L18.0877 27.4287C18.342 26.8336 18.4471 26.191 18.4009 25.5555H16.9001C16.8974 25.5329 16.8943 25.5103 16.891 25.4878C16.9092 25.6102 16.9184 25.7343 16.9184 25.8591C16.9177 26.5281 16.6516 27.1695 16.1785 27.6426C15.7054 28.1157 15.064 28.3818 14.3949 28.3826C13.8958 28.3826 13.4079 28.2346 12.9929 27.9573C12.5779 27.68 12.2545 27.2859 12.0635 26.8248C11.897 26.4227 11.8376 25.9854 11.8897 25.5555H10.3746L10.3773 25.5195C10.3774 25.5193 10.3774 25.5191 10.3774 25.519L10.3773 25.5195L10.3773 25.5195C10.3527 25.8215 10.362 26.1274 10.4066 26.4316C10.5521 27.4225 11.0619 28.3236 11.8363 28.9587C12.6108 29.5938 13.5943 29.9172 14.5945 29.8657C15.5948 29.8142 16.5399 29.3915 17.2451 28.6803L24.5656 32.0522C24.663 32.0972 24.769 32.1203 24.8763 32.1201H31.9107V32.4901ZM37.6637 42.4722H38.8309C38.8407 42.4637 38.8502 42.4549 38.8594 42.446C38.8498 42.4553 38.84 42.4643 38.8299 42.4731C38.6947 42.591 38.5216 42.6561 38.3423 42.6565C38.2728 42.6569 38.2037 42.6472 38.1371 42.6276C37.9774 42.5808 37.8195 42.529 37.6637 42.4722ZM59.9485 19.9167C60.4384 18.1809 60.069 16.393 58.8744 14.8125C56.5214 11.6964 52.6451 12.3555 50.3138 13.1504C51.6739 9.01104 48.9711 5.31538 46.4115 3.91487C44.9243 3.09827 41.4194 2.39585 37.8711 3.81081C35.6815 4.67799 32.7562 6.70143 31.2559 11.3842C30.8037 12.7896 30.4938 14.2369 30.3309 15.7043H23.1333C22.9477 14.7223 22.4024 13.845 21.604 13.244C20.8056 12.6429 19.8117 12.3614 18.8167 12.4546C17.8217 12.5478 16.8974 13.009 16.2245 13.7478C15.5516 14.4867 15.1787 15.45 15.1787 16.4493C15.1787 17.4487 15.5516 18.412 16.2245 19.1509C16.5019 19.4554 16.8219 19.7128 17.1721 19.9167H21.2097C21.3455 19.8376 21.4772 19.7502 21.604 19.6547C22.4024 19.0537 22.9477 18.1763 23.1333 17.1944H30.2153C30.1757 18.1476 30.2005 19.0577 30.2715 19.9167H31.8007C31.5888 17.5686 31.74 14.8069 32.6911 11.8424C33.7534 8.52975 35.6873 6.29385 38.4406 5.19397C41.3312 4.03772 44.4285 4.51612 45.7134 5.21999C47.9305 6.44272 50.3052 9.7944 48.6156 13.4207C48.4968 13.678 48.3484 13.9205 48.1733 14.1433C48.1545 14.165 48.1372 14.1882 48.1198 14.2113C47.1081 15.4485 45.4214 15.8286 44.0296 15.619C42.8343 15.4326 41.389 14.7215 41.1852 13.2906C41.1723 13.1933 41.1402 13.0995 41.0908 13.0146C41.0415 12.9297 40.9758 12.8555 40.8976 12.7961C40.8194 12.7367 40.7303 12.6934 40.6353 12.6686C40.5403 12.6438 40.4413 12.6381 40.3441 12.6517C40.2468 12.6653 40.1533 12.6981 40.0687 12.748C39.9842 12.798 39.9104 12.8642 39.8516 12.9427C39.7927 13.0213 39.75 13.1108 39.7259 13.206C39.7018 13.3012 39.6967 13.4002 39.711 13.4973C39.9683 15.3415 41.574 16.7492 43.8027 17.0831C45.6238 17.3606 47.8264 16.8504 49.2096 15.2187C50.0884 14.7851 55.2221 12.4451 57.6864 15.7101C58.9455 17.3722 58.7762 18.9016 58.3783 19.9167H59.9485ZM17.7946 18.547C18.2099 18.8245 18.6982 18.9724 19.1977 18.9721C19.8652 18.971 20.5052 18.7057 20.9778 18.2342C21.4503 17.7627 21.7171 17.1234 21.7198 16.4558C21.7212 15.9564 21.5744 15.4677 21.2979 15.0517C21.0214 14.6358 20.6277 14.3112 20.1666 14.1191C19.7056 13.9271 19.1979 13.8762 18.7078 13.9728C18.2178 14.0695 17.7675 14.3094 17.4139 14.6622C17.0603 15.015 16.8194 15.4647 16.7216 15.9545C16.6238 16.4443 16.6735 16.9521 16.8646 17.4137C17.0556 17.8752 17.3792 18.2696 17.7946 18.547ZM13.6359 65.476C14.051 65.7534 14.5389 65.9014 15.0381 65.9014V65.9058C15.7076 65.905 16.3495 65.6385 16.8227 65.1648C17.2958 64.6911 17.5616 64.0489 17.5616 63.3794C17.5619 62.8802 17.4141 62.3922 17.137 61.977C16.8599 61.5618 16.4659 61.2381 16.0048 61.0469C15.5437 60.8557 15.0363 60.8055 14.5467 60.9027C14.057 60.9999 13.6073 61.2402 13.2542 61.593C12.9011 61.9459 12.6606 62.3955 12.5632 62.8851C12.4657 63.3746 12.5156 63.8821 12.7065 64.3433C12.8975 64.8045 13.2209 65.1987 13.6359 65.476Z" fill="#5AFFBA" style="mix-blend-mode:multiply"/>
</svg>
