<svg width="74" height="74" viewBox="0 0 74 74" fill="none" xmlns="http://www.w3.org/2000/svg">
<g clip-path="url(#clip0_54_1530)">
<path fill-rule="evenodd" clip-rule="evenodd" d="M3.92969 26.6796H5.41547V21.5098H3.92969V26.6796ZM67.2546 21.5098H65.7659V26.6796H67.2546V21.5098ZM18.3141 24.0959C18.2767 24.0055 18.2576 23.9087 18.2578 23.8109C18.2576 23.7131 18.2767 23.6162 18.3141 23.5258C18.3514 23.4354 18.4062 23.3533 18.4754 23.2841C18.5446 23.215 18.6267 23.1601 18.7171 23.1228C18.8075 23.0855 18.9043 23.0663 19.0021 23.0665H52.1851C52.3825 23.0665 52.5718 23.1449 52.7114 23.2845C52.851 23.4241 52.9294 23.6134 52.9294 23.8109C52.9294 24.0083 52.851 24.1976 52.7114 24.3372C52.5718 24.4768 52.3825 24.5552 52.1851 24.5552H19.0021C18.9043 24.5554 18.8075 24.5363 18.7171 24.4989C18.6267 24.4616 18.5446 24.4068 18.4754 24.3376C18.4062 24.2685 18.3514 24.1863 18.3141 24.0959Z" fill="white"/>
<path fill-rule="evenodd" clip-rule="evenodd" d="M3.92969 42.1894H5.41547V37.0195H3.92969V42.1894ZM72.1438 37.0195H70.5883C70.6546 37.1914 70.7043 37.3702 70.7363 37.5536C70.8371 38.131 70.7568 38.7254 70.5066 39.2554L69.979 40.3654C69.9346 40.4595 69.9104 40.5619 69.908 40.6659C69.9055 40.7699 69.9248 40.8733 69.9647 40.9694C70.0046 41.0655 70.0642 41.1522 70.1396 41.2239C70.215 41.2957 70.3045 41.3508 70.4025 41.3858L71.5588 41.7977C71.8219 41.8924 72.068 42.0247 72.29 42.1894H74.294C74.2485 42.1158 74.2006 42.0434 74.1505 41.9724C73.6338 41.2403 72.9009 40.6885 72.0545 40.3943L71.6744 40.2599L71.8478 39.8957C72.1856 39.1829 72.3225 38.3915 72.2438 37.6066C72.2239 37.4082 72.1904 37.212 72.1438 37.0195ZM53.9094 42.1894H55.4803C55.802 41.3426 56.3003 40.5694 56.9465 39.9233C57.8467 39.0232 58.9937 38.4104 60.2422 38.1622C61.4908 37.914 62.7849 38.0417 63.9609 38.5291C65.1369 39.0164 66.1419 39.8415 66.8489 40.9001C67.1197 41.3056 67.3421 41.7383 67.5135 42.1894H69.0826C68.7078 40.949 68.0313 39.8076 67.0984 38.8747C66.2642 38.0405 65.2633 37.4113 64.174 37.0195H58.8138C58.2106 37.2366 57.6329 37.5271 57.0942 37.887C55.791 38.7578 54.7753 39.9955 54.1755 41.4435C54.0741 41.6883 53.9854 41.9373 53.9094 42.1894ZM52.4051 37.0195H50.8583C50.8357 37.1125 50.8161 37.2064 50.7996 37.3012C50.6464 38.1809 50.7686 39.0865 51.1495 39.8943L51.3229 40.2585L50.9428 40.3929C50.1023 40.6947 49.3755 41.2486 48.8617 41.979C48.8133 42.0479 48.7669 42.1181 48.7227 42.1894H50.7102C50.9322 42.0247 51.1783 41.8924 51.4414 41.7977L52.5977 41.3858C52.6958 41.351 52.7855 41.296 52.861 41.2243C52.9365 41.1526 52.9961 41.0658 53.0359 40.9696C53.0757 40.8734 53.0948 40.7699 53.092 40.6658C53.0892 40.5617 53.0646 40.4594 53.0197 40.3654L52.4936 39.2554C52.2413 38.7257 52.1593 38.1308 52.2588 37.5525C52.2903 37.3695 52.3395 37.1911 52.4051 37.0195ZM18.3418 37.0195H43.5749C43.6095 37.1064 43.6277 37.1999 43.6277 37.2951C43.6277 37.4872 43.5535 37.6719 43.4207 37.8107C43.2879 37.9495 43.1066 38.0317 42.9147 38.0402H19.002C18.8101 38.0317 18.6288 37.9495 18.496 37.8107C18.3632 37.6719 18.2891 37.4872 18.2891 37.2951C18.2891 37.1999 18.3073 37.1064 18.3418 37.0195Z" fill="white"/>
<path fill-rule="evenodd" clip-rule="evenodd" d="M71.9454 52.5288H70.2716C70.1757 52.6668 70.0673 52.7967 69.9473 52.9167C69.5324 53.3316 68.9991 53.6079 68.4209 53.7074C67.8426 53.8069 67.2477 53.7249 66.7179 53.4726L65.6079 52.9465C65.514 52.9016 65.4116 52.877 65.3075 52.8742C65.2035 52.8714 65.1 52.8906 65.0037 52.9303C64.9075 52.9701 64.8208 53.0297 64.7491 53.1052C64.6773 53.1807 64.6223 53.2704 64.5875 53.3685L64.1756 54.5248C63.9787 55.0776 63.6156 55.5559 63.1361 55.8941C62.6566 56.2324 62.0842 56.4139 61.4974 56.4139C60.9106 56.4139 60.3382 56.2324 59.8587 55.8941C59.3792 55.5559 59.0161 55.0776 58.8193 54.5248L58.4088 53.3685C58.3574 53.2238 58.2624 53.0985 58.1369 53.01C58.0113 52.9215 57.8614 52.874 57.7078 52.8742C57.5968 52.8737 57.4871 52.8984 57.387 52.9465L56.2784 53.4726C55.7486 53.7249 55.1537 53.8069 54.5755 53.7074C53.9972 53.6079 53.4639 53.3316 53.049 52.9167C52.929 52.7967 52.8206 52.6668 52.7247 52.5288H4.39648C4.48501 52.5643 4.57955 52.5825 4.67497 52.5823H50.9553H51.0478C51.2686 53.1079 51.5903 53.5851 51.9945 53.9871C52.5614 54.563 53.28 54.9665 54.0668 55.1506C54.8537 55.3348 55.6767 55.2922 56.4403 55.0278V57.6987H57.9319V56.0424C58.3308 56.6192 58.8636 57.0907 59.4848 57.4164C59.7004 57.5294 59.9244 57.6237 60.1544 57.6987H62.8419C63.0719 57.6237 63.2959 57.5294 63.5115 57.4164C64.1327 57.0907 64.6656 56.6192 65.0645 56.0424V57.6987H66.5517V55.0162C67.3573 55.2853 68.2241 55.3119 69.0447 55.0927C69.8652 54.8735 70.6033 54.4181 71.1673 53.7831C71.4982 53.4107 71.7606 52.986 71.9454 52.5288Z" fill="white"/>
<path fill-rule="evenodd" clip-rule="evenodd" d="M69.7383 35.4415C70.0913 35.9134 70.3431 36.4505 70.4807 37.0193H68.9252C68.7827 36.6499 68.5638 36.3124 68.2806 36.0299C67.8656 35.616 67.3328 35.3406 66.7551 35.2414C66.1774 35.1422 65.5832 35.224 65.0539 35.4757L63.9439 36.0018C63.8496 36.0463 63.7471 36.0705 63.6429 36.0728C63.5387 36.075 63.4351 36.0554 63.339 36.015C63.2429 35.9747 63.1564 35.9145 63.085 35.8386C63.0137 35.7626 62.9591 35.6724 62.9249 35.574L62.513 34.4177C62.3162 33.865 61.9531 33.3866 61.4736 33.0484C60.9941 32.7102 60.4216 32.5286 59.8348 32.5286C59.2481 32.5286 58.6756 32.7102 58.1961 33.0484C57.7166 33.3866 57.3535 33.865 57.1567 34.4177L56.7462 35.574C56.7113 35.6722 56.6561 35.7619 56.5842 35.8374C56.5124 35.9129 56.4255 35.9725 56.3292 36.0122C56.2328 36.052 56.1292 36.0711 56.025 36.0683C55.9209 36.0656 55.8184 36.0409 55.7244 35.996L54.6158 35.4699C54.0861 35.2176 53.4911 35.1356 52.9129 35.2351C52.3346 35.3347 51.8013 35.6109 51.3864 36.0258C51.1027 36.3095 50.8839 36.6484 50.742 37.0193H49.1952C49.3828 36.2486 49.7787 35.5421 50.3422 34.9787C50.9736 34.3472 51.7847 33.9261 52.6644 33.773C53.5442 33.6198 54.4498 33.742 55.2575 34.1229L55.6189 34.2934L55.7547 33.9133C56.0484 33.067 56.5999 32.3339 57.3318 31.8172C58.0636 31.3005 58.939 31.0262 59.8348 31.0328C60.7305 31.0269 61.6056 31.3015 62.3373 31.818C63.0691 32.3346 63.6207 33.0673 63.915 33.9133L64.0494 34.2934L64.1029 34.2674V26.6795H65.5915V33.7558C66.3707 33.633 67.1685 33.7251 67.8992 34.0222C68.6299 34.3192 69.2658 34.8099 69.7383 35.4415ZM72.6309 42.1892C73.0546 42.8743 73.2778 43.6666 73.2719 44.4757C73.2783 45.3715 73.0039 46.2467 72.4872 46.9785C71.9706 47.7104 71.2377 48.2619 70.3914 48.5558L70.0113 48.6902L70.1847 49.0544C70.547 49.8226 70.6757 50.6803 70.5548 51.5209C70.5048 51.8685 70.4131 52.2068 70.2829 52.5289H68.609C68.8446 52.1897 69.0046 51.8015 69.0754 51.3904C69.1749 50.8121 69.0929 50.2172 68.8406 49.6875L68.313 48.5775C68.2687 48.4834 68.2445 48.381 68.242 48.277C68.2395 48.173 68.2589 48.0696 68.2988 47.9735C68.3386 47.8774 68.3982 47.7907 68.4736 47.719C68.549 47.6472 68.6385 47.5921 68.7365 47.5571L69.8928 47.1452H69.8957C70.4461 46.9472 70.9221 46.5841 71.2585 46.1056C71.595 45.627 71.7756 45.0563 71.7756 44.4713C71.7756 43.8863 71.595 43.3156 71.2585 42.8371C71.0829 42.5873 70.8693 42.369 70.6269 42.1892H72.6309ZM51.0621 52.5289C50.8265 52.1897 50.6665 51.8015 50.5958 51.3904C50.4962 50.8121 50.5782 50.2172 50.8305 49.6875L51.3566 48.5775C51.4015 48.4835 51.4262 48.3812 51.4289 48.2771C51.4317 48.173 51.4126 48.0695 51.3728 47.9733C51.333 47.8771 51.2734 47.7903 51.1979 47.7186C51.1225 47.6469 51.0327 47.5919 50.9346 47.5571L49.7784 47.1452C49.2279 46.9472 48.7519 46.5841 48.4155 46.1056C48.079 45.627 47.8985 45.0563 47.8985 44.4713C47.8985 43.8863 48.079 43.3156 48.4155 42.8371C48.596 42.5802 48.8168 42.3567 49.0676 42.1741C49.0608 42.1791 49.0539 42.1841 49.0471 42.1892H47.0596C46.6353 42.8738 46.4091 43.6647 46.4091 44.4735C46.4091 45.3665 46.6848 46.2378 47.1986 46.9682C47.7124 47.6986 48.4392 48.2525 49.2797 48.5543L49.6598 48.6888L49.4864 49.053C49.1833 49.6867 49.038 50.3844 49.0629 51.0865L3.75238 51.088V42.1892H2.2666V51.8381C2.2666 51.936 2.2859 52.0329 2.3234 52.1233C2.3609 52.2137 2.41585 52.2958 2.48512 52.3649C2.55439 52.4341 2.63662 52.4889 2.72709 52.5262C2.72936 52.5271 2.73162 52.528 2.73389 52.5289H51.0621ZM54.7777 57.6988V67.2943C54.7777 67.4465 54.8244 67.5951 54.9115 67.72C54.9986 67.8449 55.1219 67.9401 55.2648 67.9927C55.4077 68.0453 55.5633 68.0529 55.7106 68.0143C55.8579 67.9757 55.9898 67.8929 56.0886 67.777L59.8334 63.3847L63.5782 67.777C63.648 67.8591 63.7349 67.925 63.8327 67.9702C63.9305 68.0153 64.037 68.0387 64.1448 68.0386C64.2325 68.0381 64.3196 68.0225 64.402 67.9923C64.545 67.9399 64.6684 67.8448 64.7555 67.72C64.8426 67.5951 64.8892 67.4465 64.8891 67.2943V57.6988H63.4019V65.2607L60.4 61.7428C60.3301 61.6608 60.2432 61.5949 60.1454 61.5498C60.0476 61.5046 59.9411 61.4812 59.8334 61.4812C59.7257 61.4812 59.6192 61.5046 59.5214 61.5498C59.4236 61.5949 59.3367 61.6608 59.2668 61.7428L56.2693 65.2607V57.6988H54.7777ZM58.4918 57.6988C58.9243 57.8398 59.3777 57.9123 59.8356 57.9123C60.2934 57.9123 60.7469 57.8398 61.1793 57.6988H58.4918ZM2.2666 37.0193V26.6795H3.75238V37.0193H2.2666ZM65.5915 21.5096V6.74434C65.5915 6.54693 65.5131 6.3576 65.3735 6.21801C65.2339 6.07842 65.0446 6 64.8472 6H3.01238C2.81484 6 2.62537 6.07837 2.48555 6.21792C2.34573 6.35747 2.26698 6.54679 2.2666 6.74434V21.5096H3.75238V7.49012H64.1029V21.5096H65.5915ZM52.0615 46.0219C51.8074 44.7446 51.8728 43.4285 52.2463 42.1892H53.8172C53.8248 42.1692 53.8325 42.1493 53.8403 42.1293C53.7029 42.4807 53.5959 42.845 53.5216 43.2183C53.2732 44.4668 53.4005 45.761 53.8876 46.9371C54.3747 48.1132 55.1996 49.1184 56.258 49.8257C57.3165 50.5329 58.5609 50.9104 59.8338 50.9104C61.54 50.9089 63.1759 50.2306 64.3826 49.0242C65.5892 47.8179 66.2679 46.1821 66.2698 44.4759C66.27 43.6905 66.1265 42.9159 65.8504 42.1892H67.4195L67.4143 42.172C67.6398 42.9122 67.7578 43.688 67.7585 44.4759C67.7585 46.0433 67.2937 47.5754 66.4229 48.8786C65.5522 50.1818 64.3145 51.1975 62.8665 51.7973C61.4184 52.3971 59.825 52.5541 58.2878 52.2483C56.7506 51.9425 55.3385 51.1878 54.2303 50.0795C53.122 48.9712 52.3672 47.5592 52.0615 46.0219ZM57.1508 37.0193C58.0069 36.7112 58.9143 36.5513 59.8338 36.5513C60.7553 36.5521 61.6601 36.7133 62.511 37.0193H57.1508ZM26.5623 14.8571C26.5625 14.7593 26.5434 14.6625 26.5061 14.5721C26.4687 14.4817 26.4139 14.3995 26.3448 14.3304C26.2756 14.2612 26.1935 14.2064 26.1031 14.1691C26.0127 14.1317 25.9158 14.1126 25.818 14.1128H9.80684C9.60943 14.1128 9.4201 14.1912 9.28051 14.3308C9.14092 14.4704 9.0625 14.6597 9.0625 14.8571C9.0625 15.0545 9.14092 15.2439 9.28051 15.3835C9.4201 15.523 9.60943 15.6015 9.80684 15.6015H25.818C25.9158 15.6017 26.0127 15.5825 26.1031 15.5452C26.1935 15.5079 26.2756 15.453 26.3448 15.3839C26.4139 15.3147 26.4687 15.2326 26.5061 15.1422C26.5434 15.0518 26.5625 14.9549 26.5623 14.8571ZM46.6312 30.5529C46.6314 30.4551 46.6123 30.3583 46.5749 30.2679C46.5376 30.1775 46.4828 30.0953 46.4136 30.0262C46.3445 29.957 46.2623 29.9022 46.1719 29.8649C46.0816 29.8275 45.9847 29.8084 45.8869 29.8086H17.3391C17.1417 29.8086 16.9523 29.887 16.8127 30.0266C16.6731 30.1662 16.5947 30.3555 16.5947 30.5529C16.5947 30.7503 16.6731 30.9397 16.8127 31.0793C16.9523 31.2188 17.1417 31.2973 17.3391 31.2973H45.8869C45.9847 31.2975 46.0816 31.2783 46.1719 31.241C46.2623 31.2037 46.3445 31.1488 46.4136 31.0797C46.4828 31.0105 46.5376 30.9284 46.5749 30.838C46.6123 30.7476 46.6314 30.6507 46.6312 30.5529ZM17.3389 36.5498H41.2516C41.4436 36.5583 41.6248 36.6405 41.7576 36.7793C41.8246 36.8492 41.8767 36.9309 41.9118 37.0193H16.6788C16.7139 36.9309 16.766 36.8492 16.8329 36.7793C16.9658 36.6405 17.147 36.5583 17.3389 36.5498Z" fill="white"/>
<path fill-rule="evenodd" clip-rule="evenodd" d="M2.2666 26.6796H3.75238V21.5098H2.2666V26.6796ZM65.5915 21.5098H64.1029V26.6796H65.5915V21.5098ZM16.651 24.0959C16.6137 24.0055 16.5945 23.9087 16.5947 23.8109C16.5945 23.7131 16.6137 23.6162 16.651 23.5258C16.6883 23.4354 16.7432 23.3533 16.8123 23.2841C16.8815 23.215 16.9636 23.1601 17.054 23.1228C17.1444 23.0855 17.2413 23.0663 17.3391 23.0665H50.522C50.7194 23.0665 50.9087 23.1449 51.0483 23.2845C51.1879 23.4241 51.2663 23.6134 51.2663 23.8109C51.2663 24.0083 51.1879 24.1976 51.0483 24.3372C50.9087 24.4768 50.7194 24.5552 50.522 24.5552H17.3391C17.2413 24.5554 17.1444 24.5363 17.054 24.4989C16.9636 24.4616 16.8815 24.4068 16.8123 24.3376C16.7432 24.2685 16.6883 24.1863 16.651 24.0959Z" fill="white"/>
<path fill-rule="evenodd" clip-rule="evenodd" d="M2.2666 42.1894H3.75238V37.0195H2.2666V42.1894ZM70.4807 37.0195H68.9252C68.9915 37.1914 69.0413 37.3702 69.0732 37.5536C69.174 38.131 69.0938 38.7254 68.8435 39.2554L68.3159 40.3654C68.2716 40.4595 68.2474 40.5619 68.2449 40.6659C68.2424 40.7699 68.2618 40.8733 68.3016 40.9694C68.3415 41.0655 68.4011 41.1522 68.4765 41.2239C68.5519 41.2957 68.6414 41.3508 68.7394 41.3858L69.8957 41.7977C70.1588 41.8924 70.405 42.0247 70.6269 42.1894H72.6309C72.5854 42.1158 72.5375 42.0434 72.4874 41.9724C71.9707 41.2403 71.2378 40.6885 70.3914 40.3943L70.0113 40.2599L70.1847 39.8957C70.5225 39.1829 70.6594 38.3915 70.5807 37.6066C70.5608 37.4082 70.5273 37.212 70.4807 37.0195ZM52.2463 42.1894H53.8172C54.1389 41.3426 54.6372 40.5694 55.2834 39.9233C56.1837 39.0232 57.3306 38.4104 58.5791 38.1622C59.8277 37.914 61.1218 38.0417 62.2978 38.5291C63.4738 39.0164 64.4788 39.8415 65.1859 40.9001C65.4566 41.3056 65.6791 41.7383 65.8504 42.1894H67.4195C67.0447 40.949 66.3682 39.8076 65.4353 38.8747C64.6011 38.0405 63.6003 37.4113 62.511 37.0195H57.1508C56.5476 37.2366 55.9698 37.5271 55.4311 37.887C54.1279 38.7578 53.1122 39.9955 52.5124 41.4435C52.411 41.6883 52.3223 41.9373 52.2463 42.1894ZM50.742 37.0195H49.1952C49.1726 37.1125 49.153 37.2064 49.1365 37.3012C48.9833 38.1809 49.1055 39.0865 49.4864 39.8943L49.6598 40.2585L49.2797 40.3929C48.4392 40.6947 47.7124 41.2486 47.1986 41.979C47.1502 42.0479 47.1038 42.1181 47.0596 42.1894H49.0471C49.2691 42.0247 49.5152 41.8924 49.7784 41.7977L50.9346 41.3858C51.0327 41.351 51.1225 41.296 51.1979 41.2243C51.2734 41.1526 51.333 41.0658 51.3728 40.9696C51.4126 40.8734 51.4317 40.7699 51.4289 40.6658C51.4262 40.5617 51.4015 40.4594 51.3566 40.3654L50.8305 39.2554C50.5782 38.7257 50.4962 38.1308 50.5958 37.5525C50.6272 37.3695 50.6764 37.1911 50.742 37.0195ZM16.6788 37.0195H41.9118C41.9464 37.1064 41.9646 37.1999 41.9646 37.2951C41.9646 37.4872 41.8905 37.6719 41.7576 37.8107C41.6248 37.9495 41.4436 38.0317 41.2516 38.0402H17.3389C17.147 38.0317 16.9658 37.9495 16.8329 37.8107C16.7001 37.6719 16.626 37.4872 16.626 37.2951C16.626 37.1999 16.6442 37.1064 16.6788 37.0195Z" fill="white"/>
<path fill-rule="evenodd" clip-rule="evenodd" d="M70.2824 52.5288H68.6085C68.5126 52.6668 68.4042 52.7967 68.2842 52.9167C67.8693 53.3316 67.3361 53.6079 66.7578 53.7074C66.1795 53.8069 65.5846 53.7249 65.0548 53.4726L63.9448 52.9465C63.8509 52.9016 63.7485 52.877 63.6445 52.8742C63.5404 52.8714 63.4369 52.8906 63.3407 52.9303C63.2445 52.9701 63.1577 53.0297 63.086 53.1052C63.0143 53.1807 62.9592 53.2704 62.9244 53.3685L62.5125 54.5248C62.3157 55.0776 61.9526 55.5559 61.4731 55.8941C60.9936 56.2324 60.4211 56.4139 59.8344 56.4139C59.2476 56.4139 58.6751 56.2324 58.1956 55.8941C57.7161 55.5559 57.3531 55.0776 57.1562 54.5248L56.7457 53.3685C56.6943 53.2238 56.5993 53.0985 56.4738 53.01C56.3482 52.9215 56.1984 52.874 56.0447 52.8742C55.9337 52.8737 55.824 52.8984 55.7239 52.9465L54.6153 53.4726C54.0856 53.7249 53.4906 53.8069 52.9124 53.7074C52.3341 53.6079 51.8008 53.3316 51.3859 52.9167C51.2659 52.7967 51.1575 52.6668 51.0616 52.5288H2.7334C2.82192 52.5643 2.91647 52.5825 3.01189 52.5823H49.2922H49.3847C49.6056 53.1079 49.9272 53.5851 50.3314 53.9871C50.8983 54.563 51.6169 54.9665 52.4038 55.1506C53.1906 55.3348 54.0136 55.2922 54.7772 55.0278V57.6987H56.2688V56.0424C56.6677 56.6192 57.2005 57.0907 57.8217 57.4164C58.0373 57.5294 58.2613 57.6237 58.4913 57.6987H61.1788C61.4088 57.6237 61.6328 57.5294 61.8484 57.4164C62.4696 57.0907 63.0025 56.6192 63.4014 56.0424V57.6987H64.8886V55.0162C65.6942 55.2853 66.561 55.3119 67.3816 55.0927C68.2021 54.8735 68.9402 54.4181 69.5042 53.7831C69.8351 53.4107 70.0975 52.986 70.2824 52.5288Z" fill="white"/>
<path fill-rule="evenodd" clip-rule="evenodd" d="M68.0752 35.4415C68.4282 35.9134 68.68 36.4505 68.8177 37.0193H67.2621C67.1196 36.6499 66.9007 36.3124 66.6175 36.0299C66.2025 35.616 65.6697 35.3406 65.092 35.2414C64.5143 35.1422 63.9201 35.224 63.3908 35.4757L62.2808 36.0018C62.1865 36.0463 62.084 36.0705 61.9798 36.0728C61.8756 36.075 61.7721 36.0554 61.6759 36.015C61.5798 35.9747 61.4933 35.9145 61.422 35.8386C61.3506 35.7626 61.2961 35.6724 61.2618 35.574L60.8499 34.4177C60.6531 33.865 60.29 33.3866 59.8105 33.0484C59.331 32.7102 58.7586 32.5286 58.1718 32.5286C57.585 32.5286 57.0126 32.7102 56.5331 33.0484C56.0536 33.3866 55.6905 33.865 55.4936 34.4177L55.0831 35.574C55.0482 35.6722 54.993 35.7619 54.9211 35.8374C54.8493 35.9129 54.7624 35.9725 54.6661 36.0122C54.5697 36.052 54.4661 36.0711 54.362 36.0683C54.2578 36.0656 54.1553 36.0409 54.0613 35.996L52.9527 35.4699C52.423 35.2176 51.8281 35.1356 51.2498 35.2351C50.6715 35.3347 50.1383 35.6109 49.7233 36.0258C49.4397 36.3095 49.2208 36.6484 49.079 37.0193H47.5321C47.7197 36.2486 48.1156 35.5421 48.6791 34.9787C49.3106 34.3472 50.1216 33.9261 51.0014 33.773C51.8811 33.6198 52.7867 33.742 53.5945 34.1229L53.9558 34.2934L54.0916 33.9133C54.3853 33.067 54.9368 32.3339 55.6687 31.8172C56.4005 31.3005 57.2759 31.0262 58.1718 31.0328C59.0674 31.0269 59.9425 31.3015 60.6743 31.818C61.406 32.3346 61.9577 33.0673 62.2519 33.9133L62.3863 34.2934L62.4398 34.2674V26.6795H63.9284V33.7558C64.7076 33.633 65.5055 33.7251 66.2362 34.0222C66.9669 34.3192 67.6027 34.8099 68.0752 35.4415ZM70.9678 42.1892C71.3915 42.8743 71.6147 43.6666 71.6088 44.4757C71.6152 45.3715 71.3408 46.2467 70.8241 46.9785C70.3075 47.7104 69.5746 48.2619 68.7283 48.5558L68.3482 48.6902L68.5216 49.0544C68.8839 49.8226 69.0126 50.6803 68.8917 51.5209C68.8417 51.8685 68.75 52.2068 68.6198 52.5289H66.9459C67.1816 52.1897 67.3415 51.8015 67.4123 51.3904C67.5118 50.8121 67.4298 50.2172 67.1775 49.6875L66.65 48.5775C66.6056 48.4834 66.5814 48.381 66.5789 48.277C66.5764 48.173 66.5958 48.0696 66.6357 47.9735C66.6756 47.8774 66.7351 47.7907 66.8105 47.719C66.8859 47.6472 66.9755 47.5921 67.0734 47.5571L68.2297 47.1452H68.2326C68.7831 46.9472 69.259 46.5841 69.5955 46.1056C69.9319 45.627 70.1125 45.0563 70.1125 44.4713C70.1125 43.8863 69.9319 43.3156 69.5955 42.8371C69.4198 42.5873 69.2063 42.369 68.9639 42.1892H70.9678ZM49.3991 52.5289C49.1634 52.1897 49.0034 51.8015 48.9327 51.3904C48.8331 50.8121 48.9151 50.2172 49.1675 49.6875L49.6936 48.5775C49.7384 48.4835 49.7631 48.3812 49.7659 48.2771C49.7686 48.173 49.7495 48.0695 49.7097 47.9733C49.6699 47.8771 49.6104 47.7903 49.5349 47.7186C49.4594 47.6469 49.3697 47.5919 49.2715 47.5571L48.1153 47.1452C47.5648 46.9472 47.0889 46.5841 46.7524 46.1056C46.4159 45.627 46.2354 45.0563 46.2354 44.4713C46.2354 43.8863 46.4159 43.3156 46.7524 42.8371C46.933 42.5802 47.1537 42.3567 47.4045 42.1741C47.3977 42.1791 47.3908 42.1841 47.384 42.1892H45.3965C44.9722 42.8738 44.746 43.6647 44.746 44.4735C44.746 45.3665 45.0217 46.2378 45.5355 46.9682C46.0494 47.6986 46.7762 48.2525 47.6166 48.5543L47.9968 48.6888L47.8233 49.053C47.5202 49.6867 47.3749 50.3844 47.3998 51.0865L2.0893 51.088V42.1892H0.603516V51.8381C0.603516 51.936 0.622816 52.0329 0.660313 52.1233C0.69781 52.2137 0.752766 52.2958 0.822037 52.3649C0.891309 52.4341 0.973534 52.4889 1.06401 52.5262C1.06627 52.5271 1.06854 52.528 1.07081 52.5289H49.3991ZM53.1146 57.6988V67.2943C53.1146 67.4465 53.1613 67.5951 53.2484 67.72C53.3355 67.8449 53.4588 67.9401 53.6017 67.9927C53.7446 68.0453 53.9002 68.0529 54.0475 68.0143C54.1948 67.9757 54.3268 67.8929 54.4255 67.777L58.1703 63.3847L61.9151 67.777C61.9849 67.8591 62.0718 67.925 62.1696 67.9702C62.2674 68.0153 62.3739 68.0387 62.4817 68.0386C62.5695 68.0381 62.6565 68.0225 62.7389 67.9923C62.8819 67.9399 63.0053 67.8448 63.0924 67.72C63.1795 67.5951 63.2262 67.4465 63.226 67.2943V57.6988H61.7388V65.2607L58.7369 61.7428C58.667 61.6608 58.5802 61.5949 58.4823 61.5498C58.3845 61.5046 58.2781 61.4812 58.1703 61.4812C58.0626 61.4812 57.9561 61.5046 57.8583 61.5498C57.7605 61.5949 57.6736 61.6608 57.6038 61.7428L54.6062 65.2607V57.6988H53.1146ZM56.8287 57.6988C57.2612 57.8398 57.7146 57.9123 58.1725 57.9123C58.6304 57.9123 59.0838 57.8398 59.5163 57.6988H56.8287ZM0.603516 37.0193V26.6795H2.0893V37.0193H0.603516ZM63.9284 21.5096V6.74434C63.9284 6.54693 63.85 6.3576 63.7104 6.21801C63.5708 6.07842 63.3815 6 63.1841 6H1.3493C1.15175 6 0.96228 6.07837 0.82246 6.21792C0.682641 6.35747 0.603898 6.54679 0.603516 6.74434V21.5096H2.0893V7.49012H62.4398V21.5096H63.9284ZM50.3984 46.0219C50.1443 44.7446 50.2097 43.4285 50.5832 42.1892H52.1542C52.1618 42.1692 52.1694 42.1493 52.1772 42.1293C52.0398 42.4807 51.9328 42.845 51.8585 43.2183C51.6101 44.4668 51.7375 45.761 52.2245 46.9371C52.7116 48.1132 53.5365 49.1184 54.595 49.8257C55.6534 50.5329 56.8978 50.9104 58.1707 50.9104C59.877 50.9089 61.5129 50.2306 62.7195 49.0242C63.9261 47.8179 64.6048 46.1821 64.6067 44.4759C64.6069 43.6905 64.4634 42.9159 64.1873 42.1892H65.7564L65.7512 42.172C65.9767 42.9122 66.0947 43.688 66.0954 44.4759C66.0954 46.0433 65.6306 47.5754 64.7598 48.8786C63.8891 50.1818 62.6514 51.1975 61.2034 51.7973C59.7553 52.3971 58.162 52.5541 56.6247 52.2483C55.0875 51.9425 53.6755 51.1878 52.5672 50.0795C51.4589 48.9712 50.7041 47.5592 50.3984 46.0219ZM55.4877 37.0193C56.3438 36.7112 57.2512 36.5513 58.1707 36.5513C59.0922 36.5521 59.997 36.7133 60.8479 37.0193H55.4877ZM24.8993 14.8571C24.8994 14.7593 24.8803 14.6625 24.843 14.5721C24.8056 14.4817 24.7508 14.3995 24.6817 14.3304C24.6125 14.2612 24.5304 14.2064 24.44 14.1691C24.3496 14.1317 24.2527 14.1126 24.1549 14.1128H8.14375C7.94634 14.1128 7.75702 14.1912 7.61742 14.3308C7.47783 14.4704 7.39941 14.6597 7.39941 14.8571C7.39941 15.0545 7.47783 15.2439 7.61742 15.3835C7.75702 15.523 7.94634 15.6015 8.14375 15.6015H24.1549C24.2527 15.6017 24.3496 15.5825 24.44 15.5452C24.5304 15.5079 24.6125 15.453 24.6817 15.3839C24.7508 15.3147 24.8056 15.2326 24.843 15.1422C24.8803 15.0518 24.8994 14.9549 24.8993 14.8571ZM44.9681 30.5529C44.9683 30.4551 44.9492 30.3583 44.9119 30.2679C44.8745 30.1775 44.8197 30.0953 44.7505 30.0262C44.6814 29.957 44.5993 29.9022 44.5089 29.8649C44.4185 29.8275 44.3216 29.8084 44.2238 29.8086H15.676C15.4786 29.8086 15.2892 29.887 15.1497 30.0266C15.0101 30.1662 14.9316 30.3555 14.9316 30.5529C14.9316 30.7503 15.0101 30.9397 15.1497 31.0793C15.2892 31.2188 15.4786 31.2973 15.676 31.2973H44.2238C44.3216 31.2975 44.4185 31.2783 44.5089 31.241C44.5993 31.2037 44.6814 31.1488 44.7505 31.0797C44.8197 31.0105 44.8745 30.9284 44.9119 30.838C44.9492 30.7476 44.9683 30.6507 44.9681 30.5529ZM15.6758 36.5498H39.5885C39.7805 36.5583 39.9617 36.6405 40.0946 36.7793C40.1615 36.8492 40.2136 36.9309 40.2487 37.0193H15.0157C15.0508 36.9309 15.1029 36.8492 15.1698 36.7793C15.3027 36.6405 15.4839 36.5583 15.6758 36.5498Z" fill="white"/>
<path fill-rule="evenodd" clip-rule="evenodd" d="M3.92969 26.6796H5.41547V21.5098H3.92969V26.6796ZM67.2546 21.5098H65.7659V26.6796H67.2546V21.5098ZM18.3141 24.0959C18.2767 24.0055 18.2576 23.9087 18.2578 23.8109C18.2576 23.7131 18.2767 23.6162 18.3141 23.5258C18.3514 23.4354 18.4062 23.3533 18.4754 23.2841C18.5446 23.215 18.6267 23.1601 18.7171 23.1228C18.8075 23.0855 18.9043 23.0663 19.0021 23.0665H52.1851C52.3825 23.0665 52.5718 23.1449 52.7114 23.2845C52.851 23.4241 52.9294 23.6134 52.9294 23.8109C52.9294 24.0083 52.851 24.1976 52.7114 24.3372C52.5718 24.4768 52.3825 24.5552 52.1851 24.5552H19.0021C18.9043 24.5554 18.8075 24.5363 18.7171 24.4989C18.6267 24.4616 18.5446 24.4068 18.4754 24.3376C18.4062 24.2685 18.3514 24.1863 18.3141 24.0959Z" fill="#FF5ABE" style="mix-blend-mode:multiply"/>
<path fill-rule="evenodd" clip-rule="evenodd" d="M3.92969 42.1894H5.41547V37.0195H3.92969V42.1894ZM72.1438 37.0195H70.5883C70.6546 37.1914 70.7043 37.3702 70.7363 37.5536C70.8371 38.131 70.7568 38.7254 70.5066 39.2554L69.979 40.3654C69.9346 40.4595 69.9104 40.5619 69.908 40.6659C69.9055 40.7699 69.9248 40.8733 69.9647 40.9694C70.0046 41.0655 70.0642 41.1522 70.1396 41.2239C70.215 41.2957 70.3045 41.3508 70.4025 41.3858L71.5588 41.7977C71.8219 41.8924 72.068 42.0247 72.29 42.1894H74.294C74.2485 42.1158 74.2006 42.0434 74.1505 41.9724C73.6338 41.2403 72.9009 40.6885 72.0545 40.3943L71.6744 40.2599L71.8478 39.8957C72.1856 39.1829 72.3225 38.3915 72.2438 37.6066C72.2239 37.4082 72.1904 37.212 72.1438 37.0195ZM53.9094 42.1894H55.4803C55.802 41.3426 56.3003 40.5694 56.9465 39.9233C57.8467 39.0232 58.9937 38.4104 60.2422 38.1622C61.4908 37.914 62.7849 38.0417 63.9609 38.5291C65.1369 39.0164 66.1419 39.8415 66.8489 40.9001C67.1197 41.3056 67.3421 41.7383 67.5135 42.1894H69.0826C68.7078 40.949 68.0313 39.8076 67.0984 38.8747C66.2642 38.0405 65.2633 37.4113 64.174 37.0195H58.8138C58.2106 37.2366 57.6329 37.5271 57.0942 37.887C55.791 38.7578 54.7753 39.9955 54.1755 41.4435C54.0741 41.6883 53.9854 41.9373 53.9094 42.1894ZM52.4051 37.0195H50.8583C50.8357 37.1125 50.8161 37.2064 50.7996 37.3012C50.6464 38.1809 50.7686 39.0865 51.1495 39.8943L51.3229 40.2585L50.9428 40.3929C50.1023 40.6947 49.3755 41.2486 48.8617 41.979C48.8133 42.0479 48.7669 42.1181 48.7227 42.1894H50.7102C50.9322 42.0247 51.1783 41.8924 51.4414 41.7977L52.5977 41.3858C52.6958 41.351 52.7855 41.296 52.861 41.2243C52.9365 41.1526 52.9961 41.0658 53.0359 40.9696C53.0757 40.8734 53.0948 40.7699 53.092 40.6658C53.0892 40.5617 53.0646 40.4594 53.0197 40.3654L52.4936 39.2554C52.2413 38.7257 52.1593 38.1308 52.2588 37.5525C52.2903 37.3695 52.3395 37.1911 52.4051 37.0195ZM18.3418 37.0195H43.5749C43.6095 37.1064 43.6277 37.1999 43.6277 37.2951C43.6277 37.4872 43.5535 37.6719 43.4207 37.8107C43.2879 37.9495 43.1066 38.0317 42.9147 38.0402H19.002C18.8101 38.0317 18.6288 37.9495 18.496 37.8107C18.3632 37.6719 18.2891 37.4872 18.2891 37.2951C18.2891 37.1999 18.3073 37.1064 18.3418 37.0195Z" fill="#FF5ABE" style="mix-blend-mode:multiply"/>
<path fill-rule="evenodd" clip-rule="evenodd" d="M71.9454 52.5288H70.2716C70.1757 52.6668 70.0673 52.7967 69.9473 52.9167C69.5324 53.3316 68.9991 53.6079 68.4209 53.7074C67.8426 53.8069 67.2477 53.7249 66.7179 53.4726L65.6079 52.9465C65.514 52.9016 65.4116 52.877 65.3075 52.8742C65.2035 52.8714 65.1 52.8906 65.0037 52.9303C64.9075 52.9701 64.8208 53.0297 64.7491 53.1052C64.6773 53.1807 64.6223 53.2704 64.5875 53.3685L64.1756 54.5248C63.9787 55.0776 63.6156 55.5559 63.1361 55.8941C62.6566 56.2324 62.0842 56.4139 61.4974 56.4139C60.9106 56.4139 60.3382 56.2324 59.8587 55.8941C59.3792 55.5559 59.0161 55.0776 58.8193 54.5248L58.4088 53.3685C58.3574 53.2238 58.2624 53.0985 58.1369 53.01C58.0113 52.9215 57.8614 52.874 57.7078 52.8742C57.5968 52.8737 57.4871 52.8984 57.387 52.9465L56.2784 53.4726C55.7486 53.7249 55.1537 53.8069 54.5755 53.7074C53.9972 53.6079 53.4639 53.3316 53.049 52.9167C52.929 52.7967 52.8206 52.6668 52.7247 52.5288H4.39648C4.48501 52.5643 4.57955 52.5825 4.67497 52.5823H50.9553H51.0478C51.2686 53.1079 51.5903 53.5851 51.9945 53.9871C52.5614 54.563 53.28 54.9665 54.0668 55.1506C54.8537 55.3348 55.6767 55.2922 56.4403 55.0278V57.6987H57.9319V56.0424C58.3308 56.6192 58.8636 57.0907 59.4848 57.4164C59.7004 57.5294 59.9244 57.6237 60.1544 57.6987H62.8419C63.0719 57.6237 63.2959 57.5294 63.5115 57.4164C64.1327 57.0907 64.6656 56.6192 65.0645 56.0424V57.6987H66.5517V55.0162C67.3573 55.2853 68.2241 55.3119 69.0447 55.0927C69.8652 54.8735 70.6033 54.4181 71.1673 53.7831C71.4982 53.4107 71.7606 52.986 71.9454 52.5288Z" fill="#FF5ABE" style="mix-blend-mode:multiply"/>
<path fill-rule="evenodd" clip-rule="evenodd" d="M69.7383 35.4415C70.0913 35.9134 70.3431 36.4505 70.4807 37.0193H68.9252C68.7827 36.6499 68.5638 36.3124 68.2806 36.0299C67.8656 35.616 67.3328 35.3406 66.7551 35.2414C66.1774 35.1422 65.5832 35.224 65.0539 35.4757L63.9439 36.0018C63.8496 36.0463 63.7471 36.0705 63.6429 36.0728C63.5387 36.075 63.4351 36.0554 63.339 36.015C63.2429 35.9747 63.1564 35.9145 63.085 35.8386C63.0137 35.7626 62.9591 35.6724 62.9249 35.574L62.513 34.4177C62.3162 33.865 61.9531 33.3866 61.4736 33.0484C60.9941 32.7102 60.4216 32.5286 59.8348 32.5286C59.2481 32.5286 58.6756 32.7102 58.1961 33.0484C57.7166 33.3866 57.3535 33.865 57.1567 34.4177L56.7462 35.574C56.7113 35.6722 56.6561 35.7619 56.5842 35.8374C56.5124 35.9129 56.4255 35.9725 56.3292 36.0122C56.2328 36.052 56.1292 36.0711 56.025 36.0683C55.9209 36.0656 55.8184 36.0409 55.7244 35.996L54.6158 35.4699C54.0861 35.2176 53.4911 35.1356 52.9129 35.2351C52.3346 35.3347 51.8013 35.6109 51.3864 36.0258C51.1027 36.3095 50.8839 36.6484 50.742 37.0193H49.1952C49.3828 36.2486 49.7787 35.5421 50.3422 34.9787C50.9736 34.3472 51.7847 33.9261 52.6644 33.773C53.5442 33.6198 54.4498 33.742 55.2575 34.1229L55.6189 34.2934L55.7547 33.9133C56.0484 33.067 56.5999 32.3339 57.3318 31.8172C58.0636 31.3005 58.939 31.0262 59.8348 31.0328C60.7305 31.0269 61.6056 31.3015 62.3373 31.818C63.0691 32.3346 63.6207 33.0673 63.915 33.9133L64.0494 34.2934L64.1029 34.2674V26.6795H65.5915V33.7558C66.3707 33.633 67.1685 33.7251 67.8992 34.0222C68.6299 34.3192 69.2658 34.8099 69.7383 35.4415ZM72.6309 42.1892C73.0546 42.8743 73.2778 43.6666 73.2719 44.4757C73.2783 45.3715 73.0039 46.2467 72.4872 46.9785C71.9706 47.7104 71.2377 48.2619 70.3914 48.5558L70.0113 48.6902L70.1847 49.0544C70.547 49.8226 70.6757 50.6803 70.5548 51.5209C70.5048 51.8685 70.4131 52.2068 70.2829 52.5289H68.609C68.8446 52.1897 69.0046 51.8015 69.0754 51.3904C69.1749 50.8121 69.0929 50.2172 68.8406 49.6875L68.313 48.5775C68.2687 48.4834 68.2445 48.381 68.242 48.277C68.2395 48.173 68.2589 48.0696 68.2988 47.9735C68.3386 47.8774 68.3982 47.7907 68.4736 47.719C68.549 47.6472 68.6385 47.5921 68.7365 47.5571L69.8928 47.1452H69.8957C70.4461 46.9472 70.9221 46.5841 71.2585 46.1056C71.595 45.627 71.7756 45.0563 71.7756 44.4713C71.7756 43.8863 71.595 43.3156 71.2585 42.8371C71.0829 42.5873 70.8693 42.369 70.6269 42.1892H72.6309ZM51.0621 52.5289C50.8265 52.1897 50.6665 51.8015 50.5958 51.3904C50.4962 50.8121 50.5782 50.2172 50.8305 49.6875L51.3566 48.5775C51.4015 48.4835 51.4262 48.3812 51.4289 48.2771C51.4317 48.173 51.4126 48.0695 51.3728 47.9733C51.333 47.8771 51.2734 47.7903 51.1979 47.7186C51.1225 47.6469 51.0327 47.5919 50.9346 47.5571L49.7784 47.1452C49.2279 46.9472 48.7519 46.5841 48.4155 46.1056C48.079 45.627 47.8985 45.0563 47.8985 44.4713C47.8985 43.8863 48.079 43.3156 48.4155 42.8371C48.596 42.5802 48.8168 42.3567 49.0676 42.1741C49.0608 42.1791 49.0539 42.1841 49.0471 42.1892H47.0596C46.6353 42.8738 46.4091 43.6647 46.4091 44.4735C46.4091 45.3665 46.6848 46.2378 47.1986 46.9682C47.7124 47.6986 48.4392 48.2525 49.2797 48.5543L49.6598 48.6888L49.4864 49.053C49.1833 49.6867 49.038 50.3844 49.0629 51.0865L3.75238 51.088V42.1892H2.2666V51.8381C2.2666 51.936 2.2859 52.0329 2.3234 52.1233C2.3609 52.2137 2.41585 52.2958 2.48512 52.3649C2.55439 52.4341 2.63662 52.4889 2.72709 52.5262C2.72936 52.5271 2.73162 52.528 2.73389 52.5289H51.0621ZM54.7777 57.6988V67.2943C54.7777 67.4465 54.8244 67.5951 54.9115 67.72C54.9986 67.8449 55.1219 67.9401 55.2648 67.9927C55.4077 68.0453 55.5633 68.0529 55.7106 68.0143C55.8579 67.9757 55.9898 67.8929 56.0886 67.777L59.8334 63.3847L63.5782 67.777C63.648 67.8591 63.7349 67.925 63.8327 67.9702C63.9305 68.0153 64.037 68.0387 64.1448 68.0386C64.2325 68.0381 64.3196 68.0225 64.402 67.9923C64.545 67.9399 64.6684 67.8448 64.7555 67.72C64.8426 67.5951 64.8892 67.4465 64.8891 67.2943V57.6988H63.4019V65.2607L60.4 61.7428C60.3301 61.6608 60.2432 61.5949 60.1454 61.5498C60.0476 61.5046 59.9411 61.4812 59.8334 61.4812C59.7257 61.4812 59.6192 61.5046 59.5214 61.5498C59.4236 61.5949 59.3367 61.6608 59.2668 61.7428L56.2693 65.2607V57.6988H54.7777ZM58.4918 57.6988C58.9243 57.8398 59.3777 57.9123 59.8356 57.9123C60.2934 57.9123 60.7469 57.8398 61.1793 57.6988H58.4918ZM2.2666 37.0193V26.6795H3.75238V37.0193H2.2666ZM65.5915 21.5096V6.74434C65.5915 6.54693 65.5131 6.3576 65.3735 6.21801C65.2339 6.07842 65.0446 6 64.8472 6H3.01238C2.81484 6 2.62537 6.07837 2.48555 6.21792C2.34573 6.35747 2.26698 6.54679 2.2666 6.74434V21.5096H3.75238V7.49012H64.1029V21.5096H65.5915ZM52.0615 46.0219C51.8074 44.7446 51.8728 43.4285 52.2463 42.1892H53.8172C53.8248 42.1692 53.8325 42.1493 53.8403 42.1293C53.7029 42.4807 53.5959 42.845 53.5216 43.2183C53.2732 44.4668 53.4005 45.761 53.8876 46.9371C54.3747 48.1132 55.1996 49.1184 56.258 49.8257C57.3165 50.5329 58.5609 50.9104 59.8338 50.9104C61.54 50.9089 63.1759 50.2306 64.3826 49.0242C65.5892 47.8179 66.2679 46.1821 66.2698 44.4759C66.27 43.6905 66.1265 42.9159 65.8504 42.1892H67.4195L67.4143 42.172C67.6398 42.9122 67.7578 43.688 67.7585 44.4759C67.7585 46.0433 67.2937 47.5754 66.4229 48.8786C65.5522 50.1818 64.3145 51.1975 62.8665 51.7973C61.4184 52.3971 59.825 52.5541 58.2878 52.2483C56.7506 51.9425 55.3385 51.1878 54.2303 50.0795C53.122 48.9712 52.3672 47.5592 52.0615 46.0219ZM57.1508 37.0193C58.0069 36.7112 58.9143 36.5513 59.8338 36.5513C60.7553 36.5521 61.6601 36.7133 62.511 37.0193H57.1508ZM26.5623 14.8571C26.5625 14.7593 26.5434 14.6625 26.5061 14.5721C26.4687 14.4817 26.4139 14.3995 26.3448 14.3304C26.2756 14.2612 26.1935 14.2064 26.1031 14.1691C26.0127 14.1317 25.9158 14.1126 25.818 14.1128H9.80684C9.60943 14.1128 9.4201 14.1912 9.28051 14.3308C9.14092 14.4704 9.0625 14.6597 9.0625 14.8571C9.0625 15.0545 9.14092 15.2439 9.28051 15.3835C9.4201 15.523 9.60943 15.6015 9.80684 15.6015H25.818C25.9158 15.6017 26.0127 15.5825 26.1031 15.5452C26.1935 15.5079 26.2756 15.453 26.3448 15.3839C26.4139 15.3147 26.4687 15.2326 26.5061 15.1422C26.5434 15.0518 26.5625 14.9549 26.5623 14.8571ZM46.6312 30.5529C46.6314 30.4551 46.6123 30.3583 46.5749 30.2679C46.5376 30.1775 46.4828 30.0953 46.4136 30.0262C46.3445 29.957 46.2623 29.9022 46.1719 29.8649C46.0816 29.8275 45.9847 29.8084 45.8869 29.8086H17.3391C17.1417 29.8086 16.9523 29.887 16.8127 30.0266C16.6731 30.1662 16.5947 30.3555 16.5947 30.5529C16.5947 30.7503 16.6731 30.9397 16.8127 31.0793C16.9523 31.2188 17.1417 31.2973 17.3391 31.2973H45.8869C45.9847 31.2975 46.0816 31.2783 46.1719 31.241C46.2623 31.2037 46.3445 31.1488 46.4136 31.0797C46.4828 31.0105 46.5376 30.9284 46.5749 30.838C46.6123 30.7476 46.6314 30.6507 46.6312 30.5529ZM17.3389 36.5498H41.2516C41.4436 36.5583 41.6248 36.6405 41.7576 36.7793C41.8246 36.8492 41.8767 36.9309 41.9118 37.0193H16.6788C16.7139 36.9309 16.766 36.8492 16.8329 36.7793C16.9658 36.6405 17.147 36.5583 17.3389 36.5498Z" fill="#FF5ABE" style="mix-blend-mode:multiply"/>
<path fill-rule="evenodd" clip-rule="evenodd" d="M2.2666 26.6796H3.75238V21.5098H2.2666V26.6796ZM65.5915 21.5098H64.1029V26.6796H65.5915V21.5098ZM16.651 24.0959C16.6137 24.0055 16.5945 23.9087 16.5947 23.8109C16.5945 23.7131 16.6137 23.6162 16.651 23.5258C16.6883 23.4354 16.7432 23.3533 16.8123 23.2841C16.8815 23.215 16.9636 23.1601 17.054 23.1228C17.1444 23.0855 17.2413 23.0663 17.3391 23.0665H50.522C50.7194 23.0665 50.9087 23.1449 51.0483 23.2845C51.1879 23.4241 51.2663 23.6134 51.2663 23.8109C51.2663 24.0083 51.1879 24.1976 51.0483 24.3372C50.9087 24.4768 50.7194 24.5552 50.522 24.5552H17.3391C17.2413 24.5554 17.1444 24.5363 17.054 24.4989C16.9636 24.4616 16.8815 24.4068 16.8123 24.3376C16.7432 24.2685 16.6883 24.1863 16.651 24.0959Z" fill="#5AFFBA" style="mix-blend-mode:multiply"/>
<path fill-rule="evenodd" clip-rule="evenodd" d="M2.2666 42.1894H3.75238V37.0195H2.2666V42.1894ZM70.4807 37.0195H68.9252C68.9915 37.1914 69.0413 37.3702 69.0732 37.5536C69.174 38.131 69.0938 38.7254 68.8435 39.2554L68.3159 40.3654C68.2716 40.4595 68.2474 40.5619 68.2449 40.6659C68.2424 40.7699 68.2618 40.8733 68.3016 40.9694C68.3415 41.0655 68.4011 41.1522 68.4765 41.2239C68.5519 41.2957 68.6414 41.3508 68.7394 41.3858L69.8957 41.7977C70.1588 41.8924 70.405 42.0247 70.6269 42.1894H72.6309C72.5854 42.1158 72.5375 42.0434 72.4874 41.9724C71.9707 41.2403 71.2378 40.6885 70.3914 40.3943L70.0113 40.2599L70.1847 39.8957C70.5225 39.1829 70.6594 38.3915 70.5807 37.6066C70.5608 37.4082 70.5273 37.212 70.4807 37.0195ZM52.2463 42.1894H53.8172C54.1389 41.3426 54.6372 40.5694 55.2834 39.9233C56.1837 39.0232 57.3306 38.4104 58.5791 38.1622C59.8277 37.914 61.1218 38.0417 62.2978 38.5291C63.4738 39.0164 64.4788 39.8415 65.1859 40.9001C65.4566 41.3056 65.6791 41.7383 65.8504 42.1894H67.4195C67.0447 40.949 66.3682 39.8076 65.4353 38.8747C64.6011 38.0405 63.6003 37.4113 62.511 37.0195H57.1508C56.5476 37.2366 55.9698 37.5271 55.4311 37.887C54.1279 38.7578 53.1122 39.9955 52.5124 41.4435C52.411 41.6883 52.3223 41.9373 52.2463 42.1894ZM50.742 37.0195H49.1952C49.1726 37.1125 49.153 37.2064 49.1365 37.3012C48.9833 38.1809 49.1055 39.0865 49.4864 39.8943L49.6598 40.2585L49.2797 40.3929C48.4392 40.6947 47.7124 41.2486 47.1986 41.979C47.1502 42.0479 47.1038 42.1181 47.0596 42.1894H49.0471C49.2691 42.0247 49.5152 41.8924 49.7784 41.7977L50.9346 41.3858C51.0327 41.351 51.1225 41.296 51.1979 41.2243C51.2734 41.1526 51.333 41.0658 51.3728 40.9696C51.4126 40.8734 51.4317 40.7699 51.4289 40.6658C51.4262 40.5617 51.4015 40.4594 51.3566 40.3654L50.8305 39.2554C50.5782 38.7257 50.4962 38.1308 50.5958 37.5525C50.6272 37.3695 50.6764 37.1911 50.742 37.0195ZM16.6788 37.0195H41.9118C41.9464 37.1064 41.9646 37.1999 41.9646 37.2951C41.9646 37.4872 41.8905 37.6719 41.7576 37.8107C41.6248 37.9495 41.4436 38.0317 41.2516 38.0402H17.3389C17.147 38.0317 16.9658 37.9495 16.8329 37.8107C16.7001 37.6719 16.626 37.4872 16.626 37.2951C16.626 37.1999 16.6442 37.1064 16.6788 37.0195Z" fill="#5AFFBA" style="mix-blend-mode:multiply"/>
<path fill-rule="evenodd" clip-rule="evenodd" d="M70.2824 52.5288H68.6085C68.5126 52.6668 68.4042 52.7967 68.2842 52.9167C67.8693 53.3316 67.3361 53.6079 66.7578 53.7074C66.1795 53.8069 65.5846 53.7249 65.0548 53.4726L63.9448 52.9465C63.8509 52.9016 63.7485 52.877 63.6445 52.8742C63.5404 52.8714 63.4369 52.8906 63.3407 52.9303C63.2445 52.9701 63.1577 53.0297 63.086 53.1052C63.0143 53.1807 62.9592 53.2704 62.9244 53.3685L62.5125 54.5248C62.3157 55.0776 61.9526 55.5559 61.4731 55.8941C60.9936 56.2324 60.4211 56.4139 59.8344 56.4139C59.2476 56.4139 58.6751 56.2324 58.1956 55.8941C57.7161 55.5559 57.3531 55.0776 57.1562 54.5248L56.7457 53.3685C56.6943 53.2238 56.5993 53.0985 56.4738 53.01C56.3482 52.9215 56.1984 52.874 56.0447 52.8742C55.9337 52.8737 55.824 52.8984 55.7239 52.9465L54.6153 53.4726C54.0856 53.7249 53.4906 53.8069 52.9124 53.7074C52.3341 53.6079 51.8008 53.3316 51.3859 52.9167C51.2659 52.7967 51.1575 52.6668 51.0616 52.5288H2.7334C2.82192 52.5643 2.91647 52.5825 3.01189 52.5823H49.2922H49.3847C49.6056 53.1079 49.9272 53.5851 50.3314 53.9871C50.8983 54.563 51.6169 54.9665 52.4038 55.1506C53.1906 55.3348 54.0136 55.2922 54.7772 55.0278V57.6987H56.2688V56.0424C56.6677 56.6192 57.2005 57.0907 57.8217 57.4164C58.0373 57.5294 58.2613 57.6237 58.4913 57.6987H61.1788C61.4088 57.6237 61.6328 57.5294 61.8484 57.4164C62.4696 57.0907 63.0025 56.6192 63.4014 56.0424V57.6987H64.8886V55.0162C65.6942 55.2853 66.561 55.3119 67.3816 55.0927C68.2021 54.8735 68.9402 54.4181 69.5042 53.7831C69.8351 53.4107 70.0975 52.986 70.2824 52.5288Z" fill="#5AFFBA" style="mix-blend-mode:multiply"/>
<path fill-rule="evenodd" clip-rule="evenodd" d="M68.0752 35.4415C68.4282 35.9134 68.68 36.4505 68.8177 37.0193H67.2621C67.1196 36.6499 66.9007 36.3124 66.6175 36.0299C66.2025 35.616 65.6697 35.3406 65.092 35.2414C64.5143 35.1422 63.9201 35.224 63.3908 35.4757L62.2808 36.0018C62.1865 36.0463 62.084 36.0705 61.9798 36.0728C61.8756 36.075 61.7721 36.0554 61.6759 36.015C61.5798 35.9747 61.4933 35.9145 61.422 35.8386C61.3506 35.7626 61.2961 35.6724 61.2618 35.574L60.8499 34.4177C60.6531 33.865 60.29 33.3866 59.8105 33.0484C59.331 32.7102 58.7586 32.5286 58.1718 32.5286C57.585 32.5286 57.0126 32.7102 56.5331 33.0484C56.0536 33.3866 55.6905 33.865 55.4936 34.4177L55.0831 35.574C55.0482 35.6722 54.993 35.7619 54.9211 35.8374C54.8493 35.9129 54.7624 35.9725 54.6661 36.0122C54.5697 36.052 54.4661 36.0711 54.362 36.0683C54.2578 36.0656 54.1553 36.0409 54.0613 35.996L52.9527 35.4699C52.423 35.2176 51.8281 35.1356 51.2498 35.2351C50.6715 35.3347 50.1383 35.6109 49.7233 36.0258C49.4397 36.3095 49.2208 36.6484 49.079 37.0193H47.5321C47.7197 36.2486 48.1156 35.5421 48.6791 34.9787C49.3106 34.3472 50.1216 33.9261 51.0014 33.773C51.8811 33.6198 52.7867 33.742 53.5945 34.1229L53.9558 34.2934L54.0916 33.9133C54.3853 33.067 54.9368 32.3339 55.6687 31.8172C56.4005 31.3005 57.2759 31.0262 58.1718 31.0328C59.0674 31.0269 59.9425 31.3015 60.6743 31.818C61.406 32.3346 61.9577 33.0673 62.2519 33.9133L62.3863 34.2934L62.4398 34.2674V26.6795H63.9284V33.7558C64.7076 33.633 65.5055 33.7251 66.2362 34.0222C66.9669 34.3192 67.6027 34.8099 68.0752 35.4415ZM70.9678 42.1892C71.3915 42.8743 71.6147 43.6666 71.6088 44.4757C71.6152 45.3715 71.3408 46.2467 70.8241 46.9785C70.3075 47.7104 69.5746 48.2619 68.7283 48.5558L68.3482 48.6902L68.5216 49.0544C68.8839 49.8226 69.0126 50.6803 68.8917 51.5209C68.8417 51.8685 68.75 52.2068 68.6198 52.5289H66.9459C67.1816 52.1897 67.3415 51.8015 67.4123 51.3904C67.5118 50.8121 67.4298 50.2172 67.1775 49.6875L66.65 48.5775C66.6056 48.4834 66.5814 48.381 66.5789 48.277C66.5764 48.173 66.5958 48.0696 66.6357 47.9735C66.6756 47.8774 66.7351 47.7907 66.8105 47.719C66.8859 47.6472 66.9755 47.5921 67.0734 47.5571L68.2297 47.1452H68.2326C68.7831 46.9472 69.259 46.5841 69.5955 46.1056C69.9319 45.627 70.1125 45.0563 70.1125 44.4713C70.1125 43.8863 69.9319 43.3156 69.5955 42.8371C69.4198 42.5873 69.2063 42.369 68.9639 42.1892H70.9678ZM49.3991 52.5289C49.1634 52.1897 49.0034 51.8015 48.9327 51.3904C48.8331 50.8121 48.9151 50.2172 49.1675 49.6875L49.6936 48.5775C49.7384 48.4835 49.7631 48.3812 49.7659 48.2771C49.7686 48.173 49.7495 48.0695 49.7097 47.9733C49.6699 47.8771 49.6104 47.7903 49.5349 47.7186C49.4594 47.6469 49.3697 47.5919 49.2715 47.5571L48.1153 47.1452C47.5648 46.9472 47.0889 46.5841 46.7524 46.1056C46.4159 45.627 46.2354 45.0563 46.2354 44.4713C46.2354 43.8863 46.4159 43.3156 46.7524 42.8371C46.933 42.5802 47.1537 42.3567 47.4045 42.1741C47.3977 42.1791 47.3908 42.1841 47.384 42.1892H45.3965C44.9722 42.8738 44.746 43.6647 44.746 44.4735C44.746 45.3665 45.0217 46.2378 45.5355 46.9682C46.0494 47.6986 46.7762 48.2525 47.6166 48.5543L47.9968 48.6888L47.8233 49.053C47.5202 49.6867 47.3749 50.3844 47.3998 51.0865L2.0893 51.088V42.1892H0.603516V51.8381C0.603516 51.936 0.622816 52.0329 0.660313 52.1233C0.69781 52.2137 0.752766 52.2958 0.822037 52.3649C0.891309 52.4341 0.973534 52.4889 1.06401 52.5262C1.06627 52.5271 1.06854 52.528 1.07081 52.5289H49.3991ZM53.1146 57.6988V67.2943C53.1146 67.4465 53.1613 67.5951 53.2484 67.72C53.3355 67.8449 53.4588 67.9401 53.6017 67.9927C53.7446 68.0453 53.9002 68.0529 54.0475 68.0143C54.1948 67.9757 54.3268 67.8929 54.4255 67.777L58.1703 63.3847L61.9151 67.777C61.9849 67.8591 62.0718 67.925 62.1696 67.9702C62.2674 68.0153 62.3739 68.0387 62.4817 68.0386C62.5695 68.0381 62.6565 68.0225 62.7389 67.9923C62.8819 67.9399 63.0053 67.8448 63.0924 67.72C63.1795 67.5951 63.2262 67.4465 63.226 67.2943V57.6988H61.7388V65.2607L58.7369 61.7428C58.667 61.6608 58.5802 61.5949 58.4823 61.5498C58.3845 61.5046 58.2781 61.4812 58.1703 61.4812C58.0626 61.4812 57.9561 61.5046 57.8583 61.5498C57.7605 61.5949 57.6736 61.6608 57.6038 61.7428L54.6062 65.2607V57.6988H53.1146ZM56.8287 57.6988C57.2612 57.8398 57.7146 57.9123 58.1725 57.9123C58.6304 57.9123 59.0838 57.8398 59.5163 57.6988H56.8287ZM0.603516 37.0193V26.6795H2.0893V37.0193H0.603516ZM63.9284 21.5096V6.74434C63.9284 6.54693 63.85 6.3576 63.7104 6.21801C63.5708 6.07842 63.3815 6 63.1841 6H1.3493C1.15175 6 0.96228 6.07837 0.82246 6.21792C0.682641 6.35747 0.603898 6.54679 0.603516 6.74434V21.5096H2.0893V7.49012H62.4398V21.5096H63.9284ZM50.3984 46.0219C50.1443 44.7446 50.2097 43.4285 50.5832 42.1892H52.1542C52.1618 42.1692 52.1694 42.1493 52.1772 42.1293C52.0398 42.4807 51.9328 42.845 51.8585 43.2183C51.6101 44.4668 51.7375 45.761 52.2245 46.9371C52.7116 48.1132 53.5365 49.1184 54.595 49.8257C55.6534 50.5329 56.8978 50.9104 58.1707 50.9104C59.877 50.9089 61.5129 50.2306 62.7195 49.0242C63.9261 47.8179 64.6048 46.1821 64.6067 44.4759C64.6069 43.6905 64.4634 42.9159 64.1873 42.1892H65.7564L65.7512 42.172C65.9767 42.9122 66.0947 43.688 66.0954 44.4759C66.0954 46.0433 65.6306 47.5754 64.7598 48.8786C63.8891 50.1818 62.6514 51.1975 61.2034 51.7973C59.7553 52.3971 58.162 52.5541 56.6247 52.2483C55.0875 51.9425 53.6755 51.1878 52.5672 50.0795C51.4589 48.9712 50.7041 47.5592 50.3984 46.0219ZM55.4877 37.0193C56.3438 36.7112 57.2512 36.5513 58.1707 36.5513C59.0922 36.5521 59.997 36.7133 60.8479 37.0193H55.4877ZM24.8993 14.8571C24.8994 14.7593 24.8803 14.6625 24.843 14.5721C24.8056 14.4817 24.7508 14.3995 24.6817 14.3304C24.6125 14.2612 24.5304 14.2064 24.44 14.1691C24.3496 14.1317 24.2527 14.1126 24.1549 14.1128H8.14375C7.94634 14.1128 7.75702 14.1912 7.61742 14.3308C7.47783 14.4704 7.39941 14.6597 7.39941 14.8571C7.39941 15.0545 7.47783 15.2439 7.61742 15.3835C7.75702 15.523 7.94634 15.6015 8.14375 15.6015H24.1549C24.2527 15.6017 24.3496 15.5825 24.44 15.5452C24.5304 15.5079 24.6125 15.453 24.6817 15.3839C24.7508 15.3147 24.8056 15.2326 24.843 15.1422C24.8803 15.0518 24.8994 14.9549 24.8993 14.8571ZM44.9681 30.5529C44.9683 30.4551 44.9492 30.3583 44.9119 30.2679C44.8745 30.1775 44.8197 30.0953 44.7505 30.0262C44.6814 29.957 44.5993 29.9022 44.5089 29.8649C44.4185 29.8275 44.3216 29.8084 44.2238 29.8086H15.676C15.4786 29.8086 15.2892 29.887 15.1497 30.0266C15.0101 30.1662 14.9316 30.3555 14.9316 30.5529C14.9316 30.7503 15.0101 30.9397 15.1497 31.0793C15.2892 31.2188 15.4786 31.2973 15.676 31.2973H44.2238C44.3216 31.2975 44.4185 31.2783 44.5089 31.241C44.5993 31.2037 44.6814 31.1488 44.7505 31.0797C44.8197 31.0105 44.8745 30.9284 44.9119 30.838C44.9492 30.7476 44.9683 30.6507 44.9681 30.5529ZM15.6758 36.5498H39.5885C39.7805 36.5583 39.9617 36.6405 40.0946 36.7793C40.1615 36.8492 40.2136 36.9309 40.2487 37.0193H15.0157C15.0508 36.9309 15.1029 36.8492 15.1698 36.7793C15.3027 36.6405 15.4839 36.5583 15.6758 36.5498Z" fill="#5AFFBA" style="mix-blend-mode:multiply"/>
</g>
<defs>
<clipPath id="clip0_54_1530">
<rect width="74" height="74" fill="white"/>
</clipPath>
</defs>
</svg>
