<svg width="74" height="74" viewBox="0 0 74 74" fill="none" xmlns="http://www.w3.org/2000/svg">
<path fill-rule="evenodd" clip-rule="evenodd" d="M24.873 25.5515L30.1115 19.9136H32.1441L26.9054 25.5515H24.873ZM64.2629 25.5515H62.7728V22.7314C62.7728 22.534 62.8512 22.3447 62.9908 22.2051C63.1304 22.0655 63.3197 21.9871 63.5171 21.9871C63.615 21.9869 63.712 22.006 63.8024 22.0433C63.8929 22.0806 63.9751 22.1354 64.0444 22.2046C64.1137 22.2737 64.1686 22.3558 64.2061 22.4462C64.2436 22.5366 64.2629 22.6335 64.2629 22.7314V25.5515ZM72.5402 25.5515V25.5512C72.5402 25.3538 72.4618 25.1645 72.3222 25.0249C72.1826 24.8853 71.9933 24.8069 71.7959 24.8069C71.698 24.8067 71.6011 24.8258 71.5106 24.8631C71.4201 24.9004 71.3379 24.9552 71.2686 25.0244C71.1994 25.0935 71.1444 25.1756 71.1069 25.266C71.0694 25.3564 71.0501 25.4533 71.0501 25.5512V25.5515H72.5402ZM57.8695 19.9136L52.6701 25.5515H50.6457L55.8524 19.9136H57.8695ZM48.9433 25.5515H46.4299L38.7625 19.9136H41.2756L48.9433 25.5515Z" fill="white"/>
<path fill-rule="evenodd" clip-rule="evenodd" d="M9.15723 42.4656L14.3957 36.8276H16.4275L11.1887 42.4656H9.15723ZM22.8964 42.4656H21.4077V41.2806C21.4075 41.1828 21.4267 41.086 21.464 40.9956C21.5013 40.9052 21.5561 40.8231 21.6253 40.7539C21.6945 40.6847 21.7766 40.6299 21.867 40.5926C21.9574 40.5552 22.0543 40.5361 22.1521 40.5363C22.251 40.5361 22.3489 40.5556 22.4402 40.5938C22.5314 40.6319 22.6141 40.6879 22.6835 40.7585C22.7528 40.829 22.8073 40.9127 22.8439 41.0046C22.8805 41.0965 22.8983 41.1948 22.8964 41.2937V42.4656ZM55.9883 42.4656H54.4996V36.8276H55.9883V42.4656ZM64.2627 42.4656H62.7726V36.8276H64.2627V42.4656ZM72.54 42.4656V36.8276H71.0499V42.4656H72.54ZM47.7155 36.8276L47.7169 42.4656H46.2266V36.8276H47.7155ZM37.9508 36.8276H39.4394V41.2749V41.3283C40.5731 41.5457 41.6616 41.9306 42.671 42.4656H31.8095C33.3074 41.6731 34.9643 41.2189 36.663 41.139C37.0921 41.1199 37.522 41.1233 37.9508 41.1491V36.8276ZM29.6821 36.8276H31.1708V42.4656H29.6821V36.8276Z" fill="white"/>
<path fill-rule="evenodd" clip-rule="evenodd" d="M5.07437 56.853C5.21392 56.7132 5.40324 56.6345 5.60078 56.6341C5.69872 56.6341 5.7957 56.6534 5.88618 56.6909C5.97666 56.7284 6.05888 56.7833 6.12813 56.8525C6.19738 56.9218 6.25231 57.004 6.28979 57.0945C6.32727 57.185 6.34656 57.2819 6.34656 57.3799V59.3791H4.85645V57.3799C4.85644 57.1823 4.93482 56.9929 5.07437 56.853ZM14.6239 59.3791H13.1337V53.7412H14.6239V59.3791ZM22.8968 59.3791H21.4082V53.7412H22.8968V59.3791ZM55.9887 59.3791H54.5V53.7412H55.9887V59.3791ZM64.2631 59.3791H62.773V53.7412H64.2631V59.3791ZM72.5404 59.3791V53.7412H71.0503V59.3791H72.5404ZM48.8306 53.7412C48.7776 54.3676 48.6737 54.9921 48.5184 55.6084C48.176 56.9673 47.5946 58.2425 46.8112 59.3791H44.9308C45.765 58.4044 46.4123 57.2742 46.8305 56.0439C47.0855 55.2935 47.2503 54.5207 47.3248 53.7412H48.8306ZM40.0424 53.7412H42.2259L37.9758 57.7022V59.3791H36.4828V57.7022L32.234 53.7412H34.4135L37.2242 56.3609L40.0424 53.7412ZM27.1162 53.7412H25.6212C25.7522 55.3116 26.2011 56.8412 26.9429 58.2362C27.153 58.6312 27.3851 59.0127 27.6379 59.3791H29.507C29.0055 58.7936 28.5705 58.1504 28.2123 57.461C27.609 56.3 27.2382 55.0365 27.1162 53.7412Z" fill="white"/>
<path fill-rule="evenodd" clip-rule="evenodd" d="M70.842 3.69953C70.8427 3.69329 70.8427 3.68698 70.842 3.68074C70.8405 3.63786 70.8347 3.59525 70.8246 3.55355C70.8251 3.54972 70.8251 3.54583 70.8246 3.54199C70.8146 3.49934 70.8006 3.45772 70.7827 3.4177C70.783 3.41433 70.783 3.41095 70.7827 3.40758C70.7646 3.3664 70.7423 3.32718 70.7162 3.29051C70.713 3.28777 70.7106 3.2843 70.709 3.28039C70.6814 3.24383 70.651 3.20952 70.6179 3.17777C70.5836 3.14745 70.5468 3.11991 70.5081 3.09539H70.4965C70.4585 3.07371 70.4189 3.05487 70.378 3.03902H70.365C70.3241 3.02468 70.2821 3.01404 70.2393 3.00723H70.2234C70.1889 3.00266 70.1541 3.00025 70.1193 3H59.5526C59.4549 3 59.3581 3.01925 59.2678 3.05666C59.1775 3.09407 59.0954 3.14889 59.0263 3.21801C58.9572 3.28713 58.9024 3.36918 58.865 3.45949C58.8275 3.5498 58.8083 3.64659 58.8083 3.74434C58.8083 3.84208 58.8275 3.93887 58.865 4.02918C58.9024 4.11949 58.9572 4.20154 59.0263 4.27066C59.0954 4.33978 59.1775 4.39461 59.2678 4.43201C59.3581 4.46942 59.4549 4.48867 59.5526 4.48867H68.4052L54.16 19.9136H56.1771H56.1772L69.3533 5.62613V14.2662C69.3617 14.4581 69.4439 14.6394 69.5827 14.7722C69.7215 14.905 69.9062 14.9792 70.0984 14.9792C70.2905 14.9792 70.4752 14.905 70.614 14.7722C70.7528 14.6394 70.835 14.4581 70.8434 14.2662V3.71543C70.8434 3.71543 70.842 3.70676 70.842 3.69953ZM50.9776 25.5515H48.9533L48.2647 26.297L47.2509 25.5515H47.2509H44.7375L47.9193 27.8912C48.0669 27.9998 48.2494 28.0501 48.4318 28.0325C48.6143 28.0149 48.7838 27.9306 48.9079 27.7958L50.9776 25.5515ZM37.0701 19.9136H39.5832L33.485 15.4297C33.3379 15.3216 33.1563 15.2712 32.9745 15.2883C32.7928 15.3054 32.6237 15.3886 32.4993 15.5222L12.7035 36.8275H14.7353L25.2129 25.5515H23.1807L28.4191 19.9136H30.4517L33.1381 17.0224L37.0701 19.9136ZM3.36756 46.8754L7.465 42.4655H9.49651L4.45877 47.8871C4.39322 47.962 4.3133 48.023 4.22375 48.0665C4.1342 48.1099 4.03684 48.135 3.93743 48.1402C3.83802 48.1454 3.73857 48.1306 3.64499 48.0967C3.5514 48.0628 3.46556 48.0104 3.39256 47.9427C3.31957 47.875 3.26088 47.7934 3.21999 47.7026C3.1791 47.6119 3.15683 47.5138 3.1545 47.4143C3.15217 47.3148 3.16982 47.2158 3.20642 47.1232C3.24302 47.0307 3.29781 46.9464 3.36756 46.8754ZM41.6308 68.6793H29.4367C29.2393 68.6793 29.0499 68.7578 28.9103 68.8973C28.7707 69.0369 28.6923 69.2263 28.6923 69.4237C28.6923 69.6211 28.7707 69.8104 28.9103 69.95C29.0499 70.0896 29.2393 70.168 29.4367 70.168H41.6308C41.8282 70.168 42.0175 70.0896 42.1571 69.95C42.2967 69.8104 42.3751 69.6211 42.3751 69.4237C42.3751 69.2263 42.2967 69.0369 42.1571 68.8973C42.0175 68.7578 41.8282 68.6793 41.6308 68.6793ZM4.65389 59.3791H3.16377V69.9107C3.17223 70.1027 3.25442 70.2839 3.39322 70.4167C3.53202 70.5496 3.71672 70.6237 3.90883 70.6237C4.10094 70.6237 4.28564 70.5496 4.42444 70.4167C4.56324 70.2839 4.64543 70.1027 4.65389 69.9107V59.3791ZM12.1869 48.1125C11.9893 48.1125 11.7998 48.1909 11.66 48.3305C11.5202 48.47 11.4415 48.6593 11.4411 48.8569V53.7412H12.9312V48.8569C12.9308 48.6596 12.8523 48.4705 12.7128 48.331C12.5733 48.1915 12.3842 48.1129 12.1869 48.1125ZM12.9312 59.3791H11.4411V69.9107C11.4495 70.1027 11.5317 70.2839 11.6705 70.4167C11.8093 70.5496 11.994 70.6237 12.1861 70.6237C12.3782 70.6237 12.5629 70.5496 12.7017 70.4167C12.8405 70.2839 12.9227 70.1027 12.9312 69.9107V59.3791ZM19.7155 53.7412L19.7155 42.4655H21.2042L21.2042 41.2936V53.7412H19.7155ZM19.7155 59.3791V69.9107C19.7155 70.1082 19.7939 70.2975 19.9335 70.4371C20.0731 70.5767 20.2624 70.6551 20.4598 70.6551C20.6572 70.6551 20.8466 70.5767 20.9862 70.4371C21.1257 70.2975 21.2042 70.1082 21.2042 69.9107V59.3791H19.7155ZM46.0231 35.8361C46.0231 35.6386 45.9446 35.4493 45.8051 35.3097C45.6655 35.1701 45.4761 35.0917 45.2787 35.0917C45.0813 35.0917 44.892 35.1701 44.7524 35.3097C44.6128 35.4493 44.5344 35.6386 44.5344 35.8361L44.5344 36.8275H46.0233L46.0231 35.8361ZM44.5344 45.3751L44.5344 42.4655H46.0247L46.026 47.6992C46.9511 49.6222 47.3262 51.7512 47.1278 53.8537C47.1314 53.8162 47.1347 53.7787 47.1379 53.7412H45.6321C45.7657 52.3424 45.6084 50.9223 45.1599 49.5726C44.4614 47.4707 43.095 45.6549 41.2688 44.4016C39.4427 43.1483 37.2569 42.5264 35.0445 42.6305C29.8139 42.8747 25.4794 47.3364 25.3811 52.5771C25.3729 52.9667 25.3871 53.3554 25.4235 53.7412H23.9286C23.9124 53.5469 23.901 53.352 23.8946 53.1567C23.8363 51.3822 24.1849 49.618 24.9138 47.9991C25.6427 46.3802 26.7325 44.9497 28.0998 43.8171C28.0279 43.7006 27.9899 43.5665 27.9899 43.4297L27.9899 42.4655H29.4786V36.8275H27.9899L27.9899 34.9703C27.9899 34.7729 28.0683 34.5836 28.2079 34.444C28.3475 34.3044 28.5368 34.226 28.7342 34.226C28.9317 34.226 29.121 34.3044 29.2606 34.444C29.4002 34.5836 29.4786 34.7729 29.4786 34.9703V42.8299C29.6879 42.7015 29.901 42.5799 30.1173 42.4655H40.9788C41.92 42.9642 42.7926 43.5934 43.5689 44.3388C43.9111 44.6647 44.2335 45.0107 44.5344 45.3751ZM25.9452 59.3791C26.6956 60.467 27.6278 61.4218 28.7039 62.2V65.5358C28.7043 65.7331 28.7828 65.9222 28.9223 66.0617C29.0618 66.2012 29.2509 66.2797 29.4482 66.2801H41.6206C41.8179 66.2801 42.0072 66.2019 42.147 66.0627C42.2868 65.9235 42.3657 65.7345 42.3664 65.5372L42.3737 62.1942C43.4494 61.4119 44.3749 60.458 45.1185 59.3791H43.2381C43.2381 59.3791 43.2381 59.3791 43.2381 59.3791C42.6504 60.0659 41.97 60.6754 41.2116 61.1883C41.1719 61.2141 41.1351 61.2442 41.1018 61.2779C40.9625 61.4189 40.8837 61.6087 40.8821 61.8069L40.8749 64.7914H36.2831V59.3791H34.7901V64.7914H30.1897V61.817C30.1898 61.6951 30.16 61.5751 30.1027 61.4674C30.0455 61.3598 29.9627 61.2679 29.8616 61.1998C29.0686 60.6675 28.358 60.0278 27.7487 59.3017C27.7704 59.3277 27.7923 59.3535 27.8143 59.3791H25.9452ZM30.5413 53.7412H32.7208L31.1508 52.2779C31.0808 52.2044 30.9964 52.146 30.9029 52.1063C30.8095 52.0666 30.7089 52.0465 30.6073 52.0471C30.5058 52.0477 30.4055 52.0691 30.3125 52.1099C30.2195 52.1508 30.1359 52.2102 30.0668 52.2846C29.9976 52.359 29.9444 52.4467 29.9105 52.5424C29.8765 52.6381 29.8625 52.7397 29.8693 52.8411C29.876 52.9424 29.9035 53.0412 29.9499 53.1315C29.9963 53.2219 30.0607 53.3017 30.1391 53.3662L30.5413 53.7412ZM40.5332 53.7412L40.9356 53.3662C41.014 53.3017 41.0784 53.2219 41.1248 53.1315C41.1712 53.0412 41.1986 52.9424 41.2054 52.8411C41.2122 52.7397 41.1982 52.6381 41.1642 52.5424C41.1302 52.4467 41.077 52.359 41.0079 52.2846C40.9388 52.2102 40.8551 52.1508 40.7622 52.1099C40.6692 52.0691 40.5689 52.0477 40.4673 52.0471C40.3658 52.0465 40.2652 52.0666 40.1717 52.1063C40.0783 52.146 39.9939 52.2044 39.9239 52.2779L38.3497 53.7412H40.5332ZM37.7472 31.5637L37.7472 36.8275H36.2585L36.2585 31.5637C36.2585 31.466 36.2778 31.3692 36.3152 31.2789C36.3526 31.1886 36.4074 31.1065 36.4766 31.0374C36.5457 30.9683 36.6277 30.9134 36.718 30.876C36.8083 30.8386 36.9051 30.8194 37.0029 30.8194C37.1006 30.8194 37.1974 30.8386 37.2877 30.876C37.378 30.9134 37.4601 30.9683 37.5292 31.0374C37.5983 31.1065 37.6531 31.1886 37.6906 31.2789C37.728 31.3692 37.7472 31.466 37.7472 31.5637ZM53.2666 35.148C53.357 35.1106 53.4539 35.0915 53.5517 35.0917C53.6495 35.0915 53.7464 35.1106 53.8368 35.148C53.9272 35.1853 54.0093 35.2401 54.0785 35.3093C54.1476 35.3785 54.2024 35.4606 54.2398 35.551C54.2771 35.6414 54.2962 35.7383 54.296 35.8361L54.296 36.8275H52.8074L52.8074 35.8361C52.8072 35.7383 52.8263 35.6414 52.8636 35.551C52.901 35.4606 52.9558 35.3785 53.025 35.3093C53.0941 35.2401 53.1762 35.1853 53.2666 35.148ZM52.8074 42.4655H54.296L54.296 53.7412H52.8074L52.8074 42.4655ZM52.8074 59.3791V69.9107C52.8074 70.1082 52.8858 70.2975 53.0254 70.4371C53.165 70.5767 53.3543 70.6551 53.5517 70.6551C53.7491 70.6551 53.9384 70.5767 54.078 70.4371C54.2176 70.2975 54.296 70.1082 54.296 69.9107V59.3791H52.8074ZM61.4017 22.1189C61.365 22.1443 61.3304 22.1731 61.2983 22.2051C61.1588 22.3447 61.0803 22.534 61.0803 22.7314L61.0803 36.8275H62.5704L62.5704 25.5515H61.0804V22.7314C61.0804 22.534 61.1588 22.3447 61.2984 22.2051C61.3304 22.1731 61.365 22.1443 61.4017 22.1189ZM61.0803 53.7412L61.0803 42.4655H62.5704L62.5704 53.7412H61.0803ZM61.0803 59.3791V69.9107C61.0888 70.1027 61.171 70.2839 61.3098 70.4167C61.4486 70.5496 61.6333 70.6237 61.8254 70.6237C62.0175 70.6237 62.2022 70.5496 62.341 70.4167C62.4798 70.2839 62.562 70.1027 62.5704 69.9107V59.3791H61.0803ZM70.1403 24.8078C70.2943 24.8154 70.4418 24.8707 70.5625 24.9653C70.586 24.9837 70.6084 25.0036 70.6297 25.0249C70.7693 25.1645 70.8478 25.3538 70.8478 25.5512V25.5515H69.3577V25.5512C69.3577 25.4533 69.377 25.3564 69.4145 25.266C69.452 25.1756 69.507 25.0935 69.5763 25.0244C69.6022 24.9985 69.63 24.9745 69.6593 24.9528C69.7083 24.9166 69.7616 24.8864 69.8181 24.8631C69.8253 24.8602 69.8325 24.8573 69.8398 24.8546C69.844 24.853 69.8482 24.8515 69.8524 24.85L70.1403 24.8078Z" fill="white"/>
<path fill-rule="evenodd" clip-rule="evenodd" d="M23.1807 25.5515L28.4191 19.9136H30.4518L25.213 25.5515H23.1807ZM62.5705 25.5515H61.0804V22.7314C61.0804 22.534 61.1588 22.3447 61.2984 22.2051C61.438 22.0655 61.6274 21.9871 61.8248 21.9871C61.9226 21.9869 62.0196 22.006 62.1101 22.0433C62.2005 22.0806 62.2828 22.1354 62.352 22.2046C62.4213 22.2737 62.4762 22.3558 62.5137 22.4462C62.5512 22.5366 62.5705 22.6335 62.5705 22.7314V25.5515ZM70.8479 25.5515V25.5512C70.8479 25.3538 70.7694 25.1645 70.6298 25.0249C70.4902 24.8853 70.3009 24.8069 70.1035 24.8069C70.0056 24.8067 69.9087 24.8258 69.8182 24.8631C69.7278 24.9004 69.6455 24.9552 69.5763 25.0244C69.507 25.0935 69.452 25.1756 69.4145 25.266C69.377 25.3564 69.3577 25.4533 69.3577 25.5512V25.5515H70.8479ZM56.1772 19.9136L50.9777 25.5515H48.9533L54.16 19.9136H56.1772ZM47.2509 25.5515H44.7375L37.0701 19.9136H39.5833L47.2509 25.5515Z" fill="white"/>
<path fill-rule="evenodd" clip-rule="evenodd" d="M7.46582 42.4656L12.7043 36.8276H14.7361L9.49733 42.4656H7.46582ZM21.205 42.4656H19.7163V41.2806C19.7161 41.1828 19.7352 41.086 19.7726 40.9956C19.8099 40.9052 19.8647 40.8231 19.9339 40.7539C20.0031 40.6847 20.0852 40.6299 20.1756 40.5926C20.266 40.5552 20.3628 40.5361 20.4606 40.5363C20.5596 40.5361 20.6575 40.5556 20.7488 40.5938C20.84 40.6319 20.9227 40.6879 20.9921 40.7585C21.0614 40.829 21.1159 40.9127 21.1525 41.0046C21.1891 41.0965 21.2069 41.1948 21.205 41.2937V42.4656ZM54.2969 42.4656H52.8082V36.8276H54.2969V42.4656ZM62.5713 42.4656H61.0812V36.8276H62.5713V42.4656ZM70.8486 42.4656V36.8276H69.3585V42.4656H70.8486ZM46.0241 36.8276L46.0255 42.4656H44.5352V36.8276H46.0241ZM36.2594 36.8276H37.748V41.2749V41.3283C38.8817 41.5457 39.9702 41.9306 40.9796 42.4656H30.1181C31.616 41.6731 33.2729 41.2189 34.9716 41.139C35.4007 41.1199 35.8306 41.1233 36.2594 41.1491V36.8276ZM27.9907 36.8276H29.4794V42.4656H27.9907V36.8276Z" fill="white"/>
<path fill-rule="evenodd" clip-rule="evenodd" d="M3.38199 56.853C3.52153 56.7132 3.71086 56.6345 3.9084 56.6341C4.00634 56.6341 4.10331 56.6534 4.1938 56.6909C4.28428 56.7284 4.36649 56.7833 4.43575 56.8525C4.505 56.9218 4.55993 57.004 4.59741 57.0945C4.63489 57.185 4.65418 57.2819 4.65418 57.3799V59.3791H3.16406V57.3799C3.16406 57.1823 3.24244 56.9929 3.38199 56.853ZM12.9315 59.3791H11.4414V53.7412H12.9315V59.3791ZM21.2045 59.3791H19.7158V53.7412H21.2045V59.3791ZM54.2963 59.3791H52.8077V53.7412H54.2963V59.3791ZM62.5707 59.3791H61.0806V53.7412H62.5707V59.3791ZM70.848 59.3791V53.7412H69.3579V59.3791H70.848ZM47.1382 53.7412C47.0852 54.3676 46.9813 54.9921 46.8261 55.6084C46.4837 56.9673 45.9022 58.2425 45.1188 59.3791H43.2384C44.0726 58.4044 44.7199 57.2742 45.1381 56.0439C45.3932 55.2935 45.5579 54.5207 45.6324 53.7412H47.1382ZM38.35 53.7412H40.5335L36.2834 57.7022V59.3791H34.7904V57.7022L30.5416 53.7412H32.7211L35.5318 56.3609L38.35 53.7412ZM25.4238 53.7412H23.9289C24.0598 55.3116 24.5087 56.8412 25.2506 58.2362C25.4606 58.6312 25.6927 59.0127 25.9455 59.3791H27.8146C27.3131 58.7936 26.8781 58.1504 26.5199 57.461C25.9167 56.3 25.5458 55.0365 25.4238 53.7412Z" fill="white"/>
<path fill-rule="evenodd" clip-rule="evenodd" d="M69.1506 3.69953C69.1513 3.69329 69.1513 3.68698 69.1506 3.68074C69.1491 3.63786 69.1433 3.59525 69.1332 3.55355C69.1337 3.54972 69.1337 3.54583 69.1332 3.54199C69.1232 3.49934 69.1091 3.45772 69.0913 3.4177C69.0916 3.41433 69.0916 3.41095 69.0913 3.40758C69.0732 3.3664 69.0509 3.32718 69.0248 3.29051C69.0216 3.28777 69.0191 3.2843 69.0176 3.28039C68.99 3.24383 68.9595 3.20952 68.9265 3.17777C68.8922 3.14745 68.8554 3.11991 68.8167 3.09539H68.8051C68.7671 3.07371 68.7275 3.05487 68.6866 3.03902H68.6736C68.6327 3.02468 68.5907 3.01404 68.5479 3.00723H68.532C68.4975 3.00266 68.4627 3.00025 68.4279 3H57.8612C57.7635 3 57.6667 3.01925 57.5764 3.05666C57.4861 3.09407 57.404 3.14889 57.3349 3.21801C57.2658 3.28713 57.211 3.36918 57.1735 3.45949C57.1361 3.5498 57.1169 3.64659 57.1169 3.74434C57.1169 3.84208 57.1361 3.93887 57.1735 4.02918C57.211 4.11949 57.2658 4.20154 57.3349 4.27066C57.404 4.33978 57.4861 4.39461 57.5764 4.43201C57.6667 4.46942 57.7635 4.48867 57.8612 4.48867H66.7138L52.4686 19.9136H54.4857H54.4858L67.6619 5.62613V14.2662C67.6703 14.4581 67.7525 14.6394 67.8913 14.7722C68.0301 14.905 68.2148 14.9792 68.4069 14.9792C68.5991 14.9792 68.7838 14.905 68.9226 14.7722C69.0614 14.6394 69.1436 14.4581 69.152 14.2662V3.71543C69.152 3.71543 69.1506 3.70676 69.1506 3.69953ZM49.2862 25.5515H47.2619L46.5733 26.297L45.5595 25.5515H45.5594H43.0461L46.2279 27.8912C46.3755 27.9998 46.558 28.0501 46.7404 28.0325C46.9229 28.0149 47.0924 27.9306 47.2165 27.7958L49.2862 25.5515ZM35.3787 19.9136H37.8918L31.7936 15.4297C31.6465 15.3216 31.4648 15.2712 31.2831 15.2883C31.1014 15.3054 30.9323 15.3886 30.8079 15.5222L11.0121 36.8275H13.0438L23.5215 25.5515H21.4893L26.7277 19.9136H28.7603L31.4467 17.0224L35.3787 19.9136ZM1.67615 46.8754L5.77359 42.4655H7.8051L2.76737 47.8871C2.70181 47.962 2.62189 48.023 2.53234 48.0665C2.44279 48.1099 2.34543 48.135 2.24602 48.1402C2.14661 48.1454 2.04717 48.1306 1.95358 48.0967C1.85999 48.0628 1.77416 48.0104 1.70116 47.9427C1.62816 47.875 1.56948 47.7934 1.52859 47.7026C1.4877 47.6119 1.46543 47.5138 1.46309 47.4143C1.46076 47.3148 1.47842 47.2158 1.51501 47.1232C1.55161 47.0307 1.60641 46.9464 1.67615 46.8754ZM39.9394 68.6793H27.7453C27.5478 68.6793 27.3585 68.7578 27.2189 68.8973C27.0793 69.0369 27.0009 69.2263 27.0009 69.4237C27.0009 69.6211 27.0793 69.8104 27.2189 69.95C27.3585 70.0896 27.5478 70.168 27.7453 70.168H39.9394C40.1368 70.168 40.3261 70.0896 40.4657 69.95C40.6053 69.8104 40.6837 69.6211 40.6837 69.4237C40.6837 69.2263 40.6053 69.0369 40.4657 68.8973C40.3261 68.7578 40.1368 68.6793 39.9394 68.6793ZM2.96248 59.3791H1.47237V69.9107C1.48082 70.1027 1.56301 70.2839 1.70181 70.4167C1.84061 70.5496 2.02531 70.6237 2.21742 70.6237C2.40954 70.6237 2.59424 70.5496 2.73304 70.4167C2.87184 70.2839 2.95403 70.1027 2.96248 69.9107V59.3791ZM10.4955 48.1125C10.2979 48.1125 10.1084 48.1909 9.96862 48.3305C9.8288 48.47 9.75005 48.6593 9.74967 48.8569V53.7412H11.2398V48.8569C11.2394 48.6596 11.1609 48.4705 11.0214 48.331C10.8818 48.1915 10.6927 48.1129 10.4955 48.1125ZM11.2398 59.3791H9.74967V69.9107C9.75813 70.1027 9.84032 70.2839 9.97912 70.4167C10.1179 70.5496 10.3026 70.6237 10.4947 70.6237C10.6868 70.6237 10.8715 70.5496 11.0103 70.4167C11.1491 70.2839 11.2313 70.1027 11.2398 69.9107V59.3791ZM18.0241 53.7412L18.0241 42.4655H19.5128L19.5128 41.2936V53.7412H18.0241ZM18.0241 59.3791V69.9107C18.0241 70.1082 18.1025 70.2975 18.2421 70.4371C18.3817 70.5767 18.571 70.6551 18.7684 70.6551C18.9658 70.6551 19.1552 70.5767 19.2947 70.4371C19.4343 70.2975 19.5128 70.1082 19.5128 69.9107V59.3791H18.0241ZM44.3317 35.8361C44.3317 35.6386 44.2532 35.4493 44.1137 35.3097C43.9741 35.1701 43.7847 35.0917 43.5873 35.0917C43.3899 35.0917 43.2006 35.1701 43.061 35.3097C42.9214 35.4493 42.843 35.6386 42.843 35.8361L42.843 36.8275H44.3319L44.3317 35.8361ZM42.843 45.3751L42.843 42.4655H44.3333L44.3346 47.6992C45.2597 49.6222 45.6348 51.7512 45.4364 53.8537C45.44 53.8162 45.4433 53.7787 45.4465 53.7412H43.9407C44.0743 52.3424 43.917 50.9223 43.4684 49.5726C42.77 47.4707 41.4036 45.6549 39.5774 44.4016C37.7512 43.1483 35.5655 42.5264 33.3531 42.6305C28.1225 42.8747 23.788 47.3364 23.6897 52.5771C23.6815 52.9667 23.6957 53.3554 23.7321 53.7412H22.2372C22.221 53.5469 22.2096 53.352 22.2032 53.1567C22.1449 51.3822 22.4935 49.618 23.2224 47.9991C23.9513 46.3802 25.0411 44.9497 26.4083 43.8171C26.3365 43.7006 26.2985 43.5665 26.2985 43.4297L26.2985 42.4655H27.7872V36.8275H26.2985L26.2985 34.9703C26.2985 34.7729 26.3769 34.5836 26.5165 34.444C26.6561 34.3044 26.8454 34.226 27.0428 34.226C27.2402 34.226 27.4296 34.3044 27.5692 34.444C27.7088 34.5836 27.7872 34.7729 27.7872 34.9703V42.8299C27.9965 42.7015 28.2096 42.5799 28.4259 42.4655H39.2874C40.2286 42.9642 41.1012 43.5934 41.8775 44.3388C42.2197 44.6647 42.5421 45.0107 42.843 45.3751ZM24.2538 59.3791C25.0042 60.467 25.9364 61.4218 27.0125 62.2V65.5358C27.0129 65.7331 27.0914 65.9222 27.2309 66.0617C27.3704 66.2012 27.5595 66.2797 27.7568 66.2801H39.9292C40.1265 66.2801 40.3158 66.2019 40.4556 66.0627C40.5953 65.9235 40.6743 65.7345 40.675 65.5372L40.6823 62.1942C41.758 61.4119 42.6835 60.458 43.4271 59.3791H41.5467C41.5467 59.3791 41.5467 59.3791 41.5467 59.3791C40.959 60.0659 40.2786 60.6754 39.5202 61.1883C39.4805 61.2141 39.4437 61.2442 39.4104 61.2779C39.2711 61.4189 39.1923 61.6087 39.1907 61.8069L39.1835 64.7914H34.5917V59.3791H33.0987V64.7914H28.4983V61.817C28.4984 61.6951 28.4685 61.5751 28.4113 61.4674C28.3541 61.3598 28.2713 61.2679 28.1702 61.1998C27.3772 60.6675 26.6666 60.0278 26.0573 59.3017C26.079 59.3277 26.1009 59.3535 26.1229 59.3791H24.2538ZM28.8499 53.7412H31.0294L29.4594 52.2779C29.3893 52.2044 29.305 52.146 29.2115 52.1063C29.1181 52.0666 29.0175 52.0465 28.9159 52.0471C28.8144 52.0477 28.7141 52.0691 28.6211 52.1099C28.5281 52.1508 28.4445 52.2102 28.3754 52.2846C28.3062 52.359 28.253 52.4467 28.2191 52.5424C28.1851 52.6381 28.1711 52.7397 28.1778 52.8411C28.1846 52.9424 28.2121 53.0412 28.2585 53.1315C28.3049 53.2219 28.3693 53.3017 28.4477 53.3662L28.8499 53.7412ZM38.8418 53.7412L39.2442 53.3662C39.3226 53.3017 39.387 53.2219 39.4334 53.1315C39.4798 53.0412 39.5072 52.9424 39.514 52.8411C39.5208 52.7397 39.5067 52.6381 39.4728 52.5424C39.4388 52.4467 39.3856 52.359 39.3165 52.2846C39.2473 52.2102 39.1637 52.1508 39.0708 52.1099C38.9778 52.0691 38.8774 52.0477 38.7759 52.0471C38.6744 52.0465 38.5738 52.0666 38.4803 52.1063C38.3868 52.146 38.3025 52.2044 38.2324 52.2779L36.6583 53.7412H38.8418ZM36.0558 31.5637L36.0558 36.8275H34.5671L34.5671 31.5637C34.5671 31.466 34.5864 31.3692 34.6238 31.2789C34.6612 31.1886 34.716 31.1065 34.7851 31.0374C34.8543 30.9683 34.9363 30.9134 35.0266 30.876C35.1169 30.8386 35.2137 30.8194 35.3115 30.8194C35.4092 30.8194 35.506 30.8386 35.5963 30.876C35.6866 30.9134 35.7687 30.9683 35.8378 31.0374C35.9069 31.1065 35.9617 31.1886 35.9991 31.2789C36.0366 31.3692 36.0558 31.466 36.0558 31.5637ZM51.5752 35.148C51.6656 35.1106 51.7625 35.0915 51.8603 35.0917C51.9581 35.0915 52.055 35.1106 52.1454 35.148C52.2358 35.1853 52.3179 35.2401 52.3871 35.3093C52.4562 35.3785 52.511 35.4606 52.5484 35.551C52.5857 35.6414 52.6048 35.7383 52.6046 35.8361L52.6046 36.8275H51.116L51.116 35.8361C51.1158 35.7383 51.1349 35.6414 51.1722 35.551C51.2096 35.4606 51.2644 35.3785 51.3335 35.3093C51.4027 35.2401 51.4848 35.1853 51.5752 35.148ZM51.116 42.4655H52.6046L52.6046 53.7412H51.116L51.116 42.4655ZM51.116 59.3791V69.9107C51.116 70.1082 51.1944 70.2975 51.334 70.4371C51.4736 70.5767 51.6629 70.6551 51.8603 70.6551C52.0577 70.6551 52.247 70.5767 52.3866 70.4371C52.5262 70.2975 52.6046 70.1082 52.6046 69.9107V59.3791H51.116ZM59.7103 22.1189C59.6736 22.1443 59.6389 22.1731 59.6069 22.2051C59.4673 22.3447 59.3889 22.534 59.3889 22.7314L59.3889 36.8275H60.879L60.879 25.5515H59.389V22.7314C59.389 22.534 59.4674 22.3447 59.607 22.2051C59.639 22.1731 59.6736 22.1443 59.7103 22.1189ZM59.3889 53.7412L59.3889 42.4655H60.879L60.879 53.7412H59.3889ZM59.3889 59.3791V69.9107C59.3974 70.1027 59.4796 70.2839 59.6184 70.4167C59.7572 70.5496 59.9419 70.6237 60.134 70.6237C60.3261 70.6237 60.5108 70.5496 60.6496 70.4167C60.7884 70.2839 60.8706 70.1027 60.879 69.9107V59.3791H59.3889ZM68.4489 24.8078C68.6029 24.8154 68.7504 24.8707 68.8711 24.9653C68.8945 24.9837 68.917 25.0036 68.9383 25.0249C69.0779 25.1645 69.1563 25.3538 69.1563 25.5512V25.5515H67.6663V25.5512C67.6663 25.4533 67.6856 25.3564 67.7231 25.266C67.7606 25.1756 67.8156 25.0935 67.8848 25.0244C67.9108 24.9985 67.9386 24.9745 67.9679 24.9528C68.0169 24.9166 68.0702 24.8864 68.1267 24.8631C68.1339 24.8602 68.1411 24.8573 68.1484 24.8546C68.1526 24.853 68.1568 24.8515 68.1609 24.85L68.4489 24.8078Z" fill="white"/>
<path fill-rule="evenodd" clip-rule="evenodd" d="M24.873 25.5515L30.1115 19.9136H32.1441L26.9054 25.5515H24.873ZM64.2629 25.5515H62.7728V22.7314C62.7728 22.534 62.8512 22.3447 62.9908 22.2051C63.1304 22.0655 63.3197 21.9871 63.5171 21.9871C63.615 21.9869 63.712 22.006 63.8024 22.0433C63.8929 22.0806 63.9751 22.1354 64.0444 22.2046C64.1137 22.2737 64.1686 22.3558 64.2061 22.4462C64.2436 22.5366 64.2629 22.6335 64.2629 22.7314V25.5515ZM72.5402 25.5515V25.5512C72.5402 25.3538 72.4618 25.1645 72.3222 25.0249C72.1826 24.8853 71.9933 24.8069 71.7959 24.8069C71.698 24.8067 71.6011 24.8258 71.5106 24.8631C71.4201 24.9004 71.3379 24.9552 71.2686 25.0244C71.1994 25.0935 71.1444 25.1756 71.1069 25.266C71.0694 25.3564 71.0501 25.4533 71.0501 25.5512V25.5515H72.5402ZM57.8695 19.9136L52.6701 25.5515H50.6457L55.8524 19.9136H57.8695ZM48.9433 25.5515H46.4299L38.7625 19.9136H41.2756L48.9433 25.5515Z" fill="#FF5ABE" style="mix-blend-mode:multiply"/>
<path fill-rule="evenodd" clip-rule="evenodd" d="M9.15723 42.4656L14.3957 36.8276H16.4275L11.1887 42.4656H9.15723ZM22.8964 42.4656H21.4077V41.2806C21.4075 41.1828 21.4267 41.086 21.464 40.9956C21.5013 40.9052 21.5561 40.8231 21.6253 40.7539C21.6945 40.6847 21.7766 40.6299 21.867 40.5926C21.9574 40.5552 22.0543 40.5361 22.1521 40.5363C22.251 40.5361 22.3489 40.5556 22.4402 40.5938C22.5314 40.6319 22.6141 40.6879 22.6835 40.7585C22.7528 40.829 22.8073 40.9127 22.8439 41.0046C22.8805 41.0965 22.8983 41.1948 22.8964 41.2937V42.4656ZM55.9883 42.4656H54.4996V36.8276H55.9883V42.4656ZM64.2627 42.4656H62.7726V36.8276H64.2627V42.4656ZM72.54 42.4656V36.8276H71.0499V42.4656H72.54ZM47.7155 36.8276L47.7169 42.4656H46.2266V36.8276H47.7155ZM37.9508 36.8276H39.4394V41.2749V41.3283C40.5731 41.5457 41.6616 41.9306 42.671 42.4656H31.8095C33.3074 41.6731 34.9643 41.2189 36.663 41.139C37.0921 41.1199 37.522 41.1233 37.9508 41.1491V36.8276ZM29.6821 36.8276H31.1708V42.4656H29.6821V36.8276Z" fill="#FF5ABE" style="mix-blend-mode:multiply"/>
<path fill-rule="evenodd" clip-rule="evenodd" d="M5.07437 56.853C5.21392 56.7132 5.40324 56.6345 5.60078 56.6341C5.69872 56.6341 5.7957 56.6534 5.88618 56.6909C5.97666 56.7284 6.05888 56.7833 6.12813 56.8525C6.19738 56.9218 6.25231 57.004 6.28979 57.0945C6.32727 57.185 6.34656 57.2819 6.34656 57.3799V59.3791H4.85645V57.3799C4.85644 57.1823 4.93482 56.9929 5.07437 56.853ZM14.6239 59.3791H13.1337V53.7412H14.6239V59.3791ZM22.8968 59.3791H21.4082V53.7412H22.8968V59.3791ZM55.9887 59.3791H54.5V53.7412H55.9887V59.3791ZM64.2631 59.3791H62.773V53.7412H64.2631V59.3791ZM72.5404 59.3791V53.7412H71.0503V59.3791H72.5404ZM48.8306 53.7412C48.7776 54.3676 48.6737 54.9921 48.5184 55.6084C48.176 56.9673 47.5946 58.2425 46.8112 59.3791H44.9308C45.765 58.4044 46.4123 57.2742 46.8305 56.0439C47.0855 55.2935 47.2503 54.5207 47.3248 53.7412H48.8306ZM40.0424 53.7412H42.2259L37.9758 57.7022V59.3791H36.4828V57.7022L32.234 53.7412H34.4135L37.2242 56.3609L40.0424 53.7412ZM27.1162 53.7412H25.6212C25.7522 55.3116 26.2011 56.8412 26.9429 58.2362C27.153 58.6312 27.3851 59.0127 27.6379 59.3791H29.507C29.0055 58.7936 28.5705 58.1504 28.2123 57.461C27.609 56.3 27.2382 55.0365 27.1162 53.7412Z" fill="#FF5ABE" style="mix-blend-mode:multiply"/>
<path fill-rule="evenodd" clip-rule="evenodd" d="M70.842 3.69953C70.8427 3.69329 70.8427 3.68698 70.842 3.68074C70.8405 3.63786 70.8347 3.59525 70.8246 3.55355C70.8251 3.54972 70.8251 3.54583 70.8246 3.54199C70.8146 3.49934 70.8006 3.45772 70.7827 3.4177C70.783 3.41433 70.783 3.41095 70.7827 3.40758C70.7646 3.3664 70.7423 3.32718 70.7162 3.29051C70.713 3.28777 70.7106 3.2843 70.709 3.28039C70.6814 3.24383 70.651 3.20952 70.6179 3.17777C70.5836 3.14745 70.5468 3.11991 70.5081 3.09539H70.4965C70.4585 3.07371 70.4189 3.05487 70.378 3.03902H70.365C70.3241 3.02468 70.2821 3.01404 70.2393 3.00723H70.2234C70.1889 3.00266 70.1541 3.00025 70.1193 3H59.5526C59.4549 3 59.3581 3.01925 59.2678 3.05666C59.1775 3.09407 59.0954 3.14889 59.0263 3.21801C58.9572 3.28713 58.9024 3.36918 58.865 3.45949C58.8275 3.5498 58.8083 3.64659 58.8083 3.74434C58.8083 3.84208 58.8275 3.93887 58.865 4.02918C58.9024 4.11949 58.9572 4.20154 59.0263 4.27066C59.0954 4.33978 59.1775 4.39461 59.2678 4.43201C59.3581 4.46942 59.4549 4.48867 59.5526 4.48867H68.4052L54.16 19.9136H56.1771H56.1772L69.3533 5.62613V14.2662C69.3617 14.4581 69.4439 14.6394 69.5827 14.7722C69.7215 14.905 69.9062 14.9792 70.0984 14.9792C70.2905 14.9792 70.4752 14.905 70.614 14.7722C70.7528 14.6394 70.835 14.4581 70.8434 14.2662V3.71543C70.8434 3.71543 70.842 3.70676 70.842 3.69953ZM50.9776 25.5515H48.9533L48.2647 26.297L47.2509 25.5515H47.2509H44.7375L47.9193 27.8912C48.0669 27.9998 48.2494 28.0501 48.4318 28.0325C48.6143 28.0149 48.7838 27.9306 48.9079 27.7958L50.9776 25.5515ZM37.0701 19.9136H39.5832L33.485 15.4297C33.3379 15.3216 33.1563 15.2712 32.9745 15.2883C32.7928 15.3054 32.6237 15.3886 32.4993 15.5222L12.7035 36.8275H14.7353L25.2129 25.5515H23.1807L28.4191 19.9136H30.4517L33.1381 17.0224L37.0701 19.9136ZM3.36756 46.8754L7.465 42.4655H9.49651L4.45877 47.8871C4.39322 47.962 4.3133 48.023 4.22375 48.0665C4.1342 48.1099 4.03684 48.135 3.93743 48.1402C3.83802 48.1454 3.73857 48.1306 3.64499 48.0967C3.5514 48.0628 3.46556 48.0104 3.39256 47.9427C3.31957 47.875 3.26088 47.7934 3.21999 47.7026C3.1791 47.6119 3.15683 47.5138 3.1545 47.4143C3.15217 47.3148 3.16982 47.2158 3.20642 47.1232C3.24302 47.0307 3.29781 46.9464 3.36756 46.8754ZM41.6308 68.6793H29.4367C29.2393 68.6793 29.0499 68.7578 28.9103 68.8973C28.7707 69.0369 28.6923 69.2263 28.6923 69.4237C28.6923 69.6211 28.7707 69.8104 28.9103 69.95C29.0499 70.0896 29.2393 70.168 29.4367 70.168H41.6308C41.8282 70.168 42.0175 70.0896 42.1571 69.95C42.2967 69.8104 42.3751 69.6211 42.3751 69.4237C42.3751 69.2263 42.2967 69.0369 42.1571 68.8973C42.0175 68.7578 41.8282 68.6793 41.6308 68.6793ZM4.65389 59.3791H3.16377V69.9107C3.17223 70.1027 3.25442 70.2839 3.39322 70.4167C3.53202 70.5496 3.71672 70.6237 3.90883 70.6237C4.10094 70.6237 4.28564 70.5496 4.42444 70.4167C4.56324 70.2839 4.64543 70.1027 4.65389 69.9107V59.3791ZM12.1869 48.1125C11.9893 48.1125 11.7998 48.1909 11.66 48.3305C11.5202 48.47 11.4415 48.6593 11.4411 48.8569V53.7412H12.9312V48.8569C12.9308 48.6596 12.8523 48.4705 12.7128 48.331C12.5733 48.1915 12.3842 48.1129 12.1869 48.1125ZM12.9312 59.3791H11.4411V69.9107C11.4495 70.1027 11.5317 70.2839 11.6705 70.4167C11.8093 70.5496 11.994 70.6237 12.1861 70.6237C12.3782 70.6237 12.5629 70.5496 12.7017 70.4167C12.8405 70.2839 12.9227 70.1027 12.9312 69.9107V59.3791ZM19.7155 53.7412L19.7155 42.4655H21.2042L21.2042 41.2936V53.7412H19.7155ZM19.7155 59.3791V69.9107C19.7155 70.1082 19.7939 70.2975 19.9335 70.4371C20.0731 70.5767 20.2624 70.6551 20.4598 70.6551C20.6572 70.6551 20.8466 70.5767 20.9862 70.4371C21.1257 70.2975 21.2042 70.1082 21.2042 69.9107V59.3791H19.7155ZM46.0231 35.8361C46.0231 35.6386 45.9446 35.4493 45.8051 35.3097C45.6655 35.1701 45.4761 35.0917 45.2787 35.0917C45.0813 35.0917 44.892 35.1701 44.7524 35.3097C44.6128 35.4493 44.5344 35.6386 44.5344 35.8361L44.5344 36.8275H46.0233L46.0231 35.8361ZM44.5344 45.3751L44.5344 42.4655H46.0247L46.026 47.6992C46.9511 49.6222 47.3262 51.7512 47.1278 53.8537C47.1314 53.8162 47.1347 53.7787 47.1379 53.7412H45.6321C45.7657 52.3424 45.6084 50.9223 45.1599 49.5726C44.4614 47.4707 43.095 45.6549 41.2688 44.4016C39.4427 43.1483 37.2569 42.5264 35.0445 42.6305C29.8139 42.8747 25.4794 47.3364 25.3811 52.5771C25.3729 52.9667 25.3871 53.3554 25.4235 53.7412H23.9286C23.9124 53.5469 23.901 53.352 23.8946 53.1567C23.8363 51.3822 24.1849 49.618 24.9138 47.9991C25.6427 46.3802 26.7325 44.9497 28.0998 43.8171C28.0279 43.7006 27.9899 43.5665 27.9899 43.4297L27.9899 42.4655H29.4786V36.8275H27.9899L27.9899 34.9703C27.9899 34.7729 28.0683 34.5836 28.2079 34.444C28.3475 34.3044 28.5368 34.226 28.7342 34.226C28.9317 34.226 29.121 34.3044 29.2606 34.444C29.4002 34.5836 29.4786 34.7729 29.4786 34.9703V42.8299C29.6879 42.7015 29.901 42.5799 30.1173 42.4655H40.9788C41.92 42.9642 42.7926 43.5934 43.5689 44.3388C43.9111 44.6647 44.2335 45.0107 44.5344 45.3751ZM25.9452 59.3791C26.6956 60.467 27.6278 61.4218 28.7039 62.2V65.5358C28.7043 65.7331 28.7828 65.9222 28.9223 66.0617C29.0618 66.2012 29.2509 66.2797 29.4482 66.2801H41.6206C41.8179 66.2801 42.0072 66.2019 42.147 66.0627C42.2868 65.9235 42.3657 65.7345 42.3664 65.5372L42.3737 62.1942C43.4494 61.4119 44.3749 60.458 45.1185 59.3791H43.2381C43.2381 59.3791 43.2381 59.3791 43.2381 59.3791C42.6504 60.0659 41.97 60.6754 41.2116 61.1883C41.1719 61.2141 41.1351 61.2442 41.1018 61.2779C40.9625 61.4189 40.8837 61.6087 40.8821 61.8069L40.8749 64.7914H36.2831V59.3791H34.7901V64.7914H30.1897V61.817C30.1898 61.6951 30.16 61.5751 30.1027 61.4674C30.0455 61.3598 29.9627 61.2679 29.8616 61.1998C29.0686 60.6675 28.358 60.0278 27.7487 59.3017C27.7704 59.3277 27.7923 59.3535 27.8143 59.3791H25.9452ZM30.5413 53.7412H32.7208L31.1508 52.2779C31.0808 52.2044 30.9964 52.146 30.9029 52.1063C30.8095 52.0666 30.7089 52.0465 30.6073 52.0471C30.5058 52.0477 30.4055 52.0691 30.3125 52.1099C30.2195 52.1508 30.1359 52.2102 30.0668 52.2846C29.9976 52.359 29.9444 52.4467 29.9105 52.5424C29.8765 52.6381 29.8625 52.7397 29.8693 52.8411C29.876 52.9424 29.9035 53.0412 29.9499 53.1315C29.9963 53.2219 30.0607 53.3017 30.1391 53.3662L30.5413 53.7412ZM40.5332 53.7412L40.9356 53.3662C41.014 53.3017 41.0784 53.2219 41.1248 53.1315C41.1712 53.0412 41.1986 52.9424 41.2054 52.8411C41.2122 52.7397 41.1982 52.6381 41.1642 52.5424C41.1302 52.4467 41.077 52.359 41.0079 52.2846C40.9388 52.2102 40.8551 52.1508 40.7622 52.1099C40.6692 52.0691 40.5689 52.0477 40.4673 52.0471C40.3658 52.0465 40.2652 52.0666 40.1717 52.1063C40.0783 52.146 39.9939 52.2044 39.9239 52.2779L38.3497 53.7412H40.5332ZM37.7472 31.5637L37.7472 36.8275H36.2585L36.2585 31.5637C36.2585 31.466 36.2778 31.3692 36.3152 31.2789C36.3526 31.1886 36.4074 31.1065 36.4766 31.0374C36.5457 30.9683 36.6277 30.9134 36.718 30.876C36.8083 30.8386 36.9051 30.8194 37.0029 30.8194C37.1006 30.8194 37.1974 30.8386 37.2877 30.876C37.378 30.9134 37.4601 30.9683 37.5292 31.0374C37.5983 31.1065 37.6531 31.1886 37.6906 31.2789C37.728 31.3692 37.7472 31.466 37.7472 31.5637ZM53.2666 35.148C53.357 35.1106 53.4539 35.0915 53.5517 35.0917C53.6495 35.0915 53.7464 35.1106 53.8368 35.148C53.9272 35.1853 54.0093 35.2401 54.0785 35.3093C54.1476 35.3785 54.2024 35.4606 54.2398 35.551C54.2771 35.6414 54.2962 35.7383 54.296 35.8361L54.296 36.8275H52.8074L52.8074 35.8361C52.8072 35.7383 52.8263 35.6414 52.8636 35.551C52.901 35.4606 52.9558 35.3785 53.025 35.3093C53.0941 35.2401 53.1762 35.1853 53.2666 35.148ZM52.8074 42.4655H54.296L54.296 53.7412H52.8074L52.8074 42.4655ZM52.8074 59.3791V69.9107C52.8074 70.1082 52.8858 70.2975 53.0254 70.4371C53.165 70.5767 53.3543 70.6551 53.5517 70.6551C53.7491 70.6551 53.9384 70.5767 54.078 70.4371C54.2176 70.2975 54.296 70.1082 54.296 69.9107V59.3791H52.8074ZM61.4017 22.1189C61.365 22.1443 61.3304 22.1731 61.2983 22.2051C61.1588 22.3447 61.0803 22.534 61.0803 22.7314L61.0803 36.8275H62.5704L62.5704 25.5515H61.0804V22.7314C61.0804 22.534 61.1588 22.3447 61.2984 22.2051C61.3304 22.1731 61.365 22.1443 61.4017 22.1189ZM61.0803 53.7412L61.0803 42.4655H62.5704L62.5704 53.7412H61.0803ZM61.0803 59.3791V69.9107C61.0888 70.1027 61.171 70.2839 61.3098 70.4167C61.4486 70.5496 61.6333 70.6237 61.8254 70.6237C62.0175 70.6237 62.2022 70.5496 62.341 70.4167C62.4798 70.2839 62.562 70.1027 62.5704 69.9107V59.3791H61.0803ZM70.1403 24.8078C70.2943 24.8154 70.4418 24.8707 70.5625 24.9653C70.586 24.9837 70.6084 25.0036 70.6297 25.0249C70.7693 25.1645 70.8478 25.3538 70.8478 25.5512V25.5515H69.3577V25.5512C69.3577 25.4533 69.377 25.3564 69.4145 25.266C69.452 25.1756 69.507 25.0935 69.5763 25.0244C69.6022 24.9985 69.63 24.9745 69.6593 24.9528C69.7083 24.9166 69.7616 24.8864 69.8181 24.8631C69.8253 24.8602 69.8325 24.8573 69.8398 24.8546C69.844 24.853 69.8482 24.8515 69.8524 24.85L70.1403 24.8078Z" fill="#FF5ABE" style="mix-blend-mode:multiply"/>
<path fill-rule="evenodd" clip-rule="evenodd" d="M23.1807 25.5515L28.4191 19.9136H30.4518L25.213 25.5515H23.1807ZM62.5705 25.5515H61.0804V22.7314C61.0804 22.534 61.1588 22.3447 61.2984 22.2051C61.438 22.0655 61.6274 21.9871 61.8248 21.9871C61.9226 21.9869 62.0196 22.006 62.1101 22.0433C62.2005 22.0806 62.2828 22.1354 62.352 22.2046C62.4213 22.2737 62.4762 22.3558 62.5137 22.4462C62.5512 22.5366 62.5705 22.6335 62.5705 22.7314V25.5515ZM70.8479 25.5515V25.5512C70.8479 25.3538 70.7694 25.1645 70.6298 25.0249C70.4902 24.8853 70.3009 24.8069 70.1035 24.8069C70.0056 24.8067 69.9087 24.8258 69.8182 24.8631C69.7278 24.9004 69.6455 24.9552 69.5763 25.0244C69.507 25.0935 69.452 25.1756 69.4145 25.266C69.377 25.3564 69.3577 25.4533 69.3577 25.5512V25.5515H70.8479ZM56.1772 19.9136L50.9777 25.5515H48.9533L54.16 19.9136H56.1772ZM47.2509 25.5515H44.7375L37.0701 19.9136H39.5833L47.2509 25.5515Z" fill="#5AFFBA" style="mix-blend-mode:multiply"/>
<path fill-rule="evenodd" clip-rule="evenodd" d="M7.46582 42.4656L12.7043 36.8276H14.7361L9.49733 42.4656H7.46582ZM21.205 42.4656H19.7163V41.2806C19.7161 41.1828 19.7352 41.086 19.7726 40.9956C19.8099 40.9052 19.8647 40.8231 19.9339 40.7539C20.0031 40.6847 20.0852 40.6299 20.1756 40.5926C20.266 40.5552 20.3628 40.5361 20.4606 40.5363C20.5596 40.5361 20.6575 40.5556 20.7488 40.5938C20.84 40.6319 20.9227 40.6879 20.9921 40.7585C21.0614 40.829 21.1159 40.9127 21.1525 41.0046C21.1891 41.0965 21.2069 41.1948 21.205 41.2937V42.4656ZM54.2969 42.4656H52.8082V36.8276H54.2969V42.4656ZM62.5713 42.4656H61.0812V36.8276H62.5713V42.4656ZM70.8486 42.4656V36.8276H69.3585V42.4656H70.8486ZM46.0241 36.8276L46.0255 42.4656H44.5352V36.8276H46.0241ZM36.2594 36.8276H37.748V41.2749V41.3283C38.8817 41.5457 39.9702 41.9306 40.9796 42.4656H30.1181C31.616 41.6731 33.2729 41.2189 34.9716 41.139C35.4007 41.1199 35.8306 41.1233 36.2594 41.1491V36.8276ZM27.9907 36.8276H29.4794V42.4656H27.9907V36.8276Z" fill="#5AFFBA" style="mix-blend-mode:multiply"/>
<path fill-rule="evenodd" clip-rule="evenodd" d="M3.38199 56.853C3.52153 56.7132 3.71086 56.6345 3.9084 56.6341C4.00634 56.6341 4.10331 56.6534 4.1938 56.6909C4.28428 56.7284 4.36649 56.7833 4.43575 56.8525C4.505 56.9218 4.55993 57.004 4.59741 57.0945C4.63489 57.185 4.65418 57.2819 4.65418 57.3799V59.3791H3.16406V57.3799C3.16406 57.1823 3.24244 56.9929 3.38199 56.853ZM12.9315 59.3791H11.4414V53.7412H12.9315V59.3791ZM21.2045 59.3791H19.7158V53.7412H21.2045V59.3791ZM54.2963 59.3791H52.8077V53.7412H54.2963V59.3791ZM62.5707 59.3791H61.0806V53.7412H62.5707V59.3791ZM70.848 59.3791V53.7412H69.3579V59.3791H70.848ZM47.1382 53.7412C47.0852 54.3676 46.9813 54.9921 46.8261 55.6084C46.4837 56.9673 45.9022 58.2425 45.1188 59.3791H43.2384C44.0726 58.4044 44.7199 57.2742 45.1381 56.0439C45.3932 55.2935 45.5579 54.5207 45.6324 53.7412H47.1382ZM38.35 53.7412H40.5335L36.2834 57.7022V59.3791H34.7904V57.7022L30.5416 53.7412H32.7211L35.5318 56.3609L38.35 53.7412ZM25.4238 53.7412H23.9289C24.0598 55.3116 24.5087 56.8412 25.2506 58.2362C25.4606 58.6312 25.6927 59.0127 25.9455 59.3791H27.8146C27.3131 58.7936 26.8781 58.1504 26.5199 57.461C25.9167 56.3 25.5458 55.0365 25.4238 53.7412Z" fill="#5AFFBA" style="mix-blend-mode:multiply"/>
<path fill-rule="evenodd" clip-rule="evenodd" d="M69.1506 3.69953C69.1513 3.69329 69.1513 3.68698 69.1506 3.68074C69.1491 3.63786 69.1433 3.59525 69.1332 3.55355C69.1337 3.54972 69.1337 3.54583 69.1332 3.54199C69.1232 3.49934 69.1091 3.45772 69.0913 3.4177C69.0916 3.41433 69.0916 3.41095 69.0913 3.40758C69.0732 3.3664 69.0509 3.32718 69.0248 3.29051C69.0216 3.28777 69.0191 3.2843 69.0176 3.28039C68.99 3.24383 68.9595 3.20952 68.9265 3.17777C68.8922 3.14745 68.8554 3.11991 68.8167 3.09539H68.8051C68.7671 3.07371 68.7275 3.05487 68.6866 3.03902H68.6736C68.6327 3.02468 68.5907 3.01404 68.5479 3.00723H68.532C68.4975 3.00266 68.4627 3.00025 68.4279 3H57.8612C57.7635 3 57.6667 3.01925 57.5764 3.05666C57.4861 3.09407 57.404 3.14889 57.3349 3.21801C57.2658 3.28713 57.211 3.36918 57.1735 3.45949C57.1361 3.5498 57.1169 3.64659 57.1169 3.74434C57.1169 3.84208 57.1361 3.93887 57.1735 4.02918C57.211 4.11949 57.2658 4.20154 57.3349 4.27066C57.404 4.33978 57.4861 4.39461 57.5764 4.43201C57.6667 4.46942 57.7635 4.48867 57.8612 4.48867H66.7138L52.4686 19.9136H54.4857H54.4858L67.6619 5.62613V14.2662C67.6703 14.4581 67.7525 14.6394 67.8913 14.7722C68.0301 14.905 68.2148 14.9792 68.4069 14.9792C68.5991 14.9792 68.7838 14.905 68.9226 14.7722C69.0614 14.6394 69.1436 14.4581 69.152 14.2662V3.71543C69.152 3.71543 69.1506 3.70676 69.1506 3.69953ZM49.2862 25.5515H47.2619L46.5733 26.297L45.5595 25.5515H45.5594H43.0461L46.2279 27.8912C46.3755 27.9998 46.558 28.0501 46.7404 28.0325C46.9229 28.0149 47.0924 27.9306 47.2165 27.7958L49.2862 25.5515ZM35.3787 19.9136H37.8918L31.7936 15.4297C31.6465 15.3216 31.4648 15.2712 31.2831 15.2883C31.1014 15.3054 30.9323 15.3886 30.8079 15.5222L11.0121 36.8275H13.0438L23.5215 25.5515H21.4893L26.7277 19.9136H28.7603L31.4467 17.0224L35.3787 19.9136ZM1.67615 46.8754L5.77359 42.4655H7.8051L2.76737 47.8871C2.70181 47.962 2.62189 48.023 2.53234 48.0665C2.44279 48.1099 2.34543 48.135 2.24602 48.1402C2.14661 48.1454 2.04717 48.1306 1.95358 48.0967C1.85999 48.0628 1.77416 48.0104 1.70116 47.9427C1.62816 47.875 1.56948 47.7934 1.52859 47.7026C1.4877 47.6119 1.46543 47.5138 1.46309 47.4143C1.46076 47.3148 1.47842 47.2158 1.51501 47.1232C1.55161 47.0307 1.60641 46.9464 1.67615 46.8754ZM39.9394 68.6793H27.7453C27.5478 68.6793 27.3585 68.7578 27.2189 68.8973C27.0793 69.0369 27.0009 69.2263 27.0009 69.4237C27.0009 69.6211 27.0793 69.8104 27.2189 69.95C27.3585 70.0896 27.5478 70.168 27.7453 70.168H39.9394C40.1368 70.168 40.3261 70.0896 40.4657 69.95C40.6053 69.8104 40.6837 69.6211 40.6837 69.4237C40.6837 69.2263 40.6053 69.0369 40.4657 68.8973C40.3261 68.7578 40.1368 68.6793 39.9394 68.6793ZM2.96248 59.3791H1.47237V69.9107C1.48082 70.1027 1.56301 70.2839 1.70181 70.4167C1.84061 70.5496 2.02531 70.6237 2.21742 70.6237C2.40954 70.6237 2.59424 70.5496 2.73304 70.4167C2.87184 70.2839 2.95403 70.1027 2.96248 69.9107V59.3791ZM10.4955 48.1125C10.2979 48.1125 10.1084 48.1909 9.96862 48.3305C9.8288 48.47 9.75005 48.6593 9.74967 48.8569V53.7412H11.2398V48.8569C11.2394 48.6596 11.1609 48.4705 11.0214 48.331C10.8818 48.1915 10.6927 48.1129 10.4955 48.1125ZM11.2398 59.3791H9.74967V69.9107C9.75813 70.1027 9.84032 70.2839 9.97912 70.4167C10.1179 70.5496 10.3026 70.6237 10.4947 70.6237C10.6868 70.6237 10.8715 70.5496 11.0103 70.4167C11.1491 70.2839 11.2313 70.1027 11.2398 69.9107V59.3791ZM18.0241 53.7412L18.0241 42.4655H19.5128L19.5128 41.2936V53.7412H18.0241ZM18.0241 59.3791V69.9107C18.0241 70.1082 18.1025 70.2975 18.2421 70.4371C18.3817 70.5767 18.571 70.6551 18.7684 70.6551C18.9658 70.6551 19.1552 70.5767 19.2947 70.4371C19.4343 70.2975 19.5128 70.1082 19.5128 69.9107V59.3791H18.0241ZM44.3317 35.8361C44.3317 35.6386 44.2532 35.4493 44.1137 35.3097C43.9741 35.1701 43.7847 35.0917 43.5873 35.0917C43.3899 35.0917 43.2006 35.1701 43.061 35.3097C42.9214 35.4493 42.843 35.6386 42.843 35.8361L42.843 36.8275H44.3319L44.3317 35.8361ZM42.843 45.3751L42.843 42.4655H44.3333L44.3346 47.6992C45.2597 49.6222 45.6348 51.7512 45.4364 53.8537C45.44 53.8162 45.4433 53.7787 45.4465 53.7412H43.9407C44.0743 52.3424 43.917 50.9223 43.4684 49.5726C42.77 47.4707 41.4036 45.6549 39.5774 44.4016C37.7512 43.1483 35.5655 42.5264 33.3531 42.6305C28.1225 42.8747 23.788 47.3364 23.6897 52.5771C23.6815 52.9667 23.6957 53.3554 23.7321 53.7412H22.2372C22.221 53.5469 22.2096 53.352 22.2032 53.1567C22.1449 51.3822 22.4935 49.618 23.2224 47.9991C23.9513 46.3802 25.0411 44.9497 26.4083 43.8171C26.3365 43.7006 26.2985 43.5665 26.2985 43.4297L26.2985 42.4655H27.7872V36.8275H26.2985L26.2985 34.9703C26.2985 34.7729 26.3769 34.5836 26.5165 34.444C26.6561 34.3044 26.8454 34.226 27.0428 34.226C27.2402 34.226 27.4296 34.3044 27.5692 34.444C27.7088 34.5836 27.7872 34.7729 27.7872 34.9703V42.8299C27.9965 42.7015 28.2096 42.5799 28.4259 42.4655H39.2874C40.2286 42.9642 41.1012 43.5934 41.8775 44.3388C42.2197 44.6647 42.5421 45.0107 42.843 45.3751ZM24.2538 59.3791C25.0042 60.467 25.9364 61.4218 27.0125 62.2V65.5358C27.0129 65.7331 27.0914 65.9222 27.2309 66.0617C27.3704 66.2012 27.5595 66.2797 27.7568 66.2801H39.9292C40.1265 66.2801 40.3158 66.2019 40.4556 66.0627C40.5953 65.9235 40.6743 65.7345 40.675 65.5372L40.6823 62.1942C41.758 61.4119 42.6835 60.458 43.4271 59.3791H41.5467C41.5467 59.3791 41.5467 59.3791 41.5467 59.3791C40.959 60.0659 40.2786 60.6754 39.5202 61.1883C39.4805 61.2141 39.4437 61.2442 39.4104 61.2779C39.2711 61.4189 39.1923 61.6087 39.1907 61.8069L39.1835 64.7914H34.5917V59.3791H33.0987V64.7914H28.4983V61.817C28.4984 61.6951 28.4685 61.5751 28.4113 61.4674C28.3541 61.3598 28.2713 61.2679 28.1702 61.1998C27.3772 60.6675 26.6666 60.0278 26.0573 59.3017C26.079 59.3277 26.1009 59.3535 26.1229 59.3791H24.2538ZM28.8499 53.7412H31.0294L29.4594 52.2779C29.3893 52.2044 29.305 52.146 29.2115 52.1063C29.1181 52.0666 29.0175 52.0465 28.9159 52.0471C28.8144 52.0477 28.7141 52.0691 28.6211 52.1099C28.5281 52.1508 28.4445 52.2102 28.3754 52.2846C28.3062 52.359 28.253 52.4467 28.2191 52.5424C28.1851 52.6381 28.1711 52.7397 28.1778 52.8411C28.1846 52.9424 28.2121 53.0412 28.2585 53.1315C28.3049 53.2219 28.3693 53.3017 28.4477 53.3662L28.8499 53.7412ZM38.8418 53.7412L39.2442 53.3662C39.3226 53.3017 39.387 53.2219 39.4334 53.1315C39.4798 53.0412 39.5072 52.9424 39.514 52.8411C39.5208 52.7397 39.5067 52.6381 39.4728 52.5424C39.4388 52.4467 39.3856 52.359 39.3165 52.2846C39.2473 52.2102 39.1637 52.1508 39.0708 52.1099C38.9778 52.0691 38.8774 52.0477 38.7759 52.0471C38.6744 52.0465 38.5738 52.0666 38.4803 52.1063C38.3868 52.146 38.3025 52.2044 38.2324 52.2779L36.6583 53.7412H38.8418ZM36.0558 31.5637L36.0558 36.8275H34.5671L34.5671 31.5637C34.5671 31.466 34.5864 31.3692 34.6238 31.2789C34.6612 31.1886 34.716 31.1065 34.7851 31.0374C34.8543 30.9683 34.9363 30.9134 35.0266 30.876C35.1169 30.8386 35.2137 30.8194 35.3115 30.8194C35.4092 30.8194 35.506 30.8386 35.5963 30.876C35.6866 30.9134 35.7687 30.9683 35.8378 31.0374C35.9069 31.1065 35.9617 31.1886 35.9991 31.2789C36.0366 31.3692 36.0558 31.466 36.0558 31.5637ZM51.5752 35.148C51.6656 35.1106 51.7625 35.0915 51.8603 35.0917C51.9581 35.0915 52.055 35.1106 52.1454 35.148C52.2358 35.1853 52.3179 35.2401 52.3871 35.3093C52.4562 35.3785 52.511 35.4606 52.5484 35.551C52.5857 35.6414 52.6048 35.7383 52.6046 35.8361L52.6046 36.8275H51.116L51.116 35.8361C51.1158 35.7383 51.1349 35.6414 51.1722 35.551C51.2096 35.4606 51.2644 35.3785 51.3335 35.3093C51.4027 35.2401 51.4848 35.1853 51.5752 35.148ZM51.116 42.4655H52.6046L52.6046 53.7412H51.116L51.116 42.4655ZM51.116 59.3791V69.9107C51.116 70.1082 51.1944 70.2975 51.334 70.4371C51.4736 70.5767 51.6629 70.6551 51.8603 70.6551C52.0577 70.6551 52.247 70.5767 52.3866 70.4371C52.5262 70.2975 52.6046 70.1082 52.6046 69.9107V59.3791H51.116ZM59.7103 22.1189C59.6736 22.1443 59.6389 22.1731 59.6069 22.2051C59.4673 22.3447 59.3889 22.534 59.3889 22.7314L59.3889 36.8275H60.879L60.879 25.5515H59.389V22.7314C59.389 22.534 59.4674 22.3447 59.607 22.2051C59.639 22.1731 59.6736 22.1443 59.7103 22.1189ZM59.3889 53.7412L59.3889 42.4655H60.879L60.879 53.7412H59.3889ZM59.3889 59.3791V69.9107C59.3974 70.1027 59.4796 70.2839 59.6184 70.4167C59.7572 70.5496 59.9419 70.6237 60.134 70.6237C60.3261 70.6237 60.5108 70.5496 60.6496 70.4167C60.7884 70.2839 60.8706 70.1027 60.879 69.9107V59.3791H59.3889ZM68.4489 24.8078C68.6029 24.8154 68.7504 24.8707 68.8711 24.9653C68.8945 24.9837 68.917 25.0036 68.9383 25.0249C69.0779 25.1645 69.1563 25.3538 69.1563 25.5512V25.5515H67.6663V25.5512C67.6663 25.4533 67.6856 25.3564 67.7231 25.266C67.7606 25.1756 67.8156 25.0935 67.8848 25.0244C67.9108 24.9985 67.9386 24.9745 67.9679 24.9528C68.0169 24.9166 68.0702 24.8864 68.1267 24.8631C68.1339 24.8602 68.1411 24.8573 68.1484 24.8546C68.1526 24.853 68.1568 24.8515 68.1609 24.85L68.4489 24.8078Z" fill="#5AFFBA" style="mix-blend-mode:multiply"/>
</svg>
