<svg width="31" height="31" viewBox="0 0 31 31" fill="none" xmlns="http://www.w3.org/2000/svg">
<path d="M27.967 15.6946C27.9319 15.616 27.0856 13.7405 25.1915 11.8463C23.4369 10.0918 20.4193 8 16.002 8C11.5846 8 8.56697 10.0918 6.81245 11.8463C4.91827 13.7405 4.07205 15.616 4.03688 15.6946C4.01384 15.7477 4.00195 15.8049 4.00195 15.8628C4.00195 15.9206 4.01384 15.9778 4.03688 16.0309C4.07205 16.1105 4.91827 17.985 6.81245 19.8792C8.57111 21.6379 11.5857 23.7245 16.002 23.7245C20.4183 23.7245 23.4369 21.6337 25.1915 19.8792C27.0856 17.985 27.9319 16.1105 27.967 16.0309C27.9901 15.9778 28.002 15.9206 28.002 15.8628C28.002 15.8049 27.9901 15.7477 27.967 15.6946ZM24.5842 19.3154C22.1976 21.6948 19.3082 22.8969 15.9978 22.8969C12.6874 22.8969 9.80217 21.6917 7.41143 19.3154C6.39419 18.3009 5.53869 17.1363 4.87482 15.8622C5.53993 14.5879 6.39684 13.4232 7.41557 12.4091C9.80631 10.0328 12.6915 8.8276 16.002 8.8276C19.3124 8.8276 22.1976 10.0328 24.5883 12.4091C25.6069 13.4233 26.4638 14.588 27.1291 15.8622C26.4639 17.1366 25.607 18.3012 24.5883 19.3154H24.5842ZM16.002 11.3104C15.1017 11.3104 14.2216 11.5774 13.4731 12.0775C12.7246 12.5777 12.1411 13.2886 11.7966 14.1203C11.4521 14.9521 11.362 15.8673 11.5376 16.7502C11.7132 17.6332 12.1467 18.4443 12.7833 19.0809C13.4199 19.7174 14.231 20.151 15.1139 20.3266C15.9969 20.5022 16.9121 20.4121 17.7439 20.0676C18.5756 19.723 19.2865 19.1396 19.7867 18.3911C20.2868 17.6425 20.5538 16.7625 20.5538 15.8622C20.5524 14.6554 20.0724 13.4985 19.2191 12.6451C18.3657 11.7918 17.2088 11.3118 16.002 11.3104ZM16.002 19.5864C15.2654 19.5864 14.5453 19.368 13.9329 18.9588C13.3204 18.5496 12.8431 17.9679 12.5612 17.2874C12.2793 16.6069 12.2056 15.8581 12.3493 15.1357C12.493 14.4132 12.8477 13.7497 13.3685 13.2288C13.8894 12.708 14.553 12.3533 15.2754 12.2096C15.9978 12.0659 16.7466 12.1396 17.4271 12.4215C18.1077 12.7034 18.6893 13.1807 19.0985 13.7932C19.5077 14.4056 19.7262 15.1257 19.7262 15.8622C19.7262 16.85 19.3338 17.7972 18.6354 18.4957C17.9369 19.1941 16.9897 19.5864 16.002 19.5864Z" fill="#767676"/>
</svg>
