<svg width="230" height="51" viewBox="0 0 230 51" fill="none" xmlns="http://www.w3.org/2000/svg">
<path d="M2.56133 44.7762L2.00702 49.7164H0.598145L1.70677 41.1929L5.02109 46.7013L8.34695 41.1929L9.45557 49.7164H8.0467L7.48084 44.7762L5.02109 48.9626L2.56133 44.7762ZM24.2348 45.6576C24.2348 46.2142 24.3503 46.7129 24.5813 47.1535C24.82 47.5865 25.1471 47.9266 25.5629 48.1741C25.9786 48.4214 26.4521 48.5451 26.9833 48.5451C27.5222 48.5451 27.9957 48.4214 28.4037 48.1741C28.8194 47.9266 29.1428 47.5865 29.3737 47.1535C29.6124 46.7129 29.7317 46.2142 29.7317 45.6576C29.7317 45.1009 29.6163 44.6061 29.3853 44.1732C29.1543 43.7325 28.831 43.3885 28.4153 43.1411C28.0072 42.8937 27.5299 42.77 26.9833 42.77C26.4521 42.77 25.9786 42.8937 25.5629 43.1411C25.1471 43.3885 24.82 43.7325 24.5813 44.1732C24.3503 44.6061 24.2348 45.1009 24.2348 45.6576ZM22.7913 45.6576C22.7913 45.0468 22.8952 44.4863 23.1031 43.9761C23.311 43.4658 23.6036 43.0251 23.9808 42.654C24.3657 42.2752 24.8122 41.9814 25.3203 41.7727C25.8362 41.564 26.3905 41.4596 26.9833 41.4596C27.5915 41.4596 28.1496 41.564 28.6578 41.7727C29.1659 41.9814 29.6086 42.2752 29.9858 42.654C30.3708 43.0251 30.6671 43.4658 30.875 43.9761C31.0829 44.4863 31.1868 45.0468 31.1868 45.6576C31.1868 46.2606 31.0829 46.8211 30.875 47.3391C30.6671 47.857 30.3746 48.3055 29.9973 48.6843C29.6202 49.0631 29.1736 49.3608 28.6578 49.5773C28.1496 49.786 27.5915 49.8904 26.9833 49.8904C26.3828 49.8904 25.8246 49.786 25.3088 49.5773C24.793 49.3608 24.3465 49.0631 23.9692 48.6843C23.5997 48.3055 23.311 47.857 23.1031 47.3391C22.8952 46.8211 22.7913 46.2606 22.7913 45.6576ZM47.7178 47.3043L50.0968 41.5988H51.6673L47.7178 50.1687L43.7684 41.5988H45.3389L47.7178 47.3043ZM65.9227 49.7164V48.5104H69.9994V49.7164H65.9227ZM65.9227 42.8048V41.5988H69.9994V42.8048H65.9227ZM65.9227 45.9591V44.7762H69.7685V45.9591H65.9227ZM65.0797 41.5988H66.4193V49.7164H65.0797V41.5988ZM84.68 47.1072C84.8576 47.4164 85.0459 47.6908 85.2459 47.9305C85.4537 48.1625 85.6811 48.3441 85.9272 48.4756C86.174 48.5992 86.4512 48.6611 86.7587 48.6611C87.1282 48.6611 87.4285 48.5606 87.6594 48.3596C87.8904 48.1585 88.0059 47.8996 88.0059 47.5826C88.0059 47.2811 87.933 47.0414 87.7865 46.8636C87.6407 46.6781 87.4364 46.5234 87.1744 46.3998C86.9203 46.2683 86.6244 46.1407 86.2852 46.0171C86.0853 45.9475 85.8622 45.8547 85.6154 45.7388C85.3693 45.615 85.1347 45.4643 84.911 45.2865C84.6879 45.1009 84.5032 44.8767 84.3567 44.6139C84.2109 44.3432 84.1372 44.0185 84.1372 43.6398C84.1372 43.2068 84.2491 42.828 84.4721 42.5033C84.6959 42.1708 84.9961 41.9157 85.3729 41.7379C85.7583 41.5524 86.1928 41.4596 86.6778 41.4596C87.1556 41.4596 87.5714 41.5446 87.925 41.7147C88.2794 41.8848 88.5761 42.1013 88.8142 42.3641C89.0611 42.6269 89.2531 42.9014 89.3916 43.1875L88.283 43.8137C88.1834 43.6127 88.0564 43.4271 87.9019 43.2571C87.7482 43.0792 87.567 42.9401 87.3592 42.8396C87.1592 42.7313 86.9247 42.6772 86.6547 42.6772C86.278 42.6772 86.0008 42.7661 85.8233 42.944C85.6464 43.114 85.5577 43.3151 85.5577 43.547C85.5577 43.7557 85.6197 43.9451 85.7424 44.1152C85.8738 44.2776 86.0737 44.4322 86.3429 44.5791C86.6129 44.7259 86.9629 44.8767 87.3938 45.0314C87.6327 45.1164 87.8716 45.2246 88.1098 45.3561C88.3566 45.4875 88.5797 45.6537 88.7796 45.8547C88.9802 46.048 89.1376 46.276 89.2531 46.5389C89.3765 46.8017 89.4378 47.111 89.4378 47.4667C89.4378 47.8454 89.3649 48.1857 89.2184 48.4872C89.0726 48.7887 88.872 49.0438 88.6179 49.2525C88.3639 49.4535 88.0752 49.6081 87.7518 49.7164C87.4364 49.8324 87.1051 49.8904 86.7587 49.8904C86.2816 49.8904 85.8391 49.7976 85.4306 49.612C85.0308 49.4187 84.68 49.1636 84.3798 48.8467C84.0795 48.5296 83.8413 48.1857 83.6638 47.8146L84.68 47.1072ZM120.213 47.629L120.467 46.4693H124.22L124.486 47.629H120.213ZM122.326 43.8949L121.056 46.8752L121.033 47.1767L119.913 49.7164H118.377L122.326 41.1465L126.276 49.7164H124.74L123.643 47.2463L123.608 46.91L122.326 43.8949ZM140.728 45.53V44.8574H142.032C142.286 44.8574 142.51 44.8149 142.702 44.7298C142.894 44.6448 143.044 44.525 143.153 44.3704C143.26 44.208 143.314 44.0147 143.314 43.7905C143.314 43.4503 143.194 43.1875 142.956 43.0019C142.717 42.8164 142.409 42.7236 142.032 42.7236H141.051V48.5915H142.183C142.49 48.5915 142.764 48.5412 143.002 48.4408C143.241 48.3403 143.43 48.1895 143.568 47.9885C143.707 47.7875 143.776 47.5362 143.776 47.2347C143.776 47.0182 143.734 46.8288 143.649 46.6665C143.572 46.4964 143.46 46.3572 143.314 46.249C143.176 46.133 143.01 46.0519 142.818 46.0055C142.625 45.9513 142.414 45.9243 142.183 45.9243H140.728V45.1705H142.263C142.656 45.1705 143.026 45.213 143.372 45.2981C143.718 45.3831 144.026 45.5145 144.296 45.6924C144.573 45.8702 144.788 46.0983 144.943 46.3766C145.096 46.6549 145.174 46.9873 145.174 47.3739C145.174 47.9073 145.047 48.348 144.792 48.6959C144.546 49.0438 144.203 49.3028 143.765 49.4729C143.333 49.6352 142.833 49.7164 142.263 49.7164H139.688V41.5988H142.125C142.633 41.5988 143.079 41.6722 143.464 41.8191C143.857 41.9659 144.161 42.1902 144.377 42.4917C144.6 42.7932 144.712 43.1759 144.712 43.6398C144.712 44.0417 144.6 44.3858 144.377 44.6719C144.161 44.9502 143.857 45.1628 143.464 45.3097C143.079 45.4565 142.633 45.53 142.125 45.53H140.728ZM160.747 45.8431H162.225L164.962 49.7164H163.322L160.747 45.8431ZM159.084 41.5988H160.447V49.7164H159.084V41.5988ZM159.892 42.7816V41.5988H161.578C162.164 41.5988 162.672 41.7031 163.103 41.9119C163.542 42.1206 163.881 42.4144 164.119 42.7932C164.358 43.1643 164.477 43.605 164.477 44.1152C164.477 44.6255 164.358 45.07 164.119 45.4488C163.881 45.8276 163.542 46.1214 163.103 46.3302C162.672 46.5389 162.164 46.6433 161.578 46.6433H159.892V45.5184H161.521C161.829 45.5184 162.098 45.4643 162.329 45.3561C162.568 45.2478 162.753 45.0932 162.883 44.8922C163.015 44.6835 163.08 44.436 163.08 44.15C163.08 43.8562 163.015 43.6088 162.883 43.4078C162.753 43.2068 162.568 43.0522 162.329 42.944C162.098 42.8357 161.829 42.7816 161.521 42.7816H159.892ZM179.406 45.6576C179.406 46.2142 179.521 46.7129 179.752 47.1535C179.991 47.5865 180.318 47.9266 180.734 48.1741C181.15 48.4214 181.623 48.5451 182.154 48.5451C182.693 48.5451 183.167 48.4214 183.575 48.1741C183.99 47.9266 184.314 47.5865 184.545 47.1535C184.784 46.7129 184.903 46.2142 184.903 45.6576C184.903 45.1009 184.787 44.6061 184.556 44.1732C184.325 43.7325 184.002 43.3885 183.586 43.1411C183.178 42.8937 182.701 42.77 182.154 42.77C181.623 42.77 181.15 42.8937 180.734 43.1411C180.318 43.3885 179.991 43.7325 179.752 44.1732C179.521 44.6061 179.406 45.1009 179.406 45.6576ZM177.962 45.6576C177.962 45.0468 178.066 44.4863 178.274 43.9761C178.482 43.4658 178.774 43.0251 179.152 42.654C179.536 42.2752 179.983 41.9814 180.491 41.7727C181.007 41.564 181.562 41.4596 182.154 41.4596C182.763 41.4596 183.321 41.564 183.829 41.7727C184.337 41.9814 184.779 42.2752 185.157 42.654C185.542 43.0251 185.838 43.4658 186.046 43.9761C186.254 44.4863 186.358 45.0468 186.358 45.6576C186.358 46.2606 186.254 46.8211 186.046 47.3391C185.838 47.857 185.546 48.3055 185.168 48.6843C184.791 49.0631 184.345 49.3608 183.829 49.5773C183.321 49.786 182.763 49.8904 182.154 49.8904C181.554 49.8904 180.996 49.786 180.48 49.5773C179.964 49.3608 179.518 49.0631 179.14 48.6843C178.771 48.3055 178.482 47.857 178.274 47.3391C178.066 46.8211 177.962 46.2606 177.962 45.6576ZM200.776 47.629L201.03 46.4693H204.783L205.049 47.629H200.776ZM202.889 43.8949L201.619 46.8752L201.596 47.1767L200.475 49.7164H198.94L202.889 41.1465L206.838 49.7164H205.303L204.206 47.2463L204.171 46.91L202.889 43.8949ZM220.251 41.5988H221.637V49.7164H220.251V41.5988ZM222.861 49.7164H221.094V48.4292H222.826C223.226 48.4292 223.596 48.3712 223.935 48.2552C224.273 48.1393 224.566 47.9653 224.812 47.7334C225.067 47.5015 225.263 47.2115 225.401 46.8636C225.547 46.5157 225.621 46.1137 225.621 45.6576C225.621 45.2014 225.547 44.7994 225.401 44.4515C225.263 44.1036 225.067 43.8137 224.812 43.5818C224.566 43.3498 224.273 43.1759 223.935 43.0599C223.596 42.944 223.226 42.886 222.826 42.886H221.094V41.5988H222.861C223.684 41.5988 224.408 41.7688 225.032 42.109C225.655 42.4414 226.14 42.913 226.487 43.5238C226.841 44.1268 227.018 44.8381 227.018 45.6576C227.018 46.477 226.841 47.1922 226.487 47.803C226.14 48.406 225.655 48.8775 225.032 49.2178C224.408 49.5501 223.684 49.7164 222.861 49.7164Z" fill="#A4A4A4"/>
<path fill-rule="evenodd" clip-rule="evenodd" d="M158.744 16.4947H152.896V12.3711H158.744V16.4947ZM171.038 16.4947H164.975C165.276 15.0512 165.755 13.6647 166.406 12.3711H173.535C172.413 13.5259 171.561 14.9271 171.038 16.4947ZM228.002 12.3711L225.176 16.4947H218.403L221.238 12.3711H228.002ZM205.505 12.3711H212.269L215.104 16.4947H208.331L205.505 12.3711ZM197.443 12.3711H190.817C191.396 12.9999 191.814 13.6843 192.033 14.3954L197.881 13.7206C197.775 13.2751 197.629 12.8235 197.443 12.3711ZM146.619 12.3711V16.4947H140.771V12.3711H146.619ZM116.48 12.3711V16.4947H122.328V12.3711H116.48ZM108.763 12.3711C109.429 13.6706 109.92 15.0586 110.23 16.4947H104.182C103.659 14.9271 102.807 13.5259 101.686 12.3711H108.763ZM77.8544 12.3711C77.1885 13.6706 76.698 15.0586 76.3876 16.4947H82.4353C82.9587 14.9271 83.811 13.5259 84.9321 12.3711H77.8544ZM71.4807 12.3711V14.8453C71.4807 15.4084 71.4326 15.9593 71.3382 16.4947H65.2888C65.5084 15.9646 65.6327 15.3442 65.6327 14.6203V12.3711H71.4807ZM42.2406 12.3711V16.4947H48.0886V12.3711H42.2406ZM35.9427 12.3711V14.8453C35.9427 15.4084 35.8948 15.9593 35.8005 16.4947H29.7508C29.9705 15.9646 30.0947 15.3442 30.0947 14.6203V12.3711H35.9427ZM6.70264 16.4947V12.3711H12.5507V16.4947H6.70264Z" fill="white"/>
<path fill-rule="evenodd" clip-rule="evenodd" d="M48.0886 28.8648H42.2406V24.7412H64.6738L67.1697 28.8648H60.4013L58.0303 24.9661L48.0886 25.8658V28.8648ZM158.744 28.8648H152.896V24.7412H158.744V28.8648ZM219.677 28.8648H213.829V24.7412H219.677V28.8648ZM197.881 24.7412V28.8648H190.933C191.95 28.1975 192.483 27.6652 192.483 27.6652V24.7412H197.881ZM165.149 24.7412H171.318C171.988 26.3516 173.02 27.7585 174.342 28.8648H166.809C166.075 27.5818 165.52 26.1945 165.149 24.7412ZM146.156 24.7412C145.895 26.2402 145.51 27.6215 144.964 28.8648H138.021C139.156 27.9229 139.854 26.5693 140.264 24.7412H146.156ZM116.48 24.7412V28.8648H122.328V24.7412H116.48ZM110.051 24.7412C109.67 26.1874 109.103 27.5762 108.354 28.8648H100.878C102.2 27.7585 103.232 26.3516 103.902 24.7412H110.051ZM76.5672 24.7412C76.9479 26.1874 77.5151 27.5762 78.2638 28.8648H85.7392C84.4176 27.7585 83.3856 26.3516 82.7159 24.7412H76.5672ZM6.70264 24.7412H25.1464L12.5507 25.8658V28.8648H6.70264V24.7412Z" fill="white"/>
<path fill-rule="evenodd" clip-rule="evenodd" d="M3.30487 32.389L3.30487 12.8956H9.15289V8.77203H3.30487L3.30487 0.899695H32.545L32.545 8.77203H26.697L26.697 6.29787H9.15289V16.8693L21.5237 15.7447C23.467 15.568 25.5491 14.8363 26.3531 12.8956H32.4028C31.6315 17.2784 27.7618 20.6217 21.7486 21.1428L9.15289 22.2675V24.7416H6.00395V28.8652H9.15289V32.389H3.30487ZM38.8428 32.389L38.8428 12.8956H44.6909V16.8693L57.0617 15.7447C59.005 15.568 61.087 14.8363 61.891 12.8956H67.9404C67.9472 12.8574 67.9537 12.8191 67.9599 12.7808C67.3892 16.2754 64.8553 19.1241 60.8404 20.4231L63.4542 24.7416H56.6843L54.6325 21.3678L44.6909 22.2675V24.7416H41.5419V28.8652H44.6909V32.389H38.8428ZM56.8478 25.0103L61.3352 32.389H68.0829L65.9501 28.8652H59.7026L57.3316 24.9665L56.8478 25.0103ZM44.6909 8.77203H38.8428L38.8428 0.899695H68.0829V8.77203H62.2349L62.2349 6.29787H44.6909V8.77203ZM77.3656 28.5116C74.225 25.3878 72.592 21.0765 72.592 16.6444C72.592 15.3766 72.7256 14.1187 72.9899 12.8956H79.0375C78.6474 14.0639 78.44 15.3245 78.44 16.6444C78.44 19.852 79.6653 22.7096 81.7593 24.7416H75.8685C76.2146 26.0564 76.7149 27.3238 77.3656 28.5116ZM77.733 28.8652C80.6312 31.5635 84.72 33.2887 89.9111 33.2887C95.1021 33.2887 99.191 31.5635 102.089 28.8652H100.18C101.501 27.7589 102.533 26.3521 103.203 24.7416H105.248C106.558 22.2798 107.23 19.487 107.23 16.6444C107.23 15.3715 107.096 14.1086 106.829 12.8809C106.83 12.8858 106.831 12.8907 106.832 12.8956H100.785C101.175 14.0639 101.382 15.3245 101.382 16.6444C101.382 22.9422 96.6588 27.8906 89.9111 27.8906C86.8303 27.8906 84.1714 26.859 82.1915 25.1385C82.8603 26.5836 83.8287 27.8507 85.0405 28.8652H77.733ZM81.5343 8.77203H74.4566C77.047 3.71675 82.2917 0 89.9111 0C97.5305 0 102.775 3.71675 105.366 8.77203H98.2878C96.258 6.68117 93.347 5.39817 89.9111 5.39817C86.4752 5.39817 83.5642 6.68114 81.5343 8.77203ZM127.927 32.389H113.082V12.8956H118.93L118.93 24.7416H115.781V28.8652H121.629V26.9909H127.927C135.799 26.9909 137.374 23.617 137.374 14.845L137.374 12.8956H143.222V14.845C143.222 18.6319 142.86 21.9969 141.784 24.7416H139.565C139.156 26.5697 138.457 27.9233 137.323 28.8652H139.109C136.777 31.1138 133.229 32.389 127.927 32.389ZM118.93 8.77203H113.082V0.899695H143.222V8.77203H137.374L137.374 6.29787H118.93L118.93 8.77203ZM149.498 32.389V12.8956H155.346V24.7416H152.197V28.8652H155.346V32.389H149.498ZM155.346 8.77203H149.498V0.899695H155.346V8.77203ZM165.946 28.5707C162.82 25.4797 161.194 21.1824 161.194 16.6444C161.194 15.3686 161.323 14.1119 161.577 12.8956H167.64C167.657 12.8445 167.674 12.7936 167.692 12.7428C167.268 13.9536 167.042 15.2667 167.042 16.6444C167.042 19.852 168.268 22.7096 170.362 24.7416H164.45C164.793 26.0844 165.293 27.3709 165.946 28.5707ZM166.252 28.8652C169.155 31.579 173.272 33.2887 178.514 33.2887C185.036 33.2887 189.085 30.1398 189.085 30.1398V32.389H194.483V28.8652H190.234C191.252 28.1979 191.784 27.6656 191.784 27.6656V24.7416H194.483V15.2948H181.213V20.4681H189.085V24.0669C189.085 24.0669 185.261 27.8906 178.514 27.8906C175.433 27.8906 172.774 26.859 170.794 25.1385C171.463 26.5836 172.431 27.8507 173.643 28.8652H166.252ZM178.514 5.39817C175.078 5.39817 172.167 6.68117 170.137 8.77203H187.419C185.617 6.81529 182.258 5.39817 178.514 5.39817ZM210.432 32.389V20.9179L204.933 12.8956H211.706L213.356 15.2948L215.005 12.8956H221.778L216.28 20.9179V24.7416H213.131V28.8652H216.28V32.389H210.432ZM208.871 8.77203H202.107L196.711 0.899695H203.459L208.871 8.77203ZM224.604 8.77203H217.84L223.252 0.899695H230L224.604 8.77203Z" fill="white"/>
<path fill-rule="evenodd" clip-rule="evenodd" d="M156.439 16.4947H150.591V12.3711H156.439V16.4947ZM168.733 16.4947H162.67C162.972 15.0512 163.45 13.6647 164.101 12.3711H171.23C170.109 13.5259 169.256 14.9271 168.733 16.4947ZM225.697 12.3711L222.871 16.4947H216.098L218.933 12.3711H225.697ZM203.2 12.3711H209.964L212.799 16.4947H206.026L203.2 12.3711ZM195.139 12.3711H188.512C189.091 12.9999 189.509 13.6843 189.728 14.3954L195.576 13.7206C195.47 13.2751 195.324 12.8235 195.139 12.3711ZM144.315 12.3711V16.4947H138.467V12.3711H144.315ZM114.175 12.3711V16.4947H120.023V12.3711H114.175ZM106.459 12.3711C107.125 13.6706 107.615 15.0586 107.925 16.4947H101.878C101.354 14.9271 100.502 13.5259 99.3809 12.3711H106.459ZM75.5497 12.3711C74.8838 13.6706 74.3933 15.0586 74.0829 16.4947H80.1306C80.6541 14.9271 81.5063 13.5259 82.6274 12.3711H75.5497ZM69.176 12.3711V14.8453C69.176 15.4084 69.1279 15.9593 69.0335 16.4947H62.9841C63.2037 15.9646 63.328 15.3442 63.328 14.6203V12.3711H69.176ZM39.9359 12.3711V16.4947H45.7839V12.3711H39.9359ZM33.6381 12.3711V14.8453C33.6381 15.4084 33.5901 15.9593 33.4959 16.4947H27.4461C27.6658 15.9646 27.79 15.3442 27.79 14.6203V12.3711H33.6381ZM4.39795 16.4947V12.3711H10.246V16.4947H4.39795Z" fill="white"/>
<path fill-rule="evenodd" clip-rule="evenodd" d="M45.7839 28.8648H39.9359V24.7412H62.3691L64.865 28.8648H58.0966L55.7256 24.9661L45.7839 25.8658V28.8648ZM156.439 28.8648H150.591V24.7412H156.439V28.8648ZM217.373 28.8648H211.525V24.7412H217.373V28.8648ZM195.576 24.7412V28.8648H188.628C189.646 28.1975 190.178 27.6652 190.178 27.6652V24.7412H195.576ZM162.844 24.7412H169.014C169.683 26.3516 170.715 27.7585 172.037 28.8648H164.504C163.77 27.5818 163.215 26.1945 162.844 24.7412ZM143.851 24.7412C143.591 26.2402 143.205 27.6215 142.659 28.8648H135.717C136.851 27.9229 137.55 26.5693 137.959 24.7412H143.851ZM114.175 24.7412V28.8648H120.023V24.7412H114.175ZM107.746 24.7412C107.365 26.1874 106.798 27.5762 106.049 28.8648H98.5738C99.8954 27.7585 100.927 26.3516 101.597 24.7412H107.746ZM74.2625 24.7412C74.6432 26.1874 75.2104 27.5762 75.9591 28.8648H83.4345C82.1129 27.7585 81.0809 26.3516 80.4112 24.7412H74.2625ZM4.39795 24.7412H22.8417L10.246 25.8658V28.8648H4.39795V24.7412Z" fill="white"/>
<path fill-rule="evenodd" clip-rule="evenodd" d="M1 32.389L1 12.8956H6.84802V8.77203H1L1 0.899695H30.2401L30.2401 8.77203H24.3921L24.3921 6.29787H6.84802V16.8693L19.2188 15.7447C21.1621 15.568 23.2442 14.8363 24.0482 12.8956H30.0979C29.3267 17.2784 25.4569 20.6217 19.4438 21.1428L6.84802 22.2675V24.7416H3.69908V28.8652H6.84802V32.389H1ZM36.538 32.389L36.538 12.8956H42.386V16.8693L54.7568 15.7447C56.7001 15.568 58.7822 14.8363 59.5862 12.8956H65.6356C65.6423 12.8574 65.6488 12.8191 65.6551 12.7808C65.0843 16.2754 62.5504 19.1241 58.5355 20.4231L61.1494 24.7416H54.3795L52.3276 21.3678L42.386 22.2675V24.7416H39.237V28.8652H42.386V32.389H36.538ZM54.5429 25.0103L59.0304 32.389H65.7781L63.6452 28.8652H57.3977L55.0267 24.9665L54.5429 25.0103ZM42.386 8.77203H36.538L36.538 0.899695H65.7781V8.77203H59.93L59.93 6.29787H42.386V8.77203ZM75.0608 28.5116C71.9201 25.3878 70.2871 21.0765 70.2871 16.6444C70.2871 15.3766 70.4207 14.1187 70.685 12.8956H76.7327C76.3426 14.0639 76.1351 15.3245 76.1351 16.6444C76.1351 19.852 77.3604 22.7096 79.4544 24.7416H73.5636C73.9098 26.0564 74.4101 27.3238 75.0608 28.5116ZM75.4282 28.8652C78.3263 31.5635 82.4152 33.2887 87.6062 33.2887C92.7973 33.2887 96.8861 31.5635 99.7843 28.8652H97.8749C99.1965 27.7589 100.229 26.3521 100.898 24.7416H102.943C104.254 22.2798 104.925 19.487 104.925 16.6444C104.925 15.3715 104.791 14.1086 104.524 12.8809C104.525 12.8858 104.526 12.8907 104.527 12.8956H98.4798C98.8699 14.0639 99.0773 15.3245 99.0773 16.6444C99.0773 22.9422 94.3539 27.8906 87.6062 27.8906C84.5254 27.8906 81.8666 26.859 79.8866 25.1385C80.5555 26.5836 81.5238 27.8507 82.7357 28.8652H75.4282ZM79.2295 8.77203H72.1517C74.7421 3.71675 79.9869 0 87.6062 0C95.2256 0 100.47 3.71675 103.061 8.77203H95.983C93.9531 6.68117 91.0421 5.39817 87.6062 5.39817C84.1703 5.39817 81.2593 6.68114 79.2295 8.77203ZM125.622 32.389H110.777V12.8956H116.625L116.625 24.7416H113.476V28.8652H119.324V26.9909H125.622C133.494 26.9909 135.069 23.617 135.069 14.845L135.069 12.8956H140.917V14.845C140.917 18.6319 140.555 21.9969 139.479 24.7416H137.26C136.851 26.5697 136.152 27.9233 135.018 28.8652H136.804C134.472 31.1138 130.924 32.389 125.622 32.389ZM116.625 8.77203H110.777V0.899695H140.917V8.77203H135.069L135.069 6.29787H116.625L116.625 8.77203ZM147.193 32.389V12.8956H153.041V24.7416H149.893V28.8652H153.041V32.389H147.193ZM153.041 8.77203H147.193V0.899695H153.041V8.77203ZM163.641 28.5707C160.515 25.4797 158.89 21.1824 158.89 16.6444C158.89 15.3686 159.018 14.1119 159.272 12.8956H165.335C165.352 12.8445 165.37 12.7936 165.387 12.7428C164.964 13.9536 164.738 15.2667 164.738 16.6444C164.738 19.852 165.963 22.7096 168.057 24.7416H162.145C162.488 26.0844 162.988 27.3709 163.641 28.5707ZM163.947 28.8652C166.85 31.579 170.968 33.2887 176.209 33.2887C182.731 33.2887 186.78 30.1398 186.78 30.1398V32.389H192.178V28.8652H187.929C188.947 28.1979 189.479 27.6656 189.479 27.6656V24.7416H192.178V15.2948H178.908V20.4681H186.78V24.0669C186.78 24.0669 182.956 27.8906 176.209 27.8906C173.128 27.8906 170.469 26.859 168.489 25.1385C169.158 26.5836 170.126 27.8507 171.338 28.8652H163.947ZM176.209 5.39817C172.773 5.39817 169.862 6.68117 167.832 8.77203H185.114C183.312 6.81529 179.954 5.39817 176.209 5.39817ZM208.127 32.389V20.9179L202.628 12.8956H209.401L211.051 15.2948L212.7 12.8956H219.473L213.975 20.9179V24.7416H210.826V28.8652H213.975V32.389H208.127ZM206.566 8.77203H199.802L194.406 0.899695H201.154L206.566 8.77203ZM222.299 8.77203H215.535L220.947 0.899695H227.695L222.299 8.77203Z" fill="white"/>
<path fill-rule="evenodd" clip-rule="evenodd" d="M158.744 16.4947H152.896V12.3711H158.744V16.4947ZM171.038 16.4947H164.975C165.276 15.0512 165.755 13.6647 166.406 12.3711H173.535C172.413 13.5259 171.561 14.9271 171.038 16.4947ZM228.002 12.3711L225.176 16.4947H218.403L221.238 12.3711H228.002ZM205.505 12.3711H212.269L215.104 16.4947H208.331L205.505 12.3711ZM197.443 12.3711H190.817C191.396 12.9999 191.814 13.6843 192.033 14.3954L197.881 13.7206C197.775 13.2751 197.629 12.8235 197.443 12.3711ZM146.619 12.3711V16.4947H140.771V12.3711H146.619ZM116.48 12.3711V16.4947H122.328V12.3711H116.48ZM108.763 12.3711C109.429 13.6706 109.92 15.0586 110.23 16.4947H104.182C103.659 14.9271 102.807 13.5259 101.686 12.3711H108.763ZM77.8544 12.3711C77.1885 13.6706 76.698 15.0586 76.3876 16.4947H82.4353C82.9587 14.9271 83.811 13.5259 84.9321 12.3711H77.8544ZM71.4807 12.3711V14.8453C71.4807 15.4084 71.4326 15.9593 71.3382 16.4947H65.2888C65.5084 15.9646 65.6327 15.3442 65.6327 14.6203V12.3711H71.4807ZM42.2406 12.3711V16.4947H48.0886V12.3711H42.2406ZM35.9427 12.3711V14.8453C35.9427 15.4084 35.8948 15.9593 35.8005 16.4947H29.7508C29.9705 15.9646 30.0947 15.3442 30.0947 14.6203V12.3711H35.9427ZM6.70264 16.4947V12.3711H12.5507V16.4947H6.70264Z" fill="white" style="mix-blend-mode:multiply"/>
<path fill-rule="evenodd" clip-rule="evenodd" d="M48.0886 28.8648H42.2406V24.7412H64.6738L67.1697 28.8648H60.4013L58.0303 24.9661L48.0886 25.8658V28.8648ZM158.744 28.8648H152.896V24.7412H158.744V28.8648ZM219.677 28.8648H213.829V24.7412H219.677V28.8648ZM197.881 24.7412V28.8648H190.933C191.95 28.1975 192.483 27.6652 192.483 27.6652V24.7412H197.881ZM165.149 24.7412H171.318C171.988 26.3516 173.02 27.7585 174.342 28.8648H166.809C166.075 27.5818 165.52 26.1945 165.149 24.7412ZM146.156 24.7412C145.895 26.2402 145.51 27.6215 144.964 28.8648H138.021C139.156 27.9229 139.854 26.5693 140.264 24.7412H146.156ZM116.48 24.7412V28.8648H122.328V24.7412H116.48ZM110.051 24.7412C109.67 26.1874 109.103 27.5762 108.354 28.8648H100.878C102.2 27.7585 103.232 26.3516 103.902 24.7412H110.051ZM76.5672 24.7412C76.9479 26.1874 77.5151 27.5762 78.2638 28.8648H85.7392C84.4176 27.7585 83.3856 26.3516 82.7159 24.7412H76.5672ZM6.70264 24.7412H25.1464L12.5507 25.8658V28.8648H6.70264V24.7412Z" fill="#464646" style="mix-blend-mode:multiply"/>
<path fill-rule="evenodd" clip-rule="evenodd" d="M3.30487 32.389L3.30487 12.8956H9.15289V8.77203H3.30487L3.30487 0.899695H32.545L32.545 8.77203H26.697L26.697 6.29787H9.15289V16.8693L21.5237 15.7447C23.467 15.568 25.5491 14.8363 26.3531 12.8956H32.4028C31.6315 17.2784 27.7618 20.6217 21.7486 21.1428L9.15289 22.2675V24.7416H6.00395V28.8652H9.15289V32.389H3.30487ZM38.8428 32.389L38.8428 12.8956H44.6909V16.8693L57.0617 15.7447C59.005 15.568 61.087 14.8363 61.891 12.8956H67.9404C67.9472 12.8574 67.9537 12.8191 67.9599 12.7808C67.3892 16.2754 64.8553 19.1241 60.8404 20.4231L63.4542 24.7416H56.6843L54.6325 21.3678L44.6909 22.2675V24.7416H41.5419V28.8652H44.6909V32.389H38.8428ZM56.8478 25.0103L61.3352 32.389H68.0829L65.9501 28.8652H59.7026L57.3316 24.9665L56.8478 25.0103ZM44.6909 8.77203H38.8428L38.8428 0.899695H68.0829V8.77203H62.2349L62.2349 6.29787H44.6909V8.77203ZM77.3656 28.5116C74.225 25.3878 72.592 21.0765 72.592 16.6444C72.592 15.3766 72.7256 14.1187 72.9899 12.8956H79.0375C78.6474 14.0639 78.44 15.3245 78.44 16.6444C78.44 19.852 79.6653 22.7096 81.7593 24.7416H75.8685C76.2146 26.0564 76.7149 27.3238 77.3656 28.5116ZM77.733 28.8652C80.6312 31.5635 84.72 33.2887 89.9111 33.2887C95.1021 33.2887 99.191 31.5635 102.089 28.8652H100.18C101.501 27.7589 102.533 26.3521 103.203 24.7416H105.248C106.558 22.2798 107.23 19.487 107.23 16.6444C107.23 15.3715 107.096 14.1086 106.829 12.8809C106.83 12.8858 106.831 12.8907 106.832 12.8956H100.785C101.175 14.0639 101.382 15.3245 101.382 16.6444C101.382 22.9422 96.6588 27.8906 89.9111 27.8906C86.8303 27.8906 84.1714 26.859 82.1915 25.1385C82.8603 26.5836 83.8287 27.8507 85.0405 28.8652H77.733ZM81.5343 8.77203H74.4566C77.047 3.71675 82.2917 0 89.9111 0C97.5305 0 102.775 3.71675 105.366 8.77203H98.2878C96.258 6.68117 93.347 5.39817 89.9111 5.39817C86.4752 5.39817 83.5642 6.68114 81.5343 8.77203ZM127.927 32.389H113.082V12.8956H118.93L118.93 24.7416H115.781V28.8652H121.629V26.9909H127.927C135.799 26.9909 137.374 23.617 137.374 14.845L137.374 12.8956H143.222V14.845C143.222 18.6319 142.86 21.9969 141.784 24.7416H139.565C139.156 26.5697 138.457 27.9233 137.323 28.8652H139.109C136.777 31.1138 133.229 32.389 127.927 32.389ZM118.93 8.77203H113.082V0.899695H143.222V8.77203H137.374L137.374 6.29787H118.93L118.93 8.77203ZM149.498 32.389V12.8956H155.346V24.7416H152.197V28.8652H155.346V32.389H149.498ZM155.346 8.77203H149.498V0.899695H155.346V8.77203ZM165.946 28.5707C162.82 25.4797 161.194 21.1824 161.194 16.6444C161.194 15.3686 161.323 14.1119 161.577 12.8956H167.64C167.657 12.8445 167.674 12.7936 167.692 12.7428C167.268 13.9536 167.042 15.2667 167.042 16.6444C167.042 19.852 168.268 22.7096 170.362 24.7416H164.45C164.793 26.0844 165.293 27.3709 165.946 28.5707ZM166.252 28.8652C169.155 31.579 173.272 33.2887 178.514 33.2887C185.036 33.2887 189.085 30.1398 189.085 30.1398V32.389H194.483V28.8652H190.234C191.252 28.1979 191.784 27.6656 191.784 27.6656V24.7416H194.483V15.2948H181.213V20.4681H189.085V24.0669C189.085 24.0669 185.261 27.8906 178.514 27.8906C175.433 27.8906 172.774 26.859 170.794 25.1385C171.463 26.5836 172.431 27.8507 173.643 28.8652H166.252ZM178.514 5.39817C175.078 5.39817 172.167 6.68117 170.137 8.77203H187.419C185.617 6.81529 182.258 5.39817 178.514 5.39817ZM210.432 32.389V20.9179L204.933 12.8956H211.706L213.356 15.2948L215.005 12.8956H221.778L216.28 20.9179V24.7416H213.131V28.8652H216.28V32.389H210.432ZM208.871 8.77203H202.107L196.711 0.899695H203.459L208.871 8.77203ZM224.604 8.77203H217.84L223.252 0.899695H230L224.604 8.77203Z" fill="#868686" style="mix-blend-mode:multiply"/>
<path fill-rule="evenodd" clip-rule="evenodd" d="M156.439 16.4947H150.591V12.3711H156.439V16.4947ZM168.733 16.4947H162.67C162.972 15.0512 163.45 13.6647 164.101 12.3711H171.23C170.109 13.5259 169.256 14.9271 168.733 16.4947ZM225.697 12.3711L222.871 16.4947H216.098L218.933 12.3711H225.697ZM203.2 12.3711H209.964L212.799 16.4947H206.026L203.2 12.3711ZM195.139 12.3711H188.512C189.091 12.9999 189.509 13.6843 189.728 14.3954L195.576 13.7206C195.47 13.2751 195.324 12.8235 195.139 12.3711ZM144.315 12.3711V16.4947H138.467V12.3711H144.315ZM114.175 12.3711V16.4947H120.023V12.3711H114.175ZM106.459 12.3711C107.125 13.6706 107.615 15.0586 107.925 16.4947H101.878C101.354 14.9271 100.502 13.5259 99.3809 12.3711H106.459ZM75.5497 12.3711C74.8838 13.6706 74.3933 15.0586 74.0829 16.4947H80.1306C80.6541 14.9271 81.5063 13.5259 82.6274 12.3711H75.5497ZM69.176 12.3711V14.8453C69.176 15.4084 69.1279 15.9593 69.0335 16.4947H62.9841C63.2037 15.9646 63.328 15.3442 63.328 14.6203V12.3711H69.176ZM39.9359 12.3711V16.4947H45.7839V12.3711H39.9359ZM33.6381 12.3711V14.8453C33.6381 15.4084 33.5901 15.9593 33.4959 16.4947H27.4461C27.6658 15.9646 27.79 15.3442 27.79 14.6203V12.3711H33.6381ZM4.39795 16.4947V12.3711H10.246V16.4947H4.39795Z" fill="#565656" style="mix-blend-mode:multiply"/>
<path fill-rule="evenodd" clip-rule="evenodd" d="M45.7839 28.8648H39.9359V24.7412H62.3691L64.865 28.8648H58.0966L55.7256 24.9661L45.7839 25.8658V28.8648ZM156.439 28.8648H150.591V24.7412H156.439V28.8648ZM217.373 28.8648H211.525V24.7412H217.373V28.8648ZM195.576 24.7412V28.8648H188.628C189.646 28.1975 190.178 27.6652 190.178 27.6652V24.7412H195.576ZM162.844 24.7412H169.014C169.683 26.3516 170.715 27.7585 172.037 28.8648H164.504C163.77 27.5818 163.215 26.1945 162.844 24.7412ZM143.851 24.7412C143.591 26.2402 143.205 27.6215 142.659 28.8648H135.717C136.851 27.9229 137.55 26.5693 137.959 24.7412H143.851ZM114.175 24.7412V28.8648H120.023V24.7412H114.175ZM107.746 24.7412C107.365 26.1874 106.798 27.5762 106.049 28.8648H98.5738C99.8954 27.7585 100.927 26.3516 101.597 24.7412H107.746ZM74.2625 24.7412C74.6432 26.1874 75.2104 27.5762 75.9591 28.8648H83.4345C82.1129 27.7585 81.0809 26.3516 80.4112 24.7412H74.2625ZM4.39795 24.7412H22.8417L10.246 25.8658V28.8648H4.39795V24.7412Z" fill="white" style="mix-blend-mode:multiply"/>
<path fill-rule="evenodd" clip-rule="evenodd" d="M1 32.389L1 12.8956H6.84802V8.77203H1L1 0.899695H30.2401L30.2401 8.77203H24.3921L24.3921 6.29787H6.84802V16.8693L19.2188 15.7447C21.1621 15.568 23.2442 14.8363 24.0482 12.8956H30.0979C29.3267 17.2784 25.4569 20.6217 19.4438 21.1428L6.84802 22.2675V24.7416H3.69908V28.8652H6.84802V32.389H1ZM36.538 32.389L36.538 12.8956H42.386V16.8693L54.7568 15.7447C56.7001 15.568 58.7822 14.8363 59.5862 12.8956H65.6356C65.6423 12.8574 65.6488 12.8191 65.6551 12.7808C65.0843 16.2754 62.5504 19.1241 58.5355 20.4231L61.1494 24.7416H54.3795L52.3276 21.3678L42.386 22.2675V24.7416H39.237V28.8652H42.386V32.389H36.538ZM54.5429 25.0103L59.0304 32.389H65.7781L63.6452 28.8652H57.3977L55.0267 24.9665L54.5429 25.0103ZM42.386 8.77203H36.538L36.538 0.899695H65.7781V8.77203H59.93L59.93 6.29787H42.386V8.77203ZM75.0608 28.5116C71.9201 25.3878 70.2871 21.0765 70.2871 16.6444C70.2871 15.3766 70.4207 14.1187 70.685 12.8956H76.7327C76.3426 14.0639 76.1351 15.3245 76.1351 16.6444C76.1351 19.852 77.3604 22.7096 79.4544 24.7416H73.5636C73.9098 26.0564 74.4101 27.3238 75.0608 28.5116ZM75.4282 28.8652C78.3263 31.5635 82.4152 33.2887 87.6062 33.2887C92.7973 33.2887 96.8861 31.5635 99.7843 28.8652H97.8749C99.1965 27.7589 100.229 26.3521 100.898 24.7416H102.943C104.254 22.2798 104.925 19.487 104.925 16.6444C104.925 15.3715 104.791 14.1086 104.524 12.8809C104.525 12.8858 104.526 12.8907 104.527 12.8956H98.4798C98.8699 14.0639 99.0773 15.3245 99.0773 16.6444C99.0773 22.9422 94.3539 27.8906 87.6062 27.8906C84.5254 27.8906 81.8666 26.859 79.8866 25.1385C80.5555 26.5836 81.5238 27.8507 82.7357 28.8652H75.4282ZM79.2295 8.77203H72.1517C74.7421 3.71675 79.9869 0 87.6062 0C95.2256 0 100.47 3.71675 103.061 8.77203H95.983C93.9531 6.68117 91.0421 5.39817 87.6062 5.39817C84.1703 5.39817 81.2593 6.68114 79.2295 8.77203ZM125.622 32.389H110.777V12.8956H116.625L116.625 24.7416H113.476V28.8652H119.324V26.9909H125.622C133.494 26.9909 135.069 23.617 135.069 14.845L135.069 12.8956H140.917V14.845C140.917 18.6319 140.555 21.9969 139.479 24.7416H137.26C136.851 26.5697 136.152 27.9233 135.018 28.8652H136.804C134.472 31.1138 130.924 32.389 125.622 32.389ZM116.625 8.77203H110.777V0.899695H140.917V8.77203H135.069L135.069 6.29787H116.625L116.625 8.77203ZM147.193 32.389V12.8956H153.041V24.7416H149.893V28.8652H153.041V32.389H147.193ZM153.041 8.77203H147.193V0.899695H153.041V8.77203ZM163.641 28.5707C160.515 25.4797 158.89 21.1824 158.89 16.6444C158.89 15.3686 159.018 14.1119 159.272 12.8956H165.335C165.352 12.8445 165.37 12.7936 165.387 12.7428C164.964 13.9536 164.738 15.2667 164.738 16.6444C164.738 19.852 165.963 22.7096 168.057 24.7416H162.145C162.488 26.0844 162.988 27.3709 163.641 28.5707ZM163.947 28.8652C166.85 31.579 170.968 33.2887 176.209 33.2887C182.731 33.2887 186.78 30.1398 186.78 30.1398V32.389H192.178V28.8652H187.929C188.947 28.1979 189.479 27.6656 189.479 27.6656V24.7416H192.178V15.2948H178.908V20.4681H186.78V24.0669C186.78 24.0669 182.956 27.8906 176.209 27.8906C173.128 27.8906 170.469 26.859 168.489 25.1385C169.158 26.5836 170.126 27.8507 171.338 28.8652H163.947ZM176.209 5.39817C172.773 5.39817 169.862 6.68117 167.832 8.77203H185.114C183.312 6.81529 179.954 5.39817 176.209 5.39817ZM208.127 32.389V20.9179L202.628 12.8956H209.401L211.051 15.2948L212.7 12.8956H219.473L213.975 20.9179V24.7416H210.826V28.8652H213.975V32.389H208.127ZM206.566 8.77203H199.802L194.406 0.899695H201.154L206.566 8.77203ZM222.299 8.77203H215.535L220.947 0.899695H227.695L222.299 8.77203Z" fill="white" style="mix-blend-mode:multiply"/>
</svg>
