<svg width="328" height="78" viewBox="0 0 328 78" fill="none" xmlns="http://www.w3.org/2000/svg">
<path fill-rule="evenodd" clip-rule="evenodd" d="M225.939 23.6364H217.542V17.7273H225.939V23.6364ZM243.568 23.6364H234.87C235.295 21.5695 235.97 19.5829 236.89 17.7273H247.078C245.5 19.3887 244.302 21.3956 243.568 23.6364ZM325.312 17.7273L321.278 23.6364H311.553L315.6 17.7273H325.312ZM293.148 17.7273H302.861L306.908 23.6364H297.183L293.148 17.7273ZM281.545 17.7273H272.082C272.865 18.6055 273.433 19.5566 273.736 20.5434L282.132 19.5709C281.988 18.9621 281.792 18.3454 281.545 17.7273ZM208.529 17.7273V23.6364H200.132V17.7273H208.529ZM165.253 17.7273V23.6364H173.65V17.7273H165.253ZM154.226 17.7273C155.166 19.5914 155.858 21.5801 156.295 23.6364H147.619C146.884 21.3956 145.687 19.3887 144.109 17.7273H154.226ZM109.743 17.7273C108.802 19.5914 108.111 21.5801 107.674 23.6364H116.349C117.084 21.3956 118.282 19.3887 119.859 17.7273H109.743ZM100.643 17.7273V21.1917C100.643 22.027 100.569 22.8436 100.426 23.6364H91.7237C92.0566 22.8577 92.2457 21.9417 92.2457 20.8676V17.7273H100.643ZM58.6585 17.7273V23.6364H67.0553V17.7273H58.6585ZM49.6158 17.7273V21.1917C49.6158 22.027 49.5429 22.8436 49.3996 23.6364H40.6969C41.0299 22.8577 41.219 21.9417 41.219 20.8676V17.7273H49.6158ZM7.63184 23.6364V17.7273H16.0286V23.6364H7.63184Z" fill="white"/>
<path fill-rule="evenodd" clip-rule="evenodd" d="M67.0553 41.3636H58.6585V35.4546H90.8689L94.4322 41.3636H84.7139L81.3299 35.7787L67.0553 37.0754V41.3636ZM225.939 41.3636H217.542V35.4546H225.939V41.3636ZM313.429 41.3636H305.032V35.4546H313.429V41.3636ZM282.133 35.4546V41.3636H272.207C273.635 40.4178 274.382 39.6686 274.382 39.6686V35.4546H282.133ZM235.135 35.4546H243.993C244.947 37.7591 246.416 39.7744 248.294 41.3636H237.499C236.455 39.5241 235.663 37.5364 235.135 35.4546ZM207.864 35.4546C207.492 37.6014 206.944 39.5806 206.167 41.3636H196.224C197.829 40.0078 198.821 38.0674 199.404 35.4546H207.864ZM165.254 35.4546V41.3636H173.65V35.4546H165.254ZM156.022 35.4546C155.479 37.5261 154.672 39.5161 153.606 41.3636H142.893C144.771 39.7744 146.24 37.7591 147.194 35.4546H156.022ZM107.946 35.4546C108.489 37.5261 109.297 39.5161 110.362 41.3636H121.075C119.197 39.7744 117.729 37.7591 116.774 35.4546H107.946ZM7.63184 35.4546H34.114L16.0286 37.0754V41.3636H7.63184V35.4546Z" fill="white"/>
<path fill-rule="evenodd" clip-rule="evenodd" d="M2.30372 46.6784L2.30371 18.6524H10.7005V12.7434H2.30371L2.30372 1.29662H44.2877V12.7434H35.8909V9.07636H10.7005V24.3117L28.463 22.6909C31.2307 22.4384 34.1944 21.3988 35.3688 18.6524H44.0715L44.0816 18.5959C42.9697 24.9068 37.4148 29.72 28.7859 30.4706L10.7005 32.0914V35.4545H6.17916V41.3636H10.7005V46.6784H2.30372ZM53.3304 46.6784V18.6524H61.7272V24.3117L79.4897 22.6909C82.2574 22.4384 85.2211 21.3988 86.3955 18.6524H95.0977C94.2053 23.5822 90.5908 27.5903 84.9153 29.4334L88.5462 35.4545H78.8252L76.0018 30.7948L61.7272 32.0914V35.4545H57.2059V41.3636H61.7272V46.6784H53.3304ZM79.0662 35.8523L85.6258 46.6784H95.3144L92.1095 41.3636H83.2612L79.8772 35.7787L79.0662 35.8523ZM61.7272 12.7434H53.3304V1.29662H95.3144V12.7434H86.9176V9.07636H61.7272V12.7434ZM108.895 41.3386C104.221 36.8182 101.789 30.4933 101.789 23.9875C101.789 22.1837 101.976 20.3939 102.346 18.6524H111.021C110.475 20.3171 110.186 22.1108 110.186 23.9875C110.186 28.5047 111.865 32.5402 114.747 35.4545H106.493C107.034 37.5168 107.837 39.498 108.895 41.3386ZM108.921 41.3636C113.096 45.3877 119.053 47.9751 126.656 47.9751C134.26 47.9751 140.216 45.3877 144.391 41.3636H141.441C143.319 39.7743 144.786 37.7591 145.741 35.4545H148.784C150.595 31.9564 151.524 28.0065 151.524 23.9875C151.524 22.0629 151.311 20.154 150.89 18.3031C150.916 18.4192 150.941 18.5357 150.967 18.6524H142.291C142.836 20.3171 143.127 22.1108 143.127 23.9875C143.127 33.0639 136.345 40.1953 126.656 40.1953C122.317 40.1953 118.56 38.7647 115.735 36.3695C116.679 38.2941 117.997 39.9884 119.623 41.3636H108.921ZM114.531 12.7434H104.415C108.116 5.40622 115.665 0 126.656 0C137.647 0 145.197 5.40622 148.898 12.7434H138.781C135.863 9.67026 131.645 7.77974 126.656 7.77974C121.668 7.77974 117.45 9.67024 114.531 12.7434ZM181.241 46.6784H159.926V18.6524H168.322V35.4545H163.801V41.3636H172.198V38.8987H181.241C192.544 38.8987 194.805 34.0364 194.805 21.3943V18.6524H203.201V21.3943C203.201 26.7591 202.7 31.5364 201.215 35.4545H197.95C197.368 38.0673 196.377 40.0077 194.771 41.3636H197.535C194.192 44.751 189.036 46.6784 181.241 46.6784ZM168.322 12.7434H159.926V1.29662H203.201V12.7434H194.805V9.07636H168.322V12.7434ZM212.214 46.6784V18.6524H220.611V35.4545H216.089V41.3636H220.611V46.6784H212.214ZM220.611 12.7434H212.214V1.29662H220.611V12.7434ZM253.875 47.9751C237.727 47.9751 229.007 36.6296 229.007 23.9875C229.007 22.1725 229.187 20.3843 229.542 18.6524H238.24C238.271 18.5561 238.304 18.4602 238.337 18.3646C237.728 20.1097 237.404 22.0021 237.404 23.9875C237.404 28.5047 239.084 32.5402 241.966 35.4545H233.681C234.211 37.5363 235.001 39.524 236.046 41.3636H246.842C245.216 39.9884 243.898 38.2941 242.954 36.3694C245.779 38.7647 249.535 40.1953 253.875 40.1953C263.564 40.1953 269.054 34.6847 269.054 34.6847V29.4982H257.75V22.0426H276.805V35.4545H272.929V39.6686C272.929 39.6686 272.182 40.4178 270.754 41.3636H276.805V46.6784H269.054V43.4369C269.054 43.4369 263.241 47.9751 253.875 47.9751ZM241.75 12.7434H231.561L231.523 12.8221L266.768 12.7602L276.217 12.7436L266.753 12.7434C264.189 9.87109 259.316 7.77974 253.875 7.77974C248.886 7.77974 244.669 9.67024 241.75 12.7434ZM299.704 46.6784V30.1465L291.855 18.6524H301.58L303.902 22.0426L306.225 18.6524H315.95L308.101 30.1465V35.4545H303.58V41.3636H308.101V46.6784H299.704ZM297.532 12.7434H287.82L280.004 1.29662H289.693L297.532 12.7434ZM319.985 12.7434H310.272L318.112 1.29662H327.801L319.985 12.7434Z" fill="white"/>
<path fill-rule="evenodd" clip-rule="evenodd" d="M223.635 23.6364H215.238V17.7273H223.635V23.6364ZM241.264 23.6364H232.567C232.991 21.5695 233.666 19.5829 234.586 17.7273H244.774C243.196 19.3887 241.998 21.3956 241.264 23.6364ZM323.008 17.7273L318.974 23.6364H309.249L313.297 17.7273H323.008ZM290.844 17.7273H300.557L304.604 23.6364H294.879L290.844 17.7273ZM279.241 17.7273H269.778C270.562 18.6055 271.13 19.5566 271.432 20.5434L279.829 19.5709C279.684 18.9621 279.488 18.3454 279.241 17.7273ZM206.225 17.7273V23.6364H197.828V17.7273H206.225ZM162.949 17.7273V23.6364H171.346V17.7273H162.949ZM151.922 17.7273C152.862 19.5914 153.555 21.5801 153.992 23.6364H145.315C144.58 21.3956 143.383 19.3887 141.805 17.7273H151.922ZM107.439 17.7273C106.498 19.5914 105.807 21.5801 105.37 23.6364H114.045C114.78 21.3956 115.978 19.3887 117.555 17.7273H107.439ZM98.3388 17.7273V21.1917C98.3388 22.027 98.2657 22.8436 98.1222 23.6364H89.42C89.7529 22.8577 89.942 21.9417 89.942 20.8676V17.7273H98.3388ZM56.3548 17.7273V23.6364H64.7516V17.7273H56.3548ZM47.3121 17.7273V21.1917C47.3121 22.027 47.2392 22.8436 47.0959 23.6364H38.3931C38.7262 22.8577 38.9153 21.9417 38.9153 20.8676V17.7273H47.3121ZM5.32812 23.6364V17.7273H13.7249V23.6364H5.32812Z" fill="white"/>
<path fill-rule="evenodd" clip-rule="evenodd" d="M64.7516 41.3636H56.3548V35.4546H88.5652L92.1285 41.3636H82.4101L79.0262 35.7787L64.7516 37.0754V41.3636ZM223.635 41.3636H215.238V35.4546H223.635V41.3636ZM311.125 41.3636H302.728V35.4546H311.125V41.3636ZM279.829 35.4546V41.3636H269.904C271.332 40.4178 272.078 39.6686 272.078 39.6686V35.4546H279.829ZM232.831 35.4546H241.69C242.644 37.7591 244.112 39.7744 245.99 41.3636H235.195C234.151 39.5241 233.36 37.5364 232.831 35.4546ZM205.56 35.4546C205.189 37.6014 204.64 39.5806 203.864 41.3636H193.921C195.525 40.0078 196.518 38.0674 197.1 35.4546H205.56ZM162.949 35.4546V41.3636H171.346V35.4546H162.949ZM153.719 35.4546C153.175 37.5261 152.368 39.5161 151.302 41.3636H140.589C142.468 39.7744 143.936 37.7591 144.89 35.4546H153.719ZM105.642 35.4546C106.185 37.5261 106.994 39.5161 108.058 41.3636H118.771C116.893 39.7744 115.426 37.7591 114.471 35.4546H105.642ZM5.32812 35.4546H31.8103L13.7249 37.0754V41.3636H5.32812V35.4546Z" fill="white"/>
<path fill-rule="evenodd" clip-rule="evenodd" d="M3.84991e-06 46.6784L0 18.6524H8.3968V12.7434H0L3.84991e-06 1.29662H41.984V12.7434H33.5872V9.07636H8.3968V24.3117L26.1593 22.6909C28.927 22.4384 31.8907 21.3988 33.065 18.6524H41.7678L41.7779 18.5959C40.666 24.9068 35.1111 29.72 26.4822 30.4706L8.3968 32.0914V35.4545H3.87545V41.3636H8.3968V46.6784H3.84991e-06ZM51.0267 46.6784V18.6524H59.4235V24.3117L77.186 22.6909C79.9537 22.4384 82.9174 21.3988 84.0918 18.6524H92.794C91.9016 23.5822 88.2871 27.5903 82.6116 29.4334L86.2425 35.4545H76.5215L73.6981 30.7948L59.4235 32.0914V35.4545H54.9022V41.3636H59.4235V46.6784H51.0267ZM76.7625 35.8523L83.3221 46.6784H93.0107L89.8058 41.3636H80.9575L77.5735 35.7787L76.7625 35.8523ZM59.4235 12.7434H51.0267V1.29662H93.0107V12.7434H84.6139V9.07636H59.4235V12.7434ZM106.592 41.3386C101.917 36.8182 99.4849 30.4933 99.4849 23.9875C99.4849 22.1837 99.6719 20.3939 100.042 18.6524H108.717C108.171 20.3171 107.882 22.1108 107.882 23.9875C107.882 28.5047 109.562 32.5402 112.443 35.4545H104.19C104.73 37.5168 105.533 39.498 106.592 41.3386ZM106.617 41.3636C110.792 45.3877 116.749 47.9751 124.352 47.9751C131.956 47.9751 137.912 45.3877 142.088 41.3636H139.137C141.015 39.7743 142.483 37.7591 143.438 35.4545H146.48C148.291 31.9564 149.22 28.0065 149.22 23.9875C149.22 22.0629 149.007 20.154 148.586 18.3031C148.612 18.4192 148.638 18.5357 148.663 18.6524H139.987C140.533 20.3171 140.823 22.1108 140.823 23.9875C140.823 33.0639 134.041 40.1953 124.352 40.1953C120.013 40.1953 116.256 38.7647 113.431 36.3695C114.375 38.2941 115.693 39.9884 117.319 41.3636H106.617ZM112.227 12.7434H102.111C105.812 5.40622 113.362 0 124.352 0C135.343 0 142.893 5.40622 146.594 12.7434H136.477C133.559 9.67026 129.341 7.77974 124.352 7.77974C119.364 7.77974 115.146 9.67024 112.227 12.7434ZM178.937 46.6784H157.622V18.6524H166.018V35.4545H161.497V41.3636H169.894V38.8987H178.937C190.24 38.8987 192.501 34.0364 192.501 21.3943V18.6524H200.897V21.3943C200.897 26.7591 200.396 31.5364 198.911 35.4545H195.647C195.064 38.0673 194.073 40.0077 192.467 41.3636H195.231C191.888 44.751 186.732 46.6784 178.937 46.6784ZM166.018 12.7434H157.622V1.29662H200.897V12.7434H192.501V9.07636H166.018V12.7434ZM209.91 46.6784V18.6524H218.307V35.4545H213.785V41.3636H218.307V46.6784H209.91ZM218.307 12.7434H209.91V1.29662H218.307V12.7434ZM251.571 47.9751C235.423 47.9751 226.704 36.6296 226.704 23.9875C226.704 22.1725 226.883 20.3843 227.238 18.6524H235.936C235.967 18.5561 236.001 18.4602 236.034 18.3646C235.425 20.1097 235.1 22.0021 235.1 23.9875C235.1 28.5047 236.781 32.5402 239.662 35.4545H231.378C231.907 37.5363 232.698 39.524 233.743 41.3636H244.538C242.912 39.9884 241.594 38.2941 240.65 36.3694C243.475 38.7647 247.231 40.1953 251.571 40.1953C261.26 40.1953 266.75 34.6847 266.75 34.6847V29.4982H255.446V22.0426H274.501V35.4545H270.625V39.6686C270.625 39.6686 269.878 40.4178 268.45 41.3636H274.501V46.6784H266.75V43.4369C266.75 43.4369 260.937 47.9751 251.571 47.9751ZM239.446 12.7434H229.258L229.218 12.8221L264.464 12.7602L273.913 12.7436L264.45 12.7434C261.885 9.87109 257.013 7.77974 251.571 7.77974C246.582 7.77974 242.365 9.67024 239.446 12.7434ZM297.4 46.6784V30.1465L289.551 18.6524H299.276L301.599 22.0426L303.921 18.6524H313.646L305.797 30.1465V35.4545H301.276V41.3636H305.797V46.6784H297.4ZM295.229 12.7434H285.516L277.7 1.29662H287.389L295.229 12.7434ZM317.681 12.7434H307.968L315.808 1.29662H325.497L317.681 12.7434Z" fill="white"/>
<g style="mix-blend-mode:multiply">
<path fill-rule="evenodd" clip-rule="evenodd" d="M225.939 23.6364H217.542V17.7273H225.939V23.6364ZM243.568 23.6364H234.87C235.295 21.5695 235.97 19.5829 236.89 17.7273H247.078C245.5 19.3887 244.302 21.3956 243.568 23.6364ZM325.312 17.7273L321.278 23.6364H311.553L315.6 17.7273H325.312ZM293.148 17.7273H302.861L306.908 23.6364H297.183L293.148 17.7273ZM281.545 17.7273H272.082C272.865 18.6055 273.433 19.5566 273.736 20.5434L282.132 19.5709C281.988 18.9621 281.792 18.3454 281.545 17.7273ZM208.529 17.7273V23.6364H200.132V17.7273H208.529ZM165.253 17.7273V23.6364H173.65V17.7273H165.253ZM154.226 17.7273C155.166 19.5914 155.858 21.5801 156.295 23.6364H147.619C146.884 21.3956 145.687 19.3887 144.109 17.7273H154.226ZM109.743 17.7273C108.802 19.5914 108.111 21.5801 107.674 23.6364H116.349C117.084 21.3956 118.282 19.3887 119.859 17.7273H109.743ZM100.643 17.7273V21.1917C100.643 22.027 100.569 22.8436 100.426 23.6364H91.7237C92.0566 22.8577 92.2457 21.9417 92.2457 20.8676V17.7273H100.643ZM58.6585 17.7273V23.6364H67.0553V17.7273H58.6585ZM49.6158 17.7273V21.1917C49.6158 22.027 49.5429 22.8436 49.3996 23.6364H40.6969C41.0299 22.8577 41.219 21.9417 41.219 20.8676V17.7273H49.6158ZM7.63184 23.6364V17.7273H16.0286V23.6364H7.63184Z" fill="#FF5ABE"/>
</g>
<g style="mix-blend-mode:multiply">
<path fill-rule="evenodd" clip-rule="evenodd" d="M67.0553 41.3636H58.6585V35.4546H90.8689L94.4322 41.3636H84.7139L81.3299 35.7787L67.0553 37.0754V41.3636ZM225.939 41.3636H217.542V35.4546H225.939V41.3636ZM313.429 41.3636H305.032V35.4546H313.429V41.3636ZM282.133 35.4546V41.3636H272.207C273.635 40.4178 274.382 39.6686 274.382 39.6686V35.4546H282.133ZM235.135 35.4546H243.993C244.947 37.7591 246.416 39.7744 248.294 41.3636H237.499C236.455 39.5241 235.663 37.5364 235.135 35.4546ZM207.864 35.4546C207.492 37.6014 206.944 39.5806 206.167 41.3636H196.224C197.829 40.0078 198.821 38.0674 199.404 35.4546H207.864ZM165.254 35.4546V41.3636H173.65V35.4546H165.254ZM156.022 35.4546C155.479 37.5261 154.672 39.5161 153.606 41.3636H142.893C144.771 39.7744 146.24 37.7591 147.194 35.4546H156.022ZM107.946 35.4546C108.489 37.5261 109.297 39.5161 110.362 41.3636H121.075C119.197 39.7744 117.729 37.7591 116.774 35.4546H107.946ZM7.63184 35.4546H34.114L16.0286 37.0754V41.3636H7.63184V35.4546Z" fill="#FF5ABE"/>
</g>
<g style="mix-blend-mode:multiply">
<path fill-rule="evenodd" clip-rule="evenodd" d="M2.30372 46.6784L2.30371 18.6524H10.7005V12.7434H2.30371L2.30372 1.29662H44.2877V12.7434H35.8909V9.07636H10.7005V24.3117L28.463 22.6909C31.2307 22.4384 34.1944 21.3988 35.3688 18.6524H44.0715L44.0816 18.5959C42.9697 24.9068 37.4148 29.72 28.7859 30.4706L10.7005 32.0914V35.4545H6.17916V41.3636H10.7005V46.6784H2.30372ZM53.3304 46.6784V18.6524H61.7272V24.3117L79.4897 22.6909C82.2574 22.4384 85.2211 21.3988 86.3955 18.6524H95.0977C94.2053 23.5822 90.5908 27.5903 84.9153 29.4334L88.5462 35.4545H78.8252L76.0018 30.7948L61.7272 32.0914V35.4545H57.2059V41.3636H61.7272V46.6784H53.3304ZM79.0662 35.8523L85.6258 46.6784H95.3144L92.1095 41.3636H83.2612L79.8772 35.7787L79.0662 35.8523ZM61.7272 12.7434H53.3304V1.29662H95.3144V12.7434H86.9176V9.07636H61.7272V12.7434ZM108.895 41.3386C104.221 36.8182 101.789 30.4933 101.789 23.9875C101.789 22.1837 101.976 20.3939 102.346 18.6524H111.021C110.475 20.3171 110.186 22.1108 110.186 23.9875C110.186 28.5047 111.865 32.5402 114.747 35.4545H106.493C107.034 37.5168 107.837 39.498 108.895 41.3386ZM108.921 41.3636C113.096 45.3877 119.053 47.9751 126.656 47.9751C134.26 47.9751 140.216 45.3877 144.391 41.3636H141.441C143.319 39.7743 144.786 37.7591 145.741 35.4545H148.784C150.595 31.9564 151.524 28.0065 151.524 23.9875C151.524 22.0629 151.311 20.154 150.89 18.3031C150.916 18.4192 150.941 18.5357 150.967 18.6524H142.291C142.836 20.3171 143.127 22.1108 143.127 23.9875C143.127 33.0639 136.345 40.1953 126.656 40.1953C122.317 40.1953 118.56 38.7647 115.735 36.3695C116.679 38.2941 117.997 39.9884 119.623 41.3636H108.921ZM114.531 12.7434H104.415C108.116 5.40622 115.665 0 126.656 0C137.647 0 145.197 5.40622 148.898 12.7434H138.781C135.863 9.67026 131.645 7.77974 126.656 7.77974C121.668 7.77974 117.45 9.67024 114.531 12.7434ZM181.241 46.6784H159.926V18.6524H168.322V35.4545H163.801V41.3636H172.198V38.8987H181.241C192.544 38.8987 194.805 34.0364 194.805 21.3943V18.6524H203.201V21.3943C203.201 26.7591 202.7 31.5364 201.215 35.4545H197.95C197.368 38.0673 196.377 40.0077 194.771 41.3636H197.535C194.192 44.751 189.036 46.6784 181.241 46.6784ZM168.322 12.7434H159.926V1.29662H203.201V12.7434H194.805V9.07636H168.322V12.7434ZM212.214 46.6784V18.6524H220.611V35.4545H216.089V41.3636H220.611V46.6784H212.214ZM220.611 12.7434H212.214V1.29662H220.611V12.7434ZM253.875 47.9751C237.727 47.9751 229.007 36.6296 229.007 23.9875C229.007 22.1725 229.187 20.3843 229.542 18.6524H238.24C238.271 18.5561 238.304 18.4602 238.337 18.3646C237.728 20.1097 237.404 22.0021 237.404 23.9875C237.404 28.5047 239.084 32.5402 241.966 35.4545H233.681C234.211 37.5363 235.001 39.524 236.046 41.3636H246.842C245.216 39.9884 243.898 38.2941 242.954 36.3694C245.779 38.7647 249.535 40.1953 253.875 40.1953C263.564 40.1953 269.054 34.6847 269.054 34.6847V29.4982H257.75V22.0426H276.805V35.4545H272.929V39.6686C272.929 39.6686 272.182 40.4178 270.754 41.3636H276.805V46.6784H269.054V43.4369C269.054 43.4369 263.241 47.9751 253.875 47.9751ZM241.75 12.7434H231.561L231.523 12.8221L266.768 12.7602L276.217 12.7436L266.753 12.7434C264.189 9.87109 259.316 7.77974 253.875 7.77974C248.886 7.77974 244.669 9.67024 241.75 12.7434ZM299.704 46.6784V30.1465L291.855 18.6524H301.58L303.902 22.0426L306.225 18.6524H315.95L308.101 30.1465V35.4545H303.58V41.3636H308.101V46.6784H299.704ZM297.532 12.7434H287.82L280.004 1.29662H289.693L297.532 12.7434ZM319.985 12.7434H310.272L318.112 1.29662H327.801L319.985 12.7434Z" fill="#FF5ABE"/>
</g>
<g style="mix-blend-mode:multiply">
<path fill-rule="evenodd" clip-rule="evenodd" d="M223.635 23.6364H215.238V17.7273H223.635V23.6364ZM241.264 23.6364H232.567C232.991 21.5695 233.666 19.5829 234.586 17.7273H244.774C243.196 19.3887 241.998 21.3956 241.264 23.6364ZM323.008 17.7273L318.974 23.6364H309.249L313.297 17.7273H323.008ZM290.844 17.7273H300.557L304.604 23.6364H294.879L290.844 17.7273ZM279.241 17.7273H269.778C270.562 18.6055 271.13 19.5566 271.432 20.5434L279.829 19.5709C279.684 18.9621 279.488 18.3454 279.241 17.7273ZM206.225 17.7273V23.6364H197.828V17.7273H206.225ZM162.949 17.7273V23.6364H171.346V17.7273H162.949ZM151.922 17.7273C152.862 19.5914 153.555 21.5801 153.992 23.6364H145.315C144.58 21.3956 143.383 19.3887 141.805 17.7273H151.922ZM107.439 17.7273C106.498 19.5914 105.807 21.5801 105.37 23.6364H114.045C114.78 21.3956 115.978 19.3887 117.555 17.7273H107.439ZM98.3388 17.7273V21.1917C98.3388 22.027 98.2657 22.8436 98.1222 23.6364H89.42C89.7529 22.8577 89.942 21.9417 89.942 20.8676V17.7273H98.3388ZM56.3548 17.7273V23.6364H64.7516V17.7273H56.3548ZM47.3121 17.7273V21.1917C47.3121 22.027 47.2392 22.8436 47.0959 23.6364H38.3931C38.7262 22.8577 38.9153 21.9417 38.9153 20.8676V17.7273H47.3121ZM5.32812 23.6364V17.7273H13.7249V23.6364H5.32812Z" fill="#5AFFBA"/>
</g>
<g style="mix-blend-mode:multiply">
<path fill-rule="evenodd" clip-rule="evenodd" d="M64.7516 41.3636H56.3548V35.4546H88.5652L92.1285 41.3636H82.4101L79.0262 35.7787L64.7516 37.0754V41.3636ZM223.635 41.3636H215.238V35.4546H223.635V41.3636ZM311.125 41.3636H302.728V35.4546H311.125V41.3636ZM279.829 35.4546V41.3636H269.904C271.332 40.4178 272.078 39.6686 272.078 39.6686V35.4546H279.829ZM232.831 35.4546H241.69C242.644 37.7591 244.112 39.7744 245.99 41.3636H235.195C234.151 39.5241 233.36 37.5364 232.831 35.4546ZM205.56 35.4546C205.189 37.6014 204.64 39.5806 203.864 41.3636H193.921C195.525 40.0078 196.518 38.0674 197.1 35.4546H205.56ZM162.949 35.4546V41.3636H171.346V35.4546H162.949ZM153.719 35.4546C153.175 37.5261 152.368 39.5161 151.302 41.3636H140.589C142.468 39.7744 143.936 37.7591 144.89 35.4546H153.719ZM105.642 35.4546C106.185 37.5261 106.994 39.5161 108.058 41.3636H118.771C116.893 39.7744 115.426 37.7591 114.471 35.4546H105.642ZM5.32812 35.4546H31.8103L13.7249 37.0754V41.3636H5.32812V35.4546Z" fill="#5AFFBA"/>
</g>
<g style="mix-blend-mode:multiply">
<path fill-rule="evenodd" clip-rule="evenodd" d="M3.84991e-06 46.6784L0 18.6524H8.3968V12.7434H0L3.84991e-06 1.29662H41.984V12.7434H33.5872V9.07636H8.3968V24.3117L26.1593 22.6909C28.927 22.4384 31.8907 21.3988 33.065 18.6524H41.7678L41.7779 18.5959C40.666 24.9068 35.1111 29.72 26.4822 30.4706L8.3968 32.0914V35.4545H3.87545V41.3636H8.3968V46.6784H3.84991e-06ZM51.0267 46.6784V18.6524H59.4235V24.3117L77.186 22.6909C79.9537 22.4384 82.9174 21.3988 84.0918 18.6524H92.794C91.9016 23.5822 88.2871 27.5903 82.6116 29.4334L86.2425 35.4545H76.5215L73.6981 30.7948L59.4235 32.0914V35.4545H54.9022V41.3636H59.4235V46.6784H51.0267ZM76.7625 35.8523L83.3221 46.6784H93.0107L89.8058 41.3636H80.9575L77.5735 35.7787L76.7625 35.8523ZM59.4235 12.7434H51.0267V1.29662H93.0107V12.7434H84.6139V9.07636H59.4235V12.7434ZM106.592 41.3386C101.917 36.8182 99.4849 30.4933 99.4849 23.9875C99.4849 22.1837 99.6719 20.3939 100.042 18.6524H108.717C108.171 20.3171 107.882 22.1108 107.882 23.9875C107.882 28.5047 109.562 32.5402 112.443 35.4545H104.19C104.73 37.5168 105.533 39.498 106.592 41.3386ZM106.617 41.3636C110.792 45.3877 116.749 47.9751 124.352 47.9751C131.956 47.9751 137.912 45.3877 142.088 41.3636H139.137C141.015 39.7743 142.483 37.7591 143.438 35.4545H146.48C148.291 31.9564 149.22 28.0065 149.22 23.9875C149.22 22.0629 149.007 20.154 148.586 18.3031C148.612 18.4192 148.638 18.5357 148.663 18.6524H139.987C140.533 20.3171 140.823 22.1108 140.823 23.9875C140.823 33.0639 134.041 40.1953 124.352 40.1953C120.013 40.1953 116.256 38.7647 113.431 36.3695C114.375 38.2941 115.693 39.9884 117.319 41.3636H106.617ZM112.227 12.7434H102.111C105.812 5.40622 113.362 0 124.352 0C135.343 0 142.893 5.40622 146.594 12.7434H136.477C133.559 9.67026 129.341 7.77974 124.352 7.77974C119.364 7.77974 115.146 9.67024 112.227 12.7434ZM178.937 46.6784H157.622V18.6524H166.018V35.4545H161.497V41.3636H169.894V38.8987H178.937C190.24 38.8987 192.501 34.0364 192.501 21.3943V18.6524H200.897V21.3943C200.897 26.7591 200.396 31.5364 198.911 35.4545H195.647C195.064 38.0673 194.073 40.0077 192.467 41.3636H195.231C191.888 44.751 186.732 46.6784 178.937 46.6784ZM166.018 12.7434H157.622V1.29662H200.897V12.7434H192.501V9.07636H166.018V12.7434ZM209.91 46.6784V18.6524H218.307V35.4545H213.785V41.3636H218.307V46.6784H209.91ZM218.307 12.7434H209.91V1.29662H218.307V12.7434ZM251.571 47.9751C235.423 47.9751 226.704 36.6296 226.704 23.9875C226.704 22.1725 226.883 20.3843 227.238 18.6524H235.936C235.967 18.5561 236.001 18.4602 236.034 18.3646C235.425 20.1097 235.1 22.0021 235.1 23.9875C235.1 28.5047 236.781 32.5402 239.662 35.4545H231.378C231.907 37.5363 232.698 39.524 233.743 41.3636H244.538C242.912 39.9884 241.594 38.2941 240.65 36.3694C243.475 38.7647 247.231 40.1953 251.571 40.1953C261.26 40.1953 266.75 34.6847 266.75 34.6847V29.4982H255.446V22.0426H274.501V35.4545H270.625V39.6686C270.625 39.6686 269.878 40.4178 268.45 41.3636H274.501V46.6784H266.75V43.4369C266.75 43.4369 260.937 47.9751 251.571 47.9751ZM239.446 12.7434H229.258L229.218 12.8221L264.464 12.7602L273.913 12.7436L264.45 12.7434C261.885 9.87109 257.013 7.77974 251.571 7.77974C246.582 7.77974 242.365 9.67024 239.446 12.7434ZM297.4 46.6784V30.1465L289.551 18.6524H299.276L301.599 22.0426L303.921 18.6524H313.646L305.797 30.1465V35.4545H301.276V41.3636H305.797V46.6784H297.4ZM295.229 12.7434H285.516L277.7 1.29662H287.389L295.229 12.7434ZM317.681 12.7434H307.968L315.808 1.29662H325.497L317.681 12.7434Z" fill="#5AFFBA"/>
</g>
<path d="M8.35155 67.408L7.57646 74.3125H5.60645L7.15662 62.3998L11.791 70.0985L16.4415 62.3998L17.9917 74.3125H16.0217L15.2305 67.408L11.791 73.259L8.35155 67.408ZM38.6574 68.6398C38.6574 69.4178 38.8189 70.1147 39.1419 70.7306C39.4756 71.3357 39.9331 71.8111 40.5144 72.1569C41.0957 72.5026 41.7578 72.6755 42.5006 72.6755C43.2542 72.6755 43.9162 72.5026 44.4868 72.1569C45.0681 71.8111 45.5202 71.3357 45.8432 70.7306C46.1769 70.1147 46.3437 69.4178 46.3437 68.6398C46.3437 67.8618 46.1823 67.1703 45.8593 66.5652C45.5364 65.9493 45.0842 65.4684 44.5029 65.1227C43.9324 64.7769 43.265 64.6041 42.5006 64.6041C41.7578 64.6041 41.0957 64.7769 40.5144 65.1227C39.9331 65.4684 39.4756 65.9493 39.1419 66.5652C38.8189 67.1703 38.6574 67.8618 38.6574 68.6398ZM36.639 68.6398C36.639 67.7862 36.7843 67.0028 37.075 66.2897C37.3656 65.5765 37.7748 64.9606 38.3022 64.442C38.8405 63.9125 39.4648 63.5019 40.1753 63.2102C40.8966 62.9184 41.6717 62.7726 42.5006 62.7726C43.3511 62.7726 44.1315 62.9184 44.842 63.2102C45.5525 63.5019 46.1716 63.9125 46.699 64.442C47.2373 64.9606 47.6517 65.5765 47.9424 66.2897C48.233 67.0028 48.3783 67.7862 48.3783 68.6398C48.3783 69.4826 48.233 70.2659 47.9424 70.9899C47.6517 71.7138 47.2427 72.3405 46.7151 72.87C46.1877 73.3994 45.5633 73.8154 44.842 74.118C44.1315 74.4098 43.3511 74.5556 42.5006 74.5556C41.6609 74.5556 40.8805 74.4098 40.1592 74.118C39.438 73.8154 38.8136 73.3994 38.286 72.87C37.7693 72.3405 37.3656 71.7138 37.075 70.9899C36.7843 70.2659 36.639 69.4826 36.639 68.6398ZM71.4936 70.9413L74.82 62.9671H77.0161L71.4936 74.9446L65.9711 62.9671H68.1671L71.4936 70.9413ZM96.9493 74.3125V72.6269H102.65V74.3125H96.9493ZM96.9493 64.6527V62.9671H102.65V64.6527H96.9493ZM96.9493 69.0612V67.408H102.327V69.0612H96.9493ZM95.7705 62.9671H97.6436V74.3125H95.7705V62.9671ZM123.177 70.6658C123.426 71.0979 123.689 71.4815 123.969 71.8165C124.259 72.1407 124.577 72.3945 124.921 72.5783C125.267 72.7511 125.654 72.8376 126.084 72.8376C126.601 72.8376 127.021 72.6971 127.344 72.4162C127.667 72.1352 127.828 71.7733 127.828 71.3303C127.828 70.9089 127.726 70.5739 127.521 70.3254C127.317 70.0661 127.032 69.8499 126.665 69.6771C126.31 69.4933 125.896 69.315 125.422 69.1422C125.142 69.045 124.831 68.9153 124.485 68.7532C124.141 68.5803 123.813 68.3696 123.5 68.1211C123.189 67.8618 122.93 67.5484 122.725 67.1811C122.521 66.8028 122.419 66.349 122.419 65.8196C122.419 65.2145 122.575 64.6851 122.887 64.2313C123.2 63.7666 123.62 63.41 124.146 63.1616C124.685 62.9022 125.293 62.7726 125.971 62.7726C126.639 62.7726 127.22 62.8914 127.715 63.1291C128.211 63.3668 128.625 63.6694 128.958 64.0368C129.304 64.4041 129.572 64.7877 129.766 65.1875L128.216 66.0627C128.076 65.7817 127.899 65.5224 127.683 65.2848C127.468 65.0362 127.214 64.8417 126.924 64.7013C126.644 64.55 126.316 64.4744 125.939 64.4744C125.412 64.4744 125.024 64.5986 124.776 64.8472C124.529 65.0848 124.405 65.3658 124.405 65.69C124.405 65.9817 124.492 66.2464 124.663 66.4842C124.847 66.7111 125.126 66.9271 125.503 67.1325C125.88 67.3377 126.37 67.5484 126.972 67.7646C127.306 67.8834 127.64 68.0346 127.973 68.2184C128.319 68.402 128.63 68.6343 128.91 68.9153C129.19 69.1854 129.41 69.5042 129.572 69.8716C129.745 70.2389 129.83 70.6711 129.83 71.1682C129.83 71.6976 129.728 72.1731 129.524 72.5945C129.32 73.0159 129.039 73.3725 128.684 73.6642C128.329 73.9451 127.925 74.1612 127.473 74.3125C127.032 74.4746 126.569 74.5556 126.084 74.5556C125.417 74.5556 124.798 74.426 124.227 74.1666C123.668 73.8965 123.177 73.5399 122.758 73.0969C122.338 72.6539 122.005 72.1731 121.756 71.6544L123.177 70.6658ZM172.863 71.3951L173.218 69.7743H178.466L178.838 71.3951H172.863ZM175.818 66.1762L174.042 70.3416L174.009 70.763L172.443 74.3125H170.295L175.818 62.335L181.34 74.3125H179.193L177.659 70.8603L177.61 70.3902L175.818 66.1762ZM201.548 68.4615V67.5215H203.373C203.728 67.5215 204.04 67.462 204.31 67.3432C204.578 67.2242 204.788 67.0568 204.939 66.8407C205.09 66.6138 205.165 66.3437 205.165 66.0303C205.165 65.5548 204.998 65.1875 204.665 64.9282C204.331 64.6689 203.9 64.5392 203.373 64.5392H202V72.7404H203.583C204.013 72.7404 204.395 72.6701 204.729 72.5297C205.062 72.3892 205.327 72.1785 205.521 71.8976C205.714 71.6166 205.811 71.2655 205.811 70.844C205.811 70.5415 205.752 70.2768 205.634 70.0499C205.526 69.8121 205.369 69.6176 205.165 69.4664C204.972 69.3043 204.739 69.1909 204.471 69.126C204.202 69.0504 203.906 69.0126 203.583 69.0126H201.548V67.9591H203.696C204.245 67.9591 204.762 68.0184 205.246 68.1374C205.731 68.2562 206.16 68.4398 206.538 68.6884C206.925 68.9369 207.226 69.2557 207.442 69.6447C207.657 70.0337 207.765 70.4982 207.765 71.0385C207.765 71.7841 207.588 72.4 207.232 72.8862C206.887 73.3725 206.409 73.7344 205.795 73.9722C205.192 74.1991 204.492 74.3125 203.696 74.3125H200.095V62.9671H203.502C204.213 62.9671 204.836 63.0697 205.375 63.275C205.924 63.4802 206.349 63.7937 206.651 64.2151C206.963 64.6365 207.119 65.1713 207.119 65.8196C207.119 66.3814 206.963 66.8623 206.651 67.2621C206.349 67.6511 205.924 67.9482 205.375 68.1536C204.836 68.3588 204.213 68.4615 203.502 68.4615H201.548ZM229.541 68.8991H231.608L235.435 74.3125H233.142L229.541 68.8991ZM227.216 62.9671H229.121V74.3125H227.216V62.9671ZM228.346 64.6203V62.9671H230.704C231.522 62.9671 232.233 63.1129 232.835 63.4047C233.449 63.6964 233.923 64.107 234.256 64.6365C234.591 65.1551 234.757 65.771 234.757 66.4842C234.757 67.1973 234.591 67.8186 234.256 68.3481C233.923 68.8774 233.449 69.2881 232.835 69.5798C232.233 69.8716 231.522 70.0175 230.704 70.0175H228.346V68.4453H230.623C231.054 68.4453 231.431 68.3696 231.754 68.2184C232.088 68.0671 232.346 67.851 232.529 67.5701C232.712 67.2783 232.803 66.9325 232.803 66.5328C232.803 66.1221 232.712 65.7764 232.529 65.4955C232.346 65.2145 232.088 64.9984 231.754 64.8472C231.431 64.6958 231.054 64.6203 230.623 64.6203H228.346ZM255.632 68.6398C255.632 69.4178 255.793 70.1147 256.116 70.7306C256.45 71.3357 256.908 71.8111 257.489 72.1569C258.07 72.5026 258.732 72.6755 259.475 72.6755C260.229 72.6755 260.891 72.5026 261.461 72.1569C262.043 71.8111 262.495 71.3357 262.818 70.7306C263.152 70.1147 263.318 69.4178 263.318 68.6398C263.318 67.8618 263.157 67.1703 262.834 66.5652C262.511 65.9493 262.059 65.4684 261.477 65.1227C260.907 64.7769 260.239 64.6041 259.475 64.6041C258.732 64.6041 258.07 64.7769 257.489 65.1227C256.908 65.4684 256.45 65.9493 256.116 66.5652C255.793 67.1703 255.632 67.8618 255.632 68.6398ZM253.614 68.6398C253.614 67.7862 253.759 67.0028 254.049 66.2897C254.34 65.5765 254.749 64.9606 255.277 64.442C255.815 63.9125 256.439 63.5019 257.15 63.2102C257.871 62.9184 258.647 62.7726 259.475 62.7726C260.326 62.7726 261.106 62.9184 261.817 63.2102C262.527 63.5019 263.146 63.9125 263.674 64.442C264.211 64.9606 264.626 65.5765 264.917 66.2897C265.208 67.0028 265.353 67.7862 265.353 68.6398C265.353 69.4826 265.208 70.2659 264.917 70.9899C264.626 71.7138 264.217 72.3405 263.69 72.87C263.162 73.3994 262.538 73.8154 261.817 74.118C261.106 74.4098 260.326 74.5556 259.475 74.5556C258.635 74.5556 257.855 74.4098 257.134 74.118C256.412 73.8154 255.788 73.3994 255.261 72.87C254.744 72.3405 254.34 71.7138 254.049 70.9899C253.759 70.2659 253.614 69.4826 253.614 68.6398ZM285.513 71.3951L285.869 69.7743H291.117L291.488 71.3951H285.513ZM288.468 66.1762L286.692 70.3416L286.66 70.763L285.093 74.3125H282.946L288.468 62.335L293.991 74.3125H291.843L290.309 70.8603L290.261 70.3902L288.468 66.1762ZM312.745 62.9671H314.683V74.3125H312.745V62.9671ZM316.395 74.3125H313.924V72.5135H316.346C316.905 72.5135 317.422 72.4324 317.896 72.2703C318.37 72.1083 318.779 71.8651 319.124 71.541C319.479 71.2168 319.753 70.8116 319.947 70.3254C320.151 69.8392 320.254 69.2773 320.254 68.6398C320.254 68.0022 320.151 67.4404 319.947 66.9542C319.753 66.4679 319.479 66.0627 319.124 65.7386C318.779 65.4144 318.37 65.1713 317.896 65.0092C317.422 64.8472 316.905 64.7661 316.346 64.7661H313.924V62.9671H316.395C317.546 62.9671 318.559 63.2047 319.43 63.6802C320.302 64.1448 320.981 64.8039 321.465 65.6576C321.96 66.5004 322.208 67.4944 322.208 68.6398C322.208 69.7851 321.96 70.7846 321.465 71.6382C320.981 72.481 320.302 73.1401 319.43 73.6156C318.559 74.0801 317.546 74.3125 316.395 74.3125Z" fill="#5A5A8B"/>
</svg>
