<svg width="32" height="32" viewBox="0 0 32 32" fill="none" xmlns="http://www.w3.org/2000/svg">
<path d="M7.48665 26.6667C6.87331 26.6667 6.36131 26.4614 5.95065 26.0507C5.53909 25.6392 5.33331 25.1267 5.33331 24.5134V7.48671C5.33331 6.87337 5.53909 6.36137 5.95065 5.95071C6.36131 5.53915 6.87331 5.33337 7.48665 5.33337H16.0253V6.66671H7.48665C7.2822 6.66671 7.0942 6.75204 6.92265 6.92271C6.75198 7.09426 6.66665 7.28226 6.66665 7.48671V24.5134C6.66665 24.7178 6.75198 24.9058 6.92265 25.0774C7.0942 25.248 7.2822 25.3334 7.48665 25.3334H16.0253V26.6667H7.48665ZM21.9493 20.7174L21.0133 19.7587L24.1053 16.6667H12.256V15.3334H24.1053L21.012 12.24L21.9493 11.2827L26.6666 16L21.9493 20.7174Z" fill="#747474"/>
</svg>
