<svg width="269" height="64" viewBox="0 0 269 64" fill="none" xmlns="http://www.w3.org/2000/svg">
<path fill-rule="evenodd" clip-rule="evenodd" d="M185.297 19.3939H178.41V14.5454H185.297V19.3939ZM199.755 19.3939H192.622C192.97 17.698 193.524 16.0679 194.278 14.5454H202.634C201.34 15.9086 200.358 17.5553 199.755 19.3939ZM266.796 14.5454L263.486 19.3939H255.511L258.83 14.5454H266.796ZM240.417 14.5454H248.383L251.702 19.3939H243.726L240.417 14.5454ZM230.901 14.5454H223.14C223.782 15.266 224.248 16.0464 224.496 16.8561L231.383 16.0581C231.264 15.5586 231.104 15.0526 230.901 14.5454ZM171.019 14.5454V19.3939H164.133V14.5454H171.019ZM135.528 14.5454V19.3939H142.414V14.5454H135.528ZM126.484 14.5454C127.255 16.0749 127.822 17.7067 128.18 19.3939H121.065C120.463 17.5553 119.48 15.9086 118.187 14.5454H126.484ZM90.0022 14.5454C89.2308 16.0749 88.6638 17.7067 88.3054 19.3939H95.4203C96.0228 17.5553 97.0053 15.9086 98.299 14.5454H90.0022ZM82.5389 14.5454V17.388C82.5389 18.0734 82.4789 18.7434 82.3612 19.3939H75.2243C75.4974 18.7549 75.6525 18.0034 75.6525 17.122V14.5454H82.5389ZM48.1069 14.5454V19.3939H54.9933V14.5454H48.1069ZM40.6908 14.5454V17.388C40.6908 18.0734 40.6309 18.7434 40.5135 19.3939H33.3762C33.6493 18.7549 33.8044 18.0034 33.8044 17.122V14.5454H40.6908ZM6.25879 19.3939V14.5454H13.1452V19.3939H6.25879Z" fill="white"/>
<path fill-rule="evenodd" clip-rule="evenodd" d="M54.9933 33.9393H48.1069V29.0908H74.5234L77.4457 33.9393H69.4754L66.7002 29.3568L54.9933 30.4207V33.9393ZM185.297 33.9393H178.411V29.0908H185.297V33.9393ZM257.05 33.9393H250.163V29.0908H257.05V33.9393ZM231.383 29.0908V33.9393H223.242C224.414 33.1632 225.026 32.5485 225.026 32.5485V29.0908H231.383ZM192.839 29.0908H200.104C200.886 30.9817 202.091 32.6353 203.631 33.9393H194.778C193.921 32.4299 193.273 30.799 192.839 29.0908ZM170.474 29.0908C170.168 30.8523 169.719 32.4763 169.082 33.9393H160.927C162.244 32.8268 163.057 31.2347 163.535 29.0908H170.474ZM135.528 29.0908V33.9393H142.414V29.0908H135.528ZM127.957 29.0908C127.512 30.7906 126.849 32.4233 125.975 33.9393H117.189C118.73 32.6353 119.934 30.9817 120.717 29.0908H127.957ZM88.5289 29.0908C88.9742 30.7906 89.6364 32.4233 90.5104 33.9393H99.2964C97.756 32.6353 96.5517 30.9817 95.7687 29.0908H88.5289ZM6.25879 29.0908H27.9774L13.1452 30.4207V33.9393H6.25879V29.0908Z" fill="white"/>
<path fill-rule="evenodd" clip-rule="evenodd" d="M1.88917 38.3003L1.88916 15.3046H8.77555V10.4561H1.88916L1.88917 1.0639H36.3212V10.4561H29.4347V7.44727H8.77555V19.9481L23.3429 18.6182C25.6128 18.411 28.0434 17.558 29.0066 15.3046H36.1439L36.1521 15.2582C35.2403 20.4364 30.6846 24.3857 23.6078 25.0016L8.77555 26.3314V29.0909H5.0675V33.9394H8.77555V38.3003H1.88917ZM43.7373 38.3003V15.3046H50.6237V19.9481L65.1911 18.6182C67.4609 18.411 69.8915 17.558 70.8547 15.3046H77.9916C77.2596 19.3495 74.2953 22.6382 69.6407 24.1504L72.6185 29.0909H64.6461L62.3306 25.2675L50.6237 26.3314V29.0909H46.9156V33.9394H50.6237V38.3003H43.7373ZM64.8438 29.4173L70.2234 38.3003H78.1693L75.5409 33.9394H68.2841L65.5089 29.3569L64.8438 29.4173ZM50.6237 10.4561H43.7373V1.0639H78.1693V10.4561H71.2829V7.44727H50.6237V10.4561ZM89.307 33.9188C85.4739 30.2098 83.4792 25.0202 83.4792 19.6821C83.4792 18.202 83.6323 16.7334 83.9361 15.3046H91.0509C90.6031 16.6704 90.3656 18.1422 90.3656 19.6821C90.3656 23.3885 91.7429 26.6996 94.1067 29.0909H87.337C87.7807 30.783 88.4395 32.4086 89.307 33.9188ZM89.3285 33.9394C92.7526 37.2412 97.6377 39.3642 103.874 39.3642C110.109 39.3642 114.994 37.2412 118.418 33.9394H115.998C117.539 32.6353 118.742 30.9818 119.525 29.0909H122.021C123.506 26.2206 124.268 22.9797 124.268 19.6821C124.268 18.1029 124.093 16.5366 123.748 15.0179C123.77 15.1132 123.79 15.2088 123.811 15.3046H116.696C117.143 16.6704 117.381 18.1422 117.381 19.6821C117.381 27.1293 111.819 32.9808 103.874 32.9808C100.314 32.9808 97.2338 31.8069 94.9171 29.8416C95.6909 31.4208 96.7719 32.811 98.1053 33.9394H89.3285ZM93.9296 10.4561H85.6328C88.668 4.43587 94.8591 0 103.874 0C112.887 0 119.079 4.43587 122.114 10.4561H113.817C111.424 7.93457 107.965 6.38338 103.874 6.38338C99.7822 6.38338 96.3233 7.93455 93.9296 10.4561ZM148.639 38.3003H131.158V15.3046H138.045V29.0909H134.337V33.9394H141.223V31.9169H148.639C157.909 31.9169 159.763 27.9273 159.763 17.5543V15.3046H166.65V17.5543C166.65 21.9562 166.238 25.876 165.021 29.0909H162.343C161.866 31.2347 161.053 32.8268 159.736 33.9394H162.002C159.261 36.7188 155.032 38.3003 148.639 38.3003ZM138.045 10.4561H131.158V1.0639H166.65V10.4561H159.763V7.44727H138.045V10.4561ZM174.041 38.3003V15.3046H180.928V29.0909H177.219V33.9394H180.928V38.3003H174.041ZM180.928 10.4561H174.041V1.0639H180.928V10.4561ZM208.208 39.3642C194.965 39.3642 187.814 30.0551 187.814 19.6821C187.814 18.1928 187.961 16.7256 188.253 15.3046H195.386C195.411 15.2255 195.438 15.1468 195.465 15.0684C194.966 16.5003 194.7 18.053 194.7 19.6821C194.7 23.3885 196.078 26.6996 198.441 29.0909H191.647C192.082 30.799 192.73 32.43 193.586 33.9394H202.44C201.107 32.811 200.026 31.4208 199.252 29.8415C201.569 31.8069 204.649 32.9808 208.208 32.9808C216.154 32.9808 220.657 28.4592 220.657 28.4592V24.2036H211.387V18.0862H227.013V29.0909H223.835V32.5486C223.835 32.5486 223.223 33.1633 222.051 33.9394H227.013V38.3003H220.657V35.6405C220.657 35.6405 215.889 39.3642 208.208 39.3642ZM198.264 10.4561H189.908L189.877 10.5207L218.782 10.4699L226.532 10.4563L218.77 10.4561C216.667 8.09936 212.67 6.38338 208.208 6.38338C204.117 6.38338 200.658 7.93455 198.264 10.4561ZM245.794 38.3003V24.7356L239.357 15.3046H247.332L249.237 18.0862L251.141 15.3046H259.117L252.68 24.7356V29.0909H248.972V33.9394H252.68V38.3003H245.794ZM244.013 10.4561H236.048L229.637 1.0639H237.583L244.013 10.4561ZM262.426 10.4561H254.461L260.891 1.0639H268.837L262.426 10.4561Z" fill="white"/>
<path fill-rule="evenodd" clip-rule="evenodd" d="M183.408 19.3939H176.521V14.5454H183.408V19.3939ZM197.866 19.3939H190.733C191.081 17.698 191.635 16.0679 192.389 14.5454H200.744C199.451 15.9086 198.468 17.5553 197.866 19.3939ZM264.906 14.5454L261.597 19.3939H253.621L256.941 14.5454H264.906ZM238.528 14.5454H246.493L249.812 19.3939H241.837L238.528 14.5454ZM229.012 14.5454H221.25C221.894 15.266 222.36 16.0464 222.607 16.8561L229.493 16.0581C229.375 15.5586 229.214 15.0526 229.012 14.5454ZM169.13 14.5454V19.3939H162.243V14.5454H169.13ZM133.638 14.5454V19.3939H140.525V14.5454H133.638ZM124.594 14.5454C125.366 16.0749 125.933 17.7067 126.292 19.3939H119.176C118.574 17.5553 117.591 15.9086 116.297 14.5454H124.594ZM88.1128 14.5454C87.3414 16.0749 86.7744 17.7067 86.416 19.3939H93.5309C94.1334 17.5553 95.1159 15.9086 96.4096 14.5454H88.1128ZM80.6498 14.5454V17.388C80.6498 18.0734 80.5898 18.7434 80.4721 19.3939H73.3352C73.6082 18.7549 73.7634 18.0034 73.7634 17.122V14.5454H80.6498ZM46.2178 14.5454V19.3939H53.1042V14.5454H46.2178ZM38.8016 14.5454V17.388C38.8016 18.0734 38.7418 18.7434 38.6243 19.3939H31.487C31.7601 18.7549 31.9152 18.0034 31.9152 17.122V14.5454H38.8016ZM4.36963 19.3939V14.5454H11.256V19.3939H4.36963Z" fill="white"/>
<path fill-rule="evenodd" clip-rule="evenodd" d="M53.1041 33.9393H46.2177V29.0908H72.6342L75.5565 33.9393H67.5863L64.811 29.3568L53.1041 30.4207V33.9393ZM183.408 33.9393H176.521V29.0908H183.408V33.9393ZM255.16 33.9393H248.274V29.0908H255.16V33.9393ZM229.493 29.0908V33.9393H221.354C222.525 33.1632 223.137 32.5485 223.137 32.5485V29.0908H229.493ZM190.949 29.0908H198.215C198.998 30.9817 200.201 32.6353 201.742 33.9393H192.889C192.032 32.4299 191.384 30.799 190.949 29.0908ZM168.584 29.0908C168.28 30.8523 167.829 32.4763 167.193 33.9393H159.039C160.355 32.8268 161.168 31.2347 161.646 29.0908H168.584ZM133.638 29.0908V33.9393H140.525V29.0908H133.638ZM126.068 29.0908C125.622 30.7906 124.96 32.4233 124.086 33.9393H115.3C116.841 32.6353 118.045 30.9817 118.828 29.0908H126.068ZM86.6395 29.0908C87.0848 30.7906 87.7478 32.4233 88.621 33.9393H97.407C95.8666 32.6353 94.6632 30.9817 93.8802 29.0908H86.6395ZM4.36963 29.0908H26.0883L11.256 30.4207V33.9393H4.36963V29.0908Z" fill="white"/>
<path fill-rule="evenodd" clip-rule="evenodd" d="M3.1574e-06 38.3003L0 15.3046H6.8864V10.4561H0L3.1574e-06 1.0639H34.432V10.4561H27.5456V7.44727H6.8864V19.9481L21.4538 18.6182C23.7236 18.411 26.1542 17.558 27.1174 15.3046H34.2547L34.263 15.2582C33.3511 20.4364 28.7954 24.3857 21.7186 25.0016L6.8864 26.3314V29.0909H3.17834V33.9394H6.8864V38.3003H3.1574e-06ZM41.8481 38.3003V15.3046H48.7345V19.9481L63.3019 18.6182C65.5718 18.411 68.0024 17.558 68.9656 15.3046H76.1024C75.3705 19.3495 72.4062 22.6382 67.7516 24.1504L70.7294 29.0909H62.757L60.4414 25.2675L48.7345 26.3314V29.0909H45.0265V33.9394H48.7345V38.3003H41.8481ZM62.9546 29.4173L68.3343 38.3003H76.2801L73.6517 33.9394H66.395L63.6197 29.3569L62.9546 29.4173ZM48.7345 10.4561H41.8481V1.0639H76.2801V10.4561H69.3937V7.44727H48.7345V10.4561ZM87.4184 33.9188C83.5845 30.2098 81.5898 25.0202 81.5898 19.6821C81.5898 18.202 81.7431 16.7334 82.0465 15.3046H89.1615C88.7137 16.6704 88.4762 18.1422 88.4762 19.6821C88.4762 23.3885 89.8543 26.6996 92.2173 29.0909H85.4485C85.8913 30.783 86.5501 32.4086 87.4184 33.9188ZM87.4391 33.9394C90.8632 37.2412 95.7483 39.3642 101.984 39.3642C108.22 39.3642 113.105 37.2412 116.529 33.9394H114.109C115.649 32.6353 116.854 30.9818 117.637 29.0909H120.131C121.617 26.2206 122.378 22.9797 122.378 19.6821C122.378 18.1029 122.204 16.5366 121.859 15.0179C121.88 15.1132 121.902 15.2088 121.922 15.3046H114.807C115.255 16.6704 115.492 18.1422 115.492 19.6821C115.492 27.1293 109.93 32.9808 101.984 32.9808C98.425 32.9808 95.3444 31.8069 93.0276 29.8416C93.8015 31.4208 94.8825 32.811 96.2159 33.9394H87.4391ZM92.0402 10.4561H83.7434C86.7786 4.43587 92.9705 0 101.984 0C110.998 0 117.19 4.43587 120.225 10.4561H111.928C109.534 7.93457 106.075 6.38338 101.984 6.38338C97.8928 6.38338 94.4339 7.93455 92.0402 10.4561ZM146.75 38.3003H129.269V15.3046H136.155V29.0909H132.447V33.9394H139.334V31.9169H146.75C156.02 31.9169 157.874 27.9273 157.874 17.5543V15.3046H164.76V17.5543C164.76 21.9562 164.349 25.876 163.132 29.0909H160.455C159.976 31.2347 159.164 32.8268 157.847 33.9394H160.113C157.372 36.7188 153.143 38.3003 146.75 38.3003ZM136.155 10.4561H129.269V1.0639H164.76V10.4561H157.874V7.44727H136.155V10.4561ZM172.152 38.3003V15.3046H179.038V29.0909H175.33V33.9394H179.038V38.3003H172.152ZM179.038 10.4561H172.152V1.0639H179.038V10.4561ZM206.319 39.3642C193.076 39.3642 185.925 30.0551 185.925 19.6821C185.925 18.1928 186.072 16.7256 186.363 15.3046H193.496C193.522 15.2255 193.549 15.1468 193.577 15.0684C193.077 16.5003 192.811 18.053 192.811 19.6821C192.811 23.3885 194.189 26.6996 196.552 29.0909H189.758C190.192 30.799 190.841 32.43 191.698 33.9394H200.551C199.217 32.811 198.136 31.4208 197.362 29.8415C199.679 31.8069 202.76 32.9808 206.319 32.9808C214.265 32.9808 218.767 28.4592 218.767 28.4592V24.2036H209.497V18.0862H225.124V29.0909H221.946V32.5486C221.946 32.5486 221.333 33.1633 220.162 33.9394H225.124V38.3003H218.767V35.6405C218.767 35.6405 214 39.3642 206.319 39.3642ZM196.375 10.4561H188.019L187.987 10.5207L216.893 10.4699L224.642 10.4563L216.881 10.4561C214.778 8.09936 210.782 6.38338 206.319 6.38338C202.228 6.38338 198.769 7.93455 196.375 10.4561ZM243.904 38.3003V24.7356L237.467 15.3046H245.443L247.348 18.0862L249.252 15.3046H257.228L250.791 24.7356V29.0909H247.083V33.9394H250.791V38.3003H243.904ZM242.124 10.4561H234.158L227.748 1.0639H235.694L242.124 10.4561ZM260.537 10.4561H252.571L259.001 1.0639H266.947L260.537 10.4561Z" fill="white"/>
<g style="mix-blend-mode:multiply">
<path fill-rule="evenodd" clip-rule="evenodd" d="M185.297 19.3939H178.41V14.5454H185.297V19.3939ZM199.755 19.3939H192.622C192.97 17.698 193.524 16.0679 194.278 14.5454H202.634C201.34 15.9086 200.358 17.5553 199.755 19.3939ZM266.796 14.5454L263.486 19.3939H255.511L258.83 14.5454H266.796ZM240.417 14.5454H248.383L251.702 19.3939H243.726L240.417 14.5454ZM230.901 14.5454H223.14C223.782 15.266 224.248 16.0464 224.496 16.8561L231.383 16.0581C231.264 15.5586 231.104 15.0526 230.901 14.5454ZM171.019 14.5454V19.3939H164.133V14.5454H171.019ZM135.528 14.5454V19.3939H142.414V14.5454H135.528ZM126.484 14.5454C127.255 16.0749 127.822 17.7067 128.18 19.3939H121.065C120.463 17.5553 119.48 15.9086 118.187 14.5454H126.484ZM90.0022 14.5454C89.2308 16.0749 88.6638 17.7067 88.3054 19.3939H95.4203C96.0228 17.5553 97.0053 15.9086 98.299 14.5454H90.0022ZM82.5389 14.5454V17.388C82.5389 18.0734 82.4789 18.7434 82.3612 19.3939H75.2243C75.4974 18.7549 75.6525 18.0034 75.6525 17.122V14.5454H82.5389ZM48.1069 14.5454V19.3939H54.9933V14.5454H48.1069ZM40.6908 14.5454V17.388C40.6908 18.0734 40.6309 18.7434 40.5135 19.3939H33.3762C33.6493 18.7549 33.8044 18.0034 33.8044 17.122V14.5454H40.6908ZM6.25879 19.3939V14.5454H13.1452V19.3939H6.25879Z" fill="#FF5ABE"/>
</g>
<g style="mix-blend-mode:multiply">
<path fill-rule="evenodd" clip-rule="evenodd" d="M54.9933 33.9393H48.1069V29.0908H74.5234L77.4457 33.9393H69.4754L66.7002 29.3568L54.9933 30.4207V33.9393ZM185.297 33.9393H178.411V29.0908H185.297V33.9393ZM257.05 33.9393H250.163V29.0908H257.05V33.9393ZM231.383 29.0908V33.9393H223.242C224.414 33.1632 225.026 32.5485 225.026 32.5485V29.0908H231.383ZM192.839 29.0908H200.104C200.886 30.9817 202.091 32.6353 203.631 33.9393H194.778C193.921 32.4299 193.273 30.799 192.839 29.0908ZM170.474 29.0908C170.168 30.8523 169.719 32.4763 169.082 33.9393H160.927C162.244 32.8268 163.057 31.2347 163.535 29.0908H170.474ZM135.528 29.0908V33.9393H142.414V29.0908H135.528ZM127.957 29.0908C127.512 30.7906 126.849 32.4233 125.975 33.9393H117.189C118.73 32.6353 119.934 30.9817 120.717 29.0908H127.957ZM88.5289 29.0908C88.9742 30.7906 89.6364 32.4233 90.5104 33.9393H99.2964C97.756 32.6353 96.5517 30.9817 95.7687 29.0908H88.5289ZM6.25879 29.0908H27.9774L13.1452 30.4207V33.9393H6.25879V29.0908Z" fill="#FF5ABE"/>
</g>
<g style="mix-blend-mode:multiply">
<path fill-rule="evenodd" clip-rule="evenodd" d="M1.88917 38.3003L1.88916 15.3046H8.77555V10.4561H1.88916L1.88917 1.0639H36.3212V10.4561H29.4347V7.44727H8.77555V19.9481L23.3429 18.6182C25.6128 18.411 28.0434 17.558 29.0066 15.3046H36.1439L36.1521 15.2582C35.2403 20.4364 30.6846 24.3857 23.6078 25.0016L8.77555 26.3314V29.0909H5.0675V33.9394H8.77555V38.3003H1.88917ZM43.7373 38.3003V15.3046H50.6237V19.9481L65.1911 18.6182C67.4609 18.411 69.8915 17.558 70.8547 15.3046H77.9916C77.2596 19.3495 74.2953 22.6382 69.6407 24.1504L72.6185 29.0909H64.6461L62.3306 25.2675L50.6237 26.3314V29.0909H46.9156V33.9394H50.6237V38.3003H43.7373ZM64.8438 29.4173L70.2234 38.3003H78.1693L75.5409 33.9394H68.2841L65.5089 29.3569L64.8438 29.4173ZM50.6237 10.4561H43.7373V1.0639H78.1693V10.4561H71.2829V7.44727H50.6237V10.4561ZM89.307 33.9188C85.4739 30.2098 83.4792 25.0202 83.4792 19.6821C83.4792 18.202 83.6323 16.7334 83.9361 15.3046H91.0509C90.6031 16.6704 90.3656 18.1422 90.3656 19.6821C90.3656 23.3885 91.7429 26.6996 94.1067 29.0909H87.337C87.7807 30.783 88.4395 32.4086 89.307 33.9188ZM89.3285 33.9394C92.7526 37.2412 97.6377 39.3642 103.874 39.3642C110.109 39.3642 114.994 37.2412 118.418 33.9394H115.998C117.539 32.6353 118.742 30.9818 119.525 29.0909H122.021C123.506 26.2206 124.268 22.9797 124.268 19.6821C124.268 18.1029 124.093 16.5366 123.748 15.0179C123.77 15.1132 123.79 15.2088 123.811 15.3046H116.696C117.143 16.6704 117.381 18.1422 117.381 19.6821C117.381 27.1293 111.819 32.9808 103.874 32.9808C100.314 32.9808 97.2338 31.8069 94.9171 29.8416C95.6909 31.4208 96.7719 32.811 98.1053 33.9394H89.3285ZM93.9296 10.4561H85.6328C88.668 4.43587 94.8591 0 103.874 0C112.887 0 119.079 4.43587 122.114 10.4561H113.817C111.424 7.93457 107.965 6.38338 103.874 6.38338C99.7822 6.38338 96.3233 7.93455 93.9296 10.4561ZM148.639 38.3003H131.158V15.3046H138.045V29.0909H134.337V33.9394H141.223V31.9169H148.639C157.909 31.9169 159.763 27.9273 159.763 17.5543V15.3046H166.65V17.5543C166.65 21.9562 166.238 25.876 165.021 29.0909H162.343C161.866 31.2347 161.053 32.8268 159.736 33.9394H162.002C159.261 36.7188 155.032 38.3003 148.639 38.3003ZM138.045 10.4561H131.158V1.0639H166.65V10.4561H159.763V7.44727H138.045V10.4561ZM174.041 38.3003V15.3046H180.928V29.0909H177.219V33.9394H180.928V38.3003H174.041ZM180.928 10.4561H174.041V1.0639H180.928V10.4561ZM208.208 39.3642C194.965 39.3642 187.814 30.0551 187.814 19.6821C187.814 18.1928 187.961 16.7256 188.253 15.3046H195.386C195.411 15.2255 195.438 15.1468 195.465 15.0684C194.966 16.5003 194.7 18.053 194.7 19.6821C194.7 23.3885 196.078 26.6996 198.441 29.0909H191.647C192.082 30.799 192.73 32.43 193.586 33.9394H202.44C201.107 32.811 200.026 31.4208 199.252 29.8415C201.569 31.8069 204.649 32.9808 208.208 32.9808C216.154 32.9808 220.657 28.4592 220.657 28.4592V24.2036H211.387V18.0862H227.013V29.0909H223.835V32.5486C223.835 32.5486 223.223 33.1633 222.051 33.9394H227.013V38.3003H220.657V35.6405C220.657 35.6405 215.889 39.3642 208.208 39.3642ZM198.264 10.4561H189.908L189.877 10.5207L218.782 10.4699L226.532 10.4563L218.77 10.4561C216.667 8.09936 212.67 6.38338 208.208 6.38338C204.117 6.38338 200.658 7.93455 198.264 10.4561ZM245.794 38.3003V24.7356L239.357 15.3046H247.332L249.237 18.0862L251.141 15.3046H259.117L252.68 24.7356V29.0909H248.972V33.9394H252.68V38.3003H245.794ZM244.013 10.4561H236.048L229.637 1.0639H237.583L244.013 10.4561ZM262.426 10.4561H254.461L260.891 1.0639H268.837L262.426 10.4561Z" fill="#FF5ABE"/>
</g>
<g style="mix-blend-mode:multiply">
<path fill-rule="evenodd" clip-rule="evenodd" d="M183.408 19.3939H176.521V14.5454H183.408V19.3939ZM197.866 19.3939H190.733C191.081 17.698 191.635 16.0679 192.389 14.5454H200.744C199.451 15.9086 198.468 17.5553 197.866 19.3939ZM264.906 14.5454L261.597 19.3939H253.621L256.941 14.5454H264.906ZM238.528 14.5454H246.493L249.812 19.3939H241.837L238.528 14.5454ZM229.012 14.5454H221.25C221.894 15.266 222.36 16.0464 222.607 16.8561L229.493 16.0581C229.375 15.5586 229.214 15.0526 229.012 14.5454ZM169.13 14.5454V19.3939H162.243V14.5454H169.13ZM133.638 14.5454V19.3939H140.525V14.5454H133.638ZM124.594 14.5454C125.366 16.0749 125.933 17.7067 126.292 19.3939H119.176C118.574 17.5553 117.591 15.9086 116.297 14.5454H124.594ZM88.1128 14.5454C87.3414 16.0749 86.7744 17.7067 86.416 19.3939H93.5309C94.1334 17.5553 95.1159 15.9086 96.4096 14.5454H88.1128ZM80.6498 14.5454V17.388C80.6498 18.0734 80.5898 18.7434 80.4721 19.3939H73.3352C73.6082 18.7549 73.7634 18.0034 73.7634 17.122V14.5454H80.6498ZM46.2178 14.5454V19.3939H53.1042V14.5454H46.2178ZM38.8016 14.5454V17.388C38.8016 18.0734 38.7418 18.7434 38.6243 19.3939H31.487C31.7601 18.7549 31.9152 18.0034 31.9152 17.122V14.5454H38.8016ZM4.36963 19.3939V14.5454H11.256V19.3939H4.36963Z" fill="#5AFFBA"/>
</g>
<g style="mix-blend-mode:multiply">
<path fill-rule="evenodd" clip-rule="evenodd" d="M53.1041 33.9393H46.2177V29.0908H72.6342L75.5565 33.9393H67.5863L64.811 29.3568L53.1041 30.4207V33.9393ZM183.408 33.9393H176.521V29.0908H183.408V33.9393ZM255.16 33.9393H248.274V29.0908H255.16V33.9393ZM229.493 29.0908V33.9393H221.354C222.525 33.1632 223.137 32.5485 223.137 32.5485V29.0908H229.493ZM190.949 29.0908H198.215C198.998 30.9817 200.201 32.6353 201.742 33.9393H192.889C192.032 32.4299 191.384 30.799 190.949 29.0908ZM168.584 29.0908C168.28 30.8523 167.829 32.4763 167.193 33.9393H159.039C160.355 32.8268 161.168 31.2347 161.646 29.0908H168.584ZM133.638 29.0908V33.9393H140.525V29.0908H133.638ZM126.068 29.0908C125.622 30.7906 124.96 32.4233 124.086 33.9393H115.3C116.841 32.6353 118.045 30.9817 118.828 29.0908H126.068ZM86.6395 29.0908C87.0848 30.7906 87.7478 32.4233 88.621 33.9393H97.407C95.8666 32.6353 94.6632 30.9817 93.8802 29.0908H86.6395ZM4.36963 29.0908H26.0883L11.256 30.4207V33.9393H4.36963V29.0908Z" fill="#5AFFBA"/>
</g>
<g style="mix-blend-mode:multiply">
<path fill-rule="evenodd" clip-rule="evenodd" d="M3.1574e-06 38.3003L0 15.3046H6.8864V10.4561H0L3.1574e-06 1.0639H34.432V10.4561H27.5456V7.44727H6.8864V19.9481L21.4538 18.6182C23.7236 18.411 26.1542 17.558 27.1174 15.3046H34.2547L34.263 15.2582C33.3511 20.4364 28.7954 24.3857 21.7186 25.0016L6.8864 26.3314V29.0909H3.17834V33.9394H6.8864V38.3003H3.1574e-06ZM41.8481 38.3003V15.3046H48.7345V19.9481L63.3019 18.6182C65.5718 18.411 68.0024 17.558 68.9656 15.3046H76.1024C75.3705 19.3495 72.4062 22.6382 67.7516 24.1504L70.7294 29.0909H62.757L60.4414 25.2675L48.7345 26.3314V29.0909H45.0265V33.9394H48.7345V38.3003H41.8481ZM62.9546 29.4173L68.3343 38.3003H76.2801L73.6517 33.9394H66.395L63.6197 29.3569L62.9546 29.4173ZM48.7345 10.4561H41.8481V1.0639H76.2801V10.4561H69.3937V7.44727H48.7345V10.4561ZM87.4184 33.9188C83.5845 30.2098 81.5898 25.0202 81.5898 19.6821C81.5898 18.202 81.7431 16.7334 82.0465 15.3046H89.1615C88.7137 16.6704 88.4762 18.1422 88.4762 19.6821C88.4762 23.3885 89.8543 26.6996 92.2173 29.0909H85.4485C85.8913 30.783 86.5501 32.4086 87.4184 33.9188ZM87.4391 33.9394C90.8632 37.2412 95.7483 39.3642 101.984 39.3642C108.22 39.3642 113.105 37.2412 116.529 33.9394H114.109C115.649 32.6353 116.854 30.9818 117.637 29.0909H120.131C121.617 26.2206 122.378 22.9797 122.378 19.6821C122.378 18.1029 122.204 16.5366 121.859 15.0179C121.88 15.1132 121.902 15.2088 121.922 15.3046H114.807C115.255 16.6704 115.492 18.1422 115.492 19.6821C115.492 27.1293 109.93 32.9808 101.984 32.9808C98.425 32.9808 95.3444 31.8069 93.0276 29.8416C93.8015 31.4208 94.8825 32.811 96.2159 33.9394H87.4391ZM92.0402 10.4561H83.7434C86.7786 4.43587 92.9705 0 101.984 0C110.998 0 117.19 4.43587 120.225 10.4561H111.928C109.534 7.93457 106.075 6.38338 101.984 6.38338C97.8928 6.38338 94.4339 7.93455 92.0402 10.4561ZM146.75 38.3003H129.269V15.3046H136.155V29.0909H132.447V33.9394H139.334V31.9169H146.75C156.02 31.9169 157.874 27.9273 157.874 17.5543V15.3046H164.76V17.5543C164.76 21.9562 164.349 25.876 163.132 29.0909H160.455C159.976 31.2347 159.164 32.8268 157.847 33.9394H160.113C157.372 36.7188 153.143 38.3003 146.75 38.3003ZM136.155 10.4561H129.269V1.0639H164.76V10.4561H157.874V7.44727H136.155V10.4561ZM172.152 38.3003V15.3046H179.038V29.0909H175.33V33.9394H179.038V38.3003H172.152ZM179.038 10.4561H172.152V1.0639H179.038V10.4561ZM206.319 39.3642C193.076 39.3642 185.925 30.0551 185.925 19.6821C185.925 18.1928 186.072 16.7256 186.363 15.3046H193.496C193.522 15.2255 193.549 15.1468 193.577 15.0684C193.077 16.5003 192.811 18.053 192.811 19.6821C192.811 23.3885 194.189 26.6996 196.552 29.0909H189.758C190.192 30.799 190.841 32.43 191.698 33.9394H200.551C199.217 32.811 198.136 31.4208 197.362 29.8415C199.679 31.8069 202.76 32.9808 206.319 32.9808C214.265 32.9808 218.767 28.4592 218.767 28.4592V24.2036H209.497V18.0862H225.124V29.0909H221.946V32.5486C221.946 32.5486 221.333 33.1633 220.162 33.9394H225.124V38.3003H218.767V35.6405C218.767 35.6405 214 39.3642 206.319 39.3642ZM196.375 10.4561H188.019L187.987 10.5207L216.893 10.4699L224.642 10.4563L216.881 10.4561C214.778 8.09936 210.782 6.38338 206.319 6.38338C202.228 6.38338 198.769 7.93455 196.375 10.4561ZM243.904 38.3003V24.7356L237.467 15.3046H245.443L247.348 18.0862L249.252 15.3046H257.228L250.791 24.7356V29.0909H247.083V33.9394H250.791V38.3003H243.904ZM242.124 10.4561H234.158L227.748 1.0639H235.694L242.124 10.4561ZM260.537 10.4561H252.571L259.001 1.0639H266.947L260.537 10.4561Z" fill="#5AFFBA"/>
</g>
<path d="M6.84947 55.309L6.2138 60.9742H4.59814L5.86948 51.1997L9.67024 57.5166L13.4842 51.1997L14.7556 60.9742H13.1399L12.491 55.309L9.67024 60.1098L6.84947 55.309ZM31.704 56.3197C31.704 56.958 31.8364 57.5299 32.1013 58.0352C32.375 58.5317 32.7502 58.9217 33.2269 59.2055C33.7037 59.4892 34.2467 59.6311 34.8558 59.6311C35.4739 59.6311 36.0168 59.4892 36.4847 59.2055C36.9615 58.9217 37.3323 58.5317 37.5972 58.0352C37.8709 57.5299 38.0077 56.958 38.0077 56.3197C38.0077 55.6813 37.8753 55.1139 37.6104 54.6174C37.3455 54.1121 36.9747 53.7175 36.498 53.4339C36.0301 53.1501 35.4827 53.0083 34.8558 53.0083C34.2467 53.0083 33.7037 53.1501 33.2269 53.4339C32.7502 53.7175 32.375 54.1121 32.1013 54.6174C31.8364 55.1139 31.704 55.6813 31.704 56.3197ZM30.0486 56.3197C30.0486 55.6193 30.1678 54.9765 30.4062 54.3914C30.6445 53.8062 30.9801 53.3009 31.4126 52.8753C31.8541 52.4409 32.3661 52.104 32.9488 51.8646C33.5404 51.6252 34.1761 51.5055 34.8558 51.5055C35.5533 51.5055 36.1934 51.6252 36.7761 51.8646C37.3588 52.104 37.8665 52.4409 38.299 52.8753C38.7405 53.3009 39.0804 53.8062 39.3188 54.3914C39.5571 54.9765 39.6763 55.6193 39.6763 56.3197C39.6763 57.0112 39.5571 57.654 39.3188 58.248C39.0804 58.8419 38.7449 59.3562 38.3123 59.7906C37.8797 60.225 37.3676 60.5664 36.7761 60.8146C36.1934 61.054 35.5533 61.1737 34.8558 61.1737C34.1672 61.1737 33.5271 61.054 32.9356 60.8146C32.3441 60.5664 31.832 60.225 31.3994 59.7906C30.9756 59.3562 30.6445 58.8419 30.4062 58.248C30.1678 57.654 30.0486 57.0112 30.0486 56.3197ZM58.6336 58.2081L61.3617 51.6651H63.1628L58.6336 61.4929L54.1045 51.6651H55.9055L58.6336 58.2081ZM79.5104 60.9742V59.5912H84.1855V60.9742H79.5104ZM79.5104 53.0482V51.6651H84.1855V53.0482H79.5104ZM79.5104 56.6654V55.309H83.9206V56.6654H79.5104ZM78.5437 51.6651H80.0799V60.9742H78.5437V51.6651ZM101.021 57.982C101.224 58.3366 101.44 58.6514 101.67 58.9262C101.908 59.1922 102.169 59.4005 102.451 59.5513C102.734 59.6931 103.052 59.764 103.404 59.764C103.828 59.764 104.173 59.6488 104.437 59.4183C104.702 59.1877 104.835 58.8907 104.835 58.5273C104.835 58.1815 104.751 57.9066 104.583 57.7027C104.416 57.49 104.182 57.3126 103.881 57.1708C103.59 57.02 103.251 56.8737 102.862 56.7319C102.632 56.6521 102.377 56.5458 102.093 56.4128C101.811 56.2709 101.542 56.098 101.286 55.8941C101.03 55.6813 100.818 55.4242 100.65 55.1228C100.483 54.8124 100.398 54.4401 100.398 54.0057C100.398 53.5092 100.527 53.0748 100.782 52.7024C101.039 52.3212 101.383 52.0286 101.815 51.8247C102.257 51.6119 102.756 51.5055 103.312 51.5055C103.86 51.5055 104.336 51.603 104.742 51.7981C105.148 51.9931 105.489 52.2414 105.762 52.5428C106.045 52.8442 106.265 53.159 106.424 53.4871L105.153 54.2052C105.038 53.9746 104.893 53.7618 104.716 53.5668C104.539 53.3629 104.332 53.2033 104.093 53.0881C103.864 52.9639 103.595 52.9019 103.285 52.9019C102.853 52.9019 102.535 53.0038 102.332 53.2078C102.129 53.4028 102.027 53.6333 102.027 53.8993C102.027 54.1387 102.098 54.3559 102.239 54.5509C102.39 54.7371 102.619 54.9144 102.928 55.0829C103.237 55.2513 103.639 55.4242 104.133 55.6015C104.407 55.699 104.681 55.8231 104.954 55.9739C105.237 56.1246 105.493 56.3152 105.722 56.5458C105.952 56.7673 106.133 57.0289 106.265 57.3304C106.407 57.6318 106.477 57.9864 106.477 58.3943C106.477 58.8286 106.393 59.2188 106.225 59.5646C106.058 59.9103 105.828 60.2029 105.537 60.4423C105.245 60.6728 104.914 60.85 104.543 60.9742C104.182 61.1072 103.802 61.1737 103.404 61.1737C102.857 61.1737 102.35 61.0673 101.882 60.8545C101.423 60.6329 101.021 60.3403 100.676 59.9768C100.332 59.6133 100.059 59.2188 99.8554 58.7932L101.021 57.982ZM141.769 58.5805L142.06 57.2506H146.364L146.669 58.5805H141.769ZM144.192 54.2983L142.736 57.716L142.709 58.0618L141.425 60.9742H139.663L144.192 51.1465L148.721 60.9742H146.96L145.702 58.1416L145.662 57.7559L144.192 54.2983ZM165.294 56.1734V55.4021H166.791C167.082 55.4021 167.338 55.3533 167.559 55.2558C167.779 55.1582 167.951 55.0208 168.075 54.8435C168.199 54.6573 168.261 54.4357 168.261 54.1786C168.261 53.7884 168.123 53.4871 167.85 53.2743C167.576 53.0615 167.223 52.9551 166.791 52.9551H165.665V59.6842H166.963C167.316 59.6842 167.629 59.6266 167.903 59.5114C168.176 59.3961 168.393 59.2232 168.552 58.9927C168.711 58.7622 168.791 58.4741 168.791 58.1283C168.791 57.88 168.742 57.6628 168.645 57.4767C168.556 57.2816 168.428 57.122 168.261 56.9979C168.102 56.8649 167.912 56.7718 167.691 56.7186C167.47 56.6566 167.228 56.6255 166.963 56.6255H165.294V55.7611H167.056C167.506 55.7611 167.93 55.8098 168.327 55.9074C168.724 56.0049 169.077 56.1556 169.386 56.3596C169.704 56.5635 169.951 56.825 170.128 57.1442C170.304 57.4634 170.393 57.8445 170.393 58.2879C170.393 58.8996 170.247 59.405 169.956 59.8039C169.673 60.2029 169.281 60.4999 168.777 60.695C168.282 60.8811 167.709 60.9742 167.056 60.9742H164.102V51.6651H166.897C167.479 51.6651 167.991 51.7493 168.433 51.9178C168.883 52.0862 169.232 52.3434 169.479 52.6891C169.735 53.0349 169.863 53.4738 169.863 54.0057C169.863 54.4667 169.735 54.8612 169.479 55.1893C169.232 55.5085 168.883 55.7522 168.433 55.9207C167.991 56.0891 167.479 56.1734 166.897 56.1734H165.294ZM188.252 56.5325H189.947L193.086 60.9742H191.205L188.252 56.5325ZM186.345 51.6651H187.908V60.9742H186.345V51.6651ZM187.272 53.0216V51.6651H189.206C189.877 51.6651 190.46 51.7848 190.954 52.0242C191.457 52.2636 191.846 52.6004 192.119 53.0349C192.393 53.4605 192.53 53.9658 192.53 54.5509C192.53 55.1361 192.393 55.6459 192.119 56.0803C191.846 56.5147 191.457 56.8516 190.954 57.091C190.46 57.3304 189.877 57.4501 189.206 57.4501H187.272V56.1601H189.139C189.493 56.1601 189.802 56.098 190.066 55.9739C190.34 55.8497 190.552 55.6725 190.702 55.442C190.853 55.2026 190.927 54.9188 190.927 54.5908C190.927 54.2539 190.853 53.9702 190.702 53.7397C190.552 53.5092 190.34 53.3319 190.066 53.2078C189.802 53.0836 189.493 53.0216 189.139 53.0216H187.272ZM209.65 56.3197C209.65 56.958 209.782 57.5299 210.047 58.0352C210.321 58.5317 210.696 58.9217 211.173 59.2055C211.649 59.4892 212.192 59.6311 212.801 59.6311C213.42 59.6311 213.963 59.4892 214.43 59.2055C214.907 58.9217 215.278 58.5317 215.543 58.0352C215.817 57.5299 215.953 56.958 215.953 56.3197C215.953 55.6813 215.821 55.1139 215.556 54.6174C215.291 54.1121 214.92 53.7175 214.444 53.4339C213.976 53.1501 213.428 53.0083 212.801 53.0083C212.192 53.0083 211.649 53.1501 211.173 53.4339C210.696 53.7175 210.321 54.1121 210.047 54.6174C209.782 55.1139 209.65 55.6813 209.65 56.3197ZM207.994 56.3197C207.994 55.6193 208.113 54.9765 208.352 54.3914C208.59 53.8062 208.925 53.3009 209.358 52.8753C209.799 52.4409 210.312 52.104 210.894 51.8646C211.486 51.6252 212.122 51.5055 212.801 51.5055C213.499 51.5055 214.139 51.6252 214.722 51.8646C215.304 52.104 215.812 52.4409 216.245 52.8753C216.686 53.3009 217.026 53.8062 217.264 54.3914C217.503 54.9765 217.622 55.6193 217.622 56.3197C217.622 57.0112 217.503 57.654 217.264 58.248C217.026 58.8419 216.691 59.3562 216.258 59.7906C215.825 60.225 215.313 60.5664 214.722 60.8146C214.139 61.054 213.499 61.1737 212.801 61.1737C212.113 61.1737 211.473 61.054 210.881 60.8146C210.289 60.5664 209.778 60.225 209.345 59.7906C208.921 59.3562 208.59 58.8419 208.352 58.248C208.113 57.654 207.994 57.0112 207.994 56.3197ZM234.156 58.5805L234.447 57.2506H238.751L239.056 58.5805H234.156ZM236.579 54.2983L235.123 57.716L235.096 58.0618L233.812 60.9742H232.05L236.579 51.1465L241.109 60.9742H239.347L238.089 58.1416L238.049 57.7559L236.579 54.2983ZM256.49 51.6651H258.079V60.9742H256.49V51.6651ZM259.482 60.9742H257.456V59.4981H259.443C259.901 59.4981 260.325 59.4316 260.714 59.2986C261.102 59.1656 261.437 58.9661 261.721 58.7001C262.012 58.4342 262.237 58.1017 262.396 57.7027C262.563 57.3038 262.648 56.8427 262.648 56.3197C262.648 55.7965 262.563 55.3356 262.396 54.9366C262.237 54.5377 262.012 54.2052 261.721 53.9392C261.437 53.6732 261.102 53.4738 260.714 53.3408C260.325 53.2078 259.901 53.1413 259.443 53.1413H257.456V51.6651H259.482C260.427 51.6651 261.257 51.8601 261.972 52.2503C262.687 52.6314 263.243 53.1723 263.641 53.8727C264.046 54.5643 264.25 55.3799 264.25 56.3197C264.25 57.2594 264.046 58.0795 263.641 58.7799C263.243 59.4715 262.687 60.0122 261.972 60.4024C261.257 60.7836 260.427 60.9742 259.482 60.9742Z" fill="#5A5A8B"/>
</svg>
