<svg width="469" height="423" viewBox="0 0 469 423" fill="none" xmlns="http://www.w3.org/2000/svg">
<g opacity="0.7">
<path opacity="0.0526316" d="M-71.5924 304.988C-65.119 321.066 -38.9688 352.076 13.8448 347.487C79.8619 341.751 118.653 290.051 180.397 274.398C225.968 262.845 341.374 258.097 392.752 311.281" stroke="white" stroke-width="1.45842"/>
<path opacity="0.105263" d="M-73.997 274.272C-69.2397 290.939 -46.4742 324.513 6.52977 325.469C72.7848 326.665 116.768 279.303 179.809 270.19C226.338 263.464 341.609 270.805 387.146 329.068" stroke="white" stroke-width="1.45842"/>
<path opacity="0.157895" d="M-73.8738 243.829C-70.8848 260.902 -51.7534 296.671 0.8602 303.163C66.6272 311.278 115.32 268.772 178.968 266.299C225.946 264.473 339.817 283.824 379.016 346.527" stroke="white" stroke-width="1.45842"/>
<path opacity="0.210526" d="M-71.2648 213.92C-70.0768 231.212 -54.7891 268.785 -3.1423 280.741C61.4162 295.686 114.285 258.503 177.844 262.697C224.755 265.791 335.979 296.939 368.409 363.396" stroke="white" stroke-width="1.45842"/>
<path opacity="0.263158" d="M-66.2407 184.802C-66.8667 202.123 -55.5902 241.089 -5.47606 258.378C57.1666 279.989 113.633 248.536 176.405 259.35C222.735 267.331 330.095 309.934 355.4 379.417" stroke="white" stroke-width="1.45842"/>
<path opacity="0.315789" d="M-58.8957 156.723C-61.3289 173.884 -54.1871 213.815 -6.15469 236.248C53.8859 264.288 113.33 238.91 174.628 256.226C219.87 269.007 322.189 322.598 340.092 394.346" stroke="white" stroke-width="1.45842"/>
<path opacity="0.368421" d="M-49.3523 129.92C-53.5659 146.733 -50.6372 187.191 -5.21274 214.522C51.5678 248.685 113.339 229.659 172.491 253.288C216.15 270.727 312.306 334.721 322.612 407.946" stroke="white" stroke-width="1.45842"/>
<path opacity="0.421053" d="M-37.7557 104.617C-43.7037 120.897 -45.0201 161.44 -2.70127 193.369C50.1972 233.28 113.619 220.816 169.977 250.498C211.574 272.406 300.514 346.099 303.109 420.001" stroke="white" stroke-width="1.45842"/>
<path opacity="0.473684" d="M-24.2737 81.0198C-31.8908 96.5891 -37.4379 136.772 1.31164 172.95C49.7485 218.172 114.126 212.405 167.072 247.815C206.151 273.951 286.901 356.538 281.757 430.306" stroke="white" stroke-width="1.45842"/>
<path opacity="0.526316" d="M-9.09459 59.3148C-18.2975 74.0026 -28.0144 113.386 6.74125 153.416C50.1858 203.453 114.813 204.447 163.768 245.198C199.901 275.275 271.576 365.85 258.749 438.677" stroke="white" stroke-width="1.45842"/>
<path opacity="0.578947" d="M7.57309 39.6701C-3.1147 53.3155 -16.895 91.4673 13.486 134.911C51.4622 189.215 115.632 196.959 160.059 242.604C192.85 276.293 254.664 373.864 234.296 444.951" stroke="white" stroke-width="1.45842"/>
<path opacity="0.631579" d="M25.5073 22.2302C13.4517 34.6836 -4.24109 71.1859 21.4324 117.567C53.5243 175.543 116.533 189.953 155.946 239.991C185.035 276.924 236.312 380.422 208.624 448.99" stroke="white" stroke-width="1.45842"/>
<path opacity="0.684211" d="M44.4701 7.1152C31.1788 18.2403 9.7674 52.6932 30.4521 101.504C56.308 162.517 117.465 183.434 151.432 237.318C176.501 277.089 216.679 385.38 181.976 450.678" stroke="white" stroke-width="1.45842"/>
<path opacity="0.736842" d="M64.213 -5.57992C49.8316 4.09494 24.9362 36.121 40.4055 86.8264C59.7421 150.208 118.378 177.403 146.526 234.542C167.301 276.716 195.939 388.613 154.6 449.926" stroke="white" stroke-width="1.45842"/>
<path opacity="0.789474" d="M84.4782 -15.7883C69.1643 -7.66968 41.0577 21.5787 51.1421 73.6233C63.7475 138.679 119.22 171.854 141.24 231.623C157.494 275.737 174.278 390.014 126.757 446.671" stroke="white" stroke-width="1.45842"/>
<path opacity="0.842105" d="M105.004 -23.4664C88.9249 -16.993 57.915 9.15717 62.5039 61.9708C68.2402 127.988 119.941 166.779 135.593 228.523C147.146 274.094 151.894 389.5 98.7105 440.878" stroke="white" stroke-width="1.45842"/>
<path opacity="0.894737" d="M125.524 -28.6029C108.856 -23.8457 75.2828 -1.08017 74.3262 51.9238C73.1303 118.179 120.493 162.162 129.606 225.203C136.332 271.732 128.99 387.003 70.7278 432.54" stroke="white" stroke-width="1.45842"/>
<path opacity="0.947368" d="M145.772 -31.2117C128.699 -28.2227 92.9293 -9.09132 86.4374 43.5223C78.3226 109.289 120.828 157.982 123.302 221.631C125.127 268.608 105.777 382.479 43.0735 421.678" stroke="white" stroke-width="1.45842"/>
<path d="M165.485 -31.3346C148.193 -30.1466 110.62 -14.8589 98.6639 36.7879C83.719 101.346 120.902 154.215 116.709 217.774C113.614 264.685 82.4667 375.91 16.0095 408.339" stroke="white" stroke-width="1.45842"/>
</g>
</svg>
