<svg width="74" height="74" viewBox="0 0 74 74" fill="none" xmlns="http://www.w3.org/2000/svg">
<path fill-rule="evenodd" clip-rule="evenodd" d="M62.6387 22.6299H61.2146V27.5065H62.6387V22.6299ZM14.8828 27.5065H16.3058V22.6299H14.8828V27.5065ZM56.9714 22.6299V27.5065H58.3944V22.6299H56.9714ZM26.3613 25.4414H49.8526V26.8644H26.3613V25.4414Z" fill="white"/>
<path fill-rule="evenodd" clip-rule="evenodd" d="M62.6387 37.2598H61.2146V42.1364H62.6387V37.2598ZM14.8828 42.1364H16.3058V37.2598H14.8828V42.1364ZM56.9714 37.2598V42.1364H58.3944V37.2598H56.9714ZM49.8526 42.1364V42.0805H26.3613V42.1364H49.8526Z" fill="white"/>
<path fill-rule="evenodd" clip-rule="evenodd" d="M62.6387 51.8896H61.2146V56.7663H62.6387V51.8896ZM14.8828 56.7663H16.3058V51.8896H14.8828V56.7663ZM42.2902 51.8896V56.7663H43.7132V51.8896H42.2902ZM56.5474 51.8896C56.0671 53.6886 55.1925 55.3538 53.9926 56.7663H55.7976C56.8469 55.2973 57.5994 53.6403 58.0159 51.8896H56.5474Z" fill="white"/>
<path fill-rule="evenodd" clip-rule="evenodd" d="M57.0663 8V11.589H61.3106V22.6299H59.8865V13.0117H57.0663V22.6299H55.6433V9.42228H14.9777V22.6299H13.5547V8H57.0663ZM13.5547 27.5065V37.2598H14.9777V27.5065H13.5547ZM13.5547 51.8897V42.1364H14.9777V61.1816H40.9621V56.7663H42.1585V51.8897H40.9621V49.4345H55.6185C55.6337 49.1843 55.6433 48.9331 55.6433 48.6793V42.1364H57.0663V48.6789C57.0621 52.3708 55.5936 55.9103 52.983 58.5208C50.3724 61.1313 46.8329 62.5997 43.141 62.6039H20.8496V65.0965H59.8865V56.7663H61.084V51.8897H59.8865V42.1364H61.3106V66.5196H19.4266V62.6039H13.5547V56.7663H14.7511V51.8897H13.5547ZM57.0663 37.2598H55.6433V27.5065H57.0663V37.2598ZM61.3106 37.2598H59.8865V27.5065H61.3106V37.2598ZM42.3851 61.125L42.4036 61.1812L43.1403 61.1801C46.0768 61.176 48.9184 60.1399 51.1684 58.2529C51.711 57.7977 52.211 57.3001 52.6644 56.7663H54.2429C55.2922 55.2974 56.0447 53.6404 56.4613 51.8897H55.2193C55.3099 51.55 55.3866 51.2055 55.4487 50.8571H42.3851V61.125ZM48.5245 33.9243H25.0332V35.3473H48.5245V33.9243ZM48.5245 42.1364V43.5036H25.0332V42.1364H48.5245Z" fill="white"/>
<path fill-rule="evenodd" clip-rule="evenodd" d="M61.084 22.6299H59.6599V27.5065H61.084V22.6299ZM13.3281 27.5065H14.7511V22.6299H13.3281V27.5065ZM55.4167 22.6299V27.5065H56.8398V22.6299H55.4167ZM24.8066 25.4414H48.2979V26.8644H24.8066V25.4414Z" fill="white"/>
<path fill-rule="evenodd" clip-rule="evenodd" d="M61.084 37.2598H59.6599V42.1364H61.084V37.2598ZM13.3281 42.1364H14.7511V37.2598H13.3281V42.1364ZM55.4167 37.2598V42.1364H56.8398V37.2598H55.4167ZM48.2979 42.1364V42.0805H24.8066V42.1364H48.2979Z" fill="white"/>
<path fill-rule="evenodd" clip-rule="evenodd" d="M61.084 51.8896H59.6599V56.7663H61.084V51.8896ZM13.3281 56.7663H14.7511V51.8896H13.3281V56.7663ZM40.7355 51.8896V56.7663H42.1585V51.8896H40.7355ZM54.9927 51.8896C54.5124 53.6886 53.6379 55.3538 52.4379 56.7663H54.2429C55.2922 55.2973 56.0447 53.6403 56.4613 51.8896H54.9927Z" fill="white"/>
<path fill-rule="evenodd" clip-rule="evenodd" d="M55.5116 8V11.589H59.7559V22.6299H58.3318V13.0117H55.5116V22.6299H54.0886V9.42228H13.423V22.6299H12V8H55.5116ZM12 27.5065V37.2598H13.423V27.5065H12ZM12 51.8897V42.1364H13.423V51.8897H12ZM12 56.7663V62.6039H17.8719V66.5196H59.7559V56.7663H58.3318V65.0965H19.2949V62.6039H41.5863C45.2782 62.5997 48.8177 61.1313 51.4283 58.5208C51.9748 57.9743 52.4713 57.3871 52.9147 56.7663H51.1098C51.1263 56.7468 51.1428 56.7273 51.1592 56.7078C50.6927 57.2637 50.1762 57.7811 49.6137 58.2529C47.3637 60.1399 44.5221 61.176 41.5856 61.1801L40.8489 61.1812L40.8304 61.125V56.7663H39.4074V61.1816H13.423V56.7663H12ZM39.4074 51.8897H40.8304V50.8571H53.894C53.8319 51.2055 53.7553 51.55 53.6646 51.8897H55.1331C55.1187 51.9505 55.1038 52.0111 55.0885 52.0717C55.366 50.9715 55.5103 49.8326 55.5116 48.6789V42.1364H54.0886V48.6793C54.0886 48.9331 54.079 49.1843 54.0638 49.4345H39.4074V51.8897ZM58.3318 51.8897H59.7559V42.1364H58.3318V51.8897ZM55.5116 37.2598H54.0886V27.5065H55.5116V37.2598ZM59.7559 37.2598H58.3318V27.5065H59.7559V37.2598ZM46.9698 33.9243H23.4785V35.3473H46.9698V33.9243ZM46.9698 42.1364V43.5036H23.4785V42.1364H46.9698Z" fill="white"/>
<path fill-rule="evenodd" clip-rule="evenodd" d="M62.6387 22.6299H61.2146V27.5065H62.6387V22.6299ZM14.8828 27.5065H16.3058V22.6299H14.8828V27.5065ZM56.9714 22.6299V27.5065H58.3944V22.6299H56.9714ZM26.3613 25.4414H49.8526V26.8644H26.3613V25.4414Z" fill="#FF5ABE" style="mix-blend-mode:multiply"/>
<path fill-rule="evenodd" clip-rule="evenodd" d="M62.6387 37.2598H61.2146V42.1364H62.6387V37.2598ZM14.8828 42.1364H16.3058V37.2598H14.8828V42.1364ZM56.9714 37.2598V42.1364H58.3944V37.2598H56.9714ZM49.8526 42.1364V42.0805H26.3613V42.1364H49.8526Z" fill="#FF5ABE" style="mix-blend-mode:multiply"/>
<path fill-rule="evenodd" clip-rule="evenodd" d="M62.6387 51.8896H61.2146V56.7663H62.6387V51.8896ZM14.8828 56.7663H16.3058V51.8896H14.8828V56.7663ZM42.2902 51.8896V56.7663H43.7132V51.8896H42.2902ZM56.5474 51.8896C56.0671 53.6886 55.1925 55.3538 53.9926 56.7663H55.7976C56.8469 55.2973 57.5994 53.6403 58.0159 51.8896H56.5474Z" fill="#FF5ABE" style="mix-blend-mode:multiply"/>
<path fill-rule="evenodd" clip-rule="evenodd" d="M57.0663 8V11.589H61.3106V22.6299H59.8865V13.0117H57.0663V22.6299H55.6433V9.42228H14.9777V22.6299H13.5547V8H57.0663ZM13.5547 27.5065V37.2598H14.9777V27.5065H13.5547ZM13.5547 51.8897V42.1364H14.9777V61.1816H40.9621V56.7663H42.1585V51.8897H40.9621V49.4345H55.6185C55.6337 49.1843 55.6433 48.9331 55.6433 48.6793V42.1364H57.0663V48.6789C57.0621 52.3708 55.5936 55.9103 52.983 58.5208C50.3724 61.1313 46.8329 62.5997 43.141 62.6039H20.8496V65.0965H59.8865V56.7663H61.084V51.8897H59.8865V42.1364H61.3106V66.5196H19.4266V62.6039H13.5547V56.7663H14.7511V51.8897H13.5547ZM57.0663 37.2598H55.6433V27.5065H57.0663V37.2598ZM61.3106 37.2598H59.8865V27.5065H61.3106V37.2598ZM42.3851 61.125L42.4036 61.1812L43.1403 61.1801C46.0768 61.176 48.9184 60.1399 51.1684 58.2529C51.711 57.7977 52.211 57.3001 52.6644 56.7663H54.2429C55.2922 55.2974 56.0447 53.6404 56.4613 51.8897H55.2193C55.3099 51.55 55.3866 51.2055 55.4487 50.8571H42.3851V61.125ZM48.5245 33.9243H25.0332V35.3473H48.5245V33.9243ZM48.5245 42.1364V43.5036H25.0332V42.1364H48.5245Z" fill="#FF5ABE" style="mix-blend-mode:multiply"/>
<path fill-rule="evenodd" clip-rule="evenodd" d="M61.084 22.6299H59.6599V27.5065H61.084V22.6299ZM13.3281 27.5065H14.7511V22.6299H13.3281V27.5065ZM55.4167 22.6299V27.5065H56.8398V22.6299H55.4167ZM24.8066 25.4414H48.2979V26.8644H24.8066V25.4414Z" fill="#5AFFBA" style="mix-blend-mode:multiply"/>
<path fill-rule="evenodd" clip-rule="evenodd" d="M61.084 37.2598H59.6599V42.1364H61.084V37.2598ZM13.3281 42.1364H14.7511V37.2598H13.3281V42.1364ZM55.4167 37.2598V42.1364H56.8398V37.2598H55.4167ZM48.2979 42.1364V42.0805H24.8066V42.1364H48.2979Z" fill="#5AFFBA" style="mix-blend-mode:multiply"/>
<path fill-rule="evenodd" clip-rule="evenodd" d="M61.084 51.8896H59.6599V56.7663H61.084V51.8896ZM13.3281 56.7663H14.7511V51.8896H13.3281V56.7663ZM40.7355 51.8896V56.7663H42.1585V51.8896H40.7355ZM54.9927 51.8896C54.5124 53.6886 53.6379 55.3538 52.4379 56.7663H54.2429C55.2922 55.2973 56.0447 53.6403 56.4613 51.8896H54.9927Z" fill="#5AFFBA" style="mix-blend-mode:multiply"/>
<path fill-rule="evenodd" clip-rule="evenodd" d="M55.5116 8V11.589H59.7559V22.6299H58.3318V13.0117H55.5116V22.6299H54.0886V9.42228H13.423V22.6299H12V8H55.5116ZM12 27.5065V37.2598H13.423V27.5065H12ZM12 51.8897V42.1364H13.423V51.8897H12ZM12 56.7663V62.6039H17.8719V66.5196H59.7559V56.7663H58.3318V65.0965H19.2949V62.6039H41.5863C45.2782 62.5997 48.8177 61.1313 51.4283 58.5208C51.9748 57.9743 52.4713 57.3871 52.9147 56.7663H51.1098C51.1263 56.7468 51.1428 56.7273 51.1592 56.7078C50.6927 57.2637 50.1762 57.7811 49.6137 58.2529C47.3637 60.1399 44.5221 61.176 41.5856 61.1801L40.8489 61.1812L40.8304 61.125V56.7663H39.4074V61.1816H13.423V56.7663H12ZM39.4074 51.8897H40.8304V50.8571H53.894C53.8319 51.2055 53.7553 51.55 53.6646 51.8897H55.1331C55.1187 51.9505 55.1038 52.0111 55.0885 52.0717C55.366 50.9715 55.5103 49.8326 55.5116 48.6789V42.1364H54.0886V48.6793C54.0886 48.9331 54.079 49.1843 54.0638 49.4345H39.4074V51.8897ZM58.3318 51.8897H59.7559V42.1364H58.3318V51.8897ZM55.5116 37.2598H54.0886V27.5065H55.5116V37.2598ZM59.7559 37.2598H58.3318V27.5065H59.7559V37.2598ZM46.9698 33.9243H23.4785V35.3473H46.9698V33.9243ZM46.9698 42.1364V43.5036H23.4785V42.1364H46.9698Z" fill="#5AFFBA" style="mix-blend-mode:multiply"/>
</svg>
