<svg width="74" height="74" viewBox="0 0 74 74" fill="none" xmlns="http://www.w3.org/2000/svg">
<path fill-rule="evenodd" clip-rule="evenodd" d="M17.1016 27.5359V22.6519H18.3966V27.5359H17.1016ZM56.5456 22.6519L56.5505 27.5359H55.2784L55.2835 22.6519H56.5456ZM48.8106 26.6112V25.3162H27.4986V26.6112H48.8106Z" fill="white"/>
<path fill-rule="evenodd" clip-rule="evenodd" d="M12.8598 42.1882C12.7097 40.5341 12.9332 38.8614 13.5157 37.3042H14.9864C14.4487 38.5325 14.1575 39.8869 14.177 41.3003C14.1832 41.5997 14.2029 41.8959 14.2354 42.1882H12.8598ZM56.5587 37.3042L56.5636 42.1882H55.2616L55.2667 37.3042H56.5587ZM34.2663 37.3042H32.8269C33.3493 38.501 33.639 39.8169 33.639 41.1893C33.639 41.5262 33.6215 41.8595 33.5873 42.1882H34.9002C34.9148 42.0284 34.9261 41.868 34.934 41.7073H48.809V40.4123H34.934C34.8668 39.3377 34.6397 38.2936 34.2663 37.3042Z" fill="white"/>
<path fill-rule="evenodd" clip-rule="evenodd" d="M15.5469 56.8401V51.9561H16.8049V56.8401H15.5469ZM56.5743 51.9561L56.5792 56.8401H31.3783C31.3753 55.2121 31.3703 53.5841 31.3621 51.9561L32.6409 51.9561V56.2112H55.2479L55.2523 51.9561H56.5743ZM26.0646 51.9561H21.6297C22.3391 52.1008 23.1134 52.1863 23.9459 52.1782C24.7019 52.1713 25.4094 52.0891 26.0646 51.9561Z" fill="white"/>
<path fill-rule="evenodd" clip-rule="evenodd" d="M15.5645 27.5359V22.6519H16.8595V27.5359H15.5645ZM55.0085 22.6519L55.0134 27.5359H53.7413L53.7464 22.6519H55.0085ZM47.2735 26.6112V25.3162H25.9615V26.6112H47.2735Z" fill="white"/>
<path fill-rule="evenodd" clip-rule="evenodd" d="M11.3247 42.1882C11.1745 40.5341 11.398 38.8614 11.9805 37.3042H13.4513C12.9136 38.5325 12.6223 39.8869 12.6418 41.3003C12.6481 41.5997 12.6677 41.8959 12.7003 42.1882H11.3247ZM55.0236 37.3042L55.0285 42.1882H53.7264L53.7315 37.3042H55.0236ZM32.7312 37.3042H31.2918C31.8142 38.501 32.1038 39.8169 32.1038 41.1893C32.1038 41.5262 32.0863 41.8595 32.0522 42.1882H33.365C33.3796 42.0284 33.3909 41.868 33.3988 41.7073H47.2738V40.4123H33.3988C33.3317 39.3377 33.1045 38.2936 32.7312 37.3042Z" fill="white"/>
<path fill-rule="evenodd" clip-rule="evenodd" d="M14.0117 56.8401V51.9561H15.2697V56.8401H14.0117ZM55.0392 51.9561L55.0441 56.8401H29.8431C29.8401 55.2121 29.8352 53.5841 29.827 51.9561L31.1057 51.9561V56.2112H53.7127L53.7171 51.9561H55.0392ZM24.5294 51.9561H20.0946C20.804 52.1008 21.5782 52.1863 22.4107 52.1782C23.1667 52.1713 23.8742 52.0891 24.5294 51.9561Z" fill="white"/>
<path fill-rule="evenodd" clip-rule="evenodd" d="M17.1016 27.5359V22.6519H18.3966V27.5359H17.1016ZM56.5456 22.6519L56.5505 27.5359H55.2784L55.2835 22.6519H56.5456ZM48.8106 26.6112V25.3162H27.4986V26.6112H48.8106Z" fill="#FF5ABE" style="mix-blend-mode:multiply"/>
<path fill-rule="evenodd" clip-rule="evenodd" d="M12.8598 42.1882C12.7097 40.5341 12.9332 38.8614 13.5157 37.3042H14.9864C14.4487 38.5325 14.1575 39.8869 14.177 41.3003C14.1832 41.5997 14.2029 41.8959 14.2354 42.1882H12.8598ZM56.5587 37.3042L56.5636 42.1882H55.2616L55.2667 37.3042H56.5587ZM34.2663 37.3042H32.8269C33.3493 38.501 33.639 39.8169 33.639 41.1893C33.639 41.5262 33.6215 41.8595 33.5873 42.1882H34.9002C34.9148 42.0284 34.9261 41.868 34.934 41.7073H48.809V40.4123H34.934C34.8668 39.3377 34.6397 38.2936 34.2663 37.3042Z" fill="#FF5ABE" style="mix-blend-mode:multiply"/>
<path fill-rule="evenodd" clip-rule="evenodd" d="M15.5469 56.8401V51.9561H16.8049V56.8401H15.5469ZM56.5743 51.9561L56.5792 56.8401H31.3783C31.3753 55.2121 31.3703 53.5841 31.3621 51.9561L32.6409 51.9561V56.2112H55.2479L55.2523 51.9561H56.5743ZM26.0646 51.9561H21.6297C22.3391 52.1008 23.1134 52.1863 23.9459 52.1782C24.7019 52.1713 25.4094 52.0891 26.0646 51.9561Z" fill="#FF5ABE" style="mix-blend-mode:multiply"/>
<path fill-rule="evenodd" clip-rule="evenodd" d="M15.5645 27.5359V22.6519H16.8595V27.5359H15.5645ZM55.0085 22.6519L55.0134 27.5359H53.7413L53.7464 22.6519H55.0085ZM47.2735 26.6112V25.3162H25.9615V26.6112H47.2735Z" fill="#5AFFBA" style="mix-blend-mode:multiply"/>
<path fill-rule="evenodd" clip-rule="evenodd" d="M11.3247 42.1882C11.1745 40.5341 11.398 38.8614 11.9805 37.3042H13.4513C12.9136 38.5325 12.6223 39.8869 12.6418 41.3003C12.6481 41.5997 12.6677 41.8959 12.7003 42.1882H11.3247ZM55.0236 37.3042L55.0285 42.1882H53.7264L53.7315 37.3042H55.0236ZM32.7312 37.3042H31.2918C31.8142 38.501 32.1038 39.8169 32.1038 41.1893C32.1038 41.5262 32.0863 41.8595 32.0522 42.1882H33.365C33.3796 42.0284 33.3909 41.868 33.3988 41.7073H47.2738V40.4123H33.3988C33.3317 39.3377 33.1045 38.2936 32.7312 37.3042Z" fill="#5AFFBA" style="mix-blend-mode:multiply"/>
<path fill-rule="evenodd" clip-rule="evenodd" d="M14.0117 56.8401V51.9561H15.2697V56.8401H14.0117ZM55.0392 51.9561L55.0441 56.8401H29.8431C29.8401 55.2121 29.8352 53.5841 29.827 51.9561L31.1057 51.9561V56.2112H53.7127L53.7171 51.9561H55.0392ZM24.5294 51.9561H20.0946C20.804 52.1008 21.5782 52.1863 22.4107 52.1782C23.1667 52.1713 23.8742 52.0891 24.5294 51.9561Z" fill="#5AFFBA" style="mix-blend-mode:multiply"/>
</svg>
