<svg width="74" height="74" viewBox="0 0 74 74" fill="none" xmlns="http://www.w3.org/2000/svg">
<path fill-rule="evenodd" clip-rule="evenodd" d="M12.9824 29.2129V25.4097H14.4624V29.2129H12.9824ZM61.5116 29.2129H62.9916V25.4097H61.5116V29.2129ZM59.8329 25.4097V29.2129H58.3529V25.4097H59.8329ZM16.1433 25.4097V29.2129H17.6233V25.4097H16.1433ZM20.7449 25.4097V26.9962C20.7449 27.1925 20.8228 27.3807 20.9616 27.5195C21.1004 27.6582 21.2886 27.7362 21.4849 27.7362H54.4889C54.6851 27.7362 54.8733 27.6582 55.0121 27.5195C55.1509 27.3807 55.2289 27.1925 55.2289 26.9962V25.4097H53.7489V26.2562H22.2249V25.4097H20.7449Z" fill="white"/>
<path fill-rule="evenodd" clip-rule="evenodd" d="M12.9824 40.6225V36.8193H14.4624V40.6225H12.9824ZM61.5116 40.6225H62.9916V36.8193H61.5116V40.6225ZM59.8329 36.8193V40.6225H58.3529V36.8193H59.8329ZM16.1433 36.8193V40.6225H17.6233V36.8193H16.1433ZM32.4831 37.8804H21.7934C21.5972 37.8804 21.409 37.9583 21.2702 38.0971C21.1314 38.2359 21.0534 38.4241 21.0534 38.6204C21.0534 38.8166 21.1314 39.0049 21.2702 39.1436C21.409 39.2824 21.5972 39.3604 21.7934 39.3604H32.4831C32.6794 39.3604 32.8676 39.2824 33.0064 39.1436C33.1452 39.0049 33.2231 38.8166 33.2231 38.6204C33.2231 38.4241 33.1452 38.2359 33.0064 38.0971C32.8676 37.9583 32.6794 37.8804 32.4831 37.8804ZM43.2524 37.8804H53.9421C54.1384 37.8804 54.3266 37.9583 54.4654 38.0971C54.6041 38.2359 54.6821 38.4241 54.6821 38.6204C54.6821 38.8166 54.6041 39.0049 54.4654 39.1436C54.3266 39.2824 54.1384 39.3604 53.9421 39.3604H43.2524C43.0562 39.3604 42.868 39.2824 42.7292 39.1436C42.5904 39.0049 42.5124 38.8166 42.5124 38.6204C42.5124 38.4241 42.5904 38.2359 42.7292 38.0971C42.868 37.9583 43.0562 37.8804 43.2524 37.8804Z" fill="white"/>
<path fill-rule="evenodd" clip-rule="evenodd" d="M69.1632 50.8615H62.4585C62.806 50.3387 62.9912 49.725 62.9909 49.0973V48.229H61.5109V49.0984C61.5104 49.5546 61.329 49.9919 61.0064 50.3144C60.6839 50.637 60.2466 50.8184 59.7904 50.8189H16.1822C15.7261 50.8184 15.2887 50.637 14.9662 50.3144C14.6436 49.9919 14.4622 49.5546 14.4617 49.0984V48.229H12.9817V49.0984C12.9814 49.7261 13.1668 50.3399 13.5145 50.8626H6.80641C6.61015 50.8626 6.42192 50.9405 6.28315 51.0793C6.14437 51.2181 6.06641 51.4063 6.06641 51.6026V52.0322H69.9044L69.9044 51.6026C69.9045 51.5052 69.8854 51.4088 69.8482 51.3188C69.811 51.2288 69.7565 51.1471 69.6876 51.0782C69.6188 51.0094 69.537 50.9548 69.447 50.9176C69.357 50.8804 69.2606 50.8613 69.1632 50.8615ZM16.1577 48.229C16.1867 48.3697 16.2562 48.5001 16.3593 48.6032C16.4981 48.742 16.6863 48.82 16.8826 48.82H59.0922C59.2884 48.82 59.4767 48.742 59.6154 48.6032C59.7185 48.5001 59.7881 48.3697 59.817 48.229H16.1577Z" fill="white"/>
<path fill-rule="evenodd" clip-rule="evenodd" d="M67.7961 50.8613H67.7846C67.8812 50.8614 67.9769 50.8805 68.0662 50.9174C68.1562 50.9546 68.2379 51.0091 68.3068 51.078C68.3756 51.1468 68.4302 51.2286 68.4674 51.3186C68.5046 51.4086 68.5236 51.505 68.5235 51.6024L68.5235 52.032H4.69922V53.5086C4.69917 54.3136 4.85769 55.1107 5.16572 55.8544C5.47376 56.5982 5.92527 57.2739 6.49448 57.8431C7.0637 58.4123 7.73946 58.8639 8.48318 59.1719C9.2269 59.4799 10.024 59.6384 10.829 59.6384H62.407C63.3623 59.6361 64.304 59.4116 65.1576 58.9827C66.0112 58.5538 66.7534 57.9322 67.3254 57.1672C68.1156 56.1114 68.5409 54.8273 68.5372 53.5086V51.6024C68.5373 51.505 68.5182 51.4086 68.4811 51.3186C68.4439 51.2286 68.3893 51.1468 68.3204 51.078C68.2516 51.0091 68.1698 50.9546 68.0798 50.9174C67.9899 50.8802 67.8934 50.8611 67.7961 50.8613ZM11.6145 48.2288H13.0808V49.0982C13.0813 49.5544 13.2628 49.9917 13.5853 50.3142C13.9079 50.6368 14.3452 50.8182 14.8013 50.8187H14.815C14.3589 50.8182 13.9215 50.6368 13.599 50.3142C13.2764 49.9917 13.095 49.5544 13.0945 49.0982V40.6225H11.6145V48.2288ZM60.1437 48.2288H61.61V49.0971C61.6103 49.7248 61.4251 50.3385 61.0776 50.8613H61.0913C61.4388 50.3385 61.624 49.7248 61.6237 49.0971V40.6225H60.1437V48.2288ZM61.6237 29.2129V36.8193H60.1437V29.2129H61.6237ZM13.0945 29.2129V36.8193H11.6145V29.2129H13.0945ZM11.6145 25.4097H13.0945V17.2005C13.095 16.7443 13.2764 16.307 13.599 15.9845C13.9215 15.6619 14.3589 15.4805 14.815 15.48H58.4232C58.8794 15.4805 59.3167 15.6619 59.6393 15.9845C59.9618 16.307 60.1432 16.7443 60.1437 17.2005V25.4097H61.6237V17.2005C61.6226 16.352 61.2851 15.5386 60.6851 14.9386C60.0851 14.3386 59.2717 14.0011 58.4232 14H14.815C13.9665 14.0011 13.1531 14.3386 12.5531 14.9386C11.9531 15.5386 11.6156 16.352 11.6145 17.2005V25.4097ZM31.7581 52.3413H41.478V55.1022H31.7581V52.3413ZM67.0561 53.5075C67.056 54.7407 66.566 55.9234 65.6939 56.7954C64.8219 57.6674 63.6391 58.1573 62.4059 58.1573H10.829C10.2184 58.1573 9.61371 58.0371 9.04955 57.8034C8.48539 57.5698 7.97278 57.2273 7.541 56.7955C7.10922 56.3637 6.76672 55.8511 6.53306 55.2869C6.29941 54.7228 6.17917 54.1181 6.17922 53.5075V52.3413H30.2781V55.8422C30.2781 56.0384 30.356 56.2267 30.4948 56.3654C30.6336 56.5042 30.8218 56.5822 31.0181 56.5822H42.218C42.4142 56.5822 42.6024 56.5042 42.7412 56.3654C42.88 56.2267 42.958 56.0384 42.958 55.8422V52.3413H67.0561V53.5075ZM57.7113 48.8198H57.725C57.9212 48.8198 58.1095 48.7418 58.2483 48.603C58.387 48.4642 58.465 48.276 58.465 48.0798V40.6225H56.985V47.3398H16.2554V40.6225H14.7754V48.0798C14.7754 48.1302 14.7805 48.1801 14.7906 48.2288H58.4362C58.4072 48.3695 58.3377 48.4999 58.2346 48.603C58.0958 48.7418 57.9076 48.8198 57.7113 48.8198ZM58.465 29.2129V36.8193H56.985V29.2129H58.465ZM16.2554 29.2129V36.8193H14.7754V29.2129H16.2554ZM14.7754 25.4097H16.2554V18.9571H56.985V25.4097H58.465V18.2171C58.465 18.0208 58.387 17.8326 58.2483 17.6938C58.1095 17.555 57.9212 17.4771 57.725 17.4771H15.5154C15.3191 17.4771 15.1309 17.555 14.9921 17.6938C14.8534 17.8326 14.7754 18.0208 14.7754 18.2171V25.4097ZM20.117 22.7412H53.121C53.3172 22.7412 53.5054 22.8192 53.6442 22.958C53.783 23.0967 53.861 23.285 53.861 23.4812V25.4097H52.381V24.2212H20.857V25.4097H19.377V23.4812C19.377 23.285 19.4549 23.0967 19.5937 22.958C19.7325 22.8192 19.9207 22.7412 20.117 22.7412ZM20.4255 33.7471H31.1152C31.3115 33.7471 31.4997 33.825 31.6385 33.9638C31.7773 34.1026 31.8552 34.2908 31.8552 34.4871C31.8552 34.6833 31.7773 34.8716 31.6385 35.0103C31.4997 35.1491 31.3115 35.2271 31.1152 35.2271H20.4255C20.2293 35.2271 20.0411 35.1491 19.9023 35.0103C19.7635 34.8716 19.6855 34.6833 19.6855 34.4871C19.6855 34.2908 19.7635 34.1026 19.9023 33.9638C20.0411 33.825 20.2293 33.7471 20.4255 33.7471ZM31.1152 42.3208H20.4255C20.2293 42.3208 20.0411 42.3988 19.9023 42.5375C19.7635 42.6763 19.6855 42.8645 19.6855 43.0608C19.6855 43.2571 19.7635 43.4453 19.9023 43.5841C20.0411 43.7228 20.2293 43.8008 20.4255 43.8008H31.1152C31.3115 43.8008 31.4997 43.7228 31.6385 43.5841C31.7773 43.4453 31.8552 43.2571 31.8552 43.0608C31.8552 42.8645 31.7773 42.6763 31.6385 42.5375C31.4997 42.3988 31.3115 42.3208 31.1152 42.3208ZM52.5742 33.7471H41.8845C41.6883 33.7471 41.5001 33.825 41.3613 33.9638C41.2225 34.1026 41.1445 34.2908 41.1445 34.4871C41.1445 34.6833 41.2225 34.8716 41.3613 35.0103C41.5001 35.1491 41.6883 35.2271 41.8845 35.2271H52.5742C52.7705 35.2271 52.9587 35.1491 53.0975 35.0103C53.2362 34.8716 53.3142 34.6833 53.3142 34.4871C53.3142 34.2908 53.2362 34.1026 53.0975 33.9638C52.9587 33.825 52.7705 33.7471 52.5742 33.7471ZM41.8845 42.3208H52.5742C52.7705 42.3208 52.9587 42.3988 53.0975 42.5375C53.2362 42.6763 53.3142 42.8645 53.3142 43.0608C53.3142 43.2571 53.2362 43.4453 53.0975 43.5841C52.9587 43.7228 52.7705 43.8008 52.5742 43.8008H41.8845C41.6883 43.8008 41.5001 43.7228 41.3613 43.5841C41.2225 43.4453 41.1445 43.2571 41.1445 43.0608C41.1445 42.8645 41.2225 42.6763 41.3613 42.5375C41.5001 42.3988 41.6883 42.3208 41.8845 42.3208Z" fill="white"/>
<path fill-rule="evenodd" clip-rule="evenodd" d="M11.5996 29.2129V25.4097H13.0796V29.2129H11.5996ZM60.1288 29.2129H61.6088V25.4097H60.1288V29.2129ZM58.4501 25.4097V29.2129H56.9701V25.4097H58.4501ZM14.7605 25.4097V29.2129H16.2405V25.4097H14.7605ZM19.362 25.4097V26.9962C19.362 27.1925 19.44 27.3807 19.5788 27.5195C19.7176 27.6582 19.9058 27.7362 20.102 27.7362H53.106C53.3023 27.7362 53.4905 27.6582 53.6293 27.5195C53.7681 27.3807 53.846 27.1925 53.846 26.9962V25.4097H52.366V26.2562H20.842V25.4097H19.362Z" fill="white"/>
<path fill-rule="evenodd" clip-rule="evenodd" d="M11.5996 40.6225V36.8193H13.0796V40.6225H11.5996ZM60.1288 40.6225H61.6088V36.8193H60.1288V40.6225ZM58.4501 36.8193V40.6225H56.9701V36.8193H58.4501ZM14.7605 36.8193V40.6225H16.2405V36.8193H14.7605ZM31.1003 37.8804H20.4106C20.2144 37.8804 20.0262 37.9583 19.8874 38.0971C19.7486 38.2359 19.6706 38.4241 19.6706 38.6204C19.6706 38.8166 19.7486 39.0049 19.8874 39.1436C20.0262 39.2824 20.2144 39.3604 20.4106 39.3604H31.1003C31.2966 39.3604 31.4848 39.2824 31.6236 39.1436C31.7623 39.0049 31.8403 38.8166 31.8403 38.6204C31.8403 38.4241 31.7623 38.2359 31.6236 38.0971C31.4848 37.9583 31.2966 37.8804 31.1003 37.8804ZM41.8696 37.8804H52.5593C52.7555 37.8804 52.9438 37.9583 53.0826 38.0971C53.2213 38.2359 53.2993 38.4241 53.2993 38.6204C53.2993 38.8166 53.2213 39.0049 53.0826 39.1436C52.9438 39.2824 52.7555 39.3604 52.5593 39.3604H41.8696C41.6734 39.3604 41.4851 39.2824 41.3464 39.1436C41.2076 39.0049 41.1296 38.8166 41.1296 38.6204C41.1296 38.4241 41.2076 38.2359 41.3464 38.0971C41.4851 37.9583 41.6734 37.8804 41.8696 37.8804Z" fill="white"/>
<path fill-rule="evenodd" clip-rule="evenodd" d="M67.7824 50.8615H61.0776C61.4251 50.3387 61.6103 49.725 61.61 49.0973V48.229H60.13V49.0984C60.1296 49.5546 59.9481 49.9919 59.6256 50.3144C59.303 50.637 58.8657 50.8184 58.4095 50.8189H14.8013C14.3452 50.8184 13.9079 50.637 13.5853 50.3144C13.2628 49.9919 13.0813 49.5546 13.0808 49.0984V48.229H11.6008V49.0984C11.6005 49.7261 11.7859 50.3399 12.1336 50.8626H5.42555C5.22929 50.8626 5.04106 50.9405 4.90229 51.0793C4.76351 51.2181 4.68555 51.4063 4.68555 51.6026V52.0322H68.5235L68.5235 51.6026C68.5236 51.5052 68.5046 51.4088 68.4674 51.3188C68.4302 51.2288 68.3756 51.1471 68.3068 51.0782C68.2379 51.0094 68.1562 50.9548 68.0662 50.9176C67.9762 50.8804 67.8798 50.8613 67.7824 50.8615ZM14.7769 48.229C14.8058 48.3697 14.8754 48.5001 14.9785 48.6032C15.1172 48.742 15.3055 48.82 15.5017 48.82H57.7113C57.9076 48.82 58.0958 48.742 58.2346 48.6032C58.3377 48.5001 58.4072 48.3697 58.4362 48.229H14.7769Z" fill="white"/>
<path fill-rule="evenodd" clip-rule="evenodd" d="M60.2409 48.2288V40.6225H58.7609V48.2288H60.2409ZM11.7117 48.2288V40.6225H10.2317V48.2288H11.7117ZM3.31641 52.032V53.5086C3.31636 54.3136 3.47488 55.1107 3.78291 55.8544C4.09094 56.5982 4.54246 57.2739 5.11167 57.8431C5.68089 58.4123 6.35665 58.8639 7.10037 59.1719C7.84409 59.4799 8.64121 59.6384 9.4462 59.6384H61.0242C61.9795 59.6361 62.9212 59.4116 63.7748 58.9827C64.6284 58.5538 65.3705 57.9322 65.9426 57.1672C66.7328 56.1114 67.1581 54.8273 67.1544 53.5086L67.1544 52.032H3.31641ZM60.2409 29.2129V36.8193H58.7609V29.2129H60.2409ZM11.7117 29.2129V36.8193H10.2317V29.2129H11.7117ZM10.2317 25.4097H11.7117V17.2005C11.7122 16.7443 11.8936 16.307 12.2162 15.9845C12.5387 15.6619 12.9761 15.4805 13.4322 15.48H57.0404C57.4966 15.4805 57.9339 15.6619 58.2564 15.9845C58.579 16.307 58.7604 16.7443 58.7609 17.2005V25.4097H60.2409V17.2005C60.2398 16.352 59.9023 15.5386 59.3023 14.9386C58.7023 14.3386 57.8889 14.0011 57.0404 14H13.4322C12.5837 14.0011 11.7703 14.3386 11.1703 14.9386C10.5703 15.5386 10.2328 16.352 10.2317 17.2005V25.4097ZM30.3752 52.3413H40.0951V55.1022H30.3752V52.3413ZM65.6732 53.5075C65.6731 54.7407 65.1832 55.9234 64.3111 56.7954C63.439 57.6674 62.2563 58.1573 61.0231 58.1573H9.4462C8.83556 58.1573 8.2309 58.0371 7.66674 57.8034C7.10258 57.5698 6.58997 57.2273 6.15819 56.7955C5.72641 56.3637 5.38391 55.8511 5.15025 55.2869C4.91659 54.7228 4.79636 54.1181 4.79641 53.5075V52.3413H28.8952V55.8422C28.8952 56.0384 28.9732 56.2267 29.112 56.3654C29.2508 56.5042 29.439 56.5822 29.6352 56.5822H40.8351C41.0314 56.5822 41.2196 56.5042 41.3584 56.3654C41.4972 56.2267 41.5751 56.0384 41.5751 55.8422V52.3413H65.6732V53.5075ZM57.067 48.2288C57.077 48.1801 57.0822 48.1302 57.0822 48.0798V40.6225H55.6022V47.3398H14.8726V40.6225H13.3926V48.0798C13.3926 48.1302 13.3977 48.1801 13.4077 48.2288H57.067ZM57.0822 29.2129V36.8193H55.6022V29.2129H57.0822ZM14.8726 29.2129V36.8193H13.3926V29.2129H14.8726ZM13.3926 25.4097H14.8726V18.9571H55.6022V25.4097H57.0822V18.2171C57.0822 18.0208 57.0042 17.8326 56.8654 17.6938C56.7267 17.555 56.5384 17.4771 56.3422 17.4771H14.1326C13.9363 17.4771 13.7481 17.555 13.6093 17.6938C13.4705 17.8326 13.3926 18.0208 13.3926 18.2171V25.4097ZM18.7341 22.7412H51.7381C51.9344 22.7412 52.1226 22.8192 52.2614 22.958C52.4002 23.0967 52.4781 23.285 52.4781 23.4812V25.4097H50.9981V24.2212H19.4741V25.4097H17.9941V23.4812C17.9941 23.285 18.0721 23.0967 18.2109 22.958C18.3497 22.8192 18.5379 22.7412 18.7341 22.7412ZM19.0427 33.7471H29.7324C29.9287 33.7471 30.1169 33.825 30.2557 33.9638C30.3944 34.1026 30.4724 34.2908 30.4724 34.4871C30.4724 34.6833 30.3944 34.8716 30.2557 35.0103C30.1169 35.1491 29.9287 35.2271 29.7324 35.2271H19.0427C18.8465 35.2271 18.6583 35.1491 18.5195 35.0103C18.3807 34.8716 18.3027 34.6833 18.3027 34.4871C18.3027 34.2908 18.3807 34.1026 18.5195 33.9638C18.6583 33.825 18.8465 33.7471 19.0427 33.7471ZM29.7324 42.3208H19.0427C18.8465 42.3208 18.6583 42.3988 18.5195 42.5375C18.3807 42.6763 18.3027 42.8645 18.3027 43.0608C18.3027 43.2571 18.3807 43.4453 18.5195 43.5841C18.6583 43.7228 18.8465 43.8008 19.0427 43.8008H29.7324C29.9287 43.8008 30.1169 43.7228 30.2557 43.5841C30.3944 43.4453 30.4724 43.2571 30.4724 43.0608C30.4724 42.8645 30.3944 42.6763 30.2557 42.5375C30.1169 42.3988 29.9287 42.3208 29.7324 42.3208ZM51.1914 33.7471H40.5017C40.3055 33.7471 40.1172 33.825 39.9785 33.9638C39.8397 34.1026 39.7617 34.2908 39.7617 34.4871C39.7617 34.6833 39.8397 34.8716 39.9785 35.0103C40.1172 35.1491 40.3055 35.2271 40.5017 35.2271H51.1914C51.3876 35.2271 51.5759 35.1491 51.7146 35.0103C51.8534 34.8716 51.9314 34.6833 51.9314 34.4871C51.9314 34.2908 51.8534 34.1026 51.7146 33.9638C51.5759 33.825 51.3876 33.7471 51.1914 33.7471ZM40.5017 42.3208H51.1914C51.3876 42.3208 51.5759 42.3988 51.7146 42.5375C51.8534 42.6763 51.9314 42.8645 51.9314 43.0608C51.9314 43.2571 51.8534 43.4453 51.7146 43.5841C51.5759 43.7228 51.3876 43.8008 51.1914 43.8008H40.5017C40.3055 43.8008 40.1172 43.7228 39.9785 43.5841C39.8397 43.4453 39.7617 43.2571 39.7617 43.0608C39.7617 42.8645 39.8397 42.6763 39.9785 42.5375C40.1172 42.3988 40.3055 42.3208 40.5017 42.3208Z" fill="white"/>
<path fill-rule="evenodd" clip-rule="evenodd" d="M12.9824 29.2129V25.4097H14.4624V29.2129H12.9824ZM61.5116 29.2129H62.9916V25.4097H61.5116V29.2129ZM59.8329 25.4097V29.2129H58.3529V25.4097H59.8329ZM16.1433 25.4097V29.2129H17.6233V25.4097H16.1433ZM20.7449 25.4097V26.9962C20.7449 27.1925 20.8228 27.3807 20.9616 27.5195C21.1004 27.6582 21.2886 27.7362 21.4849 27.7362H54.4889C54.6851 27.7362 54.8733 27.6582 55.0121 27.5195C55.1509 27.3807 55.2289 27.1925 55.2289 26.9962V25.4097H53.7489V26.2562H22.2249V25.4097H20.7449Z" fill="#FF5ABE" style="mix-blend-mode:multiply"/>
<path fill-rule="evenodd" clip-rule="evenodd" d="M12.9824 40.6225V36.8193H14.4624V40.6225H12.9824ZM61.5116 40.6225H62.9916V36.8193H61.5116V40.6225ZM59.8329 36.8193V40.6225H58.3529V36.8193H59.8329ZM16.1433 36.8193V40.6225H17.6233V36.8193H16.1433ZM32.4831 37.8804H21.7934C21.5972 37.8804 21.409 37.9583 21.2702 38.0971C21.1314 38.2359 21.0534 38.4241 21.0534 38.6204C21.0534 38.8166 21.1314 39.0049 21.2702 39.1436C21.409 39.2824 21.5972 39.3604 21.7934 39.3604H32.4831C32.6794 39.3604 32.8676 39.2824 33.0064 39.1436C33.1452 39.0049 33.2231 38.8166 33.2231 38.6204C33.2231 38.4241 33.1452 38.2359 33.0064 38.0971C32.8676 37.9583 32.6794 37.8804 32.4831 37.8804ZM43.2524 37.8804H53.9421C54.1384 37.8804 54.3266 37.9583 54.4654 38.0971C54.6041 38.2359 54.6821 38.4241 54.6821 38.6204C54.6821 38.8166 54.6041 39.0049 54.4654 39.1436C54.3266 39.2824 54.1384 39.3604 53.9421 39.3604H43.2524C43.0562 39.3604 42.868 39.2824 42.7292 39.1436C42.5904 39.0049 42.5124 38.8166 42.5124 38.6204C42.5124 38.4241 42.5904 38.2359 42.7292 38.0971C42.868 37.9583 43.0562 37.8804 43.2524 37.8804Z" fill="#FF5ABE" style="mix-blend-mode:multiply"/>
<path fill-rule="evenodd" clip-rule="evenodd" d="M69.1632 50.8615H62.4585C62.806 50.3387 62.9912 49.725 62.9909 49.0973V48.229H61.5109V49.0984C61.5104 49.5546 61.329 49.9919 61.0064 50.3144C60.6839 50.637 60.2466 50.8184 59.7904 50.8189H16.1822C15.7261 50.8184 15.2887 50.637 14.9662 50.3144C14.6436 49.9919 14.4622 49.5546 14.4617 49.0984V48.229H12.9817V49.0984C12.9814 49.7261 13.1668 50.3399 13.5145 50.8626H6.80641C6.61015 50.8626 6.42192 50.9405 6.28315 51.0793C6.14437 51.2181 6.06641 51.4063 6.06641 51.6026V52.0322H69.9044L69.9044 51.6026C69.9045 51.5052 69.8854 51.4088 69.8482 51.3188C69.811 51.2288 69.7565 51.1471 69.6876 51.0782C69.6188 51.0094 69.537 50.9548 69.447 50.9176C69.357 50.8804 69.2606 50.8613 69.1632 50.8615ZM16.1577 48.229C16.1867 48.3697 16.2562 48.5001 16.3593 48.6032C16.4981 48.742 16.6863 48.82 16.8826 48.82H59.0922C59.2884 48.82 59.4767 48.742 59.6154 48.6032C59.7185 48.5001 59.7881 48.3697 59.817 48.229H16.1577Z" fill="#FF5ABE" style="mix-blend-mode:multiply"/>
<path fill-rule="evenodd" clip-rule="evenodd" d="M67.7961 50.8613H67.7846C67.8812 50.8614 67.9769 50.8805 68.0662 50.9174C68.1562 50.9546 68.2379 51.0091 68.3068 51.078C68.3756 51.1468 68.4302 51.2286 68.4674 51.3186C68.5046 51.4086 68.5236 51.505 68.5235 51.6024L68.5235 52.032H4.69922V53.5086C4.69917 54.3136 4.85769 55.1107 5.16572 55.8544C5.47376 56.5982 5.92527 57.2739 6.49448 57.8431C7.0637 58.4123 7.73946 58.8639 8.48318 59.1719C9.2269 59.4799 10.024 59.6384 10.829 59.6384H62.407C63.3623 59.6361 64.304 59.4116 65.1576 58.9827C66.0112 58.5538 66.7534 57.9322 67.3254 57.1672C68.1156 56.1114 68.5409 54.8273 68.5372 53.5086V51.6024C68.5373 51.505 68.5182 51.4086 68.4811 51.3186C68.4439 51.2286 68.3893 51.1468 68.3204 51.078C68.2516 51.0091 68.1698 50.9546 68.0798 50.9174C67.9899 50.8802 67.8934 50.8611 67.7961 50.8613ZM11.6145 48.2288H13.0808V49.0982C13.0813 49.5544 13.2628 49.9917 13.5853 50.3142C13.9079 50.6368 14.3452 50.8182 14.8013 50.8187H14.815C14.3589 50.8182 13.9215 50.6368 13.599 50.3142C13.2764 49.9917 13.095 49.5544 13.0945 49.0982V40.6225H11.6145V48.2288ZM60.1437 48.2288H61.61V49.0971C61.6103 49.7248 61.4251 50.3385 61.0776 50.8613H61.0913C61.4388 50.3385 61.624 49.7248 61.6237 49.0971V40.6225H60.1437V48.2288ZM61.6237 29.2129V36.8193H60.1437V29.2129H61.6237ZM13.0945 29.2129V36.8193H11.6145V29.2129H13.0945ZM11.6145 25.4097H13.0945V17.2005C13.095 16.7443 13.2764 16.307 13.599 15.9845C13.9215 15.6619 14.3589 15.4805 14.815 15.48H58.4232C58.8794 15.4805 59.3167 15.6619 59.6393 15.9845C59.9618 16.307 60.1432 16.7443 60.1437 17.2005V25.4097H61.6237V17.2005C61.6226 16.352 61.2851 15.5386 60.6851 14.9386C60.0851 14.3386 59.2717 14.0011 58.4232 14H14.815C13.9665 14.0011 13.1531 14.3386 12.5531 14.9386C11.9531 15.5386 11.6156 16.352 11.6145 17.2005V25.4097ZM31.7581 52.3413H41.478V55.1022H31.7581V52.3413ZM67.0561 53.5075C67.056 54.7407 66.566 55.9234 65.6939 56.7954C64.8219 57.6674 63.6391 58.1573 62.4059 58.1573H10.829C10.2184 58.1573 9.61371 58.0371 9.04955 57.8034C8.48539 57.5698 7.97278 57.2273 7.541 56.7955C7.10922 56.3637 6.76672 55.8511 6.53306 55.2869C6.29941 54.7228 6.17917 54.1181 6.17922 53.5075V52.3413H30.2781V55.8422C30.2781 56.0384 30.356 56.2267 30.4948 56.3654C30.6336 56.5042 30.8218 56.5822 31.0181 56.5822H42.218C42.4142 56.5822 42.6024 56.5042 42.7412 56.3654C42.88 56.2267 42.958 56.0384 42.958 55.8422V52.3413H67.0561V53.5075ZM57.7113 48.8198H57.725C57.9212 48.8198 58.1095 48.7418 58.2483 48.603C58.387 48.4642 58.465 48.276 58.465 48.0798V40.6225H56.985V47.3398H16.2554V40.6225H14.7754V48.0798C14.7754 48.1302 14.7805 48.1801 14.7906 48.2288H58.4362C58.4072 48.3695 58.3377 48.4999 58.2346 48.603C58.0958 48.7418 57.9076 48.8198 57.7113 48.8198ZM58.465 29.2129V36.8193H56.985V29.2129H58.465ZM16.2554 29.2129V36.8193H14.7754V29.2129H16.2554ZM14.7754 25.4097H16.2554V18.9571H56.985V25.4097H58.465V18.2171C58.465 18.0208 58.387 17.8326 58.2483 17.6938C58.1095 17.555 57.9212 17.4771 57.725 17.4771H15.5154C15.3191 17.4771 15.1309 17.555 14.9921 17.6938C14.8534 17.8326 14.7754 18.0208 14.7754 18.2171V25.4097ZM20.117 22.7412H53.121C53.3172 22.7412 53.5054 22.8192 53.6442 22.958C53.783 23.0967 53.861 23.285 53.861 23.4812V25.4097H52.381V24.2212H20.857V25.4097H19.377V23.4812C19.377 23.285 19.4549 23.0967 19.5937 22.958C19.7325 22.8192 19.9207 22.7412 20.117 22.7412ZM20.4255 33.7471H31.1152C31.3115 33.7471 31.4997 33.825 31.6385 33.9638C31.7773 34.1026 31.8552 34.2908 31.8552 34.4871C31.8552 34.6833 31.7773 34.8716 31.6385 35.0103C31.4997 35.1491 31.3115 35.2271 31.1152 35.2271H20.4255C20.2293 35.2271 20.0411 35.1491 19.9023 35.0103C19.7635 34.8716 19.6855 34.6833 19.6855 34.4871C19.6855 34.2908 19.7635 34.1026 19.9023 33.9638C20.0411 33.825 20.2293 33.7471 20.4255 33.7471ZM31.1152 42.3208H20.4255C20.2293 42.3208 20.0411 42.3988 19.9023 42.5375C19.7635 42.6763 19.6855 42.8645 19.6855 43.0608C19.6855 43.2571 19.7635 43.4453 19.9023 43.5841C20.0411 43.7228 20.2293 43.8008 20.4255 43.8008H31.1152C31.3115 43.8008 31.4997 43.7228 31.6385 43.5841C31.7773 43.4453 31.8552 43.2571 31.8552 43.0608C31.8552 42.8645 31.7773 42.6763 31.6385 42.5375C31.4997 42.3988 31.3115 42.3208 31.1152 42.3208ZM52.5742 33.7471H41.8845C41.6883 33.7471 41.5001 33.825 41.3613 33.9638C41.2225 34.1026 41.1445 34.2908 41.1445 34.4871C41.1445 34.6833 41.2225 34.8716 41.3613 35.0103C41.5001 35.1491 41.6883 35.2271 41.8845 35.2271H52.5742C52.7705 35.2271 52.9587 35.1491 53.0975 35.0103C53.2362 34.8716 53.3142 34.6833 53.3142 34.4871C53.3142 34.2908 53.2362 34.1026 53.0975 33.9638C52.9587 33.825 52.7705 33.7471 52.5742 33.7471ZM41.8845 42.3208H52.5742C52.7705 42.3208 52.9587 42.3988 53.0975 42.5375C53.2362 42.6763 53.3142 42.8645 53.3142 43.0608C53.3142 43.2571 53.2362 43.4453 53.0975 43.5841C52.9587 43.7228 52.7705 43.8008 52.5742 43.8008H41.8845C41.6883 43.8008 41.5001 43.7228 41.3613 43.5841C41.2225 43.4453 41.1445 43.2571 41.1445 43.0608C41.1445 42.8645 41.2225 42.6763 41.3613 42.5375C41.5001 42.3988 41.6883 42.3208 41.8845 42.3208Z" fill="#FF5ABE" style="mix-blend-mode:multiply"/>
<path fill-rule="evenodd" clip-rule="evenodd" d="M11.5996 29.2129V25.4097H13.0796V29.2129H11.5996ZM60.1288 29.2129H61.6088V25.4097H60.1288V29.2129ZM58.4501 25.4097V29.2129H56.9701V25.4097H58.4501ZM14.7605 25.4097V29.2129H16.2405V25.4097H14.7605ZM19.362 25.4097V26.9962C19.362 27.1925 19.44 27.3807 19.5788 27.5195C19.7176 27.6582 19.9058 27.7362 20.102 27.7362H53.106C53.3023 27.7362 53.4905 27.6582 53.6293 27.5195C53.7681 27.3807 53.846 27.1925 53.846 26.9962V25.4097H52.366V26.2562H20.842V25.4097H19.362Z" fill="#5AFFBA" style="mix-blend-mode:multiply"/>
<path fill-rule="evenodd" clip-rule="evenodd" d="M11.5996 40.6225V36.8193H13.0796V40.6225H11.5996ZM60.1288 40.6225H61.6088V36.8193H60.1288V40.6225ZM58.4501 36.8193V40.6225H56.9701V36.8193H58.4501ZM14.7605 36.8193V40.6225H16.2405V36.8193H14.7605ZM31.1003 37.8804H20.4106C20.2144 37.8804 20.0262 37.9583 19.8874 38.0971C19.7486 38.2359 19.6706 38.4241 19.6706 38.6204C19.6706 38.8166 19.7486 39.0049 19.8874 39.1436C20.0262 39.2824 20.2144 39.3604 20.4106 39.3604H31.1003C31.2966 39.3604 31.4848 39.2824 31.6236 39.1436C31.7623 39.0049 31.8403 38.8166 31.8403 38.6204C31.8403 38.4241 31.7623 38.2359 31.6236 38.0971C31.4848 37.9583 31.2966 37.8804 31.1003 37.8804ZM41.8696 37.8804H52.5593C52.7555 37.8804 52.9438 37.9583 53.0826 38.0971C53.2213 38.2359 53.2993 38.4241 53.2993 38.6204C53.2993 38.8166 53.2213 39.0049 53.0826 39.1436C52.9438 39.2824 52.7555 39.3604 52.5593 39.3604H41.8696C41.6734 39.3604 41.4851 39.2824 41.3464 39.1436C41.2076 39.0049 41.1296 38.8166 41.1296 38.6204C41.1296 38.4241 41.2076 38.2359 41.3464 38.0971C41.4851 37.9583 41.6734 37.8804 41.8696 37.8804Z" fill="#5AFFBA" style="mix-blend-mode:multiply"/>
<path fill-rule="evenodd" clip-rule="evenodd" d="M67.7824 50.8615H61.0776C61.4251 50.3387 61.6103 49.725 61.61 49.0973V48.229H60.13V49.0984C60.1296 49.5546 59.9481 49.9919 59.6256 50.3144C59.303 50.637 58.8657 50.8184 58.4095 50.8189H14.8013C14.3452 50.8184 13.9079 50.637 13.5853 50.3144C13.2628 49.9919 13.0813 49.5546 13.0808 49.0984V48.229H11.6008V49.0984C11.6005 49.7261 11.7859 50.3399 12.1336 50.8626H5.42555C5.22929 50.8626 5.04106 50.9405 4.90229 51.0793C4.76351 51.2181 4.68555 51.4063 4.68555 51.6026V52.0322H68.5235L68.5235 51.6026C68.5236 51.5052 68.5046 51.4088 68.4674 51.3188C68.4302 51.2288 68.3756 51.1471 68.3068 51.0782C68.2379 51.0094 68.1562 50.9548 68.0662 50.9176C67.9762 50.8804 67.8798 50.8613 67.7824 50.8615ZM14.7769 48.229C14.8058 48.3697 14.8754 48.5001 14.9785 48.6032C15.1172 48.742 15.3055 48.82 15.5017 48.82H57.7113C57.9076 48.82 58.0958 48.742 58.2346 48.6032C58.3377 48.5001 58.4072 48.3697 58.4362 48.229H14.7769Z" fill="#5AFFBA" style="mix-blend-mode:multiply"/>
<path fill-rule="evenodd" clip-rule="evenodd" d="M60.2409 48.2288V40.6225H58.7609V48.2288H60.2409ZM11.7117 48.2288V40.6225H10.2317V48.2288H11.7117ZM3.31641 52.032V53.5086C3.31636 54.3136 3.47488 55.1107 3.78291 55.8544C4.09094 56.5982 4.54246 57.2739 5.11167 57.8431C5.68089 58.4123 6.35665 58.8639 7.10037 59.1719C7.84409 59.4799 8.64121 59.6384 9.4462 59.6384H61.0242C61.9795 59.6361 62.9212 59.4116 63.7748 58.9827C64.6284 58.5538 65.3705 57.9322 65.9426 57.1672C66.7328 56.1114 67.1581 54.8273 67.1544 53.5086L67.1544 52.032H3.31641ZM60.2409 29.2129V36.8193H58.7609V29.2129H60.2409ZM11.7117 29.2129V36.8193H10.2317V29.2129H11.7117ZM10.2317 25.4097H11.7117V17.2005C11.7122 16.7443 11.8936 16.307 12.2162 15.9845C12.5387 15.6619 12.9761 15.4805 13.4322 15.48H57.0404C57.4966 15.4805 57.9339 15.6619 58.2564 15.9845C58.579 16.307 58.7604 16.7443 58.7609 17.2005V25.4097H60.2409V17.2005C60.2398 16.352 59.9023 15.5386 59.3023 14.9386C58.7023 14.3386 57.8889 14.0011 57.0404 14H13.4322C12.5837 14.0011 11.7703 14.3386 11.1703 14.9386C10.5703 15.5386 10.2328 16.352 10.2317 17.2005V25.4097ZM30.3752 52.3413H40.0951V55.1022H30.3752V52.3413ZM65.6732 53.5075C65.6731 54.7407 65.1832 55.9234 64.3111 56.7954C63.439 57.6674 62.2563 58.1573 61.0231 58.1573H9.4462C8.83556 58.1573 8.2309 58.0371 7.66674 57.8034C7.10258 57.5698 6.58997 57.2273 6.15819 56.7955C5.72641 56.3637 5.38391 55.8511 5.15025 55.2869C4.91659 54.7228 4.79636 54.1181 4.79641 53.5075V52.3413H28.8952V55.8422C28.8952 56.0384 28.9732 56.2267 29.112 56.3654C29.2508 56.5042 29.439 56.5822 29.6352 56.5822H40.8351C41.0314 56.5822 41.2196 56.5042 41.3584 56.3654C41.4972 56.2267 41.5751 56.0384 41.5751 55.8422V52.3413H65.6732V53.5075ZM57.067 48.2288C57.077 48.1801 57.0822 48.1302 57.0822 48.0798V40.6225H55.6022V47.3398H14.8726V40.6225H13.3926V48.0798C13.3926 48.1302 13.3977 48.1801 13.4077 48.2288H57.067ZM57.0822 29.2129V36.8193H55.6022V29.2129H57.0822ZM14.8726 29.2129V36.8193H13.3926V29.2129H14.8726ZM13.3926 25.4097H14.8726V18.9571H55.6022V25.4097H57.0822V18.2171C57.0822 18.0208 57.0042 17.8326 56.8654 17.6938C56.7267 17.555 56.5384 17.4771 56.3422 17.4771H14.1326C13.9363 17.4771 13.7481 17.555 13.6093 17.6938C13.4705 17.8326 13.3926 18.0208 13.3926 18.2171V25.4097ZM18.7341 22.7412H51.7381C51.9344 22.7412 52.1226 22.8192 52.2614 22.958C52.4002 23.0967 52.4781 23.285 52.4781 23.4812V25.4097H50.9981V24.2212H19.4741V25.4097H17.9941V23.4812C17.9941 23.285 18.0721 23.0967 18.2109 22.958C18.3497 22.8192 18.5379 22.7412 18.7341 22.7412ZM19.0427 33.7471H29.7324C29.9287 33.7471 30.1169 33.825 30.2557 33.9638C30.3944 34.1026 30.4724 34.2908 30.4724 34.4871C30.4724 34.6833 30.3944 34.8716 30.2557 35.0103C30.1169 35.1491 29.9287 35.2271 29.7324 35.2271H19.0427C18.8465 35.2271 18.6583 35.1491 18.5195 35.0103C18.3807 34.8716 18.3027 34.6833 18.3027 34.4871C18.3027 34.2908 18.3807 34.1026 18.5195 33.9638C18.6583 33.825 18.8465 33.7471 19.0427 33.7471ZM29.7324 42.3208H19.0427C18.8465 42.3208 18.6583 42.3988 18.5195 42.5375C18.3807 42.6763 18.3027 42.8645 18.3027 43.0608C18.3027 43.2571 18.3807 43.4453 18.5195 43.5841C18.6583 43.7228 18.8465 43.8008 19.0427 43.8008H29.7324C29.9287 43.8008 30.1169 43.7228 30.2557 43.5841C30.3944 43.4453 30.4724 43.2571 30.4724 43.0608C30.4724 42.8645 30.3944 42.6763 30.2557 42.5375C30.1169 42.3988 29.9287 42.3208 29.7324 42.3208ZM51.1914 33.7471H40.5017C40.3055 33.7471 40.1172 33.825 39.9785 33.9638C39.8397 34.1026 39.7617 34.2908 39.7617 34.4871C39.7617 34.6833 39.8397 34.8716 39.9785 35.0103C40.1172 35.1491 40.3055 35.2271 40.5017 35.2271H51.1914C51.3876 35.2271 51.5759 35.1491 51.7146 35.0103C51.8534 34.8716 51.9314 34.6833 51.9314 34.4871C51.9314 34.2908 51.8534 34.1026 51.7146 33.9638C51.5759 33.825 51.3876 33.7471 51.1914 33.7471ZM40.5017 42.3208H51.1914C51.3876 42.3208 51.5759 42.3988 51.7146 42.5375C51.8534 42.6763 51.9314 42.8645 51.9314 43.0608C51.9314 43.2571 51.8534 43.4453 51.7146 43.5841C51.5759 43.7228 51.3876 43.8008 51.1914 43.8008H40.5017C40.3055 43.8008 40.1172 43.7228 39.9785 43.5841C39.8397 43.4453 39.7617 43.2571 39.7617 43.0608C39.7617 42.8645 39.8397 42.6763 39.9785 42.5375C40.1172 42.3988 40.3055 42.3208 40.5017 42.3208Z" fill="#5AFFBA" style="mix-blend-mode:multiply"/>
</svg>
