<svg width="443" height="443" viewBox="0 0 443 443" fill="none" xmlns="http://www.w3.org/2000/svg">
<g opacity="0.4">
<rect opacity="0.0344828" x="38.2709" y="343.078" width="280.654" height="338.388" transform="rotate(-84 38.2709 343.078)" stroke="white" stroke-width="2"/>
<rect opacity="0.0689655" x="32.1431" y="333.337" width="280.654" height="338.388" transform="rotate(-81 32.1431 333.337)" stroke="white" stroke-width="2"/>
<rect opacity="0.103448" x="26.5337" y="323.288" width="280.654" height="338.388" transform="rotate(-78 26.5337 323.288)" stroke="white" stroke-width="2"/>
<rect opacity="0.137931" x="21.4581" y="312.961" width="280.654" height="338.388" transform="rotate(-75 21.4581 312.961)" stroke="white" stroke-width="2"/>
<rect opacity="0.172414" x="16.928" y="302.38" width="280.654" height="338.388" transform="rotate(-72 16.928 302.38)" stroke="white" stroke-width="2"/>
<rect opacity="0.206897" x="12.9599" y="291.579" width="280.654" height="338.388" transform="rotate(-69 12.9599 291.579)" stroke="white" stroke-width="2"/>
<rect opacity="0.241379" x="9.56442" y="280.583" width="280.654" height="338.388" transform="rotate(-66 9.56442 280.583)" stroke="white" stroke-width="2"/>
<rect opacity="0.275862" x="6.74636" y="269.426" width="280.654" height="338.388" transform="rotate(-63 6.74636 269.426)" stroke="white" stroke-width="2"/>
<rect opacity="0.310345" x="4.51642" y="258.135" width="280.654" height="338.388" transform="rotate(-60 4.51642 258.135)" stroke="white" stroke-width="2"/>
<rect opacity="0.344828" x="2.88038" y="246.744" width="280.654" height="338.388" transform="rotate(-57 2.88038 246.744)" stroke="white" stroke-width="2"/>
<rect opacity="0.37931" x="1.84211" y="235.282" width="280.654" height="338.388" transform="rotate(-54 1.84211 235.282)" stroke="white" stroke-width="2"/>
<rect opacity="0.413793" x="1.40647" y="223.782" width="280.654" height="338.388" transform="rotate(-51 1.40647 223.782)" stroke="white" stroke-width="2"/>
<rect opacity="0.448276" x="1.57243" y="212.276" width="280.654" height="338.388" transform="rotate(-48 1.57243 212.276)" stroke="white" stroke-width="2"/>
<rect opacity="0.482759" x="2.34097" y="200.793" width="280.654" height="338.388" transform="rotate(-45 2.34097 200.793)" stroke="white" stroke-width="2"/>
<rect opacity="0.517241" x="3.70915" y="189.366" width="280.654" height="338.388" transform="rotate(-42 3.70915 189.366)" stroke="white" stroke-width="2"/>
<rect opacity="0.551724" x="5.67307" y="178.028" width="280.654" height="338.388" transform="rotate(-39 5.67307 178.028)" stroke="white" stroke-width="2"/>
<rect opacity="0.586207" x="8.22786" y="166.807" width="280.654" height="338.388" transform="rotate(-36 8.22786 166.807)" stroke="white" stroke-width="2"/>
<rect opacity="0.62069" x="11.3667" y="155.735" width="280.654" height="338.388" transform="rotate(-33 11.3667 155.735)" stroke="white" stroke-width="2"/>
<rect opacity="0.655172" x="15.0828" y="144.843" width="280.654" height="338.388" transform="rotate(-30 15.0828 144.843)" stroke="white" stroke-width="2"/>
<rect opacity="0.689655" x="19.3606" y="134.16" width="280.654" height="338.388" transform="rotate(-27 19.3606 134.16)" stroke="white" stroke-width="2"/>
<rect opacity="0.724138" x="24.1933" y="123.714" width="280.654" height="338.388" transform="rotate(-24 24.1933 123.714)" stroke="white" stroke-width="2"/>
<rect opacity="0.758621" x="29.5644" y="113.538" width="280.654" height="338.388" transform="rotate(-21 29.5644 113.538)" stroke="white" stroke-width="2"/>
<rect opacity="0.793103" x="35.4622" y="103.656" width="280.654" height="338.388" transform="rotate(-18 35.4622 103.656)" stroke="white" stroke-width="2"/>
<rect opacity="0.827586" x="41.8693" y="94.0963" width="280.654" height="338.388" transform="rotate(-15 41.8693 94.0963)" stroke="white" stroke-width="2"/>
<rect opacity="0.862069" x="48.7671" y="84.885" width="280.654" height="338.388" transform="rotate(-12 48.7671 84.885)" stroke="white" stroke-width="2"/>
<rect opacity="0.896552" x="56.1383" y="76.0461" width="280.654" height="338.388" transform="rotate(-9 56.1383 76.0461)" stroke="white" stroke-width="2"/>
<rect opacity="0.931035" x="63.9614" y="67.6068" width="280.654" height="338.388" transform="rotate(-6 63.9614 67.6068)" stroke="white" stroke-width="2"/>
<rect opacity="0.965517" x="72.217" y="59.5864" width="280.654" height="338.388" transform="rotate(-3 72.217 59.5864)" stroke="white" stroke-width="2"/>
<rect x="80.8779" y="52.0107" width="280.654" height="338.388" stroke="white" stroke-width="2"/>
</g>
</svg>
