<svg width="19" height="18" viewBox="0 0 19 18" fill="none" xmlns="http://www.w3.org/2000/svg">
<path d="M9.5 5.25C9.64918 5.25 9.79226 5.30926 9.89775 5.41475C10.0032 5.52024 10.0625 5.66332 10.0625 5.8125V9.1875C10.0625 9.33668 10.0032 9.47976 9.89775 9.58525C9.79226 9.69074 9.64918 9.75 9.5 9.75C9.35082 9.75 9.20774 9.69074 9.10225 9.58525C8.99676 9.47976 8.9375 9.33668 8.9375 9.1875V5.8125C8.9375 5.66332 8.99676 5.52024 9.10225 5.41475C9.20774 5.30926 9.35082 5.25 9.5 5.25ZM9.5 12.75C9.69891 12.75 9.88968 12.671 10.0303 12.5303C10.171 12.3897 10.25 12.1989 10.25 12C10.25 11.8011 10.171 11.6103 10.0303 11.4697C9.88968 11.329 9.69891 11.25 9.5 11.25C9.30109 11.25 9.11032 11.329 8.96967 11.4697C8.82902 11.6103 8.75 11.8011 8.75 12C8.75 12.1989 8.82902 12.3897 8.96967 12.5303C9.11032 12.671 9.30109 12.75 9.5 12.75Z" fill="white"/>
<path d="M5.996 1.1025C6.04816 1.05022 6.11011 1.00873 6.17832 0.980422C6.24653 0.95211 6.31965 0.937524 6.3935 0.9375H12.6065C12.7557 0.9375 12.8983 0.99675 13.004 1.1025L17.3975 5.496C17.5033 5.601 17.5625 5.7435 17.5625 5.8935V12.1065C17.5625 12.1804 17.5479 12.2535 17.5196 12.3217C17.4913 12.3899 17.4498 12.4518 17.3975 12.504L13.004 16.8975C12.9518 16.9498 12.8899 16.9913 12.8217 17.0196C12.7535 17.0479 12.6804 17.0625 12.6065 17.0625H6.3935C6.31965 17.0625 6.24653 17.0479 6.17832 17.0196C6.11011 16.9913 6.04816 16.9498 5.996 16.8975L1.6025 12.504C1.55022 12.4518 1.50873 12.3899 1.48042 12.3217C1.45211 12.2535 1.43752 12.1804 1.4375 12.1065V5.8935C1.4375 5.74425 1.49675 5.60175 1.6025 5.496L5.996 1.1025ZM6.626 2.0625L2.5625 6.12675V11.8733L6.62675 15.9375H12.3733L16.4375 11.874V6.126L12.374 2.0625H6.626Z" fill="white"/>
</svg>
