<svg width="19" height="18" viewBox="0 0 19 18" fill="none" xmlns="http://www.w3.org/2000/svg">
<path fill-rule="evenodd" clip-rule="evenodd" d="M9.5 3.57692C7.9291 3.57692 6.42254 4.20096 5.31175 5.31175C4.20096 6.42254 3.57692 7.9291 3.57692 9.5C3.57692 11.0709 4.20096 12.5774 5.31175 13.6882C6.42254 14.799 7.9291 15.4231 9.5 15.4231V16.5C7.64348 16.5 5.863 15.7625 4.55025 14.4497C3.2375 13.137 2.5 11.3565 2.5 9.5C2.5 7.64348 3.2375 5.863 4.55025 4.55025C5.86301 3.2375 7.64348 2.5 9.5 2.5V3.57692Z" fill="white"/>
<path fill-rule="evenodd" clip-rule="evenodd" d="M9.50001 2.5C9.72954 2.5 9.95852 2.51129 10.1861 2.53371L10.0806 3.60544C9.88798 3.58647 9.69423 3.57692 9.50001 3.57692V2.5ZM11.532 2.80142C11.7509 2.86781 11.9667 2.945 12.1788 3.03284C12.3909 3.12068 12.5981 3.21874 12.7998 3.32655L12.2921 4.27631C12.1215 4.18509 11.9461 4.10212 11.7667 4.02779C11.5872 3.95346 11.4046 3.88814 11.2194 3.83197L11.532 2.80142ZM13.9408 4.08893C14.1176 4.23402 14.2874 4.38795 14.4498 4.55025C14.6121 4.71256 14.766 4.88245 14.9111 5.05925L14.0786 5.74244C13.9558 5.59285 13.8256 5.44909 13.6883 5.31175C13.5509 5.17441 13.4072 5.04417 13.2576 4.9214L13.9408 4.08893ZM15.6735 6.20022C15.7813 6.40193 15.8793 6.60915 15.9672 6.82122C16.055 7.03328 16.1322 7.24915 16.1986 7.46801L15.168 7.78062C15.1119 7.59543 15.0465 7.41278 14.9722 7.23334C14.8979 7.0539 14.8149 6.87855 14.7237 6.70788L15.6735 6.20022ZM16.4663 8.81388C16.4887 9.04149 16.5 9.27046 16.5 9.5C16.5 9.72954 16.4887 9.95851 16.4663 10.1861L15.3946 10.0806C15.4135 9.88797 15.4231 9.69422 15.4231 9.5C15.4231 9.30577 15.4135 9.11203 15.3946 8.91944L16.4663 8.81388ZM16.1986 11.532C16.1322 11.7509 16.055 11.9667 15.9672 12.1788C15.8793 12.3908 15.7813 12.5981 15.6735 12.7998L14.7237 12.2921C14.8149 12.1214 14.8979 11.9461 14.9722 11.7667C15.0465 11.5872 15.1119 11.4046 15.168 11.2194L16.1986 11.532ZM14.9111 13.9408C14.766 14.1175 14.6121 14.2874 14.4497 14.4497C14.2874 14.6121 14.1175 14.766 13.9408 14.9111L13.2576 14.0786C13.4072 13.9558 13.5509 13.8256 13.6882 13.6882C13.8256 13.5509 13.9558 13.4072 14.0786 13.2576L14.9111 13.9408ZM12.7998 15.6734C12.5981 15.7813 12.3908 15.8793 12.1788 15.9672C11.9667 16.055 11.7509 16.1322 11.532 16.1986L11.2194 15.168C11.4046 15.1118 11.5872 15.0465 11.7667 14.9722C11.9461 14.8979 12.1214 14.8149 12.2921 14.7237L12.7998 15.6734ZM10.1861 16.4663C9.95851 16.4887 9.72954 16.5 9.5 16.5V15.4231C9.69423 15.4231 9.88797 15.4135 10.0806 15.3945L10.1861 16.4663Z" fill="white"/>
</svg>
