<svg width="30" height="29" viewBox="0 0 30 29" fill="none" xmlns="http://www.w3.org/2000/svg">
<path d="M14.3971 18.822V8.36996L11.5817 11.1854L10.7262 10.3166L15.0013 6.0415L19.2764 10.3166L18.4221 11.1866L15.6055 8.36996V18.822H14.3971ZM8.49443 22.9582C7.93859 22.9582 7.47459 22.7721 7.10243 22.3999C6.72945 22.0269 6.54297 21.5625 6.54297 21.0067V18.0789H7.7513V21.0067C7.7513 21.192 7.82864 21.3624 7.9833 21.5178C8.13877 21.6725 8.30915 21.7498 8.49443 21.7498H21.5082C21.6935 21.7498 21.8638 21.6725 22.0193 21.5178C22.174 21.3624 22.2513 21.192 22.2513 21.0067V18.0789H23.4596V21.0067C23.4596 21.5625 23.2736 22.0265 22.9014 22.3987C22.5284 22.7717 22.064 22.9582 21.5082 22.9582H8.49443Z" fill="white"/>
</svg>
