<svg width="32" height="32" viewBox="0 0 32 32" fill="none" xmlns="http://www.w3.org/2000/svg">
<path d="M16 15.1801C14.9004 15.1801 13.9586 14.7881 13.1746 14.0041C12.3906 13.2201 11.9991 12.2787 12 11.1801C12 10.0796 12.3915 9.13739 13.1746 8.35339C13.9577 7.57116 14.8995 7.18005 16 7.18005C17.1004 7.18005 18.0422 7.57116 18.8253 8.35339C19.6084 9.13739 20 10.0796 20 11.1801C20 12.2796 19.6084 13.2209 18.8253 14.0041C18.0422 14.7872 17.1004 15.1792 16 15.1801ZM6.66663 24.8201V22.6267C6.66663 22.0765 6.82663 21.5618 7.14663 21.0827C7.46751 20.6027 7.89863 20.2303 8.43996 19.9654C9.69863 19.3618 10.9577 18.9094 12.2173 18.6081C13.4777 18.3058 14.7386 18.1547 16 18.1547C17.2622 18.1547 18.5231 18.3058 19.7826 18.6081C21.0422 18.9103 22.3008 19.3627 23.5586 19.9654C24.1008 20.2303 24.532 20.6027 24.852 21.0827C25.1728 21.5618 25.3333 22.0765 25.3333 22.6267V24.8214L6.66663 24.8201ZM7.99996 23.4867H24V22.6254C24 22.3303 23.9048 22.0525 23.7146 21.7921C23.5235 21.5325 23.2595 21.3129 22.9226 21.1334C21.8257 20.6018 20.6942 20.1947 19.528 19.9121C18.3635 19.6285 17.1875 19.4867 16 19.4867C14.8133 19.4867 13.6373 19.6285 12.472 19.9121C11.3057 20.1947 10.1742 20.6018 9.07729 21.1334C8.73951 21.3129 8.47552 21.5325 8.28529 21.7921C8.09507 22.0525 7.99996 22.3307 7.99996 22.6267V23.4867ZM16 13.8467C16.7333 13.8467 17.3613 13.5854 17.884 13.0627C18.4066 12.5401 18.6675 11.9125 18.6666 11.1801C18.6666 10.4467 18.4057 9.81872 17.884 9.29605C17.3622 8.77339 16.7342 8.5125 16 8.51339C15.2666 8.51339 14.6391 8.77428 14.1173 9.29605C13.5955 9.81783 13.3342 10.4458 13.3333 11.1801C13.3333 11.9134 13.5946 12.5409 14.1173 13.0627C14.64 13.5845 15.2675 13.8458 16 13.8467Z" fill="white"/>
</svg>
