<?xml version="1.0" encoding="utf-8"?><svg viewBox="0 0 469 423" xmlns="http://www.w3.org/2000/svg" xmlns:xlink="http://www.w3.org/1999/xlink"><style>:root>svg{display:none}:root>svg:target{display:block}</style><svg viewBox="0 0 39 39" id="arrowLink" xmlns="http://www.w3.org/2000/svg"><path d="M13 9.75h16.25V26m0-16.25l-19.5 19.5 19.5-19.5z"/></svg><svg viewBox="0 0 16 11" id="check" xmlns="http://www.w3.org/2000/svg"><path fill-rule="evenodd" clip-rule="evenodd" d="M6.845 7.953L14.54 0 16 1.548 6.854 11 0 4.008 1.45 2.45l5.395 5.503z"/></svg><svg viewBox="0 0 74 74" id="chooseOne" xmlns="http://www.w3.org/2000/svg"><g clip-path="url(#ca)" fill-rule="evenodd" clip-rule="evenodd"><path d="M3.93 26.68h1.485v-5.17H3.93v5.17zm63.325-5.17h-1.49v5.17h1.49v-5.17zm-48.94 2.586a.741.741 0 010-.57.742.742 0 01.687-.46h33.183a.744.744 0 110 1.49H19.002a.741.741 0 01-.688-.46zM3.93 42.19h1.485v-5.17H3.93v5.17zm68.214-5.17h-1.556a2.841 2.841 0 01-.081 2.235l-.528 1.11a.745.745 0 00.424 1.02l1.156.413c.263.094.509.227.731.391h2.004a4.281 4.281 0 00-2.24-1.795l-.38-.134.174-.364a4.335 4.335 0 00.296-2.877zm-18.235 5.17h1.571a6.437 6.437 0 0112.033 0h1.57a7.931 7.931 0 00-4.909-5.17h-5.36a7.928 7.928 0 00-4.905 5.17zm-1.504-5.17h-1.547a4.336 4.336 0 00.291 2.875l.174.363-.38.135a4.336 4.336 0 00-2.22 1.796h1.987c.222-.164.468-.297.731-.391l1.157-.412a.743.743 0 00.422-1.02l-.526-1.11a2.84 2.84 0 01-.089-2.236zm-34.063 0h25.233a.745.745 0 01-.66 1.02H19.002a.746.746 0 01-.66-1.02zm53.603 15.509h-1.673a2.843 2.843 0 01-3.554.944l-1.11-.526a.743.743 0 00-1.02.421l-.412 1.157a2.843 2.843 0 01-5.357 0l-.41-1.157a.743.743 0 00-1.022-.422l-1.109.527a2.84 2.84 0 01-3.553-.944H4.396a.744.744 0 00.279.053h46.373c.22.526.542 1.003.947 1.405a4.275 4.275 0 004.445 1.04V57.7h1.492v-1.657a4.336 4.336 0 002.222 1.657h2.688a4.342 4.342 0 002.222-1.657V57.7h1.488v-2.683a4.336 4.336 0 005.393-2.487z"/><path d="M69.738 35.441c.353.472.605 1.01.743 1.578h-1.556a2.842 2.842 0 00-3.871-1.543l-1.11.526a.744.744 0 01-1.02-.428l-.411-1.156a2.843 2.843 0 00-5.356 0l-.41 1.156a.742.742 0 01-1.023.422l-1.108-.526a2.84 2.84 0 00-3.874 1.55h-1.547a4.336 4.336 0 016.063-2.897l.36.17.137-.38a4.286 4.286 0 014.08-2.88 4.29 4.29 0 014.08 2.88l.134.38.054-.026V26.68h1.489v7.077a4.335 4.335 0 014.146 1.685zm2.893 6.748c.424.685.647 1.478.64 2.287a4.286 4.286 0 01-2.88 4.08l-.38.134.174.364a4.335 4.335 0 01.098 3.475h-1.674a2.84 2.84 0 00.232-2.842l-.528-1.11a.748.748 0 01.424-1.02l1.156-.412h.003a2.842 2.842 0 00.73-4.956h2.005zM51.062 52.53a2.84 2.84 0 01-.231-2.842l.526-1.11a.742.742 0 00-.422-1.02l-1.157-.412a2.842 2.842 0 01-.71-4.97l-.02.014H47.06a4.336 4.336 0 002.22 6.365l.38.135-.174.364a4.355 4.355 0 00-.423 2.034l-45.31.001V42.19H2.266v9.65a.744.744 0 00.46.687l.007.003h48.328zm3.716 5.17v9.595a.744.744 0 001.31.483l3.745-4.392 3.745 4.392a.743.743 0 001.311-.483V57.7h-1.487v7.562L60.4 61.743a.744.744 0 00-1.133 0l-2.998 3.518v-7.562h-1.491zm3.714 0a4.335 4.335 0 002.687 0h-2.687zM2.267 37.019V26.68h1.485v10.34H2.267zM65.59 21.51V6.745A.744.744 0 0064.847 6H3.012a.746.746 0 00-.745.744V21.51h1.485V7.49h60.35v14.02h1.49zM52.06 46.023a7.924 7.924 0 01.185-3.833h1.571l.023-.06a6.446 6.446 0 00.048 4.808 6.436 6.436 0 005.946 3.973 6.442 6.442 0 006.016-8.72h1.57l-.006-.018a7.924 7.924 0 11-15.353 3.85zm5.09-9.003a7.923 7.923 0 015.36 0h-5.36zM26.562 14.857a.743.743 0 00-.744-.744H9.807a.744.744 0 100 1.489h16.011a.744.744 0 00.744-.745zm20.07 15.696a.741.741 0 00-.745-.744H17.339a.744.744 0 100 1.488h28.548a.743.743 0 00.744-.744zM17.338 36.55h23.913a.746.746 0 01.66.47H16.679a.745.745 0 01.66-.47z"/><path d="M2.267 26.68h1.485v-5.17H2.267v5.17zm63.325-5.17h-1.49v5.17h1.49v-5.17zM16.65 24.096a.743.743 0 01.403-.973.744.744 0 01.285-.056h33.183a.744.744 0 110 1.488H17.339a.742.742 0 01-.688-.46zM2.267 42.19h1.485v-5.17H2.267v5.17zm68.214-5.17h-1.556a2.833 2.833 0 01-.081 2.235l-.528 1.11a.748.748 0 00.423 1.02l1.157.413c.263.094.509.227.73.391h2.005a4.281 4.281 0 00-2.24-1.795l-.38-.134.174-.364a4.335 4.335 0 00.296-2.877zm-18.235 5.17h1.571a6.437 6.437 0 0112.033 0h1.57a7.931 7.931 0 00-4.909-5.17h-5.36a7.929 7.929 0 00-4.905 5.17zm-1.504-5.17h-1.547a4.336 4.336 0 00.291 2.875l.174.363-.38.135a4.336 4.336 0 00-2.22 1.796h1.987c.222-.164.468-.297.731-.391l1.157-.412a.742.742 0 00.422-1.02l-.526-1.11a2.84 2.84 0 01-.089-2.236zm-34.063 0h25.233a.745.745 0 01-.66 1.02H17.339a.746.746 0 01-.66-1.02zm53.603 15.509H68.61a2.843 2.843 0 01-3.554.944l-1.11-.526a.743.743 0 00-1.02.421l-.412 1.157a2.842 2.842 0 01-5.357 0l-.41-1.157a.743.743 0 00-1.022-.422l-1.109.527a2.84 2.84 0 01-3.553-.944H2.733a.744.744 0 00.279.053h46.373c.22.526.542 1.003.946 1.405a4.275 4.275 0 004.446 1.04V57.7h1.492v-1.657A4.336 4.336 0 0058.49 57.7h2.688a4.342 4.342 0 002.222-1.657V57.7h1.488v-2.683a4.336 4.336 0 005.393-2.487z"/><path d="M68.075 35.441c.353.472.605 1.01.743 1.578h-1.556a2.842 2.842 0 00-3.871-1.543l-1.11.526a.744.744 0 01-1.02-.428l-.411-1.156a2.843 2.843 0 00-5.356 0l-.41 1.156a.742.742 0 01-1.023.422l-1.108-.526a2.84 2.84 0 00-3.874 1.55h-1.547a4.336 4.336 0 016.063-2.897l.36.17.137-.38a4.286 4.286 0 014.08-2.88 4.291 4.291 0 014.08 2.88l.134.38.054-.026V26.68h1.488v7.077a4.335 4.335 0 014.147 1.685zm2.893 6.748c.423.685.647 1.478.64 2.287a4.286 4.286 0 01-2.88 4.08l-.38.134.174.364a4.335 4.335 0 01.098 3.475h-1.674a2.84 2.84 0 00.231-2.842l-.527-1.11a.746.746 0 01.423-1.02l1.157-.412h.003a2.842 2.842 0 00.73-4.956h2.005zM49.399 52.53a2.838 2.838 0 01-.232-2.842l.527-1.11a.745.745 0 00-.422-1.02l-1.157-.412a2.842 2.842 0 01-.71-4.97l-.021.014h-1.987a4.336 4.336 0 002.22 6.365l.38.135-.174.364a4.355 4.355 0 00-.423 2.034l-45.31.001V42.19H.603v9.65a.744.744 0 00.467.69h48.328zm3.716 5.17v9.595a.744.744 0 001.31.483l3.745-4.392 3.745 4.392a.743.743 0 001.311-.483V57.7h-1.487v7.562l-3.002-3.518a.743.743 0 00-1.133 0l-2.998 3.518V57.7h-1.491zm3.714 0a4.335 4.335 0 002.687 0H56.83zM.604 37.019V26.68h1.485v10.34H.604zm63.324-15.51V6.745A.744.744 0 0063.184 6H1.35a.746.746 0 00-.745.744V21.51H2.09V7.49h60.35v14.02h1.49zm-13.53 24.513a7.924 7.924 0 01.185-3.833h1.571l.023-.06a6.446 6.446 0 00.047 4.808 6.436 6.436 0 0011.963-4.748h1.57l-.006-.017a7.924 7.924 0 11-15.353 3.85zm5.09-9.003a7.923 7.923 0 015.36 0h-5.36zM24.899 14.857a.745.745 0 00-.744-.744H8.144a.744.744 0 100 1.489h16.01a.744.744 0 00.745-.745zm20.07 15.696a.743.743 0 00-.745-.744H15.676a.744.744 0 100 1.488h28.548a.744.744 0 00.744-.744zM15.675 36.55h23.913a.746.746 0 01.66.47H15.016a.745.745 0 01.66-.47z"/><path d="M3.93 26.68h1.485v-5.17H3.93v5.17zm63.325-5.17h-1.49v5.17h1.49v-5.17zm-48.94 2.586a.741.741 0 010-.57.742.742 0 01.687-.46h33.183a.744.744 0 110 1.49H19.002a.741.741 0 01-.688-.46zM3.93 42.19h1.485v-5.17H3.93v5.17zm68.214-5.17h-1.556a2.841 2.841 0 01-.081 2.235l-.528 1.11a.745.745 0 00.424 1.02l1.156.413c.263.094.509.227.731.391h2.004a4.281 4.281 0 00-2.24-1.795l-.38-.134.174-.364a4.335 4.335 0 00.296-2.877zm-18.235 5.17h1.571a6.437 6.437 0 0112.033 0h1.57a7.931 7.931 0 00-4.909-5.17h-5.36a7.928 7.928 0 00-4.905 5.17zm-1.504-5.17h-1.547a4.336 4.336 0 00.291 2.875l.174.363-.38.135a4.336 4.336 0 00-2.22 1.796h1.987c.222-.164.468-.297.731-.391l1.157-.412a.743.743 0 00.422-1.02l-.526-1.11a2.84 2.84 0 01-.089-2.236zm-34.063 0h25.233a.745.745 0 01-.66 1.02H19.002a.746.746 0 01-.66-1.02zm53.603 15.509h-1.673a2.843 2.843 0 01-3.554.944l-1.11-.526a.743.743 0 00-1.02.421l-.412 1.157a2.843 2.843 0 01-5.357 0l-.41-1.157a.743.743 0 00-1.022-.422l-1.109.527a2.84 2.84 0 01-3.553-.944H4.396a.744.744 0 00.279.053h46.373c.22.526.542 1.003.947 1.405a4.275 4.275 0 004.445 1.04V57.7h1.492v-1.657a4.336 4.336 0 002.222 1.657h2.688a4.342 4.342 0 002.222-1.657V57.7h1.488v-2.683a4.336 4.336 0 005.393-2.487z"/><path d="M69.738 35.441c.353.472.605 1.01.743 1.578h-1.556a2.842 2.842 0 00-3.871-1.543l-1.11.526a.744.744 0 01-1.02-.428l-.411-1.156a2.843 2.843 0 00-5.356 0l-.41 1.156a.742.742 0 01-1.023.422l-1.108-.526a2.84 2.84 0 00-3.874 1.55h-1.547a4.336 4.336 0 016.063-2.897l.36.17.137-.38a4.286 4.286 0 014.08-2.88 4.29 4.29 0 014.08 2.88l.134.38.054-.026V26.68h1.489v7.077a4.335 4.335 0 014.146 1.685zm2.893 6.748c.424.685.647 1.478.64 2.287a4.286 4.286 0 01-2.88 4.08l-.38.134.174.364a4.335 4.335 0 01.098 3.475h-1.674a2.84 2.84 0 00.232-2.842l-.528-1.11a.748.748 0 01.424-1.02l1.156-.412h.003a2.842 2.842 0 00.73-4.956h2.005zM51.062 52.53a2.84 2.84 0 01-.231-2.842l.526-1.11a.742.742 0 00-.422-1.02l-1.157-.412a2.842 2.842 0 01-.71-4.97l-.02.014H47.06a4.336 4.336 0 002.22 6.365l.38.135-.174.364a4.355 4.355 0 00-.423 2.034l-45.31.001V42.19H2.266v9.65a.744.744 0 00.46.687l.007.003h48.328zm3.716 5.17v9.595a.744.744 0 001.31.483l3.745-4.392 3.745 4.392a.743.743 0 001.311-.483V57.7h-1.487v7.562L60.4 61.743a.744.744 0 00-1.133 0l-2.998 3.518v-7.562h-1.491zm3.714 0a4.335 4.335 0 002.687 0h-2.687zM2.267 37.019V26.68h1.485v10.34H2.267zM65.59 21.51V6.745A.744.744 0 0064.847 6H3.012a.746.746 0 00-.745.744V21.51h1.485V7.49h60.35v14.02h1.49zM52.06 46.023a7.924 7.924 0 01.185-3.833h1.571l.023-.06a6.446 6.446 0 00.048 4.808 6.436 6.436 0 005.946 3.973 6.442 6.442 0 006.016-8.72h1.57l-.006-.018a7.924 7.924 0 11-15.353 3.85zm5.09-9.003a7.923 7.923 0 015.36 0h-5.36zM26.562 14.857a.743.743 0 00-.744-.744H9.807a.744.744 0 100 1.489h16.011a.744.744 0 00.744-.745zm20.07 15.696a.741.741 0 00-.745-.744H17.339a.744.744 0 100 1.488h28.548a.743.743 0 00.744-.744zM17.338 36.55h23.913a.746.746 0 01.66.47H16.679a.745.745 0 01.66-.47z"/><path d="M2.267 26.68h1.485v-5.17H2.267v5.17zm63.325-5.17h-1.49v5.17h1.49v-5.17zM16.65 24.096a.743.743 0 01.403-.973.744.744 0 01.285-.056h33.183a.744.744 0 110 1.488H17.339a.742.742 0 01-.688-.46zM2.267 42.19h1.485v-5.17H2.267v5.17zm68.214-5.17h-1.556a2.833 2.833 0 01-.081 2.235l-.528 1.11a.748.748 0 00.423 1.02l1.157.413c.263.094.509.227.73.391h2.005a4.281 4.281 0 00-2.24-1.795l-.38-.134.174-.364a4.335 4.335 0 00.296-2.877zm-18.235 5.17h1.571a6.437 6.437 0 0112.033 0h1.57a7.931 7.931 0 00-4.909-5.17h-5.36a7.929 7.929 0 00-4.905 5.17zm-1.504-5.17h-1.547a4.336 4.336 0 00.291 2.875l.174.363-.38.135a4.336 4.336 0 00-2.22 1.796h1.987c.222-.164.468-.297.731-.391l1.157-.412a.742.742 0 00.422-1.02l-.526-1.11a2.84 2.84 0 01-.089-2.236zm-34.063 0h25.233a.745.745 0 01-.66 1.02H17.339a.746.746 0 01-.66-1.02zm53.603 15.509H68.61a2.843 2.843 0 01-3.554.944l-1.11-.526a.743.743 0 00-1.02.421l-.412 1.157a2.842 2.842 0 01-5.357 0l-.41-1.157a.743.743 0 00-1.022-.422l-1.109.527a2.84 2.84 0 01-3.553-.944H2.733a.744.744 0 00.279.053h46.373c.22.526.542 1.003.946 1.405a4.275 4.275 0 004.446 1.04V57.7h1.492v-1.657A4.336 4.336 0 0058.49 57.7h2.688a4.342 4.342 0 002.222-1.657V57.7h1.488v-2.683a4.336 4.336 0 005.393-2.487z"/><path d="M68.075 35.441c.353.472.605 1.01.743 1.578h-1.556a2.842 2.842 0 00-3.871-1.543l-1.11.526a.744.744 0 01-1.02-.428l-.411-1.156a2.843 2.843 0 00-5.356 0l-.41 1.156a.742.742 0 01-1.023.422l-1.108-.526a2.84 2.84 0 00-3.874 1.55h-1.547a4.336 4.336 0 016.063-2.897l.36.17.137-.38a4.286 4.286 0 014.08-2.88 4.291 4.291 0 014.08 2.88l.134.38.054-.026V26.68h1.488v7.077a4.335 4.335 0 014.147 1.685zm2.893 6.748c.423.685.647 1.478.64 2.287a4.286 4.286 0 01-2.88 4.08l-.38.134.174.364a4.335 4.335 0 01.098 3.475h-1.674a2.84 2.84 0 00.231-2.842l-.527-1.11a.746.746 0 01.423-1.02l1.157-.412h.003a2.842 2.842 0 00.73-4.956h2.005zM49.399 52.53a2.838 2.838 0 01-.232-2.842l.527-1.11a.745.745 0 00-.422-1.02l-1.157-.412a2.842 2.842 0 01-.71-4.97l-.021.014h-1.987a4.336 4.336 0 002.22 6.365l.38.135-.174.364a4.355 4.355 0 00-.423 2.034l-45.31.001V42.19H.603v9.65a.744.744 0 00.467.69h48.328zm3.716 5.17v9.595a.744.744 0 001.31.483l3.745-4.392 3.745 4.392a.743.743 0 001.311-.483V57.7h-1.487v7.562l-3.002-3.518a.743.743 0 00-1.133 0l-2.998 3.518V57.7h-1.491zm3.714 0a4.335 4.335 0 002.687 0H56.83zM.604 37.019V26.68h1.485v10.34H.604zm63.324-15.51V6.745A.744.744 0 0063.184 6H1.35a.746.746 0 00-.745.744V21.51H2.09V7.49h60.35v14.02h1.49zm-13.53 24.513a7.924 7.924 0 01.185-3.833h1.571l.023-.06a6.446 6.446 0 00.047 4.808 6.436 6.436 0 0011.963-4.748h1.57l-.006-.017a7.924 7.924 0 11-15.353 3.85zm5.09-9.003a7.923 7.923 0 015.36 0h-5.36zM24.899 14.857a.745.745 0 00-.744-.744H8.144a.744.744 0 100 1.489h16.01a.744.744 0 00.745-.745zm20.07 15.696a.743.743 0 00-.745-.744H15.676a.744.744 0 100 1.488h28.548a.744.744 0 00.744-.744zM15.675 36.55h23.913a.746.746 0 01.66.47H15.016a.745.745 0 01.66-.47z"/></g><defs><clipPath id="ca"><path d="M0 0h74v74H0z"/></clipPath></defs></svg><svg viewBox="0 0 74 74" id="chooseThree" xmlns="http://www.w3.org/2000/svg"><path fill-rule="evenodd" clip-rule="evenodd" d="M24.873 25.552l5.238-5.638h2.033l-5.239 5.637h-2.032zm39.39 0h-1.49v-2.82a.744.744 0 111.49 0v2.82zm8.277 0a.744.744 0 10-1.49 0h1.49zm-14.67-5.638l-5.2 5.637h-2.024l5.206-5.637h2.018zm-8.927 5.637H46.43l-7.667-5.637h2.513l7.667 5.637zM9.157 42.466l5.239-5.638h2.031l-5.238 5.638H9.157zm13.74 0h-1.49V41.28a.743.743 0 011.437-.276.73.73 0 01.052.289v1.172zm33.091 0H54.5v-5.638h1.488v5.638zm8.275 0h-1.49v-5.638h1.49v5.638zm8.277 0v-5.638h-1.49v5.638h1.49zm-24.825-5.638l.002 5.638h-1.49v-5.638h1.489zm-9.764 0h1.488v4.5c1.134.218 2.223.603 3.232 1.138H31.81a11.538 11.538 0 016.14-1.317v-4.321zm-8.269 0h1.489v5.638h-1.489v-5.638zM5.074 56.853a.746.746 0 011.273.527v2h-1.49v-2c0-.198.078-.387.217-.527zm9.55 2.526h-1.49v-5.638h1.49v5.638zm8.273 0h-1.489v-5.638h1.489v5.638zm33.092 0H54.5v-5.638h1.489v5.638zm8.274 0h-1.49v-5.638h1.49v5.638zm8.277 0v-5.638h-1.49v5.638h1.49zm-23.71-5.638a11.667 11.667 0 01-2.019 5.638h-1.88a10.155 10.155 0 002.394-5.638h1.506zm-8.788 0h2.184l-4.25 3.961v1.677h-1.493v-1.677l-4.249-3.96h2.18l2.81 2.619 2.818-2.62zm-12.926 0h-1.495a11.634 11.634 0 002.017 5.638h1.869a10.124 10.124 0 01-2.39-5.638z"/><path fill-rule="evenodd" clip-rule="evenodd" d="M70.842 3.7v-.02a.634.634 0 00-.017-.126v-.012a.69.69 0 00-.042-.124v-.01a.66.66 0 00-.165-.23.864.864 0 00-.11-.083h-.011a.883.883 0 00-.119-.056h-.013a.723.723 0 00-.126-.032h-.016A.839.839 0 0070.12 3H59.553a.744.744 0 000 1.489h8.852L54.16 19.914h2.017L69.353 5.626v8.64a.745.745 0 001.49 0V3.716l-.001-.016zM50.978 25.552h-2.025l-.688.745-1.014-.745h-2.514l3.182 2.34a.744.744 0 00.989-.096l2.07-2.244zM37.07 19.913h2.513l-6.098-4.484a.744.744 0 00-.986.092L12.703 36.828h2.032L25.213 25.55H23.18l5.238-5.637h2.033l2.686-2.892 3.932 2.892zM3.368 46.875l4.097-4.41h2.032l-5.038 5.422a.745.745 0 11-1.091-1.012zM41.63 68.68H29.437a.745.745 0 000 1.489H41.63a.744.744 0 100-1.489zm-36.977-9.3h-1.49v10.532a.746.746 0 001.49 0V59.379zm7.533-11.267a.746.746 0 00-.746.745v4.884h1.49v-4.884a.746.746 0 00-.744-.745zm.744 11.267h-1.49v10.532a.745.745 0 001.49 0V59.379zm6.784-5.638V42.465h1.49v-1.171V53.74h-1.49zm0 5.638v10.532a.744.744 0 101.49 0V59.379h-1.49zm26.308-23.543a.745.745 0 00-1.489 0v.992h1.49v-.992zm-1.489 9.54v-2.91h1.49l.002 5.233a11.668 11.668 0 011.112 6.042h-1.506a10.156 10.156 0 00-10.587-11.11c-5.231.244-9.566 4.705-9.664 9.946-.008.39.006.778.043 1.164h-1.495A11.612 11.612 0 0124.914 48a11.63 11.63 0 013.186-4.182.737.737 0 01-.11-.387v-.965h1.489v-5.638h-1.49V34.97a.744.744 0 111.49 0v7.86c.209-.128.422-.25.638-.364H40.98a11.541 11.541 0 012.59 1.873c.342.326.664.672.965 1.036zM25.945 59.378a11.632 11.632 0 002.759 2.821v3.336a.746.746 0 00.744.744h12.173a.746.746 0 00.745-.743l.008-3.343a11.667 11.667 0 002.744-2.815h-1.88a10.152 10.152 0 01-2.026 1.81.761.761 0 00-.33.619l-.007 2.983h-4.592v-5.41H34.79v5.412h-4.6v-2.974a.743.743 0 00-.328-.617 10.124 10.124 0 01-2.048-1.82h-1.869zm4.596-5.638h2.18l-1.57-1.463a.744.744 0 10-1.012 1.088l.402.375zm9.992 0l.403-.375a.744.744 0 10-1.012-1.088L38.35 53.74h2.183zm-2.786-22.177v5.264h-1.489v-5.264a.744.744 0 011.49 0zm15.52 3.584a.742.742 0 01.57 0 .742.742 0 01.459.688v.992h-1.489v-.992a.744.744 0 01.46-.688zm-.46 7.317h1.489V53.74h-1.489V42.465zm0 16.914V69.91a.744.744 0 101.489 0V59.379h-1.489zm8.595-37.26a.745.745 0 00-.321.612v14.097h1.49V25.55h-1.49v-2.82a.744.744 0 01.32-.612zM61.08 53.74V42.465h1.49v11.276h-1.49zm0 5.638V69.91a.746.746 0 001.49 0V59.379h-1.49zm9.06-34.571a.744.744 0 01.708.743h-1.49a.744.744 0 01.46-.688l.022-.008.012-.005.288-.042z"/><path fill-rule="evenodd" clip-rule="evenodd" d="M23.18 25.552l5.24-5.638h2.032l-5.239 5.637h-2.032zm39.39 0h-1.49v-2.82a.744.744 0 111.49 0v2.82zm8.278 0a.744.744 0 00-1.49 0h1.49zm-14.67-5.638l-5.2 5.637h-2.025l5.207-5.637h2.017zM47.25 25.55h-2.514l-7.667-5.637h2.513l7.668 5.637zM7.466 42.466l5.238-5.638h2.032l-5.239 5.638H7.466zm13.739 0h-1.489V41.28a.741.741 0 01.745-.745.742.742 0 01.744.758v1.172zm33.092 0h-1.489v-5.638h1.489v5.638zm8.274 0h-1.49v-5.638h1.49v5.638zm8.278 0v-5.638h-1.49v5.638h1.49zm-24.825-5.638l.002 5.638h-1.49v-5.638h1.488zm-9.765 0h1.489v4.5c1.134.218 2.222.603 3.232 1.138H30.118a11.538 11.538 0 016.141-1.317v-4.321zm-8.268 0h1.488v5.638h-1.488v-5.638zM3.382 56.853a.746.746 0 011.272.527v2h-1.49v-2c0-.198.078-.387.218-.527zm9.55 2.526h-1.49v-5.638h1.49v5.638zm8.272 0h-1.488v-5.638h1.488v5.638zm33.092 0h-1.488v-5.638h1.488v5.638zm8.275 0h-1.49v-5.638h1.49v5.638zm8.277 0v-5.638h-1.49v5.638h1.49zm-23.71-5.638a11.678 11.678 0 01-2.02 5.638h-1.88a10.155 10.155 0 002.394-5.638h1.506zm-8.788 0h2.183l-4.25 3.961v1.677H34.79v-1.677l-4.248-3.96h2.18l2.81 2.619 2.818-2.62zm-12.926 0h-1.495a11.63 11.63 0 002.017 5.638h1.869a10.124 10.124 0 01-2.391-5.638z"/><path fill-rule="evenodd" clip-rule="evenodd" d="M69.15 3.7v-.02a.634.634 0 00-.017-.126v-.012a.698.698 0 00-.042-.124v-.01a.66.66 0 00-.164-.23.864.864 0 00-.11-.083h-.012a.883.883 0 00-.118-.056h-.013a.723.723 0 00-.126-.032h-.016A.839.839 0 0068.428 3H57.86a.744.744 0 000 1.489h8.853L52.469 19.914h2.017L67.662 5.626v8.64a.745.745 0 001.49 0V3.716l-.001-.016zM49.287 25.552h-2.024l-.689.745-1.014-.745h-2.513l3.182 2.34a.744.744 0 00.989-.096l2.07-2.244zM35.38 19.913h2.513l-6.098-4.484a.744.744 0 00-.986.092L11.012 36.828h2.032L23.52 25.55h-2.03l5.239-5.637h2.032l2.687-2.892 3.932 2.892zM1.676 46.875l4.098-4.41h2.031l-5.038 5.422a.745.745 0 11-1.09-1.012zM39.94 68.68H27.745a.745.745 0 000 1.489H39.94a.744.744 0 100-1.489zm-36.977-9.3h-1.49v10.532a.746.746 0 001.49 0V59.379zm7.534-11.267a.746.746 0 00-.746.745v4.884h1.49v-4.884a.746.746 0 00-.745-.745zm.744 11.267H9.75v10.532a.746.746 0 001.49 0V59.379zm6.784-5.638V42.465h1.489v-1.171V53.74h-1.489zm0 5.638v10.532a.744.744 0 101.489 0V59.379h-1.489zm26.308-23.543a.745.745 0 00-1.489 0v.992h1.489v-.992zm-1.489 9.54v-2.91h1.49l.002 5.233a11.668 11.668 0 011.111 6.042h-1.505a10.155 10.155 0 00-10.588-11.11c-5.23.244-9.565 4.705-9.663 9.946-.009.39.006.778.042 1.164h-1.495A11.612 11.612 0 0123.222 48a11.632 11.632 0 013.186-4.182.738.738 0 01-.11-.387v-.965h1.49v-5.638h-1.49V34.97a.744.744 0 111.49 0v7.86c.209-.128.422-.25.638-.364h10.861a11.541 11.541 0 012.59 1.873c.343.326.665.672.966 1.036zM24.254 59.38a11.632 11.632 0 002.76 2.821v3.336a.746.746 0 00.744.744H39.93a.746.746 0 00.746-.743l.007-3.343a11.667 11.667 0 002.745-2.815h-1.88a10.152 10.152 0 01-2.027 1.81.761.761 0 00-.33.619l-.006 2.983h-4.592V59.38H33.1v5.412h-4.6v-2.974a.744.744 0 00-.329-.617 10.124 10.124 0 01-2.047-1.82h-1.87zm4.597-5.638h2.18l-1.57-1.463a.745.745 0 10-1.012 1.088l.402.375zm9.992 0l.402-.375a.744.744 0 10-1.012-1.088l-1.574 1.463h2.184zm-2.786-22.177v5.264h-1.489v-5.264a.744.744 0 011.489 0zm15.52 3.584a.742.742 0 01.57 0 .742.742 0 01.459.688v.992h-1.489v-.992a.744.744 0 01.46-.688zm-.46 7.317h1.489v11.276h-1.489V42.465zm0 16.914v10.532a.744.744 0 101.489 0V59.379h-1.489zm8.594-37.26a.75.75 0 00-.321.612v14.096h1.49V25.553h-1.49v-2.82a.744.744 0 01.321-.613zm-.321 31.62V42.465h1.49v11.276h-1.49zm0 5.638V69.91a.746.746 0 001.49 0V59.379h-1.49zm9.06-34.571a.744.744 0 01.707.743h-1.49a.744.744 0 01.46-.688l.022-.008.013-.005.288-.042z"/><path fill-rule="evenodd" clip-rule="evenodd" d="M24.873 25.552l5.238-5.638h2.033l-5.239 5.637h-2.032zm39.39 0h-1.49v-2.82a.744.744 0 111.49 0v2.82zm8.277 0a.744.744 0 10-1.49 0h1.49zm-14.67-5.638l-5.2 5.637h-2.024l5.206-5.637h2.018zm-8.927 5.637H46.43l-7.667-5.637h2.513l7.667 5.637zM9.157 42.466l5.239-5.638h2.031l-5.238 5.638H9.157zm13.74 0h-1.49V41.28a.743.743 0 011.437-.276.73.73 0 01.052.289v1.172zm33.091 0H54.5v-5.638h1.488v5.638zm8.275 0h-1.49v-5.638h1.49v5.638zm8.277 0v-5.638h-1.49v5.638h1.49zm-24.825-5.638l.002 5.638h-1.49v-5.638h1.489zm-9.764 0h1.488v4.5c1.134.218 2.223.603 3.232 1.138H31.81a11.538 11.538 0 016.14-1.317v-4.321zm-8.269 0h1.489v5.638h-1.489v-5.638zM5.074 56.853a.746.746 0 011.273.527v2h-1.49v-2c0-.198.078-.387.217-.527zm9.55 2.526h-1.49v-5.638h1.49v5.638zm8.273 0h-1.489v-5.638h1.489v5.638zm33.092 0H54.5v-5.638h1.489v5.638zm8.274 0h-1.49v-5.638h1.49v5.638zm8.277 0v-5.638h-1.49v5.638h1.49zm-23.71-5.638a11.667 11.667 0 01-2.019 5.638h-1.88a10.155 10.155 0 002.394-5.638h1.506zm-8.788 0h2.184l-4.25 3.961v1.677h-1.493v-1.677l-4.249-3.96h2.18l2.81 2.619 2.818-2.62zm-12.926 0h-1.495a11.634 11.634 0 002.017 5.638h1.869a10.124 10.124 0 01-2.39-5.638z"/><path fill-rule="evenodd" clip-rule="evenodd" d="M70.842 3.7v-.02a.634.634 0 00-.017-.126v-.012a.69.69 0 00-.042-.124v-.01a.66.66 0 00-.165-.23.864.864 0 00-.11-.083h-.011a.883.883 0 00-.119-.056h-.013a.723.723 0 00-.126-.032h-.016A.839.839 0 0070.12 3H59.553a.744.744 0 000 1.489h8.852L54.16 19.914h2.017L69.353 5.626v8.64a.745.745 0 001.49 0V3.716l-.001-.016zM50.978 25.552h-2.025l-.688.745-1.014-.745h-2.514l3.182 2.34a.744.744 0 00.989-.096l2.07-2.244zM37.07 19.913h2.513l-6.098-4.484a.744.744 0 00-.986.092L12.703 36.828h2.032L25.213 25.55H23.18l5.238-5.637h2.033l2.686-2.892 3.932 2.892zM3.368 46.875l4.097-4.41h2.032l-5.038 5.422a.745.745 0 11-1.091-1.012zM41.63 68.68H29.437a.745.745 0 000 1.489H41.63a.744.744 0 100-1.489zm-36.977-9.3h-1.49v10.532a.746.746 0 001.49 0V59.379zm7.533-11.267a.746.746 0 00-.746.745v4.884h1.49v-4.884a.746.746 0 00-.744-.745zm.744 11.267h-1.49v10.532a.745.745 0 001.49 0V59.379zm6.784-5.638V42.465h1.49v-1.171V53.74h-1.49zm0 5.638v10.532a.744.744 0 101.49 0V59.379h-1.49zm26.308-23.543a.745.745 0 00-1.489 0v.992h1.49v-.992zm-1.489 9.54v-2.91h1.49l.002 5.233a11.668 11.668 0 011.112 6.042h-1.506a10.156 10.156 0 00-10.587-11.11c-5.231.244-9.566 4.705-9.664 9.946-.008.39.006.778.043 1.164h-1.495A11.612 11.612 0 0124.914 48a11.63 11.63 0 013.186-4.182.737.737 0 01-.11-.387v-.965h1.489v-5.638h-1.49V34.97a.744.744 0 111.49 0v7.86c.209-.128.422-.25.638-.364H40.98a11.541 11.541 0 012.59 1.873c.342.326.664.672.965 1.036zM25.945 59.378a11.632 11.632 0 002.759 2.821v3.336a.746.746 0 00.744.744h12.173a.746.746 0 00.745-.743l.008-3.343a11.667 11.667 0 002.744-2.815h-1.88a10.152 10.152 0 01-2.026 1.81.761.761 0 00-.33.619l-.007 2.983h-4.592v-5.41H34.79v5.412h-4.6v-2.974a.743.743 0 00-.328-.617 10.124 10.124 0 01-2.048-1.82h-1.869zm4.596-5.638h2.18l-1.57-1.463a.744.744 0 10-1.012 1.088l.402.375zm9.992 0l.403-.375a.744.744 0 10-1.012-1.088L38.35 53.74h2.183zm-2.786-22.177v5.264h-1.489v-5.264a.744.744 0 011.49 0zm15.52 3.584a.742.742 0 01.57 0 .742.742 0 01.459.688v.992h-1.489v-.992a.744.744 0 01.46-.688zm-.46 7.317h1.489V53.74h-1.489V42.465zm0 16.914V69.91a.744.744 0 101.489 0V59.379h-1.489zm8.595-37.26a.745.745 0 00-.321.612v14.097h1.49V25.55h-1.49v-2.82a.744.744 0 01.32-.612zM61.08 53.74V42.465h1.49v11.276h-1.49zm0 5.638V69.91a.746.746 0 001.49 0V59.379h-1.49zm9.06-34.571a.744.744 0 01.708.743h-1.49a.744.744 0 01.46-.688l.022-.008.012-.005.288-.042z"/><path fill-rule="evenodd" clip-rule="evenodd" d="M23.18 25.552l5.24-5.638h2.032l-5.239 5.637h-2.032zm39.39 0h-1.49v-2.82a.744.744 0 111.49 0v2.82zm8.278 0a.744.744 0 00-1.49 0h1.49zm-14.67-5.638l-5.2 5.637h-2.025l5.207-5.637h2.017zM47.25 25.55h-2.514l-7.667-5.637h2.513l7.668 5.637zM7.466 42.466l5.238-5.638h2.032l-5.239 5.638H7.466zm13.739 0h-1.489V41.28a.741.741 0 01.745-.745.742.742 0 01.744.758v1.172zm33.092 0h-1.489v-5.638h1.489v5.638zm8.274 0h-1.49v-5.638h1.49v5.638zm8.278 0v-5.638h-1.49v5.638h1.49zm-24.825-5.638l.002 5.638h-1.49v-5.638h1.488zm-9.765 0h1.489v4.5c1.134.218 2.222.603 3.232 1.138H30.118a11.538 11.538 0 016.141-1.317v-4.321zm-8.268 0h1.488v5.638h-1.488v-5.638zM3.382 56.853a.746.746 0 011.272.527v2h-1.49v-2c0-.198.078-.387.218-.527zm9.55 2.526h-1.49v-5.638h1.49v5.638zm8.272 0h-1.488v-5.638h1.488v5.638zm33.092 0h-1.488v-5.638h1.488v5.638zm8.275 0h-1.49v-5.638h1.49v5.638zm8.277 0v-5.638h-1.49v5.638h1.49zm-23.71-5.638a11.678 11.678 0 01-2.02 5.638h-1.88a10.155 10.155 0 002.394-5.638h1.506zm-8.788 0h2.183l-4.25 3.961v1.677H34.79v-1.677l-4.248-3.96h2.18l2.81 2.619 2.818-2.62zm-12.926 0h-1.495a11.63 11.63 0 002.017 5.638h1.869a10.124 10.124 0 01-2.391-5.638z"/><path fill-rule="evenodd" clip-rule="evenodd" d="M69.15 3.7v-.02a.634.634 0 00-.017-.126v-.012a.698.698 0 00-.042-.124v-.01a.66.66 0 00-.164-.23.864.864 0 00-.11-.083h-.012a.883.883 0 00-.118-.056h-.013a.723.723 0 00-.126-.032h-.016A.839.839 0 0068.428 3H57.86a.744.744 0 000 1.489h8.853L52.469 19.914h2.017L67.662 5.626v8.64a.745.745 0 001.49 0V3.716l-.001-.016zM49.287 25.552h-2.024l-.689.745-1.014-.745h-2.513l3.182 2.34a.744.744 0 00.989-.096l2.07-2.244zM35.38 19.913h2.513l-6.098-4.484a.744.744 0 00-.986.092L11.012 36.828h2.032L23.52 25.55h-2.03l5.239-5.637h2.032l2.687-2.892 3.932 2.892zM1.676 46.875l4.098-4.41h2.031l-5.038 5.422a.745.745 0 11-1.09-1.012zM39.94 68.68H27.745a.745.745 0 000 1.489H39.94a.744.744 0 100-1.489zm-36.977-9.3h-1.49v10.532a.746.746 0 001.49 0V59.379zm7.534-11.267a.746.746 0 00-.746.745v4.884h1.49v-4.884a.746.746 0 00-.745-.745zm.744 11.267H9.75v10.532a.746.746 0 001.49 0V59.379zm6.784-5.638V42.465h1.489v-1.171V53.74h-1.489zm0 5.638v10.532a.744.744 0 101.489 0V59.379h-1.489zm26.308-23.543a.745.745 0 00-1.489 0v.992h1.489v-.992zm-1.489 9.54v-2.91h1.49l.002 5.233a11.668 11.668 0 011.111 6.042h-1.505a10.155 10.155 0 00-10.588-11.11c-5.23.244-9.565 4.705-9.663 9.946-.009.39.006.778.042 1.164h-1.495A11.612 11.612 0 0123.222 48a11.632 11.632 0 013.186-4.182.738.738 0 01-.11-.387v-.965h1.49v-5.638h-1.49V34.97a.744.744 0 111.49 0v7.86c.209-.128.422-.25.638-.364h10.861a11.541 11.541 0 012.59 1.873c.343.326.665.672.966 1.036zM24.254 59.38a11.632 11.632 0 002.76 2.821v3.336a.746.746 0 00.744.744H39.93a.746.746 0 00.746-.743l.007-3.343a11.667 11.667 0 002.745-2.815h-1.88a10.152 10.152 0 01-2.027 1.81.761.761 0 00-.33.619l-.006 2.983h-4.592V59.38H33.1v5.412h-4.6v-2.974a.744.744 0 00-.329-.617 10.124 10.124 0 01-2.047-1.82h-1.87zm4.597-5.638h2.18l-1.57-1.463a.745.745 0 10-1.012 1.088l.402.375zm9.992 0l.402-.375a.744.744 0 10-1.012-1.088l-1.574 1.463h2.184zm-2.786-22.177v5.264h-1.489v-5.264a.744.744 0 011.489 0zm15.52 3.584a.742.742 0 01.57 0 .742.742 0 01.459.688v.992h-1.489v-.992a.744.744 0 01.46-.688zm-.46 7.317h1.489v11.276h-1.489V42.465zm0 16.914v10.532a.744.744 0 101.489 0V59.379h-1.489zm8.594-37.26a.75.75 0 00-.321.612v14.096h1.49V25.553h-1.49v-2.82a.744.744 0 01.321-.613zm-.321 31.62V42.465h1.49v11.276h-1.49zm0 5.638V69.91a.746.746 0 001.49 0V59.379h-1.49zm9.06-34.571a.744.744 0 01.707.743h-1.49a.744.744 0 01.46-.688l.022-.008.013-.005.288-.042z"/></svg><svg viewBox="0 0 74 74" id="chooseTwo" xmlns="http://www.w3.org/2000/svg"><path fill-rule="evenodd" clip-rule="evenodd" d="M13.768 25.555h1.515a2.538 2.538 0 01.72-1.48 2.524 2.524 0 014.29 1.48h1.5a4.024 4.024 0 00-8.025 0zm21.111 0h1.622a21.055 21.055 0 01-1.307-5.639h-1.53c.19 2.296.711 4.227 1.215 5.64zm-10.276-5.639h-4.038a4.013 4.013 0 004.038 0zm38.739 0h-1.57a5.58 5.58 0 01-1.258 1.887.714.714 0 00-.097.091c-.813.777-1.782 1.27-2.568 1.366a.745.745 0 00.09 1.485c.03.002.06.002.09 0 1.114-.135 2.284-.748 3.257-1.626.92-.044 4.205-.008 5.948 2.436h1.737c-1.513-2.998-4.544-3.739-6.433-3.898a6.43 6.43 0 00.55-1.023c.101-.238.186-.477.254-.718zm-25.097 5.64c.749-1.71 1.51-2.68 1.525-2.699a.745.745 0 00-1.157-.932c-.074.093-1.098 1.391-1.986 3.63h1.618zm29.951 11.278H65.66c.709.345 3.19 1.82 3.693 5.638h1.504c-.314-2.773-1.526-4.553-2.66-5.639zm-31.99 5.638h1.574a8.098 8.098 0 01.729-1.547 7.65 7.65 0 002.547 1.547h1.168a.745.745 0 00-.285-1.275 6.455 6.455 0 01-2.901-1.826.48.48 0 00-.046-.065.798.798 0 00-.072-.066 7.405 7.405 0 01-1.032-1.53.768.768 0 00-.116-.233 8.78 8.78 0 01-.271-.643h-1.555c.036.112.073.224.112.336H14.767a4.068 4.068 0 00-.06-.337h-1.549a2.527 2.527 0 01-2.366 3.4v.001a2.523 2.523 0 01-2.366-3.4h-1.54a4.008 4.008 0 007.804 1.826h22.035c.22.396.467.776.742 1.135-.35.491-.837 1.341-1.262 2.677zm21.195 0h1.807c-.7-1.362-1.916-2.034-2.656-2.219a.747.747 0 00-.373 1.445c.046.013.67.19 1.222.774zm7.25 11.278h-2.59a9.425 9.425 0 01.118.168c1.135 1.68 1.575 3.57 1.287 5.47h1.509c.242-1.864-.106-3.715-1.021-5.416.211-.059.446-.132.697-.222zm-27.427 5.639h1.846c2.665-3.034 7.895-2.43 8.173-2.396a.745.745 0 00.186-1.478c-2.007-.254-5.133-.072-7.602 1.376a.75.75 0 00-.238-.094c-.021 0-1.445-.382-2.253-3.047h-1.544c.16.606.349 1.13.556 1.586h-4.047a.744.744 0 00-.663.408l-1.855 3.645h1.678l1.304-2.563h4.492c.336.422.742.784 1.2 1.068a7.072 7.072 0 00-1.233 1.495zm-19.212 0h.847a4.004 4.004 0 00-.847 0zm4.834-5.639h-1.564a2.524 2.524 0 01-4.674.028l-.01-.028h-1.594a4.027 4.027 0 007.842 0z"/><path fill-rule="evenodd" clip-rule="evenodd" d="M67.306 25.722c1.987 4.206-.17 8.225-2.03 10.178a8.08 8.08 0 011.175.933h-2.537a2.524 2.524 0 00-.184-.082.746.746 0 01-.18-1.285c1.04-.796 4.503-4.677 2.41-9.105a5.274 5.274 0 00-.472-.806h1.737c.028.055.055.11.081.167zm.302 16.75h1.503c.08.697.101 1.456.05 2.283-.37 5.955-3.99 8.18-6.255 8.995h-2.492a10.096 10.096 0 01.117.168c1.136 1.68 1.575 3.57 1.288 5.47h1.41a9.837 9.837 0 01-.838 2.861c-3.343 7.245-11.055 5.706-13.297 5.077-1.421 2.329-3.973 3.34-6.504 3.34a9.54 9.54 0 01-2.797-.418c-3.794-1.177-5.911-4.245-5.384-7.825.297-2.004 1.155-3.47 2.303-4.529a4.7 4.7 0 01-1.2-1.068h.098c.336.422.741.784 1.2 1.068a7.07 7.07 0 00-1.234 1.495h1.75c-.707.803-1.232 1.862-1.438 3.255-.505 3.415 2.028 5.46 4.349 6.183 2.81.87 6.4.216 7.825-2.715a.746.746 0 01.928-.371c.352.129 8.712 3.115 12.05-4.112 1.208-2.617.976-5.37-.606-7.71l-.006-.008-.002-.002-.004-.007a9.921 9.921 0 00-4.926-3.75.7.7 0 01-.166-.054c-1.503-.478-3.055-.537-4.418-.095a.745.745 0 01-.46-1.416c1.527-.496 3.242-.476 4.914-.02a6.164 6.164 0 001.145-3.909c-.044-1.044-.428-1.735-.855-2.186h1.807c.296.577.5 1.277.535 2.117a7.724 7.724 0 01-1.182 4.48 11.417 11.417 0 014.541 3.58c1.4-.27 5.917-1.634 6.315-7.994v.01c.05-.805.022-1.534-.064-2.193zm-23.43 14.45c.737.002 1.239.06 1.32.07a.744.744 0 00.142.005 11.995 11.995 0 00-1.462-.075zm-.042-1.503c-1.853-.006-4.117.353-6.006 1.445a.72.72 0 01.05.027c1.865-1.094 4.106-1.465 5.956-1.472zM35.59 53.75c-.32-1.058-.544-2.475-.544-4.371a27.08 27.08 0 01.243-3.758.745.745 0 00.102-.65c.179-1.025.408-1.848.643-2.499H34.46c-.18.57-.35 1.227-.493 1.982H22.246a.748.748 0 00-.615.33l-2.962 4.308a4.027 4.027 0 10-1.44 7.768 4.027 4.027 0 01-3.873-3.11h1.496a2.523 2.523 0 112.442 1.585 2.525 2.525 0 002.34-1.585h1.467a4.026 4.026 0 00-1.174-3.86l2.71-3.95h11.105a29.342 29.342 0 00-.19 3.436c0 2.746.451 4.644 1.051 5.96h.098a9.893 9.893 0 01-.557-1.586h1.447zm-4.937 1.586h-.098a.745.745 0 00-.663.408l-3.508 6.891h-5.75a4.013 4.013 0 00-3.521-3.246h-.75l.05-.005a3.93 3.93 0 01.325-.017 4.013 4.013 0 103.895 4.758h6.215a.743.743 0 00.663-.407l2.204-4.33h-1.58l1.855-3.644a.745.745 0 01.663-.408zM6.68 36.833H5.14a4.008 4.008 0 017.82 0h-1.548l.018.05a2.53 2.53 0 00-1.418-1.504 2.523 2.523 0 00-3.332 1.454zm26.877-4.343c-.02 1.48.199 2.953.649 4.362l-.006-.019h1.554c-.428-1.137-.708-2.561-.708-4.341 0-2.886.72-5.265 1.453-6.936h-1.618l-.064.161-.063-.162h-1.621a17.984 17.984 0 00.988 2.287 19.035 19.035 0 00-.487 2.79h-6.948l-6.952-3.203c.255-.595.36-1.238.313-1.873h-1.5a2.56 2.56 0 00.018.303 2.527 2.527 0 01-3.926 2.098 2.523 2.523 0 01-1.103-2.402h-1.515l.003-.035v-.001a4.019 4.019 0 001.459 3.44 4.024 4.024 0 005.408-.279l7.321 3.372a.738.738 0 00.31.068h7.035v.37zm5.753 9.982h1.167a.884.884 0 000 .001.744.744 0 01-.694.155 7.72 7.72 0 01-.473-.156zm22.285-22.555c.49-1.736.12-3.524-1.074-5.105-2.353-3.116-6.23-2.457-8.56-1.662 1.36-4.139-1.343-7.835-3.903-9.235-1.487-.817-4.992-1.52-8.54-.104-2.19.867-5.115 2.89-6.616 7.573a22.046 22.046 0 00-.925 4.32H24.78a4.012 4.012 0 10-5.961 4.213h4.037a4.012 4.012 0 001.924-2.722h7.082a21.89 21.89 0 00.056 2.722h1.53a20.306 20.306 0 01.89-8.075c1.062-3.312 2.996-5.548 5.749-6.648 2.89-1.156 5.988-.678 7.273.026 2.217 1.223 4.592 4.574 2.902 8.2a3.63 3.63 0 01-.496.791c-1.011 1.237-2.698 1.618-4.09 1.408-1.195-.186-2.64-.897-2.844-2.328a.745.745 0 10-1.474.206c.257 1.845 1.862 3.252 4.091 3.586 1.821.278 4.024-.233 5.407-1.864.879-.434 6.013-2.774 8.477.491 1.259 1.662 1.09 3.192.692 4.207h1.57zm-42.154-1.37a2.523 2.523 0 102.803-4.196 2.523 2.523 0 00-2.803 4.196zm-4.159 46.929c.415.277.903.425 1.403.425v.005a2.527 2.527 0 10-.492-5.003 2.524 2.524 0 00-.91 4.573z"/><path fill-rule="evenodd" clip-rule="evenodd" d="M12.12 25.555h1.515a2.523 2.523 0 015.01 0h1.502a4.024 4.024 0 00-8.027 0zm21.112 0h1.621a21.054 21.054 0 01-1.307-5.639h-1.529c.19 2.296.71 4.227 1.215 5.64zm-10.277-5.639h-4.037a4.012 4.012 0 004.037 0zm38.74 0h-1.571a5.582 5.582 0 01-1.258 1.887.708.708 0 00-.096.091c-.814.777-1.782 1.27-2.568 1.366a.745.745 0 00.09 1.485.66.66 0 00.089 0c1.114-.135 2.285-.748 3.258-1.626.92-.044 4.205-.008 5.947 2.436h1.737c-1.512-2.998-4.543-3.739-6.433-3.898a6.43 6.43 0 00.55-1.023c.102-.238.186-.477.254-.718zm-25.097 5.64c.748-1.71 1.509-2.68 1.524-2.699a.744.744 0 00-1.156-.932c-.075.093-1.098 1.391-1.986 3.63h1.618zm29.951 11.278h-2.537c.71.345 3.19 1.82 3.693 5.638h1.504c-.313-2.773-1.526-4.553-2.66-5.639zm-31.991 5.638h1.575a8.1 8.1 0 01.728-1.547 7.652 7.652 0 002.548 1.547h1.167a.744.744 0 00-.285-1.275 6.456 6.456 0 01-2.9-1.826.488.488 0 00-.047-.065.799.799 0 00-.072-.066 7.404 7.404 0 01-1.032-1.53.771.771 0 00-.116-.233 8.869 8.869 0 01-.271-.643h-1.555c.036.112.073.224.112.336H13.12a3.986 3.986 0 00-.061-.337H11.51a2.523 2.523 0 01-2.366 3.4v.001a2.523 2.523 0 01-2.366-3.4h-1.54a4.008 4.008 0 007.804 1.826h22.035c.219.396.467.776.741 1.135-.35.491-.837 1.341-1.261 2.677zm21.196 0h1.806c-.7-1.362-1.916-2.034-2.655-2.219a.747.747 0 00-.373 1.445c.046.013.67.19 1.222.774zm7.25 11.278h-2.59a8.831 8.831 0 01.117.168c1.136 1.68 1.575 3.57 1.288 5.47h1.508c.242-1.864-.105-3.715-1.02-5.416.21-.059.445-.132.697-.222zm-27.428 5.639h1.847c2.664-3.034 7.895-2.43 8.173-2.396a.745.745 0 00.186-1.478c-2.007-.254-5.134-.072-7.602 1.376a.748.748 0 00-.239-.094c-.02 0-1.445-.382-2.252-3.047h-1.545c.16.606.35 1.13.557 1.586h-4.047a.744.744 0 00-.663.408l-1.856 3.645h1.678l1.305-2.563h4.492a4.7 4.7 0 001.2 1.068 7.072 7.072 0 00-1.234 1.495zm-19.211 0h.847a4.003 4.003 0 00-.847 0zm4.834-5.639h-1.565a2.523 2.523 0 01-4.673.028l-.011-.028h-1.594a4.027 4.027 0 007.842 0z"/><path fill-rule="evenodd" clip-rule="evenodd" d="M65.659 25.722c1.987 4.206-.17 8.225-2.031 10.178a8.08 8.08 0 011.176.933h-2.537a2.503 2.503 0 00-.184-.082.747.747 0 01-.18-1.285c1.04-.796 4.503-4.677 2.409-9.105a5.266 5.266 0 00-.471-.806h1.736l.082.167zm.301 16.75h1.504c.079.697.1 1.456.05 2.283-.37 5.955-3.99 8.18-6.256 8.995h-2.492a9.417 9.417 0 01.118.168c1.135 1.68 1.575 3.57 1.287 5.47h1.411a9.834 9.834 0 01-.839 2.861c-3.343 7.245-11.055 5.706-13.297 5.077-1.42 2.329-3.973 3.34-6.504 3.34-.947 0-1.89-.14-2.796-.418-3.794-1.177-5.912-4.245-5.384-7.825.296-2.004 1.155-3.47 2.302-4.529a4.704 4.704 0 01-1.2-1.068h.098c.336.422.742.784 1.2 1.068a7.073 7.073 0 00-1.233 1.495h1.749c-.706.803-1.232 1.862-1.438 3.255-.504 3.415 2.028 5.46 4.35 6.183 2.81.87 6.4.216 7.824-2.715a.746.746 0 01.928-.371c.353.129 8.713 3.115 12.05-4.112 1.208-2.617.977-5.37-.606-7.71l-.005-.008-.002-.002a9.92 9.92 0 00-4.93-3.757.699.699 0 01-.166-.054c-1.503-.478-3.056-.537-4.419-.095a.745.745 0 01-.46-1.416c1.527-.496 3.243-.476 4.915-.02a6.164 6.164 0 001.145-3.909c-.044-1.044-.429-1.735-.855-2.186h1.806c.297.577.5 1.277.536 2.117a7.723 7.723 0 01-1.182 4.48 11.419 11.419 0 014.54 3.58c1.401-.27 5.918-1.634 6.315-7.994v.01c.05-.805.023-1.534-.064-2.193zm-23.43 14.45c.737.002 1.24.06 1.32.07a.743.743 0 00.142.005 11.994 11.994 0 00-1.462-.075zm-.042-1.503c-1.852-.006-4.117.353-6.006 1.445a.697.697 0 01.05.027c1.866-1.094 4.106-1.465 5.956-1.472zm-8.545-1.669c-.32-1.058-.544-2.475-.544-4.371a27.095 27.095 0 01.243-3.758.743.743 0 00.103-.65c.178-1.025.408-1.848.643-2.499h-1.575c-.181.57-.35 1.227-.493 1.982H20.598a.748.748 0 00-.614.33l-2.963 4.308a4.026 4.026 0 10-1.44 7.768 4.026 4.026 0 01-3.872-3.11h1.495a2.524 2.524 0 112.442 1.585 2.525 2.525 0 002.34-1.585h1.467a4.026 4.026 0 00-1.173-3.86l2.71-3.95h11.104a29.342 29.342 0 00-.19 3.436c0 2.746.452 4.644 1.052 5.96h.097a9.884 9.884 0 01-.556-1.586h1.446zm-4.936 1.586h-.098a.745.745 0 00-.664.408l-3.507 6.891h-5.751a4.014 4.014 0 00-3.52-3.246h-.75a4.13 4.13 0 01.375-.022 4.014 4.014 0 103.895 4.758H25.2a.743.743 0 00.664-.407l2.203-4.33h-1.58l1.855-3.644a.744.744 0 01.663-.408zM5.032 36.833h-1.54a4.008 4.008 0 017.82 0H9.766a2.454 2.454 0 01-.268-.524 2.523 2.523 0 00-4.465.524zM31.91 32.49c-.021 1.48.198 2.953.648 4.362l-.006-.019h1.555c-.429-1.137-.709-2.561-.709-4.341 0-2.886.72-5.265 1.453-6.936h-1.618a18.3 18.3 0 00-.063.161 18.015 18.015 0 01-.063-.162h-1.621a17.998 17.998 0 00.988 2.287 19.021 19.021 0 00-.488 2.79H25.04l-6.952-3.203c.254-.595.36-1.238.313-1.873h-1.5a2.558 2.558 0 00.017.303 2.526 2.526 0 01-3.925 2.098 2.523 2.523 0 01-1.103-2.402h-1.515l.002-.035v-.001a4.03 4.03 0 001.46 3.44 4.024 4.024 0 005.408-.279l7.32 3.372a.737.737 0 00.311.068h7.035v.37zm5.753 9.982h1.167a.713.713 0 00-.001.001.744.744 0 01-.693.155 7.723 7.723 0 01-.473-.156zm22.285-22.555c.49-1.736.12-3.524-1.075-5.105-2.353-3.116-6.229-2.457-8.56-1.662 1.36-4.139-1.343-7.835-3.903-9.235-1.487-.817-4.992-1.52-8.54-.104-2.19.867-5.115 2.89-6.615 7.573a22.046 22.046 0 00-.925 4.32h-7.198a4.012 4.012 0 10-5.96 4.213h4.037a4.011 4.011 0 001.923-2.723h7.082a21.97 21.97 0 00.056 2.723h1.53a20.32 20.32 0 01.89-8.075c1.062-3.312 2.996-5.548 5.75-6.648 2.89-1.156 5.987-.678 7.272.026 2.218 1.223 4.592 4.574 2.903 8.2-.12.258-.268.5-.443.723-.019.022-.036.045-.053.068-1.012 1.237-2.699 1.618-4.09 1.408-1.196-.186-2.641-.897-2.845-2.328a.743.743 0 00-1.46-.085.745.745 0 00-.014.291c.257 1.845 1.863 3.252 4.092 3.586 1.82.278 4.023-.233 5.407-1.864.878-.434 6.012-2.774 8.476.491 1.26 1.662 1.09 3.192.692 4.207h1.57zm-42.154-1.37a2.523 2.523 0 102.802-4.195 2.523 2.523 0 00-2.802 4.195zm-4.16 46.929c.416.277.904.425 1.403.425v.005a2.527 2.527 0 00.967-4.86 2.524 2.524 0 00-2.37 4.43z"/><path fill-rule="evenodd" clip-rule="evenodd" d="M13.768 25.555h1.515a2.538 2.538 0 01.72-1.48 2.524 2.524 0 014.29 1.48h1.5a4.024 4.024 0 00-8.025 0zm21.111 0h1.622a21.055 21.055 0 01-1.307-5.639h-1.53c.19 2.296.711 4.227 1.215 5.64zm-10.276-5.639h-4.038a4.013 4.013 0 004.038 0zm38.739 0h-1.57a5.58 5.58 0 01-1.258 1.887.714.714 0 00-.097.091c-.813.777-1.782 1.27-2.568 1.366a.745.745 0 00.09 1.485c.03.002.06.002.09 0 1.114-.135 2.284-.748 3.257-1.626.92-.044 4.205-.008 5.948 2.436h1.737c-1.513-2.998-4.544-3.739-6.433-3.898a6.43 6.43 0 00.55-1.023c.101-.238.186-.477.254-.718zm-25.097 5.64c.749-1.71 1.51-2.68 1.525-2.699a.745.745 0 00-1.157-.932c-.074.093-1.098 1.391-1.986 3.63h1.618zm29.951 11.278H65.66c.709.345 3.19 1.82 3.693 5.638h1.504c-.314-2.773-1.526-4.553-2.66-5.639zm-31.99 5.638h1.574a8.098 8.098 0 01.729-1.547 7.65 7.65 0 002.547 1.547h1.168a.745.745 0 00-.285-1.275 6.455 6.455 0 01-2.901-1.826.48.48 0 00-.046-.065.798.798 0 00-.072-.066 7.405 7.405 0 01-1.032-1.53.768.768 0 00-.116-.233 8.78 8.78 0 01-.271-.643h-1.555c.036.112.073.224.112.336H14.767a4.068 4.068 0 00-.06-.337h-1.549a2.527 2.527 0 01-2.366 3.4v.001a2.523 2.523 0 01-2.366-3.4h-1.54a4.008 4.008 0 007.804 1.826h22.035c.22.396.467.776.742 1.135-.35.491-.837 1.341-1.262 2.677zm21.195 0h1.807c-.7-1.362-1.916-2.034-2.656-2.219a.747.747 0 00-.373 1.445c.046.013.67.19 1.222.774zm7.25 11.278h-2.59a9.425 9.425 0 01.118.168c1.135 1.68 1.575 3.57 1.287 5.47h1.509c.242-1.864-.106-3.715-1.021-5.416.211-.059.446-.132.697-.222zm-27.427 5.639h1.846c2.665-3.034 7.895-2.43 8.173-2.396a.745.745 0 00.186-1.478c-2.007-.254-5.133-.072-7.602 1.376a.75.75 0 00-.238-.094c-.021 0-1.445-.382-2.253-3.047h-1.544c.16.606.349 1.13.556 1.586h-4.047a.744.744 0 00-.663.408l-1.855 3.645h1.678l1.304-2.563h4.492c.336.422.742.784 1.2 1.068a7.072 7.072 0 00-1.233 1.495zm-19.212 0h.847a4.004 4.004 0 00-.847 0zm4.834-5.639h-1.564a2.524 2.524 0 01-4.674.028l-.01-.028h-1.594a4.027 4.027 0 007.842 0z"/><path fill-rule="evenodd" clip-rule="evenodd" d="M67.306 25.722c1.987 4.206-.17 8.225-2.03 10.178a8.08 8.08 0 011.175.933h-2.537a2.524 2.524 0 00-.184-.082.746.746 0 01-.18-1.285c1.04-.796 4.503-4.677 2.41-9.105a5.274 5.274 0 00-.472-.806h1.737c.028.055.055.11.081.167zm.302 16.75h1.503c.08.697.101 1.456.05 2.283-.37 5.955-3.99 8.18-6.255 8.995h-2.492a10.096 10.096 0 01.117.168c1.136 1.68 1.575 3.57 1.288 5.47h1.41a9.837 9.837 0 01-.838 2.861c-3.343 7.245-11.055 5.706-13.297 5.077-1.421 2.329-3.973 3.34-6.504 3.34a9.54 9.54 0 01-2.797-.418c-3.794-1.177-5.911-4.245-5.384-7.825.297-2.004 1.155-3.47 2.303-4.529a4.7 4.7 0 01-1.2-1.068h.098c.336.422.741.784 1.2 1.068a7.07 7.07 0 00-1.234 1.495h1.75c-.707.803-1.232 1.862-1.438 3.255-.505 3.415 2.028 5.46 4.349 6.183 2.81.87 6.4.216 7.825-2.715a.746.746 0 01.928-.371c.352.129 8.712 3.115 12.05-4.112 1.208-2.617.976-5.37-.606-7.71l-.006-.008-.002-.002-.004-.007a9.921 9.921 0 00-4.926-3.75.7.7 0 01-.166-.054c-1.503-.478-3.055-.537-4.418-.095a.745.745 0 01-.46-1.416c1.527-.496 3.242-.476 4.914-.02a6.164 6.164 0 001.145-3.909c-.044-1.044-.428-1.735-.855-2.186h1.807c.296.577.5 1.277.535 2.117a7.724 7.724 0 01-1.182 4.48 11.417 11.417 0 014.541 3.58c1.4-.27 5.917-1.634 6.315-7.994v.01c.05-.805.022-1.534-.064-2.193zm-23.43 14.45c.737.002 1.239.06 1.32.07a.744.744 0 00.142.005 11.995 11.995 0 00-1.462-.075zm-.042-1.503c-1.853-.006-4.117.353-6.006 1.445a.72.72 0 01.05.027c1.865-1.094 4.106-1.465 5.956-1.472zM35.59 53.75c-.32-1.058-.544-2.475-.544-4.371a27.08 27.08 0 01.243-3.758.745.745 0 00.102-.65c.179-1.025.408-1.848.643-2.499H34.46c-.18.57-.35 1.227-.493 1.982H22.246a.748.748 0 00-.615.33l-2.962 4.308a4.027 4.027 0 10-1.44 7.768 4.027 4.027 0 01-3.873-3.11h1.496a2.523 2.523 0 112.442 1.585 2.525 2.525 0 002.34-1.585h1.467a4.026 4.026 0 00-1.174-3.86l2.71-3.95h11.105a29.342 29.342 0 00-.19 3.436c0 2.746.451 4.644 1.051 5.96h.098a9.893 9.893 0 01-.557-1.586h1.447zm-4.937 1.586h-.098a.745.745 0 00-.663.408l-3.508 6.891h-5.75a4.013 4.013 0 00-3.521-3.246h-.75l.05-.005a3.93 3.93 0 01.325-.017 4.013 4.013 0 103.895 4.758h6.215a.743.743 0 00.663-.407l2.204-4.33h-1.58l1.855-3.644a.745.745 0 01.663-.408zM6.68 36.833H5.14a4.008 4.008 0 017.82 0h-1.548l.018.05a2.53 2.53 0 00-1.418-1.504 2.523 2.523 0 00-3.332 1.454zm26.877-4.343c-.02 1.48.199 2.953.649 4.362l-.006-.019h1.554c-.428-1.137-.708-2.561-.708-4.341 0-2.886.72-5.265 1.453-6.936h-1.618l-.064.161-.063-.162h-1.621a17.984 17.984 0 00.988 2.287 19.035 19.035 0 00-.487 2.79h-6.948l-6.952-3.203c.255-.595.36-1.238.313-1.873h-1.5a2.56 2.56 0 00.018.303 2.527 2.527 0 01-3.926 2.098 2.523 2.523 0 01-1.103-2.402h-1.515l.003-.035v-.001a4.019 4.019 0 001.459 3.44 4.024 4.024 0 005.408-.279l7.321 3.372a.738.738 0 00.31.068h7.035v.37zm5.753 9.982h1.167a.884.884 0 000 .001.744.744 0 01-.694.155 7.72 7.72 0 01-.473-.156zm22.285-22.555c.49-1.736.12-3.524-1.074-5.105-2.353-3.116-6.23-2.457-8.56-1.662 1.36-4.139-1.343-7.835-3.903-9.235-1.487-.817-4.992-1.52-8.54-.104-2.19.867-5.115 2.89-6.616 7.573a22.046 22.046 0 00-.925 4.32H24.78a4.012 4.012 0 10-5.961 4.213h4.037a4.012 4.012 0 001.924-2.722h7.082a21.89 21.89 0 00.056 2.722h1.53a20.306 20.306 0 01.89-8.075c1.062-3.312 2.996-5.548 5.749-6.648 2.89-1.156 5.988-.678 7.273.026 2.217 1.223 4.592 4.574 2.902 8.2a3.63 3.63 0 01-.496.791c-1.011 1.237-2.698 1.618-4.09 1.408-1.195-.186-2.64-.897-2.844-2.328a.745.745 0 10-1.474.206c.257 1.845 1.862 3.252 4.091 3.586 1.821.278 4.024-.233 5.407-1.864.879-.434 6.013-2.774 8.477.491 1.259 1.662 1.09 3.192.692 4.207h1.57zm-42.154-1.37a2.523 2.523 0 102.803-4.196 2.523 2.523 0 00-2.803 4.196zm-4.159 46.929c.415.277.903.425 1.403.425v.005a2.527 2.527 0 10-.492-5.003 2.524 2.524 0 00-.91 4.573z"/><path fill-rule="evenodd" clip-rule="evenodd" d="M12.12 25.555h1.515a2.523 2.523 0 015.01 0h1.502a4.024 4.024 0 00-8.027 0zm21.112 0h1.621a21.054 21.054 0 01-1.307-5.639h-1.529c.19 2.296.71 4.227 1.215 5.64zm-10.277-5.639h-4.037a4.012 4.012 0 004.037 0zm38.74 0h-1.571a5.582 5.582 0 01-1.258 1.887.708.708 0 00-.096.091c-.814.777-1.782 1.27-2.568 1.366a.745.745 0 00.09 1.485.66.66 0 00.089 0c1.114-.135 2.285-.748 3.258-1.626.92-.044 4.205-.008 5.947 2.436h1.737c-1.512-2.998-4.543-3.739-6.433-3.898a6.43 6.43 0 00.55-1.023c.102-.238.186-.477.254-.718zm-25.097 5.64c.748-1.71 1.509-2.68 1.524-2.699a.744.744 0 00-1.156-.932c-.075.093-1.098 1.391-1.986 3.63h1.618zm29.951 11.278h-2.537c.71.345 3.19 1.82 3.693 5.638h1.504c-.313-2.773-1.526-4.553-2.66-5.639zm-31.991 5.638h1.575a8.1 8.1 0 01.728-1.547 7.652 7.652 0 002.548 1.547h1.167a.744.744 0 00-.285-1.275 6.456 6.456 0 01-2.9-1.826.488.488 0 00-.047-.065.799.799 0 00-.072-.066 7.404 7.404 0 01-1.032-1.53.771.771 0 00-.116-.233 8.869 8.869 0 01-.271-.643h-1.555c.036.112.073.224.112.336H13.12a3.986 3.986 0 00-.061-.337H11.51a2.523 2.523 0 01-2.366 3.4v.001a2.523 2.523 0 01-2.366-3.4h-1.54a4.008 4.008 0 007.804 1.826h22.035c.219.396.467.776.741 1.135-.35.491-.837 1.341-1.261 2.677zm21.196 0h1.806c-.7-1.362-1.916-2.034-2.655-2.219a.747.747 0 00-.373 1.445c.046.013.67.19 1.222.774zm7.25 11.278h-2.59a8.831 8.831 0 01.117.168c1.136 1.68 1.575 3.57 1.288 5.47h1.508c.242-1.864-.105-3.715-1.02-5.416.21-.059.445-.132.697-.222zm-27.428 5.639h1.847c2.664-3.034 7.895-2.43 8.173-2.396a.745.745 0 00.186-1.478c-2.007-.254-5.134-.072-7.602 1.376a.748.748 0 00-.239-.094c-.02 0-1.445-.382-2.252-3.047h-1.545c.16.606.35 1.13.557 1.586h-4.047a.744.744 0 00-.663.408l-1.856 3.645h1.678l1.305-2.563h4.492a4.7 4.7 0 001.2 1.068 7.072 7.072 0 00-1.234 1.495zm-19.211 0h.847a4.003 4.003 0 00-.847 0zm4.834-5.639h-1.565a2.523 2.523 0 01-4.673.028l-.011-.028h-1.594a4.027 4.027 0 007.842 0z"/><path fill-rule="evenodd" clip-rule="evenodd" d="M65.659 25.722c1.987 4.206-.17 8.225-2.031 10.178a8.08 8.08 0 011.176.933h-2.537a2.503 2.503 0 00-.184-.082.747.747 0 01-.18-1.285c1.04-.796 4.503-4.677 2.409-9.105a5.266 5.266 0 00-.471-.806h1.736l.082.167zm.301 16.75h1.504c.079.697.1 1.456.05 2.283-.37 5.955-3.99 8.18-6.256 8.995h-2.492a9.417 9.417 0 01.118.168c1.135 1.68 1.575 3.57 1.287 5.47h1.411a9.834 9.834 0 01-.839 2.861c-3.343 7.245-11.055 5.706-13.297 5.077-1.42 2.329-3.973 3.34-6.504 3.34-.947 0-1.89-.14-2.796-.418-3.794-1.177-5.912-4.245-5.384-7.825.296-2.004 1.155-3.47 2.302-4.529a4.704 4.704 0 01-1.2-1.068h.098c.336.422.742.784 1.2 1.068a7.073 7.073 0 00-1.233 1.495h1.749c-.706.803-1.232 1.862-1.438 3.255-.504 3.415 2.028 5.46 4.35 6.183 2.81.87 6.4.216 7.824-2.715a.746.746 0 01.928-.371c.353.129 8.713 3.115 12.05-4.112 1.208-2.617.977-5.37-.606-7.71l-.005-.008-.002-.002a9.92 9.92 0 00-4.93-3.757.699.699 0 01-.166-.054c-1.503-.478-3.056-.537-4.419-.095a.745.745 0 01-.46-1.416c1.527-.496 3.243-.476 4.915-.02a6.164 6.164 0 001.145-3.909c-.044-1.044-.429-1.735-.855-2.186h1.806c.297.577.5 1.277.536 2.117a7.723 7.723 0 01-1.182 4.48 11.419 11.419 0 014.54 3.58c1.401-.27 5.918-1.634 6.315-7.994v.01c.05-.805.023-1.534-.064-2.193zm-23.43 14.45c.737.002 1.24.06 1.32.07a.743.743 0 00.142.005 11.994 11.994 0 00-1.462-.075zm-.042-1.503c-1.852-.006-4.117.353-6.006 1.445a.697.697 0 01.05.027c1.866-1.094 4.106-1.465 5.956-1.472zm-8.545-1.669c-.32-1.058-.544-2.475-.544-4.371a27.095 27.095 0 01.243-3.758.743.743 0 00.103-.65c.178-1.025.408-1.848.643-2.499h-1.575c-.181.57-.35 1.227-.493 1.982H20.598a.748.748 0 00-.614.33l-2.963 4.308a4.026 4.026 0 10-1.44 7.768 4.026 4.026 0 01-3.872-3.11h1.495a2.524 2.524 0 112.442 1.585 2.525 2.525 0 002.34-1.585h1.467a4.026 4.026 0 00-1.173-3.86l2.71-3.95h11.104a29.342 29.342 0 00-.19 3.436c0 2.746.452 4.644 1.052 5.96h.097a9.884 9.884 0 01-.556-1.586h1.446zm-4.936 1.586h-.098a.745.745 0 00-.664.408l-3.507 6.891h-5.751a4.014 4.014 0 00-3.52-3.246h-.75a4.13 4.13 0 01.375-.022 4.014 4.014 0 103.895 4.758H25.2a.743.743 0 00.664-.407l2.203-4.33h-1.58l1.855-3.644a.744.744 0 01.663-.408zM5.032 36.833h-1.54a4.008 4.008 0 017.82 0H9.766a2.454 2.454 0 01-.268-.524 2.523 2.523 0 00-4.465.524zM31.91 32.49c-.021 1.48.198 2.953.648 4.362l-.006-.019h1.555c-.429-1.137-.709-2.561-.709-4.341 0-2.886.72-5.265 1.453-6.936h-1.618a18.3 18.3 0 00-.063.161 18.015 18.015 0 01-.063-.162h-1.621a17.998 17.998 0 00.988 2.287 19.021 19.021 0 00-.488 2.79H25.04l-6.952-3.203c.254-.595.36-1.238.313-1.873h-1.5a2.558 2.558 0 00.017.303 2.526 2.526 0 01-3.925 2.098 2.523 2.523 0 01-1.103-2.402h-1.515l.002-.035v-.001a4.03 4.03 0 001.46 3.44 4.024 4.024 0 005.408-.279l7.32 3.372a.737.737 0 00.311.068h7.035v.37zm5.753 9.982h1.167a.713.713 0 00-.001.001.744.744 0 01-.693.155 7.723 7.723 0 01-.473-.156zm22.285-22.555c.49-1.736.12-3.524-1.075-5.105-2.353-3.116-6.229-2.457-8.56-1.662 1.36-4.139-1.343-7.835-3.903-9.235-1.487-.817-4.992-1.52-8.54-.104-2.19.867-5.115 2.89-6.615 7.573a22.046 22.046 0 00-.925 4.32h-7.198a4.012 4.012 0 10-5.96 4.213h4.037a4.011 4.011 0 001.923-2.723h7.082a21.97 21.97 0 00.056 2.723h1.53a20.32 20.32 0 01.89-8.075c1.062-3.312 2.996-5.548 5.75-6.648 2.89-1.156 5.987-.678 7.272.026 2.218 1.223 4.592 4.574 2.903 8.2-.12.258-.268.5-.443.723-.019.022-.036.045-.053.068-1.012 1.237-2.699 1.618-4.09 1.408-1.196-.186-2.641-.897-2.845-2.328a.743.743 0 00-1.46-.085.745.745 0 00-.014.291c.257 1.845 1.863 3.252 4.092 3.586 1.82.278 4.023-.233 5.407-1.864.878-.434 6.012-2.774 8.476.491 1.26 1.662 1.09 3.192.692 4.207h1.57zm-42.154-1.37a2.523 2.523 0 102.802-4.195 2.523 2.523 0 00-2.802 4.195zm-4.16 46.929c.416.277.904.425 1.403.425v.005a2.527 2.527 0 00.967-4.86 2.524 2.524 0 00-2.37 4.43z"/></svg><svg viewBox="0 0 328 78" id="logo" xmlns="http://www.w3.org/2000/svg"><path fill-rule="evenodd" clip-rule="evenodd" d="M225.939 23.636h-8.397v-5.909h8.397v5.91zm17.629 0h-8.698a24.32 24.32 0 012.02-5.909h10.188a15.605 15.605 0 00-3.51 5.91zm81.744-5.909l-4.034 5.91h-9.725l4.047-5.91h9.712zm-32.164 0h9.713l4.047 5.91h-9.725l-4.035-5.91zm-11.603 0h-9.463c.783.878 1.351 1.83 1.654 2.816l8.396-.972a13.105 13.105 0 00-.587-1.844zm-73.016 0v5.91h-8.397v-5.91h8.397zm-43.276 0v5.91h8.397v-5.91h-8.397zm-11.027 0a24.376 24.376 0 012.069 5.91h-8.676a15.617 15.617 0 00-3.51-5.91h10.117zm-44.483 0a24.333 24.333 0 00-2.069 5.91h8.675a15.63 15.63 0 013.51-5.91h-10.116zm-9.1 0v3.465c0 .835-.074 1.652-.217 2.444h-8.702c.333-.778.522-1.694.522-2.768v-3.14h8.397zm-41.985 0v5.91h8.397v-5.91h-8.397zm-9.042 0v3.465c0 .835-.073 1.652-.216 2.444h-8.703c.333-.778.522-1.694.522-2.768v-3.14h8.397zm-41.984 5.91v-5.91h8.397v5.91H7.632zm59.423 17.727h-8.397v-5.91h32.21l3.564 5.91h-9.718l-3.384-5.585-14.275 1.296v4.289zm158.884 0h-8.397v-5.91h8.397v5.91zm87.49 0h-8.397v-5.91h8.397v5.91zm-31.296-5.91v5.91h-9.926c1.428-.946 2.175-1.695 2.175-1.695v-4.214h7.751zm-46.998 0h8.858a15.463 15.463 0 004.301 5.91h-10.795a23.831 23.831 0 01-2.364-5.91zm-27.271 0c-.372 2.147-.92 4.127-1.697 5.91h-9.943c1.605-1.356 2.597-3.297 3.18-5.91h8.46zm-42.61 0v5.91h8.396v-5.91h-8.396zm-9.232 0a23.986 23.986 0 01-2.416 5.91h-10.713a15.463 15.463 0 004.301-5.91h8.828zm-48.076 0a24.025 24.025 0 002.416 5.91h10.713a15.473 15.473 0 01-4.301-5.91h-8.828zm-100.314 0h26.482l-18.085 1.621v4.289H7.632v-5.91z"/><path fill-rule="evenodd" clip-rule="evenodd" d="M2.304 46.678V18.652H10.7v-5.909H2.304V1.297h41.984v11.446H35.89V9.076H10.7v15.236l17.762-1.621c2.768-.253 5.731-1.292 6.906-4.039h8.703l.01-.056c-1.112 6.31-6.667 11.124-15.296 11.875L10.7 32.09v3.364H6.179v5.909H10.7v5.314H2.304zm51.026 0V18.652h8.397v5.66L79.49 22.69c2.767-.253 5.731-1.292 6.906-4.039h8.702c-.893 4.93-4.507 8.938-10.183 10.781l3.631 6.022h-9.72l-2.824-4.66-14.275 1.296v3.364h-4.521v5.909h4.521v5.314H53.33zm25.736-10.826l6.56 10.826h9.688l-3.204-5.314h-8.85l-3.384-5.585-.81.073zM61.727 12.743H53.33V1.297h41.984v11.446h-8.396V9.076h-25.19v3.667zm47.168 28.596c-4.674-4.52-7.106-10.846-7.106-17.351 0-1.804.187-3.594.557-5.336h8.675a17.09 17.09 0 00-.835 5.335c0 4.518 1.679 8.553 4.561 11.468h-8.254a24.044 24.044 0 002.402 5.884zm.026.025c4.175 4.024 10.132 6.611 17.735 6.611 7.604 0 13.56-2.587 17.735-6.611h-2.95a15.471 15.471 0 004.3-5.91h3.043c1.811-3.498 2.74-7.448 2.74-11.466 0-1.925-.213-3.834-.634-5.685l.077.35h-8.676c.545 1.664.836 3.458.836 5.335 0 9.076-6.782 16.207-16.471 16.207-4.339 0-8.096-1.43-10.921-3.825a15.413 15.413 0 003.888 4.994h-10.702zm5.61-28.62h-10.116C108.116 5.405 115.665 0 126.656 0s18.541 5.406 22.242 12.743h-10.117c-2.918-3.073-7.136-4.963-12.125-4.963-4.988 0-9.206 1.89-12.125 4.963zm66.71 33.934h-21.315V18.652h8.396v16.803h-4.521v5.909h8.397v-2.465h9.043c11.303 0 13.564-4.863 13.564-17.505v-2.742h8.396v2.742c0 5.365-.501 10.142-1.986 14.06h-3.265c-.582 2.613-1.573 4.554-3.179 5.91h2.764c-3.343 3.387-8.499 5.314-16.294 5.314zm-12.919-33.935h-8.396V1.297h43.275v11.446h-8.396V9.076h-26.483v3.667zm43.892 33.935V18.652h8.397v16.803h-4.522v5.909h4.522v5.314h-8.397zm8.397-33.935h-8.397V1.297h8.397v11.446zm33.264 35.232c-16.148 0-24.868-11.345-24.868-23.988 0-1.814.18-3.603.535-5.335h8.698a17.032 17.032 0 00-.836 5.335c0 4.518 1.68 8.553 4.562 11.468h-8.285a23.893 23.893 0 002.365 5.909h10.796a15.412 15.412 0 01-3.888-4.995c2.825 2.396 6.581 3.826 10.921 3.826 9.689 0 15.179-5.51 15.179-5.51v-5.187H257.75v-7.455h19.055v13.412h-3.876v4.214s-.747.749-2.175 1.695h6.051v5.314h-7.751v-3.241s-5.813 4.538-15.179 4.538zM241.75 12.743h-10.189l-.038.08 35.245-.063 9.449-.016h-9.464c-2.564-2.873-7.437-4.964-12.878-4.964-4.989 0-9.206 1.89-12.125 4.963zm57.954 33.935V30.147l-7.849-11.495h9.725l2.322 3.39 2.323-3.39h9.725l-7.849 11.494v5.309h-4.521v5.909h4.521v5.314h-8.397zm-2.172-33.935h-9.712l-7.816-11.446h9.689l7.839 11.446zm22.453 0h-9.713l7.84-11.446h9.689l-7.816 11.446z"/><path fill-rule="evenodd" clip-rule="evenodd" d="M223.635 23.636h-8.397v-5.909h8.397v5.91zm17.629 0h-8.697a24.275 24.275 0 012.019-5.909h10.188a15.605 15.605 0 00-3.51 5.91zm81.744-5.909l-4.034 5.91h-9.725l4.048-5.91h9.711zm-32.164 0h9.713l4.047 5.91h-9.725l-4.035-5.91zm-11.603 0h-9.463c.784.878 1.352 1.83 1.654 2.816l8.397-.972a13.244 13.244 0 00-.588-1.844zm-73.016 0v5.91h-8.397v-5.91h8.397zm-43.276 0v5.91h8.397v-5.91h-8.397zm-11.027 0a24.378 24.378 0 012.07 5.91h-8.677a15.617 15.617 0 00-3.51-5.91h10.117zm-44.483 0a24.333 24.333 0 00-2.069 5.91h8.675a15.63 15.63 0 013.51-5.91h-10.116zm-9.1 0v3.465c0 .835-.073 1.652-.217 2.444H89.42c.333-.778.522-1.694.522-2.768v-3.14h8.397zm-41.984 0v5.91h8.397v-5.91h-8.397zm-9.043 0v3.465c0 .835-.073 1.652-.216 2.444h-8.703c.333-.778.522-1.694.522-2.768v-3.14h8.397zm-41.984 5.91v-5.91h8.397v5.91H5.328zm59.424 17.727h-8.397v-5.91h32.21l3.564 5.91H82.41l-3.384-5.585-14.274 1.296v4.289zm158.883 0h-8.397v-5.91h8.397v5.91zm87.49 0h-8.397v-5.91h8.397v5.91zm-31.296-5.91v5.91h-9.925c1.428-.946 2.174-1.695 2.174-1.695v-4.214h7.751zm-46.998 0h8.859a15.46 15.46 0 004.3 5.91h-10.795a23.87 23.87 0 01-2.364-5.91zm-27.271 0c-.371 2.147-.92 4.127-1.696 5.91h-9.943c1.604-1.356 2.597-3.297 3.179-5.91h8.46zm-42.611 0v5.91h8.397v-5.91h-8.397zm-9.23 0a24.028 24.028 0 01-2.417 5.91h-10.713a15.452 15.452 0 004.301-5.91h8.829zm-48.077 0a24.064 24.064 0 002.416 5.91h10.713a15.47 15.47 0 01-4.3-5.91h-8.829zm-100.314 0H31.81l-18.085 1.621v4.289H5.328v-5.91z"/><path fill-rule="evenodd" clip-rule="evenodd" d="M0 46.678V18.652h8.397v-5.909H0V1.297h41.984v11.446h-8.397V9.076H8.397v15.236l17.762-1.621c2.768-.253 5.732-1.292 6.906-4.039h8.703l.01-.056c-1.112 6.31-6.667 11.124-15.296 11.875L8.397 32.09v3.364H3.875v5.909h4.522v5.314H0zm51.027 0V18.652h8.396v5.66l17.763-1.621c2.768-.253 5.731-1.292 6.906-4.039h8.702c-.892 4.93-4.507 8.938-10.182 10.781l3.63 6.022h-9.72l-2.824-4.66-14.274 1.296v3.364h-4.522v5.909h4.521v5.314h-8.396zm25.736-10.826l6.56 10.826h9.688l-3.205-5.314h-8.849l-3.383-5.585-.811.073zm-17.34-23.109h-8.396V1.297H93.01v11.446h-8.397V9.076h-25.19v3.667zm47.169 28.596c-4.675-4.52-7.107-10.846-7.107-17.351 0-1.804.187-3.594.557-5.336h8.675a17.09 17.09 0 00-.835 5.335c0 4.518 1.68 8.553 4.561 11.468h-8.253a23.966 23.966 0 002.402 5.884zm.025.025c4.175 4.024 10.132 6.611 17.735 6.611 7.604 0 13.56-2.587 17.736-6.611h-2.951a15.473 15.473 0 004.301-5.91h3.042c1.811-3.498 2.74-7.448 2.74-11.466a25.643 25.643 0 00-.557-5.336h-8.676a17.09 17.09 0 01.836 5.335c0 9.077-6.782 16.208-16.471 16.208-4.339 0-8.096-1.43-10.921-3.825a15.413 15.413 0 003.888 4.994h-10.702zm5.61-28.62h-10.116C105.812 5.405 113.362 0 124.352 0c10.991 0 18.541 5.406 22.242 12.743h-10.117c-2.918-3.073-7.136-4.963-12.125-4.963-4.988 0-9.206 1.89-12.125 4.963zm66.71 33.934h-21.315V18.652h8.396v16.803h-4.521v5.909h8.397v-2.465h9.043c11.303 0 13.564-4.863 13.564-17.505v-2.742h8.396v2.742c0 5.365-.501 10.142-1.986 14.06h-3.264c-.583 2.613-1.574 4.554-3.18 5.91h2.764c-3.343 3.387-8.499 5.314-16.294 5.314zm-12.919-33.935h-8.396V1.297h43.275v11.446h-8.396V9.076h-26.483v3.667zm43.892 33.935V18.652h8.397v16.803h-4.522v5.909h4.522v5.314h-8.397zm8.397-33.935h-8.397V1.297h8.397v11.446zm33.264 35.232c-16.148 0-24.867-11.345-24.867-23.988 0-1.814.179-3.603.534-5.335h8.698c.031-.096.065-.192.098-.287a17.032 17.032 0 00-.934 5.623c0 4.517 1.681 8.552 4.562 11.467h-8.284a23.836 23.836 0 002.365 5.909h10.795a15.412 15.412 0 01-3.888-4.995c2.825 2.396 6.581 3.826 10.921 3.826 9.689 0 15.179-5.51 15.179-5.51v-5.187h-11.304v-7.455h19.055v13.412h-3.876v4.214s-.747.749-2.175 1.695h6.051v5.314h-7.751v-3.241s-5.813 4.538-15.179 4.538zm-12.125-35.232h-10.188l-.04.08 35.246-.063 9.449-.016h-9.463c-2.565-2.873-7.437-4.964-12.879-4.964-4.989 0-9.206 1.89-12.125 4.963zM297.4 46.678V30.147l-7.849-11.495h9.725l2.323 3.39 2.322-3.39h9.725l-7.849 11.494v5.309h-4.521v5.909h4.521v5.314H297.4zm-2.171-33.935h-9.713L277.7 1.297h9.689l7.84 11.446zm22.452 0h-9.713l7.84-11.446h9.689l-7.816 11.446z"/><path fill-rule="evenodd" clip-rule="evenodd" d="M225.939 23.636h-8.397v-5.909h8.397v5.91zm17.629 0h-8.698a24.32 24.32 0 012.02-5.909h10.188a15.605 15.605 0 00-3.51 5.91zm81.744-5.909l-4.034 5.91h-9.725l4.047-5.91h9.712zm-32.164 0h9.713l4.047 5.91h-9.725l-4.035-5.91zm-11.603 0h-9.463c.783.878 1.351 1.83 1.654 2.816l8.396-.972a13.105 13.105 0 00-.587-1.844zm-73.016 0v5.91h-8.397v-5.91h8.397zm-43.276 0v5.91h8.397v-5.91h-8.397zm-11.027 0a24.376 24.376 0 012.069 5.91h-8.676a15.617 15.617 0 00-3.51-5.91h10.117zm-44.483 0a24.333 24.333 0 00-2.069 5.91h8.675a15.63 15.63 0 013.51-5.91h-10.116zm-9.1 0v3.465c0 .835-.074 1.652-.217 2.444h-8.702c.333-.778.522-1.694.522-2.768v-3.14h8.397zm-41.985 0v5.91h8.397v-5.91h-8.397zm-9.042 0v3.465c0 .835-.073 1.652-.216 2.444h-8.703c.333-.778.522-1.694.522-2.768v-3.14h8.397zm-41.984 5.91v-5.91h8.397v5.91H7.632zm59.423 17.727h-8.397v-5.91h32.21l3.564 5.91h-9.718l-3.384-5.585-14.275 1.296v4.289zm158.884 0h-8.397v-5.91h8.397v5.91zm87.49 0h-8.397v-5.91h8.397v5.91zm-31.296-5.91v5.91h-9.926c1.428-.946 2.175-1.695 2.175-1.695v-4.214h7.751zm-46.998 0h8.858a15.463 15.463 0 004.301 5.91h-10.795a23.831 23.831 0 01-2.364-5.91zm-27.271 0c-.372 2.147-.92 4.127-1.697 5.91h-9.943c1.605-1.356 2.597-3.297 3.18-5.91h8.46zm-42.61 0v5.91h8.396v-5.91h-8.396zm-9.232 0a23.986 23.986 0 01-2.416 5.91h-10.713a15.463 15.463 0 004.301-5.91h8.828zm-48.076 0a24.025 24.025 0 002.416 5.91h10.713a15.473 15.473 0 01-4.301-5.91h-8.828zm-100.314 0h26.482l-18.085 1.621v4.289H7.632v-5.91z"/><path fill-rule="evenodd" clip-rule="evenodd" d="M2.304 46.678V18.652H10.7v-5.909H2.304V1.297h41.984v11.446H35.89V9.076H10.7v15.236l17.762-1.621c2.768-.253 5.731-1.292 6.906-4.039h8.703l.01-.056c-1.112 6.31-6.667 11.124-15.296 11.875L10.7 32.09v3.364H6.179v5.909H10.7v5.314H2.304zm51.026 0V18.652h8.397v5.66L79.49 22.69c2.767-.253 5.731-1.292 6.906-4.039h8.702c-.893 4.93-4.507 8.938-10.183 10.781l3.631 6.022h-9.72l-2.824-4.66-14.275 1.296v3.364h-4.521v5.909h4.521v5.314H53.33zm25.736-10.826l6.56 10.826h9.688l-3.204-5.314h-8.85l-3.384-5.585-.81.073zM61.727 12.743H53.33V1.297h41.984v11.446h-8.396V9.076h-25.19v3.667zm47.168 28.596c-4.674-4.52-7.106-10.846-7.106-17.351 0-1.804.187-3.594.557-5.336h8.675a17.09 17.09 0 00-.835 5.335c0 4.518 1.679 8.553 4.561 11.468h-8.254a24.044 24.044 0 002.402 5.884zm.026.025c4.175 4.024 10.132 6.611 17.735 6.611 7.604 0 13.56-2.587 17.735-6.611h-2.95a15.471 15.471 0 004.3-5.91h3.043c1.811-3.498 2.74-7.448 2.74-11.466 0-1.925-.213-3.834-.634-5.685l.077.35h-8.676c.545 1.664.836 3.458.836 5.335 0 9.076-6.782 16.207-16.471 16.207-4.339 0-8.096-1.43-10.921-3.825a15.413 15.413 0 003.888 4.994h-10.702zm5.61-28.62h-10.116C108.116 5.405 115.665 0 126.656 0s18.541 5.406 22.242 12.743h-10.117c-2.918-3.073-7.136-4.963-12.125-4.963-4.988 0-9.206 1.89-12.125 4.963zm66.71 33.934h-21.315V18.652h8.396v16.803h-4.521v5.909h8.397v-2.465h9.043c11.303 0 13.564-4.863 13.564-17.505v-2.742h8.396v2.742c0 5.365-.501 10.142-1.986 14.06h-3.265c-.582 2.613-1.573 4.554-3.179 5.91h2.764c-3.343 3.387-8.499 5.314-16.294 5.314zm-12.919-33.935h-8.396V1.297h43.275v11.446h-8.396V9.076h-26.483v3.667zm43.892 33.935V18.652h8.397v16.803h-4.522v5.909h4.522v5.314h-8.397zm8.397-33.935h-8.397V1.297h8.397v11.446zm33.264 35.232c-16.148 0-24.868-11.345-24.868-23.988 0-1.814.18-3.603.535-5.335h8.698a17.032 17.032 0 00-.836 5.335c0 4.518 1.68 8.553 4.562 11.468h-8.285a23.893 23.893 0 002.365 5.909h10.796a15.412 15.412 0 01-3.888-4.995c2.825 2.396 6.581 3.826 10.921 3.826 9.689 0 15.179-5.51 15.179-5.51v-5.187H257.75v-7.455h19.055v13.412h-3.876v4.214s-.747.749-2.175 1.695h6.051v5.314h-7.751v-3.241s-5.813 4.538-15.179 4.538zM241.75 12.743h-10.189l-.038.08 35.245-.063 9.449-.016h-9.464c-2.564-2.873-7.437-4.964-12.878-4.964-4.989 0-9.206 1.89-12.125 4.963zm57.954 33.935V30.147l-7.849-11.495h9.725l2.322 3.39 2.323-3.39h9.725l-7.849 11.494v5.309h-4.521v5.909h4.521v5.314h-8.397zm-2.172-33.935h-9.712l-7.816-11.446h9.689l7.839 11.446zm22.453 0h-9.713l7.84-11.446h9.689l-7.816 11.446z"/><path fill-rule="evenodd" clip-rule="evenodd" d="M223.635 23.636h-8.397v-5.909h8.397v5.91zm17.629 0h-8.697a24.275 24.275 0 012.019-5.909h10.188a15.605 15.605 0 00-3.51 5.91zm81.744-5.909l-4.034 5.91h-9.725l4.048-5.91h9.711zm-32.164 0h9.713l4.047 5.91h-9.725l-4.035-5.91zm-11.603 0h-9.463c.784.878 1.352 1.83 1.654 2.816l8.397-.972a13.244 13.244 0 00-.588-1.844zm-73.016 0v5.91h-8.397v-5.91h8.397zm-43.276 0v5.91h8.397v-5.91h-8.397zm-11.027 0a24.378 24.378 0 012.07 5.91h-8.677a15.617 15.617 0 00-3.51-5.91h10.117zm-44.483 0a24.333 24.333 0 00-2.069 5.91h8.675a15.63 15.63 0 013.51-5.91h-10.116zm-9.1 0v3.465c0 .835-.073 1.652-.217 2.444H89.42c.333-.778.522-1.694.522-2.768v-3.14h8.397zm-41.984 0v5.91h8.397v-5.91h-8.397zm-9.043 0v3.465c0 .835-.073 1.652-.216 2.444h-8.703c.333-.778.522-1.694.522-2.768v-3.14h8.397zm-41.984 5.91v-5.91h8.397v5.91H5.328zm59.424 17.727h-8.397v-5.91h32.21l3.564 5.91H82.41l-3.384-5.585-14.274 1.296v4.289zm158.883 0h-8.397v-5.91h8.397v5.91zm87.49 0h-8.397v-5.91h8.397v5.91zm-31.296-5.91v5.91h-9.925c1.428-.946 2.174-1.695 2.174-1.695v-4.214h7.751zm-46.998 0h8.859a15.46 15.46 0 004.3 5.91h-10.795a23.87 23.87 0 01-2.364-5.91zm-27.271 0c-.371 2.147-.92 4.127-1.696 5.91h-9.943c1.604-1.356 2.597-3.297 3.179-5.91h8.46zm-42.611 0v5.91h8.397v-5.91h-8.397zm-9.23 0a24.028 24.028 0 01-2.417 5.91h-10.713a15.452 15.452 0 004.301-5.91h8.829zm-48.077 0a24.064 24.064 0 002.416 5.91h10.713a15.47 15.47 0 01-4.3-5.91h-8.829zm-100.314 0H31.81l-18.085 1.621v4.289H5.328v-5.91z"/><path fill-rule="evenodd" clip-rule="evenodd" d="M0 46.678V18.652h8.397v-5.909H0V1.297h41.984v11.446h-8.397V9.076H8.397v15.236l17.762-1.621c2.768-.253 5.732-1.292 6.906-4.039h8.703l.01-.056c-1.112 6.31-6.667 11.124-15.296 11.875L8.397 32.09v3.364H3.875v5.909h4.522v5.314H0zm51.027 0V18.652h8.396v5.66l17.763-1.621c2.768-.253 5.731-1.292 6.906-4.039h8.702c-.892 4.93-4.507 8.938-10.182 10.781l3.63 6.022h-9.72l-2.824-4.66-14.274 1.296v3.364h-4.522v5.909h4.521v5.314h-8.396zm25.736-10.826l6.56 10.826h9.688l-3.205-5.314h-8.849l-3.383-5.585-.811.073zm-17.34-23.109h-8.396V1.297H93.01v11.446h-8.397V9.076h-25.19v3.667zm47.169 28.596c-4.675-4.52-7.107-10.846-7.107-17.351 0-1.804.187-3.594.557-5.336h8.675a17.09 17.09 0 00-.835 5.335c0 4.518 1.68 8.553 4.561 11.468h-8.253a23.966 23.966 0 002.402 5.884zm.025.025c4.175 4.024 10.132 6.611 17.735 6.611 7.604 0 13.56-2.587 17.736-6.611h-2.951a15.473 15.473 0 004.301-5.91h3.042c1.811-3.498 2.74-7.448 2.74-11.466a25.643 25.643 0 00-.557-5.336h-8.676a17.09 17.09 0 01.836 5.335c0 9.077-6.782 16.208-16.471 16.208-4.339 0-8.096-1.43-10.921-3.825a15.413 15.413 0 003.888 4.994h-10.702zm5.61-28.62h-10.116C105.812 5.405 113.362 0 124.352 0c10.991 0 18.541 5.406 22.242 12.743h-10.117c-2.918-3.073-7.136-4.963-12.125-4.963-4.988 0-9.206 1.89-12.125 4.963zm66.71 33.934h-21.315V18.652h8.396v16.803h-4.521v5.909h8.397v-2.465h9.043c11.303 0 13.564-4.863 13.564-17.505v-2.742h8.396v2.742c0 5.365-.501 10.142-1.986 14.06h-3.264c-.583 2.613-1.574 4.554-3.18 5.91h2.764c-3.343 3.387-8.499 5.314-16.294 5.314zm-12.919-33.935h-8.396V1.297h43.275v11.446h-8.396V9.076h-26.483v3.667zm43.892 33.935V18.652h8.397v16.803h-4.522v5.909h4.522v5.314h-8.397zm8.397-33.935h-8.397V1.297h8.397v11.446zm33.264 35.232c-16.148 0-24.867-11.345-24.867-23.988 0-1.814.179-3.603.534-5.335h8.698c.031-.096.065-.192.098-.287a17.032 17.032 0 00-.934 5.623c0 4.517 1.681 8.552 4.562 11.467h-8.284a23.836 23.836 0 002.365 5.909h10.795a15.412 15.412 0 01-3.888-4.995c2.825 2.396 6.581 3.826 10.921 3.826 9.689 0 15.179-5.51 15.179-5.51v-5.187h-11.304v-7.455h19.055v13.412h-3.876v4.214s-.747.749-2.175 1.695h6.051v5.314h-7.751v-3.241s-5.813 4.538-15.179 4.538zm-12.125-35.232h-10.188l-.04.08 35.246-.063 9.449-.016h-9.463c-2.565-2.873-7.437-4.964-12.879-4.964-4.989 0-9.206 1.89-12.125 4.963zM297.4 46.678V30.147l-7.849-11.495h9.725l2.323 3.39 2.322-3.39h9.725l-7.849 11.494v5.309h-4.521v5.909h4.521v5.314H297.4zm-2.171-33.935h-9.713L277.7 1.297h9.689l7.84 11.446zm22.452 0h-9.713l7.84-11.446h9.689l-7.816 11.446z"/><path d="M8.352 67.408l-.776 6.904h-1.97L7.156 62.4l4.635 7.699 4.65-7.7 1.55 11.913h-1.97l-.79-6.904-3.44 5.851-3.44-5.851zm30.305 1.232c0 .778.162 1.475.485 2.09a3.713 3.713 0 001.372 1.427c.582.346 1.244.519 1.987.519.753 0 1.415-.173 1.986-.52a3.598 3.598 0 001.356-1.425c.334-.616.5-1.313.5-2.091 0-.778-.16-1.47-.484-2.075a3.57 3.57 0 00-1.356-1.442c-.57-.346-1.238-.519-2.002-.519-.743 0-1.405.173-1.987.519a3.683 3.683 0 00-1.372 1.442c-.323.605-.485 1.297-.485 2.075zm-2.018 0c0-.854.145-1.637.436-2.35.29-.714.7-1.33 1.227-1.848a5.767 5.767 0 011.873-1.232 6.141 6.141 0 012.326-.437c.85 0 1.63.145 2.341.437.71.292 1.33.703 1.857 1.232a5.323 5.323 0 011.243 1.848c.291.713.436 1.496.436 2.35a6.25 6.25 0 01-.436 2.35c-.29.724-.7 1.35-1.227 1.88a5.755 5.755 0 01-1.873 1.248c-.71.292-1.49.438-2.341.438-.84 0-1.62-.146-2.342-.438a5.758 5.758 0 01-1.873-1.248 5.699 5.699 0 01-1.211-1.88 6.248 6.248 0 01-.436-2.35zm34.855 2.301l3.326-7.974h2.196l-5.522 11.978-5.523-11.978h2.196l3.327 7.974zm25.455 3.371v-1.685h5.701v1.686h-5.7zm0-9.66v-1.685h5.701v1.686h-5.7zm0 4.41v-1.654h5.378v1.653h-5.378zm-1.178-6.095h1.873v11.346H95.77V62.966zm27.406 7.699c.249.432.512.816.792 1.15.29.325.608.578.952.762.346.173.733.26 1.163.26.517 0 .937-.14 1.26-.422.323-.28.484-.643.484-1.086 0-.421-.102-.756-.307-1.005-.204-.259-.489-.475-.856-.648a10.656 10.656 0 00-1.243-.535 9.873 9.873 0 01-.937-.389 5.696 5.696 0 01-.985-.632 3.315 3.315 0 01-.775-.94c-.204-.378-.306-.832-.306-1.361 0-.605.156-1.135.468-1.589a3.062 3.062 0 011.259-1.07c.539-.259 1.147-.388 1.825-.388.668 0 1.249.118 1.744.356.496.238.91.54 1.243.908.346.367.614.75.808 1.15l-1.55.876a3.414 3.414 0 00-.533-.778 2.348 2.348 0 00-.759-.584 2.04 2.04 0 00-.985-.227c-.527 0-.915.125-1.163.373a1.132 1.132 0 00-.371.843c0 .292.087.556.258.794.184.227.463.443.84.648.377.206.867.416 1.469.633.334.118.668.27 1.001.453a3.9 3.9 0 01.937.697c.28.27.5.59.662.957.173.367.258.8.258 1.296 0 .53-.102 1.005-.306 1.426a3.138 3.138 0 01-.84 1.07 3.96 3.96 0 01-1.211.648 3.994 3.994 0 01-1.389.244c-.667 0-1.286-.13-1.857-.39a4.996 4.996 0 01-1.469-1.07 5.633 5.633 0 01-1.002-1.442l1.421-.988zm49.686.73l.355-1.622h5.248l.372 1.621h-5.975zm2.955-5.22l-1.776 4.166-.033.421-1.566 3.55h-2.148l5.523-11.978 5.522 11.977h-2.147l-1.534-3.452-.049-.47-1.792-4.214zm25.73 2.285v-.94h1.825c.355 0 .667-.059.937-.178.268-.119.478-.286.629-.502.151-.227.226-.497.226-.81 0-.476-.167-.844-.5-1.103-.334-.26-.765-.389-1.292-.389H202v8.201h1.583c.43 0 .812-.07 1.146-.21.333-.14.598-.352.792-.632.193-.281.29-.632.29-1.054a1.7 1.7 0 00-.177-.794 1.471 1.471 0 00-.469-.584 1.677 1.677 0 00-.694-.34 3.275 3.275 0 00-.888-.113h-2.035v-1.054h2.148c.549 0 1.066.06 1.55.178.485.12.914.303 1.292.551.387.249.688.568.904.957.215.389.323.853.323 1.394 0 .745-.177 1.361-.533 1.847-.345.487-.823.848-1.437 1.086-.603.227-1.303.34-2.099.34h-3.601V62.968h3.407c.711 0 1.334.103 1.873.308.549.205.974.519 1.276.94.312.421.468.956.468 1.605 0 .561-.156 1.042-.468 1.442-.302.39-.727.686-1.276.892-.539.205-1.162.308-1.873.308h-1.954zm27.993.438h2.067l3.827 5.413h-2.293l-3.601-5.413zm-2.325-5.932h1.905v11.346h-1.905V62.966zm1.13 1.653v-1.653h2.358c.818 0 1.529.146 2.131.438.614.291 1.088.702 1.421 1.231.335.52.501 1.135.501 1.848 0 .713-.166 1.335-.501 1.864-.333.53-.807.94-1.421 1.232-.602.292-1.313.438-2.131.438h-2.358v-1.573h2.277c.431 0 .808-.075 1.131-.227a1.77 1.77 0 00.775-.648c.183-.292.274-.637.274-1.037 0-.41-.091-.757-.274-1.037a1.768 1.768 0 00-.775-.649 2.645 2.645 0 00-1.131-.227h-2.277zm27.286 4.02c0 .778.161 1.475.484 2.09a3.716 3.716 0 001.373 1.427c.581.346 1.243.519 1.986.519.754 0 1.416-.173 1.986-.52a3.595 3.595 0 001.357-1.425c.334-.616.5-1.313.5-2.091 0-.778-.161-1.47-.484-2.075a3.568 3.568 0 00-1.357-1.442c-.57-.346-1.238-.519-2.002-.519-.743 0-1.405.173-1.986.519a3.688 3.688 0 00-1.373 1.442c-.323.605-.484 1.297-.484 2.075zm-2.018 0c0-.854.145-1.637.435-2.35.291-.714.7-1.33 1.228-1.848a5.758 5.758 0 011.873-1.232 6.142 6.142 0 012.325-.437c.851 0 1.631.145 2.342.437.71.292 1.329.703 1.857 1.232a5.344 5.344 0 011.243 1.848c.291.713.436 1.496.436 2.35 0 .843-.145 1.626-.436 2.35-.291.724-.7 1.35-1.227 1.88a5.764 5.764 0 01-1.873 1.248c-.711.292-1.491.438-2.342.438a6.18 6.18 0 01-2.341-.438 5.743 5.743 0 01-1.873-1.248 5.703 5.703 0 01-1.212-1.88 6.262 6.262 0 01-.435-2.35zm31.899 2.755l.356-1.62h5.248l.371 1.62h-5.975zm2.955-5.219l-1.776 4.166-.032.421-1.567 3.55h-2.147l5.522-11.978 5.523 11.977h-2.148l-1.534-3.452-.048-.47-1.793-4.214zm24.277-3.209h1.938v11.346h-1.938V62.966zm3.65 11.346h-2.471v-1.8h2.422a4.74 4.74 0 001.55-.243 3.35 3.35 0 001.228-.729c.355-.324.629-.73.823-1.216.204-.486.307-1.048.307-1.685 0-.638-.103-1.2-.307-1.686a3.244 3.244 0 00-.823-1.215 3.35 3.35 0 00-1.228-.73 4.766 4.766 0 00-1.55-.243h-2.422v-1.799h2.471c1.151 0 2.164.238 3.035.713a4.988 4.988 0 012.035 1.978c.495.842.743 1.836.743 2.982 0 1.145-.248 2.145-.743 2.998a5.127 5.127 0 01-2.035 1.978c-.871.464-1.884.697-3.035.697z"/></svg><svg viewBox="0 0 230 51" id="logoWhite" xmlns="http://www.w3.org/2000/svg"><path d="M2.561 44.776l-.554 4.94H.598l1.109-8.523L5.02 46.7l3.326-5.508 1.109 8.523h-1.41l-.565-4.94-2.46 4.187-2.46-4.187zm21.674.882c0 .556.115 1.055.346 1.495.239.434.566.774.982 1.021.416.247.89.371 1.42.371.54 0 1.013-.124 1.42-.37a2.57 2.57 0 00.97-1.021c.24-.441.359-.94.359-1.496 0-.557-.116-1.052-.347-1.485a2.555 2.555 0 00-.97-1.032c-.408-.247-.885-.371-1.432-.371a2.73 2.73 0 00-1.42.371 2.634 2.634 0 00-.982 1.032c-.23.433-.346.928-.346 1.485zm-1.444 0c0-.611.104-1.172.312-1.682.208-.51.5-.95.878-1.322a4.124 4.124 0 011.34-.881 4.392 4.392 0 011.662-.313c.608 0 1.167.104 1.675.313.508.208.95.502 1.328.881.385.371.681.812.889 1.322.208.51.312 1.07.312 1.682 0 .603-.104 1.163-.312 1.681a3.987 3.987 0 01-2.217 2.238 4.367 4.367 0 01-1.675.313c-.6 0-1.158-.104-1.674-.313a4.117 4.117 0 01-1.34-.893 4.08 4.08 0 01-.866-1.345 4.473 4.473 0 01-.312-1.681zm24.927 1.646l2.379-5.705h1.57l-3.95 8.57-3.949-8.57h1.57l2.38 5.705zm18.205 2.412V48.51h4.076v1.206h-4.076zm0-6.911v-1.206h4.076v1.206h-4.076zm0 3.154v-1.183h3.846v1.183h-3.846zm-.843-4.36h1.34v8.117h-1.34V41.6zm19.6 5.508c.178.31.366.584.566.824.208.232.435.413.681.545.247.123.524.185.832.185.37 0 .67-.1.9-.301a.983.983 0 00.347-.777c0-.302-.073-.542-.22-.72a1.663 1.663 0 00-.612-.463 7.62 7.62 0 00-.889-.383c-.2-.07-.423-.162-.67-.278a4.07 4.07 0 01-.704-.453 2.36 2.36 0 01-.554-.672c-.146-.27-.22-.595-.22-.974 0-.433.112-.812.335-1.137.224-.332.524-.587.9-.765a2.97 2.97 0 011.306-.278c.478 0 .893.085 1.247.255.354.17.651.386.89.65.246.262.438.536.577.822l-1.109.627a2.426 2.426 0 00-.381-.557 1.674 1.674 0 00-.543-.417 1.457 1.457 0 00-.704-.163c-.377 0-.654.09-.832.267a.81.81 0 00-.265.603.95.95 0 00.184.568c.132.163.332.317.6.464.27.147.62.298 1.052.452.239.085.478.194.716.325.247.131.47.298.67.499.2.193.358.421.473.684.123.263.185.572.185.928a2.24 2.24 0 01-.82 1.786 2.832 2.832 0 01-.866.463 2.855 2.855 0 01-.993.174c-.477 0-.92-.092-1.328-.278a3.57 3.57 0 01-1.051-.765 4.018 4.018 0 01-.716-1.032l1.016-.708zm35.533.522l.254-1.16h3.753l.266 1.16h-4.273zm2.113-3.734l-1.27 2.98-.023.302-1.12 2.54h-1.536l3.949-8.57 3.95 8.57h-1.536l-1.097-2.47-.035-.337-1.282-3.015zm18.402 1.635v-.673h1.304c.254 0 .478-.042.67-.127.192-.085.342-.205.451-.36a1.03 1.03 0 00.161-.58c0-.34-.12-.602-.358-.788-.239-.186-.547-.278-.924-.278h-.981v5.868h1.132c.307 0 .581-.05.819-.151.239-.1.428-.252.566-.453.139-.2.208-.452.208-.753 0-.217-.042-.406-.127-.569a1.05 1.05 0 00-.335-.417 1.195 1.195 0 00-.496-.244 2.34 2.34 0 00-.635-.08h-1.455v-.755h1.535c.393 0 .763.043 1.109.128s.654.216.924.394c.277.178.492.406.647.685.153.278.231.61.231.997 0 .533-.127.974-.382 1.322a2.193 2.193 0 01-1.027.777c-.432.162-.932.243-1.502.243h-2.575V41.6h2.437c.508 0 .954.073 1.339.22.393.147.697.371.913.673.223.301.335.684.335 1.148 0 .402-.112.746-.335 1.032-.216.278-.52.49-.913.638-.385.146-.831.22-1.339.22h-1.397zm20.019.313h1.478l2.737 3.873h-1.64l-2.575-3.873zm-1.663-4.244h1.363v8.117h-1.363V41.6zm.808 1.183v-1.183h1.686c.586 0 1.094.104 1.525.313.439.209.778.502 1.016.881.239.371.358.812.358 1.322s-.119.955-.358 1.334a2.366 2.366 0 01-1.016.881c-.431.209-.939.313-1.525.313h-1.686v-1.125h1.629c.308 0 .577-.054.808-.162a1.26 1.26 0 00.554-.464c.132-.209.197-.456.197-.742 0-.294-.065-.541-.197-.742a1.259 1.259 0 00-.554-.464 1.884 1.884 0 00-.808-.162h-1.629zm19.514 2.876c0 .556.115 1.055.346 1.495.239.434.566.774.982 1.021.416.247.889.371 1.42.371.539 0 1.013-.124 1.421-.37a2.58 2.58 0 00.97-1.021 3.09 3.09 0 00.358-1.496c0-.557-.116-1.052-.347-1.485a2.553 2.553 0 00-.97-1.032c-.408-.247-.885-.371-1.432-.371-.531 0-1.004.124-1.42.371a2.636 2.636 0 00-.982 1.032c-.231.433-.346.928-.346 1.485zm-1.444 0c0-.611.104-1.172.312-1.682.208-.51.5-.95.878-1.322a4.113 4.113 0 011.339-.881 4.395 4.395 0 011.663-.313 4.36 4.36 0 011.675.313c.508.208.95.502 1.328.881.385.371.681.812.889 1.322.208.51.312 1.07.312 1.682a4.47 4.47 0 01-.312 1.681 3.98 3.98 0 01-.878 1.345 4.11 4.11 0 01-1.339.893 4.366 4.366 0 01-1.675.313c-.6 0-1.158-.104-1.674-.313a4.124 4.124 0 01-1.34-.893 4.089 4.089 0 01-.866-1.345 4.47 4.47 0 01-.312-1.681zm22.814 1.971l.254-1.16h3.753l.266 1.16h-4.273zm2.113-3.734l-1.27 2.98-.023.302-1.121 2.54h-1.535l3.949-8.57 3.949 8.57h-1.535l-1.097-2.47-.035-.337-1.282-3.015zm17.362-2.296h1.386v8.117h-1.386V41.6zm2.61 8.117h-1.767V48.43h1.732c.4 0 .77-.058 1.109-.174.338-.116.631-.29.877-.522.255-.231.451-.521.589-.87.146-.347.22-.75.22-1.205a3.09 3.09 0 00-.22-1.206 2.3 2.3 0 00-.589-.87 2.393 2.393 0 00-.877-.522 3.41 3.41 0 00-1.109-.174h-1.732V41.6h1.767c.823 0 1.547.17 2.171.51a3.576 3.576 0 011.455 1.415c.354.603.531 1.314.531 2.134 0 .819-.177 1.534-.531 2.145a3.677 3.677 0 01-1.455 1.415c-.624.332-1.348.498-2.171.498z"/><path fill-rule="evenodd" clip-rule="evenodd" d="M158.744 16.495h-5.848V12.37h5.848v4.124zm12.294 0h-6.063c.301-1.444.78-2.83 1.431-4.124h7.129a10.803 10.803 0 00-2.497 4.124zm56.964-4.124l-2.826 4.124h-6.773l2.835-4.124h6.764zm-22.497 0h6.764l2.835 4.124h-6.773l-2.826-4.124zm-8.062 0h-6.626c.579.629.997 1.313 1.216 2.024l5.848-.674a9.084 9.084 0 00-.438-1.35zm-50.824 0v4.124h-5.848V12.37h5.848zm-30.139 0v4.124h5.848V12.37h-5.848zm-7.717 0a16.823 16.823 0 011.467 4.124h-6.048a10.813 10.813 0 00-2.496-4.124h7.077zm-30.909 0a16.843 16.843 0 00-1.466 4.124h6.047a10.818 10.818 0 012.497-4.124h-7.078zm-6.373 0v2.474c0 .563-.048 1.114-.143 1.65h-6.05c.22-.53.345-1.15.345-1.875v-2.249h5.848zm-29.24 0v4.124h5.848V12.37H42.24zm-6.298 0v2.474c0 .563-.048 1.114-.142 1.65h-6.05c.22-.53.344-1.15.344-1.875v-2.249h5.848zm-29.24 4.124V12.37h5.848v4.124H6.703zm41.386 12.37H42.24V24.74h22.433l2.496 4.124H60.4l-2.37-3.899-9.942.9v2.999zm110.655 0h-5.848V24.74h5.848v4.124zm60.933 0h-5.848V24.74h5.848v4.124zm-21.796-4.124v4.124h-6.948c1.017-.667 1.55-1.2 1.55-1.2v-2.924h5.398zm-32.732 0h6.169a10.734 10.734 0 003.024 4.124h-7.533a16.527 16.527 0 01-1.66-4.124zm-18.993 0c-.261 1.5-.646 2.88-1.192 4.124h-6.943c1.135-.942 1.833-2.296 2.243-4.124h5.892zm-29.676 0v4.124h5.848V24.74h-5.848zm-6.429 0a16.633 16.633 0 01-1.697 4.124h-7.476a10.734 10.734 0 003.024-4.124h6.149zm-33.484 0c.38 1.446.948 2.835 1.697 4.124h7.475a10.733 10.733 0 01-3.023-4.124h-6.149zm-69.864 0h18.443l-12.595 1.125v2.999H6.703V24.74z"/><path fill-rule="evenodd" clip-rule="evenodd" d="M3.305 32.389V12.896h5.848V8.772H3.305V.9h29.24v7.872h-5.848V6.298H9.153v10.571l12.37-1.124c1.944-.177 4.026-.909 4.83-2.85h6.05c-.771 4.383-4.641 7.727-10.654 8.248L9.153 22.267v2.475h-3.15v4.123h3.15v3.524H3.305zm35.538 0V12.896h5.848v3.973l12.37-1.124c1.944-.177 4.026-.909 4.83-2.85h6.05a7.43 7.43 0 00.019-.114c-.57 3.494-3.105 6.343-7.12 7.642l2.614 4.319h-6.77l-2.051-3.374-9.942.9v2.474h-3.15v4.123h3.15v3.524h-5.848zm18.005-7.379l4.487 7.379h6.748l-2.133-3.524h-6.247l-2.371-3.898-.484.043zM44.69 8.772h-5.848V.9h29.24v7.872h-5.848V6.298H44.69v2.474zm32.675 19.74c-3.141-3.124-4.774-7.436-4.774-11.868 0-1.267.134-2.525.398-3.748h6.047a11.815 11.815 0 00-.597 3.748c0 3.208 1.225 6.066 3.32 8.098h-5.892a16.684 16.684 0 001.498 3.77zm.367.353c2.898 2.699 6.987 4.424 12.178 4.424 5.191 0 9.28-1.726 12.178-4.424h-1.909a10.74 10.74 0 003.023-4.123h2.045c1.31-2.462 1.982-5.255 1.982-8.098a17.717 17.717 0 00-.398-3.748h-6.047a11.81 11.81 0 01.597 3.748c0 6.298-4.723 11.247-11.47 11.247-3.082 0-5.74-1.032-7.72-2.752a10.716 10.716 0 002.849 3.726h-7.308zm3.801-20.093h-7.077C77.047 3.717 82.292 0 89.91 0c7.62 0 12.864 3.717 15.455 8.772h-7.078c-2.03-2.09-4.941-3.374-8.377-3.374-3.436 0-6.347 1.283-8.377 3.374zm46.393 23.617h-14.845V12.896h5.848v11.846h-3.149v4.123h5.848v-1.874h6.298c7.872 0 9.447-3.374 9.447-12.146v-1.95h5.848v1.95c0 3.787-.362 7.152-1.438 9.897h-2.219c-.409 1.828-1.108 3.181-2.242 4.123h1.786c-2.332 2.249-5.88 3.524-11.182 3.524zM118.93 8.772h-5.848V.9h30.14v7.872h-5.848V6.298H118.93v2.474zm30.568 23.617V12.896h5.848v11.846h-3.149v4.123h3.149v3.524h-5.848zm5.848-23.617h-5.848V.9h5.848v7.872zm10.6 19.799c-3.126-3.091-4.752-7.389-4.752-11.927 0-1.275.129-2.532.383-3.748h6.063l.052-.153a11.781 11.781 0 00-.65 3.901c0 3.208 1.226 6.066 3.32 8.098h-5.912a16.611 16.611 0 001.496 3.829zm.306.294c2.903 2.714 7.02 4.424 12.262 4.424 6.522 0 10.571-3.15 10.571-3.15v2.25h5.398v-3.524h-4.249c1.018-.667 1.55-1.2 1.55-1.2v-2.923h2.699v-9.447h-13.27v5.173h7.872v3.599s-3.824 3.824-10.571 3.824c-3.081 0-5.74-1.032-7.72-2.752a10.716 10.716 0 002.849 3.726h-7.391zm12.262-23.467c-3.436 0-6.347 1.283-8.377 3.374h17.282c-1.802-1.957-5.161-3.374-8.905-3.374zm31.918 26.991V20.918l-5.499-8.022h6.773l1.65 2.399 1.649-2.4h6.773l-5.498 8.023v3.824h-3.149v4.123h3.149v3.524h-5.848zm-1.561-23.617h-6.764L196.711.9h6.748l5.412 7.872zm15.733 0h-6.764L223.252.9H230l-5.396 7.872z"/><path fill-rule="evenodd" clip-rule="evenodd" d="M156.439 16.495h-5.848V12.37h5.848v4.124zm12.294 0h-6.063c.302-1.444.78-2.83 1.431-4.124h7.129a10.815 10.815 0 00-2.497 4.124zm56.964-4.124l-2.826 4.124h-6.773l2.835-4.124h6.764zm-22.497 0h6.764l2.835 4.124h-6.773L203.2 12.37zm-8.061 0h-6.627c.579.629.997 1.313 1.216 2.024l5.848-.674a9.195 9.195 0 00-.437-1.35zm-50.824 0v4.124h-5.848V12.37h5.848zm-30.14 0v4.124h5.848V12.37h-5.848zm-7.716 0a16.82 16.82 0 011.466 4.124h-6.047a10.826 10.826 0 00-2.497-4.124h7.078zm-30.91 0a16.843 16.843 0 00-1.466 4.124h6.048a10.82 10.82 0 012.496-4.124H75.55zm-6.373 0v2.474c0 .563-.048 1.114-.142 1.65h-6.05c.22-.53.344-1.15.344-1.875v-2.249h5.848zm-29.24 0v4.124h5.848V12.37h-5.848zm-6.298 0v2.474a9.51 9.51 0 01-.142 1.65h-6.05c.22-.53.344-1.15.344-1.875v-2.249h5.848zm-29.24 4.124V12.37h5.848v4.124H4.398zm41.386 12.37h-5.848V24.74h22.433l2.496 4.124h-6.768l-2.371-3.899-9.942.9v2.999zm110.655 0h-5.848V24.74h5.848v4.124zm60.934 0h-5.848V24.74h5.848v4.124zm-21.797-4.124v4.124h-6.948c1.018-.667 1.55-1.2 1.55-1.2v-2.924h5.398zm-32.732 0h6.17a10.721 10.721 0 003.023 4.124h-7.533a16.527 16.527 0 01-1.66-4.124zm-18.993 0c-.26 1.5-.646 2.88-1.192 4.124h-6.942c1.134-.942 1.833-2.296 2.242-4.124h5.892zm-29.676 0v4.124h5.848V24.74h-5.848zm-6.429 0a16.633 16.633 0 01-1.697 4.124h-7.475a10.736 10.736 0 003.023-4.124h6.149zm-33.483 0c.38 1.446.947 2.835 1.696 4.124h7.475a10.733 10.733 0 01-3.023-4.124h-6.148zm-69.865 0h18.444l-12.596 1.125v2.999H4.398V24.74z"/><path fill-rule="evenodd" clip-rule="evenodd" d="M1 32.389V12.896h5.848V8.772H1V.9h29.24v7.872h-5.848V6.298H6.848v10.571l12.37-1.124c1.944-.177 4.026-.909 4.83-2.85h6.05c-.771 4.383-4.641 7.727-10.654 8.248L6.848 22.267v2.475H3.699v4.123h3.149v3.524H1zm35.538 0V12.896h5.848v3.973l12.37-1.124c1.944-.177 4.026-.909 4.83-2.85h6.05l.02-.114c-.572 3.494-3.106 6.343-7.12 7.642l2.613 4.319h-6.77l-2.051-3.374-9.942.9v2.474h-3.149v4.123h3.149v3.524h-5.848zm18.005-7.379l4.487 7.379h6.748l-2.133-3.524h-6.247l-2.371-3.898-.484.043zM42.386 8.772h-5.848V.9h29.24v7.872H59.93V6.298H42.386v2.474zm32.675 19.74c-3.14-3.124-4.774-7.436-4.774-11.868 0-1.267.134-2.525.398-3.748h6.048a11.815 11.815 0 00-.598 3.748c0 3.208 1.225 6.066 3.32 8.098h-5.891a16.689 16.689 0 001.497 3.77zm.367.353c2.898 2.699 6.987 4.424 12.178 4.424 5.191 0 9.28-1.726 12.178-4.424h-1.91a10.725 10.725 0 003.024-4.123h2.045c1.311-2.462 1.982-5.255 1.982-8.098a17.72 17.72 0 00-.401-3.763l.003.015H98.48a11.81 11.81 0 01.597 3.748c0 6.298-4.723 11.247-11.47 11.247-3.082 0-5.74-1.032-7.72-2.752a10.716 10.716 0 002.849 3.726h-7.308zM79.23 8.772h-7.078C74.742 3.717 79.987 0 87.606 0c7.62 0 12.864 3.717 15.455 8.772h-7.078c-2.03-2.09-4.94-3.374-8.377-3.374-3.436 0-6.347 1.283-8.376 3.374zm46.392 23.617h-14.845V12.896h5.848v11.846h-3.149v4.123h5.848v-1.874h6.298c7.872 0 9.447-3.374 9.447-12.146v-1.95h5.848v1.95c0 3.787-.362 7.152-1.438 9.897h-2.219c-.409 1.828-1.108 3.181-2.242 4.123h1.786c-2.332 2.249-5.88 3.524-11.182 3.524zm-8.997-23.617h-5.848V.9h30.14v7.872h-5.848V6.298h-18.444v2.474zm30.568 23.617V12.896h5.848v11.846h-3.148v4.123h3.148v3.524h-5.848zm5.848-23.617h-5.848V.9h5.848v7.872zm10.6 19.799c-3.126-3.091-4.751-7.389-4.751-11.927 0-1.275.128-2.532.382-3.748h6.063l.052-.153a11.807 11.807 0 00-.649 3.901c0 3.208 1.225 6.066 3.319 8.098h-5.912a16.611 16.611 0 001.496 3.829zm.306.294c2.903 2.714 7.021 4.424 12.262 4.424 6.522 0 10.571-3.15 10.571-3.15v2.25h5.398v-3.524h-4.249c1.018-.667 1.55-1.2 1.55-1.2v-2.923h2.699v-9.447h-13.27v5.173h7.872v3.599s-3.824 3.824-10.571 3.824c-3.081 0-5.74-1.032-7.72-2.752a10.716 10.716 0 002.849 3.726h-7.391zm12.262-23.467c-3.436 0-6.347 1.283-8.377 3.374h17.282c-1.802-1.957-5.16-3.374-8.905-3.374zm31.918 26.991V20.918l-5.499-8.022h6.773l1.65 2.399 1.649-2.4h6.773l-5.498 8.023v3.824h-3.149v4.123h3.149v3.524h-5.848zm-1.561-23.617h-6.764L194.406.9h6.748l5.412 7.872zm15.733 0h-6.764L220.947.9h6.748l-5.396 7.872z"/><path fill-rule="evenodd" clip-rule="evenodd" d="M158.744 16.495h-5.848V12.37h5.848v4.124zm12.294 0h-6.063c.301-1.444.78-2.83 1.431-4.124h7.129a10.803 10.803 0 00-2.497 4.124zm56.964-4.124l-2.826 4.124h-6.773l2.835-4.124h6.764zm-22.497 0h6.764l2.835 4.124h-6.773l-2.826-4.124zm-8.062 0h-6.626c.579.629.997 1.313 1.216 2.024l5.848-.674a9.084 9.084 0 00-.438-1.35zm-50.824 0v4.124h-5.848V12.37h5.848zm-30.139 0v4.124h5.848V12.37h-5.848zm-7.717 0a16.823 16.823 0 011.467 4.124h-6.048a10.813 10.813 0 00-2.496-4.124h7.077zm-30.909 0a16.843 16.843 0 00-1.466 4.124h6.047a10.818 10.818 0 012.497-4.124h-7.078zm-6.373 0v2.474c0 .563-.048 1.114-.143 1.65h-6.05c.22-.53.345-1.15.345-1.875v-2.249h5.848zm-29.24 0v4.124h5.848V12.37H42.24zm-6.298 0v2.474c0 .563-.048 1.114-.142 1.65h-6.05c.22-.53.344-1.15.344-1.875v-2.249h5.848zm-29.24 4.124V12.37h5.848v4.124H6.703zM48.089 28.865H42.24V24.74h22.433l2.496 4.124H60.4l-2.37-3.899-9.942.9v2.999zm110.655 0h-5.848V24.74h5.848v4.124zm60.933 0h-5.848V24.74h5.848v4.124zm-21.796-4.124v4.124h-6.948c1.017-.667 1.55-1.2 1.55-1.2v-2.924h5.398zm-32.732 0h6.169a10.734 10.734 0 003.024 4.124h-7.533a16.527 16.527 0 01-1.66-4.124zm-18.993 0c-.261 1.5-.646 2.88-1.192 4.124h-6.943c1.135-.942 1.833-2.296 2.243-4.124h5.892zm-29.676 0v4.124h5.848V24.74h-5.848zm-6.429 0a16.633 16.633 0 01-1.697 4.124h-7.476a10.734 10.734 0 003.024-4.124h6.149zm-33.484 0c.38 1.446.948 2.835 1.697 4.124h7.475a10.733 10.733 0 01-3.023-4.124h-6.149zm-69.864 0h18.443l-12.595 1.125v2.999H6.703V24.74z"/><path fill-rule="evenodd" clip-rule="evenodd" d="M3.305 32.389V12.896h5.848V8.772H3.305V.9h29.24v7.872h-5.848V6.298H9.153v10.571l12.37-1.124c1.944-.177 4.026-.909 4.83-2.85h6.05c-.771 4.383-4.641 7.727-10.654 8.248L9.153 22.267v2.475h-3.15v4.123h3.15v3.524H3.305zm35.538 0V12.896h5.848v3.973l12.37-1.124c1.944-.177 4.026-.909 4.83-2.85h6.05a7.43 7.43 0 00.019-.114c-.57 3.494-3.105 6.343-7.12 7.642l2.614 4.319h-6.77l-2.051-3.374-9.942.9v2.474h-3.15v4.123h3.15v3.524h-5.848zm18.005-7.379l4.487 7.379h6.748l-2.133-3.524h-6.247l-2.371-3.898-.484.043zM44.69 8.772h-5.848V.9h29.24v7.872h-5.848V6.298H44.69v2.474zm32.675 19.74c-3.141-3.124-4.774-7.436-4.774-11.868 0-1.267.134-2.525.398-3.748h6.047a11.815 11.815 0 00-.597 3.748c0 3.208 1.225 6.066 3.32 8.098h-5.892a16.684 16.684 0 001.498 3.77zm.367.353c2.898 2.699 6.987 4.424 12.178 4.424 5.191 0 9.28-1.726 12.178-4.424h-1.909a10.74 10.74 0 003.023-4.123h2.045c1.31-2.462 1.982-5.255 1.982-8.098a17.717 17.717 0 00-.398-3.748h-6.047a11.81 11.81 0 01.597 3.748c0 6.298-4.723 11.247-11.47 11.247-3.082 0-5.74-1.032-7.72-2.752a10.716 10.716 0 002.849 3.726h-7.308zm3.801-20.093h-7.077C77.047 3.717 82.292 0 89.91 0c7.62 0 12.864 3.717 15.455 8.772h-7.078c-2.03-2.09-4.941-3.374-8.377-3.374-3.436 0-6.347 1.283-8.377 3.374zm46.393 23.617h-14.845V12.896h5.848v11.846h-3.149v4.123h5.848v-1.874h6.298c7.872 0 9.447-3.374 9.447-12.146v-1.95h5.848v1.95c0 3.787-.362 7.152-1.438 9.897h-2.219c-.409 1.828-1.108 3.181-2.242 4.123h1.786c-2.332 2.249-5.88 3.524-11.182 3.524zM118.93 8.772h-5.848V.9h30.14v7.872h-5.848V6.298H118.93v2.474zm30.568 23.617V12.896h5.848v11.846h-3.149v4.123h3.149v3.524h-5.848zm5.848-23.617h-5.848V.9h5.848v7.872zm10.6 19.799c-3.126-3.091-4.752-7.389-4.752-11.927 0-1.275.129-2.532.383-3.748h6.063l.052-.153a11.781 11.781 0 00-.65 3.901c0 3.208 1.226 6.066 3.32 8.098h-5.912a16.611 16.611 0 001.496 3.829zm.306.294c2.903 2.714 7.02 4.424 12.262 4.424 6.522 0 10.571-3.15 10.571-3.15v2.25h5.398v-3.524h-4.249c1.018-.667 1.55-1.2 1.55-1.2v-2.923h2.699v-9.447h-13.27v5.173h7.872v3.599s-3.824 3.824-10.571 3.824c-3.081 0-5.74-1.032-7.72-2.752a10.716 10.716 0 002.849 3.726h-7.391zm12.262-23.467c-3.436 0-6.347 1.283-8.377 3.374h17.282c-1.802-1.957-5.161-3.374-8.905-3.374zm31.918 26.991V20.918l-5.499-8.022h6.773l1.65 2.399 1.649-2.4h6.773l-5.498 8.023v3.824h-3.149v4.123h3.149v3.524h-5.848zm-1.561-23.617h-6.764L196.711.9h6.748l5.412 7.872zm15.733 0h-6.764L223.252.9H230l-5.396 7.872z"/><path fill-rule="evenodd" clip-rule="evenodd" d="M156.439 16.495h-5.848V12.37h5.848v4.124zm12.294 0h-6.063c.302-1.444.78-2.83 1.431-4.124h7.129a10.815 10.815 0 00-2.497 4.124zm56.964-4.124l-2.826 4.124h-6.773l2.835-4.124h6.764zm-22.497 0h6.764l2.835 4.124h-6.773L203.2 12.37zm-8.061 0h-6.627c.579.629.997 1.313 1.216 2.024l5.848-.674a9.195 9.195 0 00-.437-1.35zm-50.824 0v4.124h-5.848V12.37h5.848zm-30.14 0v4.124h5.848V12.37h-5.848zm-7.716 0a16.82 16.82 0 011.466 4.124h-6.047a10.826 10.826 0 00-2.497-4.124h7.078zm-30.91 0a16.843 16.843 0 00-1.466 4.124h6.048a10.82 10.82 0 012.496-4.124H75.55zm-6.373 0v2.474c0 .563-.048 1.114-.142 1.65h-6.05c.22-.53.344-1.15.344-1.875v-2.249h5.848zm-29.24 0v4.124h5.848V12.37h-5.848zm-6.298 0v2.474a9.51 9.51 0 01-.142 1.65h-6.05c.22-.53.344-1.15.344-1.875v-2.249h5.848zm-29.24 4.124V12.37h5.848v4.124H4.398zM45.784 28.865h-5.848V24.74h22.433l2.496 4.124h-6.768l-2.371-3.899-9.942.9v2.999zm110.655 0h-5.848V24.74h5.848v4.124zm60.934 0h-5.848V24.74h5.848v4.124zm-21.797-4.124v4.124h-6.948c1.018-.667 1.55-1.2 1.55-1.2v-2.924h5.398zm-32.732 0h6.17a10.721 10.721 0 003.023 4.124h-7.533a16.527 16.527 0 01-1.66-4.124zm-18.993 0c-.26 1.5-.646 2.88-1.192 4.124h-6.942c1.134-.942 1.833-2.296 2.242-4.124h5.892zm-29.676 0v4.124h5.848V24.74h-5.848zm-6.429 0a16.633 16.633 0 01-1.697 4.124h-7.475a10.736 10.736 0 003.023-4.124h6.149zm-33.483 0c.38 1.446.947 2.835 1.696 4.124h7.475a10.733 10.733 0 01-3.023-4.124h-6.148zm-69.865 0h18.444l-12.596 1.125v2.999H4.398V24.74z"/><path fill-rule="evenodd" clip-rule="evenodd" d="M1 32.389V12.896h5.848V8.772H1V.9h29.24v7.872h-5.848V6.298H6.848v10.571l12.37-1.124c1.944-.177 4.026-.909 4.83-2.85h6.05c-.771 4.383-4.641 7.727-10.654 8.248L6.848 22.267v2.475H3.699v4.123h3.149v3.524H1zm35.538 0V12.896h5.848v3.973l12.37-1.124c1.944-.177 4.026-.909 4.83-2.85h6.05l.02-.114c-.572 3.494-3.106 6.343-7.12 7.642l2.613 4.319h-6.77l-2.051-3.374-9.942.9v2.474h-3.149v4.123h3.149v3.524h-5.848zm18.005-7.379l4.487 7.379h6.748l-2.133-3.524h-6.247l-2.371-3.898-.484.043zM42.386 8.772h-5.848V.9h29.24v7.872H59.93V6.298H42.386v2.474zm32.675 19.74c-3.14-3.124-4.774-7.436-4.774-11.868 0-1.267.134-2.525.398-3.748h6.048a11.815 11.815 0 00-.598 3.748c0 3.208 1.225 6.066 3.32 8.098h-5.891a16.689 16.689 0 001.497 3.77zm.367.353c2.898 2.699 6.987 4.424 12.178 4.424 5.191 0 9.28-1.726 12.178-4.424h-1.91a10.725 10.725 0 003.024-4.123h2.045c1.311-2.462 1.982-5.255 1.982-8.098a17.72 17.72 0 00-.401-3.763l.003.015H98.48a11.81 11.81 0 01.597 3.748c0 6.298-4.723 11.247-11.47 11.247-3.082 0-5.74-1.032-7.72-2.752a10.716 10.716 0 002.849 3.726h-7.308zM79.23 8.772h-7.078C74.742 3.717 79.987 0 87.606 0c7.62 0 12.864 3.717 15.455 8.772h-7.078c-2.03-2.09-4.94-3.374-8.377-3.374-3.436 0-6.347 1.283-8.376 3.374zm46.392 23.617h-14.845V12.896h5.848v11.846h-3.149v4.123h5.848v-1.874h6.298c7.872 0 9.447-3.374 9.447-12.146v-1.95h5.848v1.95c0 3.787-.362 7.152-1.438 9.897h-2.219c-.409 1.828-1.108 3.181-2.242 4.123h1.786c-2.332 2.249-5.88 3.524-11.182 3.524zm-8.997-23.617h-5.848V.9h30.14v7.872h-5.848V6.298h-18.444v2.474zm30.568 23.617V12.896h5.848v11.846h-3.148v4.123h3.148v3.524h-5.848zm5.848-23.617h-5.848V.9h5.848v7.872zm10.6 19.799c-3.126-3.091-4.751-7.389-4.751-11.927 0-1.275.128-2.532.382-3.748h6.063l.052-.153a11.807 11.807 0 00-.649 3.901c0 3.208 1.225 6.066 3.319 8.098h-5.912a16.611 16.611 0 001.496 3.829zm.306.294c2.903 2.714 7.021 4.424 12.262 4.424 6.522 0 10.571-3.15 10.571-3.15v2.25h5.398v-3.524h-4.249c1.018-.667 1.55-1.2 1.55-1.2v-2.923h2.699v-9.447h-13.27v5.173h7.872v3.599s-3.824 3.824-10.571 3.824c-3.081 0-5.74-1.032-7.72-2.752a10.716 10.716 0 002.849 3.726h-7.391zm12.262-23.467c-3.436 0-6.347 1.283-8.377 3.374h17.282c-1.802-1.957-5.16-3.374-8.905-3.374zm31.918 26.991V20.918l-5.499-8.022h6.773l1.65 2.399 1.649-2.4h6.773l-5.498 8.023v3.824h-3.149v4.123h3.149v3.524h-5.848zm-1.561-23.617h-6.764L194.406.9h6.748l5.412 7.872zm15.733 0h-6.764L220.947.9h6.748l-5.396 7.872z"/></svg><svg viewBox="0 0 32 32" id="logout" xmlns="http://www.w3.org/2000/svg"><path d="M7.487 26.667c-.614 0-1.126-.206-1.536-.616-.412-.412-.618-.924-.618-1.538V7.487c0-.614.206-1.126.618-1.536.41-.412.922-.618 1.536-.618h8.538v1.334H7.487c-.205 0-.393.085-.564.256-.171.171-.256.36-.256.564v17.026c0 .205.085.393.256.564.171.171.36.256.564.256h8.538v1.334H7.487zm14.462-5.95l-.936-.958 3.092-3.092H12.256v-1.334h11.85l-3.094-3.093.937-.957L26.667 16l-4.718 4.717z"/></svg><svg viewBox="0 0 469 423" id="management" xmlns="http://www.w3.org/2000/svg"><g opacity=".7" stroke-width="1.458"><path opacity=".053" d="M-71.592 304.988c6.473 16.078 32.623 47.088 85.437 42.499 66.017-5.736 104.808-57.436 166.552-73.089 45.571-11.553 160.977-16.301 212.355 36.883"/><path opacity=".105" d="M-73.997 274.272c4.757 16.667 27.523 50.241 80.527 51.197 66.255 1.196 110.238-46.166 173.279-55.279 46.529-6.726 161.8.615 207.337 58.878"/><path opacity=".158" d="M-73.874 243.829c2.99 17.073 22.12 52.842 74.734 59.334 65.767 8.115 114.46-34.391 178.108-36.864 46.978-1.826 160.849 17.525 200.048 80.228"/><path opacity=".211" d="M-71.265 213.92c1.188 17.292 16.476 54.865 68.123 66.821 64.558 14.945 117.427-22.238 180.986-18.044 46.911 3.094 158.135 34.242 190.565 100.699"/><path opacity=".263" d="M-66.24 184.802c-.627 17.321 10.65 56.287 60.764 73.576 62.643 21.611 119.109-9.842 181.881.972 46.33 7.981 153.69 50.584 178.995 120.067"/><path opacity=".316" d="M-58.896 156.723c-2.433 17.161 4.709 57.092 52.741 79.525 60.04 28.04 119.485 2.662 180.783 19.978 45.242 12.781 147.561 66.372 165.464 138.12"/><path opacity=".368" d="M-49.352 129.92c-4.214 16.813-1.285 57.271 44.14 84.602 56.78 34.163 118.551 15.137 177.703 38.766 43.659 17.439 139.815 81.433 150.121 154.658"/><path opacity=".421" d="M-37.756 104.617c-5.948 16.28-7.264 56.823 35.055 88.752 52.898 39.911 116.32 27.447 172.678 57.129 41.597 21.908 130.537 95.601 133.132 169.503"/><path opacity=".474" d="M-24.274 81.02c-7.617 15.57-13.164 55.752 25.586 91.93 48.436 45.222 112.814 39.455 165.76 74.865 39.079 26.136 119.829 108.723 114.685 182.491"/><path opacity=".526" d="M-9.095 59.315c-9.202 14.688-18.92 54.071 15.836 94.101 43.445 50.037 108.072 51.031 157.027 91.782 36.133 30.077 107.808 120.652 94.981 193.479"/><path opacity=".579" d="M7.573 39.67c-10.688 13.645-24.468 51.797 5.913 95.241 37.976 54.304 102.146 62.048 146.573 107.693 32.791 33.689 94.605 131.26 74.237 202.347"/><path opacity=".632" d="M25.507 22.23C13.452 34.684-4.24 71.186 21.432 117.567c32.092 57.976 95.101 72.386 134.514 122.424 29.089 36.933 80.366 140.431 52.678 208.999"/><path opacity=".684" d="M44.47 7.115C31.18 18.24 9.767 52.693 30.452 101.504c25.856 61.013 87.013 81.93 120.98 135.814 25.069 39.771 65.247 148.062 30.544 213.36"/><path opacity=".737" d="M64.213-5.58C49.832 4.095 24.936 36.121 40.406 86.826c19.336 63.382 77.972 90.577 106.12 147.716 20.775 42.174 49.413 154.071 8.074 215.384"/><path opacity=".789" d="M84.478-15.788C69.164-7.67 41.058 21.579 51.142 73.623c12.605 65.056 68.078 98.231 90.098 158 16.254 44.114 33.038 158.391-14.483 215.048"/><path opacity=".842" d="M105.004-23.466c-16.08 6.473-47.089 32.623-42.5 85.437 5.736 66.017 57.437 104.808 73.089 166.552 11.553 45.571 16.301 160.977-36.882 212.355"/><path opacity=".895" d="M125.524-28.603C108.856-23.846 75.283-1.08 74.326 51.924c-1.196 66.255 46.167 110.238 55.28 173.279 6.726 46.529-.616 161.8-58.878 207.337"/><path opacity=".947" d="M145.772-31.212c-17.073 2.99-52.843 22.12-59.335 74.734-8.114 65.767 34.391 114.46 36.865 178.109 1.825 46.977-17.525 160.848-80.228 200.047"/><path d="M165.485-31.335c-17.292 1.188-54.865 16.476-66.821 68.123-14.945 64.558 22.238 117.427 18.045 180.986-3.095 46.911-34.242 158.136-100.7 190.565"/></g></svg><svg viewBox="0 0 32 32" id="user" xmlns="http://www.w3.org/2000/svg"><path d="M16 15.18c-1.1 0-2.041-.392-2.825-1.176-.784-.784-1.176-1.725-1.175-2.824 0-1.1.392-2.043 1.175-2.827.783-.782 1.724-1.173 2.825-1.173 1.1 0 2.042.391 2.825 1.173C19.608 9.137 20 10.08 20 11.18c0 1.1-.392 2.04-1.175 2.824-.783.783-1.725 1.175-2.825 1.176zm-9.333 9.64v-2.193c0-.55.16-1.065.48-1.544a3.23 3.23 0 011.293-1.118 18.902 18.902 0 013.777-1.357A16.168 16.168 0 0116 18.155c1.262 0 2.523.15 3.783.453a19.01 19.01 0 013.776 1.357c.542.265.973.638 1.293 1.118.32.479.481.994.481 1.544v2.194H6.667zM8 23.487h16v-.862c0-.295-.095-.573-.285-.833a2.31 2.31 0 00-.792-.659 16.879 16.879 0 00-3.395-1.22 14.858 14.858 0 00-7.056 0 16.884 16.884 0 00-3.395 1.22c-.337.18-.601.4-.792.66a1.39 1.39 0 00-.285.834v.86zm8-9.64c.733 0 1.361-.262 1.884-.784.523-.523.784-1.15.783-1.883 0-.733-.261-1.361-.783-1.884A2.562 2.562 0 0016 8.513a2.57 2.57 0 00-1.883.783 2.573 2.573 0 00-.784 1.884c0 .733.262 1.36.784 1.883.523.521 1.15.783 1.883.784z"/></svg></svg>