<?xml version="1.0" encoding="utf-8"?><svg viewBox="0 0 269 64" xmlns="http://www.w3.org/2000/svg" xmlns:xlink="http://www.w3.org/1999/xlink"><style>:root>svg{display:none}:root>svg:target{display:block}</style><svg viewBox="0 0 269 64" id="logo" xmlns="http://www.w3.org/2000/svg"><path fill-rule="evenodd" clip-rule="evenodd" d="M185.297 19.394h-6.887v-4.849h6.887v4.849zm14.458 0h-7.133a19.957 19.957 0 011.656-4.849h8.356a12.821 12.821 0 00-2.879 4.849zm67.041-4.849l-3.31 4.849h-7.975l3.319-4.849h7.966zm-26.379 0h7.966l3.319 4.849h-7.976l-3.309-4.849zm-9.516 0h-7.761c.642.721 1.108 1.501 1.356 2.311l6.887-.798c-.119-.5-.279-1.005-.482-1.513zm-59.882 0v4.849h-6.886v-4.849h6.886zm-35.491 0v4.849h6.886v-4.849h-6.886zm-9.044 0a19.985 19.985 0 011.696 4.849h-7.115a12.819 12.819 0 00-2.878-4.849h8.297zm-36.482 0a19.987 19.987 0 00-1.697 4.849h7.115a12.818 12.818 0 012.879-4.849h-8.297zm-7.463 0v2.843c0 .685-.06 1.355-.178 2.006h-7.137c.273-.64.428-1.39.428-2.272v-2.577h6.887zm-34.432 0v4.849h6.886v-4.849h-6.886zm-7.416 0v2.843c0 .685-.06 1.355-.178 2.006h-7.137c.273-.64.428-1.39.428-2.272v-2.577h6.887zM6.259 19.394v-4.849h6.886v4.849H6.26zM54.993 33.94h-6.886v-4.85h26.416l2.923 4.85h-7.97L66.7 29.356 54.993 30.42v3.518zm130.304 0h-6.886v-4.85h6.886v4.85zm71.753 0h-6.887v-4.85h6.887v4.85zm-25.667-4.85v4.85h-8.141c1.172-.777 1.784-1.392 1.784-1.392v-3.457h6.357zm-38.544 0h7.265a12.684 12.684 0 003.527 4.85h-8.853a19.568 19.568 0 01-1.939-4.85zm-22.365 0c-.306 1.762-.755 3.386-1.392 4.85h-8.155c1.317-1.113 2.13-2.705 2.608-4.85h6.939zm-34.946 0v4.85h6.886v-4.85h-6.886zm-7.571 0a19.685 19.685 0 01-1.982 4.85h-8.786a12.687 12.687 0 003.528-4.85h7.24zm-39.428 0a19.696 19.696 0 001.981 4.85h8.786a12.692 12.692 0 01-3.527-4.85h-7.24zm-82.27 0h21.718l-14.832 1.33v3.52H6.26v-4.85z"/><path fill-rule="evenodd" clip-rule="evenodd" d="M1.89 38.3V15.305h6.886v-4.849H1.889V1.064h34.432v9.392h-6.886V7.447H8.775v12.501l14.568-1.33c2.27-.207 4.7-1.06 5.664-3.313h7.137l.008-.047c-.912 5.178-5.467 9.128-12.544 9.744l-14.832 1.33v2.759H5.068v4.848h3.708V38.3H1.889zm41.847 0V15.305h6.887v4.643l14.567-1.33c2.27-.207 4.7-1.06 5.664-3.313h7.137c-.732 4.044-3.697 7.333-8.351 8.845l2.977 4.94h-7.972l-2.315-3.823-11.707 1.064v2.76h-3.708v4.848h3.708V38.3h-6.887zm21.107-8.883l5.38 8.883h7.945l-2.628-4.36h-7.257l-2.775-4.583-.665.06zm-14.22-18.96h-6.887V1.063H78.17v9.392h-6.886V7.447h-20.66v3.01zm38.683 23.462c-3.833-3.71-5.828-8.899-5.828-14.237 0-1.48.153-2.949.457-4.377h7.115a14.027 14.027 0 00-.685 4.377c0 3.707 1.377 7.018 3.74 9.409h-6.769a19.741 19.741 0 001.97 4.828zm.022.02c3.424 3.302 8.309 5.425 14.545 5.425 6.235 0 11.12-2.123 14.544-5.425h-2.42a12.685 12.685 0 003.527-4.848h2.496c1.485-2.87 2.247-6.111 2.247-9.409 0-1.58-.175-3.145-.52-4.664.022.095.042.19.063.287h-7.115a14.05 14.05 0 01.685 4.377c0 7.447-5.562 13.299-13.507 13.299-3.56 0-6.64-1.174-8.957-3.14a12.64 12.64 0 003.188 4.098H89.33zm4.6-23.483h-8.296C88.668 4.436 94.859 0 103.874 0c9.013 0 15.205 4.436 18.24 10.456h-8.297c-2.393-2.521-5.852-4.073-9.943-4.073-4.092 0-7.55 1.552-9.944 4.073zM148.64 38.3h-17.481V15.305h6.887V29.09h-3.708v4.848h6.886v-2.022h7.416c9.27 0 11.124-3.99 11.124-14.363v-2.25h6.887v2.25c0 4.402-.412 8.322-1.629 11.537h-2.678c-.477 2.144-1.29 3.736-2.607 4.848h2.266c-2.741 2.78-6.97 4.361-13.363 4.361zm-10.594-27.844h-6.887V1.064h35.492v9.392h-6.887V7.447h-21.718v3.01zM174.041 38.3V15.305h6.887V29.09h-3.709v4.848h3.709V38.3h-6.887zm6.887-27.844h-6.887V1.064h6.887v9.392zm27.28 28.908c-13.243 0-20.394-9.309-20.394-19.682 0-1.49.147-2.956.439-4.377h7.133a13.993 13.993 0 00-.686 4.377c0 3.707 1.378 7.018 3.741 9.409h-6.794a19.647 19.647 0 001.939 4.848h8.854a12.648 12.648 0 01-3.188-4.098c2.317 1.966 5.397 3.14 8.956 3.14 7.946 0 12.449-4.522 12.449-4.522v-4.255h-9.27v-6.118h15.626v11.005h-3.178v3.458s-.612.614-1.784 1.39h4.962V38.3h-6.356v-2.66s-4.768 3.724-12.449 3.724zm-9.944-28.908h-8.356l-.031.065 28.905-.051 7.75-.014h-7.762c-2.103-2.357-6.1-4.073-10.562-4.073-4.091 0-7.55 1.552-9.944 4.073zm47.53 27.844V24.736l-6.437-9.431h7.975l1.905 2.781 1.904-2.781h7.976l-6.437 9.43v4.356h-3.708v4.848h3.708V38.3h-6.886zm-1.781-27.844h-7.965l-6.411-9.392h7.946l6.43 9.392zm18.413 0h-7.965l6.43-9.392h7.946l-6.411 9.392z"/><path fill-rule="evenodd" clip-rule="evenodd" d="M183.408 19.394h-6.887v-4.849h6.887v4.849zm14.458 0h-7.133a19.957 19.957 0 011.656-4.849h8.355a12.819 12.819 0 00-2.878 4.849zm67.04-4.849l-3.309 4.849h-7.976l3.32-4.849h7.965zm-26.378 0h7.965l3.319 4.849h-7.975l-3.309-4.849zm-9.516 0h-7.762c.644.721 1.11 1.501 1.357 2.311l6.886-.798c-.118-.5-.279-1.005-.481-1.513zm-59.882 0v4.849h-6.887v-4.849h6.887zm-35.492 0v4.849h6.887v-4.849h-6.887zm-9.044 0a19.99 19.99 0 011.698 4.849h-7.116a12.808 12.808 0 00-2.879-4.849h8.297zm-36.481 0a19.987 19.987 0 00-1.697 4.849h7.115a12.818 12.818 0 012.879-4.849h-8.297zm-7.463 0v2.843c0 .685-.06 1.355-.178 2.006h-7.137c.273-.64.428-1.39.428-2.272v-2.577h6.887zm-34.432 0v4.849h6.886v-4.849h-6.886zm-7.416 0v2.843c0 .685-.06 1.355-.178 2.006h-7.137c.273-.64.428-1.39.428-2.272v-2.577h6.887zM4.37 19.394v-4.849h6.886v4.849H4.37zM53.104 33.94h-6.886v-4.85h26.416l2.922 4.85h-7.97l-2.775-4.583-11.707 1.064v3.518zm130.304 0h-6.887v-4.85h6.887v4.85zm71.752 0h-6.886v-4.85h6.886v4.85zm-25.667-4.85v4.85h-8.139c1.171-.777 1.783-1.392 1.783-1.392v-3.457h6.356zm-38.544 0h7.266a12.684 12.684 0 003.527 4.85h-8.853a19.61 19.61 0 01-1.94-4.85zm-22.365 0c-.304 1.762-.755 3.386-1.391 4.85h-8.154c1.316-1.113 2.129-2.705 2.607-4.85h6.938zm-34.946 0v4.85h6.887v-4.85h-6.887zm-7.57 0a19.724 19.724 0 01-1.982 4.85H115.3a12.687 12.687 0 003.528-4.85h7.24zm-39.428 0a19.727 19.727 0 001.981 4.85h8.786a12.69 12.69 0 01-3.527-4.85h-7.24zm-82.27 0h21.718l-14.832 1.33v3.52H4.37v-4.85z"/><path fill-rule="evenodd" clip-rule="evenodd" d="M0 38.3V15.305h6.886v-4.849H0V1.064h34.432v9.392h-6.886V7.447H6.886v12.501l14.568-1.33c2.27-.207 4.7-1.06 5.663-3.313h7.138l.008-.047c-.912 5.178-5.468 9.128-12.544 9.744l-14.833 1.33v2.759H3.178v4.848h3.708V38.3H0zm41.848 0V15.305h6.886v4.643l14.568-1.33c2.27-.207 4.7-1.06 5.664-3.313h7.136c-.731 4.044-3.696 7.333-8.35 8.845l2.977 4.94h-7.972l-2.316-3.823-11.707 1.064v2.76h-3.708v4.848h3.708V38.3h-6.886zm21.107-8.883l5.38 8.883h7.945l-2.628-4.36h-7.257l-2.775-4.583-.665.06zm-14.22-18.96h-6.887V1.063H76.28v9.392h-6.886V7.447h-20.66v3.01zm38.683 23.462c-3.834-3.71-5.828-8.899-5.828-14.237 0-1.48.153-2.949.456-4.377h7.115a14.027 14.027 0 00-.685 4.377c0 3.707 1.378 7.018 3.741 9.409h-6.769a19.675 19.675 0 001.97 4.828zm.021.02c3.424 3.302 8.31 5.425 14.545 5.425 6.236 0 11.121-2.123 14.545-5.425h-2.42a12.698 12.698 0 003.528-4.848h2.494c1.486-2.87 2.247-6.111 2.247-9.409 0-1.58-.174-3.145-.519-4.664.021.095.043.19.063.287h-7.115c.448 1.365.685 2.837.685 4.377 0 7.447-5.562 13.299-13.508 13.299-3.559 0-6.64-1.174-8.956-3.14a12.642 12.642 0 003.188 4.098h-8.777zm4.601-23.483h-8.297C86.78 4.436 92.971 0 101.984 0c9.014 0 15.206 4.436 18.241 10.456h-8.297c-2.394-2.521-5.853-4.073-9.944-4.073-4.091 0-7.55 1.552-9.944 4.073zM146.75 38.3h-17.481V15.305h6.886V29.09h-3.708v4.848h6.887v-2.022h7.416c9.27 0 11.124-3.99 11.124-14.363v-2.25h6.886v2.25c0 4.402-.411 8.322-1.628 11.537h-2.677c-.479 2.144-1.291 3.736-2.608 4.848h2.266c-2.741 2.78-6.97 4.361-13.363 4.361zm-10.595-27.844h-6.886V1.064h35.491v9.392h-6.886V7.447h-21.719v3.01zM172.152 38.3V15.305h6.886V29.09h-3.708v4.848h3.708V38.3h-6.886zm6.886-27.844h-6.886V1.064h6.886v9.392zm27.281 28.908c-13.243 0-20.394-9.309-20.394-19.682 0-1.49.147-2.956.438-4.377h7.133a13.967 13.967 0 00-.685 4.377c0 3.707 1.378 7.018 3.741 9.409h-6.794a19.572 19.572 0 001.94 4.848h8.853a12.637 12.637 0 01-3.189-4.098c2.317 1.966 5.398 3.14 8.957 3.14 7.946 0 12.448-4.522 12.448-4.522v-4.255h-9.27v-6.118h15.627v11.005h-3.178v3.458s-.613.614-1.784 1.39h4.962V38.3h-6.357v-2.66s-4.767 3.724-12.448 3.724zm-9.944-28.908h-8.356l-.032.065 28.906-.051 7.749-.014h-7.761c-2.103-2.357-6.099-4.073-10.562-4.073-4.091 0-7.55 1.552-9.944 4.073zM243.904 38.3V24.736l-6.437-9.431h7.976l1.905 2.781 1.904-2.781h7.976l-6.437 9.43v4.356h-3.708v4.848h3.708V38.3h-6.887zm-1.78-27.844h-7.966l-6.41-9.392h7.946l6.43 9.392zm18.413 0h-7.966l6.43-9.392h7.946l-6.41 9.392z"/><path fill-rule="evenodd" clip-rule="evenodd" d="M185.297 19.394h-6.887v-4.849h6.887v4.849zm14.458 0h-7.133a19.957 19.957 0 011.656-4.849h8.356a12.821 12.821 0 00-2.879 4.849zm67.041-4.849l-3.31 4.849h-7.975l3.319-4.849h7.966zm-26.379 0h7.966l3.319 4.849h-7.976l-3.309-4.849zm-9.516 0h-7.761c.642.721 1.108 1.501 1.356 2.311l6.887-.798c-.119-.5-.279-1.005-.482-1.513zm-59.882 0v4.849h-6.886v-4.849h6.886zm-35.491 0v4.849h6.886v-4.849h-6.886zm-9.044 0a19.985 19.985 0 011.696 4.849h-7.115a12.819 12.819 0 00-2.878-4.849h8.297zm-36.482 0a19.987 19.987 0 00-1.697 4.849h7.115a12.818 12.818 0 012.879-4.849h-8.297zm-7.463 0v2.843c0 .685-.06 1.355-.178 2.006h-7.137c.273-.64.428-1.39.428-2.272v-2.577h6.887zm-34.432 0v4.849h6.886v-4.849h-6.886zm-7.416 0v2.843c0 .685-.06 1.355-.178 2.006h-7.137c.273-.64.428-1.39.428-2.272v-2.577h6.887zM6.259 19.394v-4.849h6.886v4.849H6.26zM54.993 33.94h-6.886v-4.85h26.416l2.923 4.85h-7.97L66.7 29.356 54.993 30.42v3.518zm130.304 0h-6.886v-4.85h6.886v4.85zm71.753 0h-6.887v-4.85h6.887v4.85zm-25.667-4.85v4.85h-8.141c1.172-.777 1.784-1.392 1.784-1.392v-3.457h6.357zm-38.544 0h7.265a12.684 12.684 0 003.527 4.85h-8.853a19.568 19.568 0 01-1.939-4.85zm-22.365 0c-.306 1.762-.755 3.386-1.392 4.85h-8.155c1.317-1.113 2.13-2.705 2.608-4.85h6.939zm-34.946 0v4.85h6.886v-4.85h-6.886zm-7.571 0a19.685 19.685 0 01-1.982 4.85h-8.786a12.687 12.687 0 003.528-4.85h7.24zm-39.428 0a19.696 19.696 0 001.981 4.85h8.786a12.692 12.692 0 01-3.527-4.85h-7.24zm-82.27 0h21.718l-14.832 1.33v3.52H6.26v-4.85z"/><path fill-rule="evenodd" clip-rule="evenodd" d="M1.89 38.3V15.305h6.886v-4.849H1.889V1.064h34.432v9.392h-6.886V7.447H8.775v12.501l14.568-1.33c2.27-.207 4.7-1.06 5.664-3.313h7.137l.008-.047c-.912 5.178-5.467 9.128-12.544 9.744l-14.832 1.33v2.759H5.068v4.848h3.708V38.3H1.889zm41.847 0V15.305h6.887v4.643l14.567-1.33c2.27-.207 4.7-1.06 5.664-3.313h7.137c-.732 4.044-3.697 7.333-8.351 8.845l2.977 4.94h-7.972l-2.315-3.823-11.707 1.064v2.76h-3.708v4.848h3.708V38.3h-6.887zm21.107-8.883l5.38 8.883h7.945l-2.628-4.36h-7.257l-2.775-4.583-.665.06zm-14.22-18.96h-6.887V1.063H78.17v9.392h-6.886V7.447h-20.66v3.01zm38.683 23.462c-3.833-3.71-5.828-8.899-5.828-14.237 0-1.48.153-2.949.457-4.377h7.115a14.027 14.027 0 00-.685 4.377c0 3.707 1.377 7.018 3.74 9.409h-6.769a19.741 19.741 0 001.97 4.828zm.022.02c3.424 3.302 8.309 5.425 14.545 5.425 6.235 0 11.12-2.123 14.544-5.425h-2.42a12.685 12.685 0 003.527-4.848h2.496c1.485-2.87 2.247-6.111 2.247-9.409 0-1.58-.175-3.145-.52-4.664.022.095.042.19.063.287h-7.115a14.05 14.05 0 01.685 4.377c0 7.447-5.562 13.299-13.507 13.299-3.56 0-6.64-1.174-8.957-3.14a12.64 12.64 0 003.188 4.098H89.33zm4.6-23.483h-8.296C88.668 4.436 94.859 0 103.874 0c9.013 0 15.205 4.436 18.24 10.456h-8.297c-2.393-2.521-5.852-4.073-9.943-4.073-4.092 0-7.55 1.552-9.944 4.073zM148.64 38.3h-17.481V15.305h6.887V29.09h-3.708v4.848h6.886v-2.022h7.416c9.27 0 11.124-3.99 11.124-14.363v-2.25h6.887v2.25c0 4.402-.412 8.322-1.629 11.537h-2.678c-.477 2.144-1.29 3.736-2.607 4.848h2.266c-2.741 2.78-6.97 4.361-13.363 4.361zm-10.594-27.844h-6.887V1.064h35.492v9.392h-6.887V7.447h-21.718v3.01zM174.041 38.3V15.305h6.887V29.09h-3.709v4.848h3.709V38.3h-6.887zm6.887-27.844h-6.887V1.064h6.887v9.392zm27.28 28.908c-13.243 0-20.394-9.309-20.394-19.682 0-1.49.147-2.956.439-4.377h7.133a13.993 13.993 0 00-.686 4.377c0 3.707 1.378 7.018 3.741 9.409h-6.794a19.647 19.647 0 001.939 4.848h8.854a12.648 12.648 0 01-3.188-4.098c2.317 1.966 5.397 3.14 8.956 3.14 7.946 0 12.449-4.522 12.449-4.522v-4.255h-9.27v-6.118h15.626v11.005h-3.178v3.458s-.612.614-1.784 1.39h4.962V38.3h-6.356v-2.66s-4.768 3.724-12.449 3.724zm-9.944-28.908h-8.356l-.031.065 28.905-.051 7.75-.014h-7.762c-2.103-2.357-6.1-4.073-10.562-4.073-4.091 0-7.55 1.552-9.944 4.073zm47.53 27.844V24.736l-6.437-9.431h7.975l1.905 2.781 1.904-2.781h7.976l-6.437 9.43v4.356h-3.708v4.848h3.708V38.3h-6.886zm-1.781-27.844h-7.965l-6.411-9.392h7.946l6.43 9.392zm18.413 0h-7.965l6.43-9.392h7.946l-6.411 9.392z"/><path fill-rule="evenodd" clip-rule="evenodd" d="M183.408 19.394h-6.887v-4.849h6.887v4.849zm14.458 0h-7.133a19.957 19.957 0 011.656-4.849h8.355a12.819 12.819 0 00-2.878 4.849zm67.04-4.849l-3.309 4.849h-7.976l3.32-4.849h7.965zm-26.378 0h7.965l3.319 4.849h-7.975l-3.309-4.849zm-9.516 0h-7.762c.644.721 1.11 1.501 1.357 2.311l6.886-.798c-.118-.5-.279-1.005-.481-1.513zm-59.882 0v4.849h-6.887v-4.849h6.887zm-35.492 0v4.849h6.887v-4.849h-6.887zm-9.044 0a19.99 19.99 0 011.698 4.849h-7.116a12.808 12.808 0 00-2.879-4.849h8.297zm-36.481 0a19.987 19.987 0 00-1.697 4.849h7.115a12.818 12.818 0 012.879-4.849h-8.297zm-7.463 0v2.843c0 .685-.06 1.355-.178 2.006h-7.137c.273-.64.428-1.39.428-2.272v-2.577h6.887zm-34.432 0v4.849h6.886v-4.849h-6.886zm-7.416 0v2.843c0 .685-.06 1.355-.178 2.006h-7.137c.273-.64.428-1.39.428-2.272v-2.577h6.887zM4.37 19.394v-4.849h6.886v4.849H4.37zM53.104 33.94h-6.886v-4.85h26.416l2.922 4.85h-7.97l-2.775-4.583-11.707 1.064v3.518zm130.304 0h-6.887v-4.85h6.887v4.85zm71.752 0h-6.886v-4.85h6.886v4.85zm-25.667-4.85v4.85h-8.139c1.171-.777 1.783-1.392 1.783-1.392v-3.457h6.356zm-38.544 0h7.266a12.684 12.684 0 003.527 4.85h-8.853a19.61 19.61 0 01-1.94-4.85zm-22.365 0c-.304 1.762-.755 3.386-1.391 4.85h-8.154c1.316-1.113 2.129-2.705 2.607-4.85h6.938zm-34.946 0v4.85h6.887v-4.85h-6.887zm-7.57 0a19.724 19.724 0 01-1.982 4.85H115.3a12.687 12.687 0 003.528-4.85h7.24zm-39.428 0a19.727 19.727 0 001.981 4.85h8.786a12.69 12.69 0 01-3.527-4.85h-7.24zm-82.27 0h21.718l-14.832 1.33v3.52H4.37v-4.85z"/><path fill-rule="evenodd" clip-rule="evenodd" d="M0 38.3V15.305h6.886v-4.849H0V1.064h34.432v9.392h-6.886V7.447H6.886v12.501l14.568-1.33c2.27-.207 4.7-1.06 5.663-3.313h7.138l.008-.047c-.912 5.178-5.468 9.128-12.544 9.744l-14.833 1.33v2.759H3.178v4.848h3.708V38.3H0zm41.848 0V15.305h6.886v4.643l14.568-1.33c2.27-.207 4.7-1.06 5.664-3.313h7.136c-.731 4.044-3.696 7.333-8.35 8.845l2.977 4.94h-7.972l-2.316-3.823-11.707 1.064v2.76h-3.708v4.848h3.708V38.3h-6.886zm21.107-8.883l5.38 8.883h7.945l-2.628-4.36h-7.257l-2.775-4.583-.665.06zm-14.22-18.96h-6.887V1.063H76.28v9.392h-6.886V7.447h-20.66v3.01zm38.683 23.462c-3.834-3.71-5.828-8.899-5.828-14.237 0-1.48.153-2.949.456-4.377h7.115a14.027 14.027 0 00-.685 4.377c0 3.707 1.378 7.018 3.741 9.409h-6.769a19.675 19.675 0 001.97 4.828zm.021.02c3.424 3.302 8.31 5.425 14.545 5.425 6.236 0 11.121-2.123 14.545-5.425h-2.42a12.698 12.698 0 003.528-4.848h2.494c1.486-2.87 2.247-6.111 2.247-9.409 0-1.58-.174-3.145-.519-4.664.021.095.043.19.063.287h-7.115c.448 1.365.685 2.837.685 4.377 0 7.447-5.562 13.299-13.508 13.299-3.559 0-6.64-1.174-8.956-3.14a12.642 12.642 0 003.188 4.098h-8.777zm4.601-23.483h-8.297C86.78 4.436 92.971 0 101.984 0c9.014 0 15.206 4.436 18.241 10.456h-8.297c-2.394-2.521-5.853-4.073-9.944-4.073-4.091 0-7.55 1.552-9.944 4.073zM146.75 38.3h-17.481V15.305h6.886V29.09h-3.708v4.848h6.887v-2.022h7.416c9.27 0 11.124-3.99 11.124-14.363v-2.25h6.886v2.25c0 4.402-.411 8.322-1.628 11.537h-2.677c-.479 2.144-1.291 3.736-2.608 4.848h2.266c-2.741 2.78-6.97 4.361-13.363 4.361zm-10.595-27.844h-6.886V1.064h35.491v9.392h-6.886V7.447h-21.719v3.01zM172.152 38.3V15.305h6.886V29.09h-3.708v4.848h3.708V38.3h-6.886zm6.886-27.844h-6.886V1.064h6.886v9.392zm27.281 28.908c-13.243 0-20.394-9.309-20.394-19.682 0-1.49.147-2.956.438-4.377h7.133a13.967 13.967 0 00-.685 4.377c0 3.707 1.378 7.018 3.741 9.409h-6.794a19.572 19.572 0 001.94 4.848h8.853a12.637 12.637 0 01-3.189-4.098c2.317 1.966 5.398 3.14 8.957 3.14 7.946 0 12.448-4.522 12.448-4.522v-4.255h-9.27v-6.118h15.627v11.005h-3.178v3.458s-.613.614-1.784 1.39h4.962V38.3h-6.357v-2.66s-4.767 3.724-12.448 3.724zm-9.944-28.908h-8.356l-.032.065 28.906-.051 7.749-.014h-7.761c-2.103-2.357-6.099-4.073-10.562-4.073-4.091 0-7.55 1.552-9.944 4.073zM243.904 38.3V24.736l-6.437-9.431h7.976l1.905 2.781 1.904-2.781h7.976l-6.437 9.43v4.356h-3.708v4.848h3.708V38.3h-6.887zm-1.78-27.844h-7.966l-6.41-9.392h7.946l6.43 9.392zm18.413 0h-7.966l6.43-9.392h7.946l-6.41 9.392z"/><path d="M6.85 55.309l-.636 5.665H4.598L5.87 51.2l3.801 6.317 3.814-6.317 1.272 9.774H13.14l-.649-5.665-2.82 4.8-2.822-4.8zm24.854 1.01c0 .639.132 1.21.397 1.716.274.497.65.887 1.126 1.17.477.284 1.02.426 1.629.426.618 0 1.16-.142 1.629-.425a2.952 2.952 0 001.112-1.17c.274-.506.41-1.078.41-1.716 0-.639-.132-1.206-.397-1.703a2.93 2.93 0 00-1.112-1.183c-.468-.284-1.015-.426-1.642-.426-.61 0-1.152.142-1.63.426a3.021 3.021 0 00-1.125 1.183c-.265.497-.397 1.064-.397 1.703zm-1.655 0c0-.7.119-1.343.357-1.928a4.46 4.46 0 011.007-1.516 4.731 4.731 0 011.536-1.01 5.035 5.035 0 011.907-.36c.697 0 1.337.12 1.92.36.583.239 1.09.576 1.523 1.01.441.426.781.931 1.02 1.516.238.586.357 1.228.357 1.929 0 .691-.119 1.334-.357 1.928a4.573 4.573 0 01-2.543 2.567 5.015 5.015 0 01-1.92.359 5.07 5.07 0 01-1.92-.36 4.72 4.72 0 01-1.537-1.023 4.675 4.675 0 01-.993-1.543 5.13 5.13 0 01-.357-1.928zm28.585 1.89l2.728-6.544h1.8l-4.528 9.828-4.53-9.828h1.802l2.728 6.543zm20.876 2.765v-1.383h4.675v1.383H79.51zm0-7.926v-1.383h4.675v1.383H79.51zm0 3.617V55.31h4.41v1.356h-4.41zm-.966-5h1.536v9.31h-1.536v-9.31zm22.477 6.317c.203.355.419.67.649.944.238.266.499.474.781.625.283.142.601.213.953.213.424 0 .769-.115 1.033-.346.265-.23.398-.527.398-.89 0-.346-.084-.621-.252-.825a1.902 1.902 0 00-.702-.532 8.703 8.703 0 00-1.019-.44 8.097 8.097 0 01-.769-.318 4.645 4.645 0 01-.807-.519 2.704 2.704 0 01-.636-.771c-.167-.31-.252-.683-.252-1.117 0-.497.129-.931.384-1.304a2.512 2.512 0 011.033-.877c.442-.213.941-.32 1.497-.32.548 0 1.024.098 1.43.293.406.195.747.443 1.02.745.283.301.503.616.662.944l-1.271.718a2.813 2.813 0 00-.437-.638 1.923 1.923 0 00-.623-.479 1.669 1.669 0 00-.808-.186c-.432 0-.75.102-.953.306a.928.928 0 00-.305.691c0 .24.071.457.212.652.151.186.38.363.689.532a8.89 8.89 0 001.205.519c.274.097.548.221.821.372.283.15.539.341.768.572.23.221.411.483.543.784.142.302.212.656.212 1.064 0 .435-.084.825-.252 1.17a2.571 2.571 0 01-.688.878c-.292.23-.623.408-.994.532a3.27 3.27 0 01-1.139.2 3.632 3.632 0 01-1.522-.32 4.113 4.113 0 01-1.206-.877 4.613 4.613 0 01-.82-1.184l1.165-.811zm40.748.599l.291-1.33h4.304l.305 1.33h-4.9zm2.423-4.283l-1.456 3.418-.027.346-1.284 2.912h-1.762l4.529-9.827 4.529 9.827h-1.761l-1.258-2.832-.04-.386-1.47-3.458zm21.102 1.875v-.77h1.497c.291 0 .547-.05.768-.147.22-.098.392-.235.516-.413.124-.186.186-.407.186-.664 0-.39-.138-.692-.411-.905-.274-.212-.627-.319-1.059-.319h-1.126v6.73h1.298c.353 0 .666-.058.94-.174.273-.115.49-.288.649-.518.159-.23.239-.519.239-.865a1.39 1.39 0 00-.146-.651 1.212 1.212 0 00-.384-.48 1.375 1.375 0 00-.57-.278 2.686 2.686 0 00-.728-.093h-1.669v-.865h1.762c.45 0 .874.049 1.271.146.397.098.75.249 1.059.453.318.203.565.465.742.784.176.32.265.7.265 1.144 0 .612-.146 1.117-.437 1.516-.283.399-.675.696-1.179.891-.495.186-1.068.28-1.721.28h-2.954v-9.31h2.795c.582 0 1.094.084 1.536.253.45.168.799.425 1.046.771.256.346.384.785.384 1.317 0 .46-.128.855-.384 1.183-.247.32-.596.563-1.046.732-.442.168-.954.252-1.536.252h-1.603zm22.958.36h1.695l3.139 4.441h-1.881l-2.953-4.441zm-1.907-4.868h1.563v9.31h-1.563v-9.31zm.927 1.357v-1.357h1.934c.671 0 1.254.12 1.748.36.503.239.892.575 1.165 1.01.274.426.411.93.411 1.516 0 .585-.137 1.095-.411 1.53a2.715 2.715 0 01-1.165 1.01c-.494.24-1.077.36-1.748.36h-1.934v-1.29h1.867c.354 0 .663-.063.927-.187.274-.124.486-.301.636-.532.151-.24.225-.523.225-.851 0-.337-.074-.62-.225-.851a1.451 1.451 0 00-.636-.532 2.157 2.157 0 00-.927-.186h-1.867zm22.378 3.298c0 .638.132 1.21.397 1.715.274.497.649.887 1.126 1.17.476.284 1.019.426 1.628.426.619 0 1.162-.142 1.629-.425a2.952 2.952 0 001.113-1.17c.274-.506.41-1.078.41-1.716 0-.639-.132-1.206-.397-1.703a2.934 2.934 0 00-1.112-1.183c-.468-.284-1.016-.426-1.643-.426-.609 0-1.152.142-1.628.426a3.022 3.022 0 00-1.126 1.183c-.265.497-.397 1.064-.397 1.703zm-1.656 0c0-.7.119-1.343.358-1.929a4.448 4.448 0 011.006-1.516 4.733 4.733 0 011.536-1.01 5.04 5.04 0 011.907-.36c.698 0 1.338.12 1.921.36.582.239 1.09.576 1.523 1.01.441.426.781.931 1.019 1.516.239.586.358 1.228.358 1.929 0 .691-.119 1.334-.358 1.928a4.56 4.56 0 01-1.006 1.543 4.728 4.728 0 01-1.536 1.024 5.016 5.016 0 01-1.921.359c-.688 0-1.328-.12-1.92-.36a4.717 4.717 0 01-1.536-1.023 4.667 4.667 0 01-.993-1.543 5.118 5.118 0 01-.358-1.928zm26.162 2.26l.291-1.33h4.304l.305 1.33h-4.9zm2.423-4.282l-1.456 3.418-.027.346-1.284 2.912h-1.762l4.529-9.827 4.53 9.827h-1.762l-1.258-2.832-.04-.386-1.47-3.458zm19.911-2.633h1.589v9.31h-1.589v-9.31zm2.992 9.31h-2.026v-1.477h1.987a3.88 3.88 0 001.271-.2 2.762 2.762 0 001.007-.598c.291-.266.516-.598.675-.997.167-.4.252-.86.252-1.383s-.085-.984-.252-1.383a2.664 2.664 0 00-.675-.998 2.762 2.762 0 00-1.007-.598 3.907 3.907 0 00-1.271-.2h-1.987v-1.476h2.026c.945 0 1.775.195 2.49.585a4.098 4.098 0 011.669 1.623c.405.691.609 1.507.609 2.447 0 .94-.204 1.76-.609 2.46a4.214 4.214 0 01-1.669 1.622c-.715.382-1.545.572-2.49.572z"/></svg><svg viewBox="0 0 230 51" id="logoWhite" xmlns="http://www.w3.org/2000/svg"><path d="M2.561 44.776l-.554 4.94H.598l1.109-8.523L5.02 46.7l3.326-5.508 1.109 8.523h-1.41l-.565-4.94-2.46 4.187-2.46-4.187zm21.674.882c0 .556.115 1.055.346 1.495.239.434.566.774.982 1.021.416.247.89.371 1.42.371.54 0 1.013-.124 1.42-.37a2.57 2.57 0 00.97-1.021c.24-.441.359-.94.359-1.496 0-.557-.116-1.052-.347-1.485a2.555 2.555 0 00-.97-1.032c-.408-.247-.885-.371-1.432-.371a2.73 2.73 0 00-1.42.371 2.634 2.634 0 00-.982 1.032c-.23.433-.346.928-.346 1.485zm-1.444 0c0-.611.104-1.172.312-1.682.208-.51.5-.95.878-1.322a4.124 4.124 0 011.34-.881 4.392 4.392 0 011.662-.313c.608 0 1.167.104 1.675.313.508.208.95.502 1.328.881.385.371.681.812.889 1.322.208.51.312 1.07.312 1.682 0 .603-.104 1.163-.312 1.681a3.987 3.987 0 01-2.217 2.238 4.367 4.367 0 01-1.675.313c-.6 0-1.158-.104-1.674-.313a4.117 4.117 0 01-1.34-.893 4.08 4.08 0 01-.866-1.345 4.473 4.473 0 01-.312-1.681zm24.927 1.646l2.379-5.705h1.57l-3.95 8.57-3.949-8.57h1.57l2.38 5.705zm18.205 2.412V48.51h4.076v1.206h-4.076zm0-6.911v-1.206h4.076v1.206h-4.076zm0 3.154v-1.183h3.846v1.183h-3.846zm-.843-4.36h1.34v8.117h-1.34V41.6zm19.6 5.508c.178.31.366.584.566.824.208.232.435.413.681.545.247.123.524.185.832.185.37 0 .67-.1.9-.301a.983.983 0 00.347-.777c0-.302-.073-.542-.22-.72a1.663 1.663 0 00-.612-.463 7.62 7.62 0 00-.889-.383c-.2-.07-.423-.162-.67-.278a4.07 4.07 0 01-.704-.453 2.36 2.36 0 01-.554-.672c-.146-.27-.22-.595-.22-.974 0-.433.112-.812.335-1.137.224-.332.524-.587.9-.765a2.97 2.97 0 011.306-.278c.478 0 .893.085 1.247.255.354.17.651.386.89.65.246.262.438.536.577.822l-1.109.627a2.426 2.426 0 00-.381-.557 1.674 1.674 0 00-.543-.417 1.457 1.457 0 00-.704-.163c-.377 0-.654.09-.832.267a.81.81 0 00-.265.603.95.95 0 00.184.568c.132.163.332.317.6.464.27.147.62.298 1.052.452.239.085.478.194.716.325.247.131.47.298.67.499.2.193.358.421.473.684.123.263.185.572.185.928a2.24 2.24 0 01-.82 1.786 2.832 2.832 0 01-.866.463 2.855 2.855 0 01-.993.174c-.477 0-.92-.092-1.328-.278a3.57 3.57 0 01-1.051-.765 4.018 4.018 0 01-.716-1.032l1.016-.708zm35.533.522l.254-1.16h3.753l.266 1.16h-4.273zm2.113-3.734l-1.27 2.98-.023.302-1.12 2.54h-1.536l3.949-8.57 3.95 8.57h-1.536l-1.097-2.47-.035-.337-1.282-3.015zm18.402 1.635v-.673h1.304c.254 0 .478-.042.67-.127.192-.085.342-.205.451-.36a1.03 1.03 0 00.161-.58c0-.34-.12-.602-.358-.788-.239-.186-.547-.278-.924-.278h-.981v5.868h1.132c.307 0 .581-.05.819-.151.239-.1.428-.252.566-.453.139-.2.208-.452.208-.753 0-.217-.042-.406-.127-.569a1.05 1.05 0 00-.335-.417 1.195 1.195 0 00-.496-.244 2.34 2.34 0 00-.635-.08h-1.455v-.755h1.535c.393 0 .763.043 1.109.128s.654.216.924.394c.277.178.492.406.647.685.153.278.231.61.231.997 0 .533-.127.974-.382 1.322a2.193 2.193 0 01-1.027.777c-.432.162-.932.243-1.502.243h-2.575V41.6h2.437c.508 0 .954.073 1.339.22.393.147.697.371.913.673.223.301.335.684.335 1.148 0 .402-.112.746-.335 1.032-.216.278-.52.49-.913.638-.385.146-.831.22-1.339.22h-1.397zm20.019.313h1.478l2.737 3.873h-1.64l-2.575-3.873zm-1.663-4.244h1.363v8.117h-1.363V41.6zm.808 1.183v-1.183h1.686c.586 0 1.094.104 1.525.313.439.209.778.502 1.016.881.239.371.358.812.358 1.322s-.119.955-.358 1.334a2.366 2.366 0 01-1.016.881c-.431.209-.939.313-1.525.313h-1.686v-1.125h1.629c.308 0 .577-.054.808-.162a1.26 1.26 0 00.554-.464c.132-.209.197-.456.197-.742 0-.294-.065-.541-.197-.742a1.259 1.259 0 00-.554-.464 1.884 1.884 0 00-.808-.162h-1.629zm19.514 2.876c0 .556.115 1.055.346 1.495.239.434.566.774.982 1.021.416.247.889.371 1.42.371.539 0 1.013-.124 1.421-.37a2.58 2.58 0 00.97-1.021 3.09 3.09 0 00.358-1.496c0-.557-.116-1.052-.347-1.485a2.553 2.553 0 00-.97-1.032c-.408-.247-.885-.371-1.432-.371-.531 0-1.004.124-1.42.371a2.636 2.636 0 00-.982 1.032c-.231.433-.346.928-.346 1.485zm-1.444 0c0-.611.104-1.172.312-1.682.208-.51.5-.95.878-1.322a4.113 4.113 0 011.339-.881 4.395 4.395 0 011.663-.313 4.36 4.36 0 011.675.313c.508.208.95.502 1.328.881.385.371.681.812.889 1.322.208.51.312 1.07.312 1.682a4.47 4.47 0 01-.312 1.681 3.98 3.98 0 01-.878 1.345 4.11 4.11 0 01-1.339.893 4.366 4.366 0 01-1.675.313c-.6 0-1.158-.104-1.674-.313a4.124 4.124 0 01-1.34-.893 4.089 4.089 0 01-.866-1.345 4.47 4.47 0 01-.312-1.681zm22.814 1.971l.254-1.16h3.753l.266 1.16h-4.273zm2.113-3.734l-1.27 2.98-.023.302-1.121 2.54h-1.535l3.949-8.57 3.949 8.57h-1.535l-1.097-2.47-.035-.337-1.282-3.015zm17.362-2.296h1.386v8.117h-1.386V41.6zm2.61 8.117h-1.767V48.43h1.732c.4 0 .77-.058 1.109-.174.338-.116.631-.29.877-.522.255-.231.451-.521.589-.87.146-.347.22-.75.22-1.205a3.09 3.09 0 00-.22-1.206 2.3 2.3 0 00-.589-.87 2.393 2.393 0 00-.877-.522 3.41 3.41 0 00-1.109-.174h-1.732V41.6h1.767c.823 0 1.547.17 2.171.51a3.576 3.576 0 011.455 1.415c.354.603.531 1.314.531 2.134 0 .819-.177 1.534-.531 2.145a3.677 3.677 0 01-1.455 1.415c-.624.332-1.348.498-2.171.498z"/><path fill-rule="evenodd" clip-rule="evenodd" d="M158.744 16.495h-5.848V12.37h5.848v4.124zm12.294 0h-6.063c.301-1.444.78-2.83 1.431-4.124h7.129a10.803 10.803 0 00-2.497 4.124zm56.964-4.124l-2.826 4.124h-6.773l2.835-4.124h6.764zm-22.497 0h6.764l2.835 4.124h-6.773l-2.826-4.124zm-8.062 0h-6.626c.579.629.997 1.313 1.216 2.024l5.848-.674a9.084 9.084 0 00-.438-1.35zm-50.824 0v4.124h-5.848V12.37h5.848zm-30.139 0v4.124h5.848V12.37h-5.848zm-7.717 0a16.823 16.823 0 011.467 4.124h-6.048a10.813 10.813 0 00-2.496-4.124h7.077zm-30.909 0a16.843 16.843 0 00-1.466 4.124h6.047a10.818 10.818 0 012.497-4.124h-7.078zm-6.373 0v2.474c0 .563-.048 1.114-.143 1.65h-6.05c.22-.53.345-1.15.345-1.875v-2.249h5.848zm-29.24 0v4.124h5.848V12.37H42.24zm-6.298 0v2.474c0 .563-.048 1.114-.142 1.65h-6.05c.22-.53.344-1.15.344-1.875v-2.249h5.848zm-29.24 4.124V12.37h5.848v4.124H6.703zm41.386 12.37H42.24V24.74h22.433l2.496 4.124H60.4l-2.37-3.899-9.942.9v2.999zm110.655 0h-5.848V24.74h5.848v4.124zm60.933 0h-5.848V24.74h5.848v4.124zm-21.796-4.124v4.124h-6.948c1.017-.667 1.55-1.2 1.55-1.2v-2.924h5.398zm-32.732 0h6.169a10.734 10.734 0 003.024 4.124h-7.533a16.527 16.527 0 01-1.66-4.124zm-18.993 0c-.261 1.5-.646 2.88-1.192 4.124h-6.943c1.135-.942 1.833-2.296 2.243-4.124h5.892zm-29.676 0v4.124h5.848V24.74h-5.848zm-6.429 0a16.633 16.633 0 01-1.697 4.124h-7.476a10.734 10.734 0 003.024-4.124h6.149zm-33.484 0c.38 1.446.948 2.835 1.697 4.124h7.475a10.733 10.733 0 01-3.023-4.124h-6.149zm-69.864 0h18.443l-12.595 1.125v2.999H6.703V24.74z"/><path fill-rule="evenodd" clip-rule="evenodd" d="M3.305 32.389V12.896h5.848V8.772H3.305V.9h29.24v7.872h-5.848V6.298H9.153v10.571l12.37-1.124c1.944-.177 4.026-.909 4.83-2.85h6.05c-.771 4.383-4.641 7.727-10.654 8.248L9.153 22.267v2.475h-3.15v4.123h3.15v3.524H3.305zm35.538 0V12.896h5.848v3.973l12.37-1.124c1.944-.177 4.026-.909 4.83-2.85h6.05a7.43 7.43 0 00.019-.114c-.57 3.494-3.105 6.343-7.12 7.642l2.614 4.319h-6.77l-2.051-3.374-9.942.9v2.474h-3.15v4.123h3.15v3.524h-5.848zm18.005-7.379l4.487 7.379h6.748l-2.133-3.524h-6.247l-2.371-3.898-.484.043zM44.69 8.772h-5.848V.9h29.24v7.872h-5.848V6.298H44.69v2.474zm32.675 19.74c-3.141-3.124-4.774-7.436-4.774-11.868 0-1.267.134-2.525.398-3.748h6.047a11.815 11.815 0 00-.597 3.748c0 3.208 1.225 6.066 3.32 8.098h-5.892a16.684 16.684 0 001.498 3.77zm.367.353c2.898 2.699 6.987 4.424 12.178 4.424 5.191 0 9.28-1.726 12.178-4.424h-1.909a10.74 10.74 0 003.023-4.123h2.045c1.31-2.462 1.982-5.255 1.982-8.098a17.717 17.717 0 00-.398-3.748h-6.047a11.81 11.81 0 01.597 3.748c0 6.298-4.723 11.247-11.47 11.247-3.082 0-5.74-1.032-7.72-2.752a10.716 10.716 0 002.849 3.726h-7.308zm3.801-20.093h-7.077C77.047 3.717 82.292 0 89.91 0c7.62 0 12.864 3.717 15.455 8.772h-7.078c-2.03-2.09-4.941-3.374-8.377-3.374-3.436 0-6.347 1.283-8.377 3.374zm46.393 23.617h-14.845V12.896h5.848v11.846h-3.149v4.123h5.848v-1.874h6.298c7.872 0 9.447-3.374 9.447-12.146v-1.95h5.848v1.95c0 3.787-.362 7.152-1.438 9.897h-2.219c-.409 1.828-1.108 3.181-2.242 4.123h1.786c-2.332 2.249-5.88 3.524-11.182 3.524zM118.93 8.772h-5.848V.9h30.14v7.872h-5.848V6.298H118.93v2.474zm30.568 23.617V12.896h5.848v11.846h-3.149v4.123h3.149v3.524h-5.848zm5.848-23.617h-5.848V.9h5.848v7.872zm10.6 19.799c-3.126-3.091-4.752-7.389-4.752-11.927 0-1.275.129-2.532.383-3.748h6.063l.052-.153a11.781 11.781 0 00-.65 3.901c0 3.208 1.226 6.066 3.32 8.098h-5.912a16.611 16.611 0 001.496 3.829zm.306.294c2.903 2.714 7.02 4.424 12.262 4.424 6.522 0 10.571-3.15 10.571-3.15v2.25h5.398v-3.524h-4.249c1.018-.667 1.55-1.2 1.55-1.2v-2.923h2.699v-9.447h-13.27v5.173h7.872v3.599s-3.824 3.824-10.571 3.824c-3.081 0-5.74-1.032-7.72-2.752a10.716 10.716 0 002.849 3.726h-7.391zm12.262-23.467c-3.436 0-6.347 1.283-8.377 3.374h17.282c-1.802-1.957-5.161-3.374-8.905-3.374zm31.918 26.991V20.918l-5.499-8.022h6.773l1.65 2.399 1.649-2.4h6.773l-5.498 8.023v3.824h-3.149v4.123h3.149v3.524h-5.848zm-1.561-23.617h-6.764L196.711.9h6.748l5.412 7.872zm15.733 0h-6.764L223.252.9H230l-5.396 7.872z"/><path fill-rule="evenodd" clip-rule="evenodd" d="M156.439 16.495h-5.848V12.37h5.848v4.124zm12.294 0h-6.063c.302-1.444.78-2.83 1.431-4.124h7.129a10.815 10.815 0 00-2.497 4.124zm56.964-4.124l-2.826 4.124h-6.773l2.835-4.124h6.764zm-22.497 0h6.764l2.835 4.124h-6.773L203.2 12.37zm-8.061 0h-6.627c.579.629.997 1.313 1.216 2.024l5.848-.674a9.195 9.195 0 00-.437-1.35zm-50.824 0v4.124h-5.848V12.37h5.848zm-30.14 0v4.124h5.848V12.37h-5.848zm-7.716 0a16.82 16.82 0 011.466 4.124h-6.047a10.826 10.826 0 00-2.497-4.124h7.078zm-30.91 0a16.843 16.843 0 00-1.466 4.124h6.048a10.82 10.82 0 012.496-4.124H75.55zm-6.373 0v2.474c0 .563-.048 1.114-.142 1.65h-6.05c.22-.53.344-1.15.344-1.875v-2.249h5.848zm-29.24 0v4.124h5.848V12.37h-5.848zm-6.298 0v2.474a9.51 9.51 0 01-.142 1.65h-6.05c.22-.53.344-1.15.344-1.875v-2.249h5.848zm-29.24 4.124V12.37h5.848v4.124H4.398zm41.386 12.37h-5.848V24.74h22.433l2.496 4.124h-6.768l-2.371-3.899-9.942.9v2.999zm110.655 0h-5.848V24.74h5.848v4.124zm60.934 0h-5.848V24.74h5.848v4.124zm-21.797-4.124v4.124h-6.948c1.018-.667 1.55-1.2 1.55-1.2v-2.924h5.398zm-32.732 0h6.17a10.721 10.721 0 003.023 4.124h-7.533a16.527 16.527 0 01-1.66-4.124zm-18.993 0c-.26 1.5-.646 2.88-1.192 4.124h-6.942c1.134-.942 1.833-2.296 2.242-4.124h5.892zm-29.676 0v4.124h5.848V24.74h-5.848zm-6.429 0a16.633 16.633 0 01-1.697 4.124h-7.475a10.736 10.736 0 003.023-4.124h6.149zm-33.483 0c.38 1.446.947 2.835 1.696 4.124h7.475a10.733 10.733 0 01-3.023-4.124h-6.148zm-69.865 0h18.444l-12.596 1.125v2.999H4.398V24.74z"/><path fill-rule="evenodd" clip-rule="evenodd" d="M1 32.389V12.896h5.848V8.772H1V.9h29.24v7.872h-5.848V6.298H6.848v10.571l12.37-1.124c1.944-.177 4.026-.909 4.83-2.85h6.05c-.771 4.383-4.641 7.727-10.654 8.248L6.848 22.267v2.475H3.699v4.123h3.149v3.524H1zm35.538 0V12.896h5.848v3.973l12.37-1.124c1.944-.177 4.026-.909 4.83-2.85h6.05l.02-.114c-.572 3.494-3.106 6.343-7.12 7.642l2.613 4.319h-6.77l-2.051-3.374-9.942.9v2.474h-3.149v4.123h3.149v3.524h-5.848zm18.005-7.379l4.487 7.379h6.748l-2.133-3.524h-6.247l-2.371-3.898-.484.043zM42.386 8.772h-5.848V.9h29.24v7.872H59.93V6.298H42.386v2.474zm32.675 19.74c-3.14-3.124-4.774-7.436-4.774-11.868 0-1.267.134-2.525.398-3.748h6.048a11.815 11.815 0 00-.598 3.748c0 3.208 1.225 6.066 3.32 8.098h-5.891a16.689 16.689 0 001.497 3.77zm.367.353c2.898 2.699 6.987 4.424 12.178 4.424 5.191 0 9.28-1.726 12.178-4.424h-1.91a10.725 10.725 0 003.024-4.123h2.045c1.311-2.462 1.982-5.255 1.982-8.098a17.72 17.72 0 00-.401-3.763l.003.015H98.48a11.81 11.81 0 01.597 3.748c0 6.298-4.723 11.247-11.47 11.247-3.082 0-5.74-1.032-7.72-2.752a10.716 10.716 0 002.849 3.726h-7.308zM79.23 8.772h-7.078C74.742 3.717 79.987 0 87.606 0c7.62 0 12.864 3.717 15.455 8.772h-7.078c-2.03-2.09-4.94-3.374-8.377-3.374-3.436 0-6.347 1.283-8.376 3.374zm46.392 23.617h-14.845V12.896h5.848v11.846h-3.149v4.123h5.848v-1.874h6.298c7.872 0 9.447-3.374 9.447-12.146v-1.95h5.848v1.95c0 3.787-.362 7.152-1.438 9.897h-2.219c-.409 1.828-1.108 3.181-2.242 4.123h1.786c-2.332 2.249-5.88 3.524-11.182 3.524zm-8.997-23.617h-5.848V.9h30.14v7.872h-5.848V6.298h-18.444v2.474zm30.568 23.617V12.896h5.848v11.846h-3.148v4.123h3.148v3.524h-5.848zm5.848-23.617h-5.848V.9h5.848v7.872zm10.6 19.799c-3.126-3.091-4.751-7.389-4.751-11.927 0-1.275.128-2.532.382-3.748h6.063l.052-.153a11.807 11.807 0 00-.649 3.901c0 3.208 1.225 6.066 3.319 8.098h-5.912a16.611 16.611 0 001.496 3.829zm.306.294c2.903 2.714 7.021 4.424 12.262 4.424 6.522 0 10.571-3.15 10.571-3.15v2.25h5.398v-3.524h-4.249c1.018-.667 1.55-1.2 1.55-1.2v-2.923h2.699v-9.447h-13.27v5.173h7.872v3.599s-3.824 3.824-10.571 3.824c-3.081 0-5.74-1.032-7.72-2.752a10.716 10.716 0 002.849 3.726h-7.391zm12.262-23.467c-3.436 0-6.347 1.283-8.377 3.374h17.282c-1.802-1.957-5.16-3.374-8.905-3.374zm31.918 26.991V20.918l-5.499-8.022h6.773l1.65 2.399 1.649-2.4h6.773l-5.498 8.023v3.824h-3.149v4.123h3.149v3.524h-5.848zm-1.561-23.617h-6.764L194.406.9h6.748l5.412 7.872zm15.733 0h-6.764L220.947.9h6.748l-5.396 7.872z"/><path fill-rule="evenodd" clip-rule="evenodd" d="M158.744 16.495h-5.848V12.37h5.848v4.124zm12.294 0h-6.063c.301-1.444.78-2.83 1.431-4.124h7.129a10.803 10.803 0 00-2.497 4.124zm56.964-4.124l-2.826 4.124h-6.773l2.835-4.124h6.764zm-22.497 0h6.764l2.835 4.124h-6.773l-2.826-4.124zm-8.062 0h-6.626c.579.629.997 1.313 1.216 2.024l5.848-.674a9.084 9.084 0 00-.438-1.35zm-50.824 0v4.124h-5.848V12.37h5.848zm-30.139 0v4.124h5.848V12.37h-5.848zm-7.717 0a16.823 16.823 0 011.467 4.124h-6.048a10.813 10.813 0 00-2.496-4.124h7.077zm-30.909 0a16.843 16.843 0 00-1.466 4.124h6.047a10.818 10.818 0 012.497-4.124h-7.078zm-6.373 0v2.474c0 .563-.048 1.114-.143 1.65h-6.05c.22-.53.345-1.15.345-1.875v-2.249h5.848zm-29.24 0v4.124h5.848V12.37H42.24zm-6.298 0v2.474c0 .563-.048 1.114-.142 1.65h-6.05c.22-.53.344-1.15.344-1.875v-2.249h5.848zm-29.24 4.124V12.37h5.848v4.124H6.703zM48.089 28.865H42.24V24.74h22.433l2.496 4.124H60.4l-2.37-3.899-9.942.9v2.999zm110.655 0h-5.848V24.74h5.848v4.124zm60.933 0h-5.848V24.74h5.848v4.124zm-21.796-4.124v4.124h-6.948c1.017-.667 1.55-1.2 1.55-1.2v-2.924h5.398zm-32.732 0h6.169a10.734 10.734 0 003.024 4.124h-7.533a16.527 16.527 0 01-1.66-4.124zm-18.993 0c-.261 1.5-.646 2.88-1.192 4.124h-6.943c1.135-.942 1.833-2.296 2.243-4.124h5.892zm-29.676 0v4.124h5.848V24.74h-5.848zm-6.429 0a16.633 16.633 0 01-1.697 4.124h-7.476a10.734 10.734 0 003.024-4.124h6.149zm-33.484 0c.38 1.446.948 2.835 1.697 4.124h7.475a10.733 10.733 0 01-3.023-4.124h-6.149zm-69.864 0h18.443l-12.595 1.125v2.999H6.703V24.74z"/><path fill-rule="evenodd" clip-rule="evenodd" d="M3.305 32.389V12.896h5.848V8.772H3.305V.9h29.24v7.872h-5.848V6.298H9.153v10.571l12.37-1.124c1.944-.177 4.026-.909 4.83-2.85h6.05c-.771 4.383-4.641 7.727-10.654 8.248L9.153 22.267v2.475h-3.15v4.123h3.15v3.524H3.305zm35.538 0V12.896h5.848v3.973l12.37-1.124c1.944-.177 4.026-.909 4.83-2.85h6.05a7.43 7.43 0 00.019-.114c-.57 3.494-3.105 6.343-7.12 7.642l2.614 4.319h-6.77l-2.051-3.374-9.942.9v2.474h-3.15v4.123h3.15v3.524h-5.848zm18.005-7.379l4.487 7.379h6.748l-2.133-3.524h-6.247l-2.371-3.898-.484.043zM44.69 8.772h-5.848V.9h29.24v7.872h-5.848V6.298H44.69v2.474zm32.675 19.74c-3.141-3.124-4.774-7.436-4.774-11.868 0-1.267.134-2.525.398-3.748h6.047a11.815 11.815 0 00-.597 3.748c0 3.208 1.225 6.066 3.32 8.098h-5.892a16.684 16.684 0 001.498 3.77zm.367.353c2.898 2.699 6.987 4.424 12.178 4.424 5.191 0 9.28-1.726 12.178-4.424h-1.909a10.74 10.74 0 003.023-4.123h2.045c1.31-2.462 1.982-5.255 1.982-8.098a17.717 17.717 0 00-.398-3.748h-6.047a11.81 11.81 0 01.597 3.748c0 6.298-4.723 11.247-11.47 11.247-3.082 0-5.74-1.032-7.72-2.752a10.716 10.716 0 002.849 3.726h-7.308zm3.801-20.093h-7.077C77.047 3.717 82.292 0 89.91 0c7.62 0 12.864 3.717 15.455 8.772h-7.078c-2.03-2.09-4.941-3.374-8.377-3.374-3.436 0-6.347 1.283-8.377 3.374zm46.393 23.617h-14.845V12.896h5.848v11.846h-3.149v4.123h5.848v-1.874h6.298c7.872 0 9.447-3.374 9.447-12.146v-1.95h5.848v1.95c0 3.787-.362 7.152-1.438 9.897h-2.219c-.409 1.828-1.108 3.181-2.242 4.123h1.786c-2.332 2.249-5.88 3.524-11.182 3.524zM118.93 8.772h-5.848V.9h30.14v7.872h-5.848V6.298H118.93v2.474zm30.568 23.617V12.896h5.848v11.846h-3.149v4.123h3.149v3.524h-5.848zm5.848-23.617h-5.848V.9h5.848v7.872zm10.6 19.799c-3.126-3.091-4.752-7.389-4.752-11.927 0-1.275.129-2.532.383-3.748h6.063l.052-.153a11.781 11.781 0 00-.65 3.901c0 3.208 1.226 6.066 3.32 8.098h-5.912a16.611 16.611 0 001.496 3.829zm.306.294c2.903 2.714 7.02 4.424 12.262 4.424 6.522 0 10.571-3.15 10.571-3.15v2.25h5.398v-3.524h-4.249c1.018-.667 1.55-1.2 1.55-1.2v-2.923h2.699v-9.447h-13.27v5.173h7.872v3.599s-3.824 3.824-10.571 3.824c-3.081 0-5.74-1.032-7.72-2.752a10.716 10.716 0 002.849 3.726h-7.391zm12.262-23.467c-3.436 0-6.347 1.283-8.377 3.374h17.282c-1.802-1.957-5.161-3.374-8.905-3.374zm31.918 26.991V20.918l-5.499-8.022h6.773l1.65 2.399 1.649-2.4h6.773l-5.498 8.023v3.824h-3.149v4.123h3.149v3.524h-5.848zm-1.561-23.617h-6.764L196.711.9h6.748l5.412 7.872zm15.733 0h-6.764L223.252.9H230l-5.396 7.872z"/><path fill-rule="evenodd" clip-rule="evenodd" d="M156.439 16.495h-5.848V12.37h5.848v4.124zm12.294 0h-6.063c.302-1.444.78-2.83 1.431-4.124h7.129a10.815 10.815 0 00-2.497 4.124zm56.964-4.124l-2.826 4.124h-6.773l2.835-4.124h6.764zm-22.497 0h6.764l2.835 4.124h-6.773L203.2 12.37zm-8.061 0h-6.627c.579.629.997 1.313 1.216 2.024l5.848-.674a9.195 9.195 0 00-.437-1.35zm-50.824 0v4.124h-5.848V12.37h5.848zm-30.14 0v4.124h5.848V12.37h-5.848zm-7.716 0a16.82 16.82 0 011.466 4.124h-6.047a10.826 10.826 0 00-2.497-4.124h7.078zm-30.91 0a16.843 16.843 0 00-1.466 4.124h6.048a10.82 10.82 0 012.496-4.124H75.55zm-6.373 0v2.474c0 .563-.048 1.114-.142 1.65h-6.05c.22-.53.344-1.15.344-1.875v-2.249h5.848zm-29.24 0v4.124h5.848V12.37h-5.848zm-6.298 0v2.474a9.51 9.51 0 01-.142 1.65h-6.05c.22-.53.344-1.15.344-1.875v-2.249h5.848zm-29.24 4.124V12.37h5.848v4.124H4.398zM45.784 28.865h-5.848V24.74h22.433l2.496 4.124h-6.768l-2.371-3.899-9.942.9v2.999zm110.655 0h-5.848V24.74h5.848v4.124zm60.934 0h-5.848V24.74h5.848v4.124zm-21.797-4.124v4.124h-6.948c1.018-.667 1.55-1.2 1.55-1.2v-2.924h5.398zm-32.732 0h6.17a10.721 10.721 0 003.023 4.124h-7.533a16.527 16.527 0 01-1.66-4.124zm-18.993 0c-.26 1.5-.646 2.88-1.192 4.124h-6.942c1.134-.942 1.833-2.296 2.242-4.124h5.892zm-29.676 0v4.124h5.848V24.74h-5.848zm-6.429 0a16.633 16.633 0 01-1.697 4.124h-7.475a10.736 10.736 0 003.023-4.124h6.149zm-33.483 0c.38 1.446.947 2.835 1.696 4.124h7.475a10.733 10.733 0 01-3.023-4.124h-6.148zm-69.865 0h18.444l-12.596 1.125v2.999H4.398V24.74z"/><path fill-rule="evenodd" clip-rule="evenodd" d="M1 32.389V12.896h5.848V8.772H1V.9h29.24v7.872h-5.848V6.298H6.848v10.571l12.37-1.124c1.944-.177 4.026-.909 4.83-2.85h6.05c-.771 4.383-4.641 7.727-10.654 8.248L6.848 22.267v2.475H3.699v4.123h3.149v3.524H1zm35.538 0V12.896h5.848v3.973l12.37-1.124c1.944-.177 4.026-.909 4.83-2.85h6.05l.02-.114c-.572 3.494-3.106 6.343-7.12 7.642l2.613 4.319h-6.77l-2.051-3.374-9.942.9v2.474h-3.149v4.123h3.149v3.524h-5.848zm18.005-7.379l4.487 7.379h6.748l-2.133-3.524h-6.247l-2.371-3.898-.484.043zM42.386 8.772h-5.848V.9h29.24v7.872H59.93V6.298H42.386v2.474zm32.675 19.74c-3.14-3.124-4.774-7.436-4.774-11.868 0-1.267.134-2.525.398-3.748h6.048a11.815 11.815 0 00-.598 3.748c0 3.208 1.225 6.066 3.32 8.098h-5.891a16.689 16.689 0 001.497 3.77zm.367.353c2.898 2.699 6.987 4.424 12.178 4.424 5.191 0 9.28-1.726 12.178-4.424h-1.91a10.725 10.725 0 003.024-4.123h2.045c1.311-2.462 1.982-5.255 1.982-8.098a17.72 17.72 0 00-.401-3.763l.003.015H98.48a11.81 11.81 0 01.597 3.748c0 6.298-4.723 11.247-11.47 11.247-3.082 0-5.74-1.032-7.72-2.752a10.716 10.716 0 002.849 3.726h-7.308zM79.23 8.772h-7.078C74.742 3.717 79.987 0 87.606 0c7.62 0 12.864 3.717 15.455 8.772h-7.078c-2.03-2.09-4.94-3.374-8.377-3.374-3.436 0-6.347 1.283-8.376 3.374zm46.392 23.617h-14.845V12.896h5.848v11.846h-3.149v4.123h5.848v-1.874h6.298c7.872 0 9.447-3.374 9.447-12.146v-1.95h5.848v1.95c0 3.787-.362 7.152-1.438 9.897h-2.219c-.409 1.828-1.108 3.181-2.242 4.123h1.786c-2.332 2.249-5.88 3.524-11.182 3.524zm-8.997-23.617h-5.848V.9h30.14v7.872h-5.848V6.298h-18.444v2.474zm30.568 23.617V12.896h5.848v11.846h-3.148v4.123h3.148v3.524h-5.848zm5.848-23.617h-5.848V.9h5.848v7.872zm10.6 19.799c-3.126-3.091-4.751-7.389-4.751-11.927 0-1.275.128-2.532.382-3.748h6.063l.052-.153a11.807 11.807 0 00-.649 3.901c0 3.208 1.225 6.066 3.319 8.098h-5.912a16.611 16.611 0 001.496 3.829zm.306.294c2.903 2.714 7.021 4.424 12.262 4.424 6.522 0 10.571-3.15 10.571-3.15v2.25h5.398v-3.524h-4.249c1.018-.667 1.55-1.2 1.55-1.2v-2.923h2.699v-9.447h-13.27v5.173h7.872v3.599s-3.824 3.824-10.571 3.824c-3.081 0-5.74-1.032-7.72-2.752a10.716 10.716 0 002.849 3.726h-7.391zm12.262-23.467c-3.436 0-6.347 1.283-8.377 3.374h17.282c-1.802-1.957-5.16-3.374-8.905-3.374zm31.918 26.991V20.918l-5.499-8.022h6.773l1.65 2.399 1.649-2.4h6.773l-5.498 8.023v3.824h-3.149v4.123h3.149v3.524h-5.848zm-1.561-23.617h-6.764L194.406.9h6.748l5.412 7.872zm15.733 0h-6.764L220.947.9h6.748l-5.396 7.872z"/></svg><svg viewBox="0 0 32 32" id="logout" xmlns="http://www.w3.org/2000/svg"><path d="M7.487 26.667c-.614 0-1.126-.206-1.536-.616-.412-.412-.618-.924-.618-1.538V7.487c0-.614.206-1.126.618-1.536.41-.412.922-.618 1.536-.618h8.538v1.334H7.487c-.205 0-.393.085-.564.256-.171.171-.256.36-.256.564v17.026c0 .205.085.393.256.564.171.171.36.256.564.256h8.538v1.334H7.487zm14.462-5.95l-.936-.958 3.092-3.092H12.256v-1.334h11.85l-3.094-3.093.937-.957L26.667 16l-4.718 4.717z"/></svg><svg viewBox="0 0 32 32" id="user" xmlns="http://www.w3.org/2000/svg"><path d="M16 15.18c-1.1 0-2.041-.392-2.825-1.176-.784-.784-1.176-1.725-1.175-2.824 0-1.1.392-2.043 1.175-2.827.783-.782 1.724-1.173 2.825-1.173 1.1 0 2.042.391 2.825 1.173C19.608 9.137 20 10.08 20 11.18c0 1.1-.392 2.04-1.175 2.824-.783.783-1.725 1.175-2.825 1.176zm-9.333 9.64v-2.193c0-.55.16-1.065.48-1.544a3.23 3.23 0 011.293-1.118 18.902 18.902 0 013.777-1.357A16.168 16.168 0 0116 18.155c1.262 0 2.523.15 3.783.453a19.01 19.01 0 013.776 1.357c.542.265.973.638 1.293 1.118.32.479.481.994.481 1.544v2.194H6.667zM8 23.487h16v-.862c0-.295-.095-.573-.285-.833a2.31 2.31 0 00-.792-.659 16.879 16.879 0 00-3.395-1.22 14.858 14.858 0 00-7.056 0 16.884 16.884 0 00-3.395 1.22c-.337.18-.601.4-.792.66a1.39 1.39 0 00-.285.834v.86zm8-9.64c.733 0 1.361-.262 1.884-.784.523-.523.784-1.15.783-1.883 0-.733-.261-1.361-.783-1.884A2.562 2.562 0 0016 8.513a2.57 2.57 0 00-1.883.783 2.573 2.573 0 00-.784 1.884c0 .733.262 1.36.784 1.883.523.521 1.15.783 1.883.784z"/></svg></svg>